  0
SECTION
  2
HEADER
  9
$ACADVER
  1
AC1009
  9
$FILLMODE
 70
 0
  9
$SPLFRAME
 70
 1
  9
$EXTMIN
 10
0
 20
0
 30
0.0
  9
$EXTMAX
 10
1058.33
 20
1058.33
 30
0.0
  0
ENDSEC
  0
SECTION
  2
TABLES
  0
TABLE
  2
LAYER
 70
1
  0
LAYER
  2
0
 70
     0
 62
     7
  6
CONTINUOUS
  0
ENDTAB
  0
ENDSEC
  0
SECTION
  2
ENTITIES
  0
LINE
  8
0
 62
     0
 10
184.208
 20
144.191
 30
0.0
 11
184.522
 21
144.179
 31
0.0
  0
LINE
  8
0
 62
     0
 10
184.522
 20
144.179
 30
0.0
 11
184.835
 21
144.141
 31
0.0
  0
LINE
  8
0
 62
     0
 10
184.835
 20
144.141
 30
0.0
 11
185.142
 21
144.081
 31
0.0
  0
LINE
  8
0
 62
     0
 10
185.142
 20
144.081
 30
0.0
 11
185.444
 21
143.995
 31
0.0
  0
LINE
  8
0
 62
     0
 10
185.444
 20
143.995
 30
0.0
 11
185.739
 21
143.886
 31
0.0
  0
LINE
  8
0
 62
     0
 10
185.739
 20
143.886
 30
0.0
 11
186.024
 21
143.756
 31
0.0
  0
LINE
  8
0
 62
     0
 10
186.024
 20
143.756
 30
0.0
 11
186.298
 21
143.601
 31
0.0
  0
LINE
  8
0
 62
     0
 10
186.298
 20
143.601
 30
0.0
 11
186.559
 21
143.427
 31
0.0
  0
LINE
  8
0
 62
     0
 10
186.559
 20
143.427
 30
0.0
 11
186.807
 21
143.233
 31
0.0
  0
LINE
  8
0
 62
     0
 10
186.807
 20
143.233
 30
0.0
 11
187.037
 21
143.02
 31
0.0
  0
LINE
  8
0
 62
     0
 10
187.037
 20
143.02
 30
0.0
 11
187.251
 21
142.788
 31
0.0
  0
LINE
  8
0
 62
     0
 10
187.251
 20
142.788
 30
0.0
 11
187.445
 21
142.543
 31
0.0
  0
LINE
  8
0
 62
     0
 10
187.445
 20
142.543
 30
0.0
 11
187.62
 21
142.281
 31
0.0
  0
LINE
  8
0
 62
     0
 10
187.62
 20
142.281
 30
0.0
 11
187.773
 21
142.007
 31
0.0
  0
LINE
  8
0
 62
     0
 10
187.773
 20
142.007
 30
0.0
 11
187.905
 21
141.721
 31
0.0
  0
LINE
  8
0
 62
     0
 10
187.905
 20
141.721
 30
0.0
 11
188.013
 21
141.428
 31
0.0
  0
LINE
  8
0
 62
     0
 10
188.013
 20
141.428
 30
0.0
 11
188.098
 21
141.125
 31
0.0
  0
LINE
  8
0
 62
     0
 10
188.098
 20
141.125
 30
0.0
 11
188.16
 21
140.816
 31
0.0
  0
LINE
  8
0
 62
     0
 10
188.16
 20
140.816
 30
0.0
 11
188.196
 21
140.505
 31
0.0
  0
LINE
  8
0
 62
     0
 10
188.196
 20
140.505
 30
0.0
 11
188.208
 21
140.191
 31
0.0
  0
LINE
  8
0
 62
     0
 10
188.208
 20
140.191
 30
0.0
 11
188.208
 21
4.36425
 31
0.0
  0
LINE
  8
0
 62
     0
 10
188.208
 20
4.36425
 30
0.0
 11
188.196
 21
4.05144
 31
0.0
  0
LINE
  8
0
 62
     0
 10
188.196
 20
4.05144
 30
0.0
 11
188.16
 21
3.74001
 31
0.0
  0
LINE
  8
0
 62
     0
 10
188.16
 20
3.74001
 30
0.0
 11
188.098
 21
3.43131
 31
0.0
  0
LINE
  8
0
 62
     0
 10
188.098
 20
3.43131
 30
0.0
 11
188.013
 21
3.12815
 31
0.0
  0
LINE
  8
0
 62
     0
 10
188.013
 20
3.12815
 30
0.0
 11
187.905
 21
2.83463
 31
0.0
  0
LINE
  8
0
 62
     0
 10
187.905
 20
2.83463
 30
0.0
 11
187.773
 21
2.54937
 31
0.0
  0
LINE
  8
0
 62
     0
 10
187.773
 20
2.54937
 30
0.0
 11
187.62
 21
2.27514
 31
0.0
  0
LINE
  8
0
 62
     0
 10
187.62
 20
2.27514
 30
0.0
 11
187.445
 21
2.01331
 31
0.0
  0
LINE
  8
0
 62
     0
 10
187.445
 20
2.01331
 30
0.0
 11
187.251
 21
1.76802
 31
0.0
  0
LINE
  8
0
 62
     0
 10
187.251
 20
1.76802
 30
0.0
 11
187.037
 21
1.53651
 31
0.0
  0
LINE
  8
0
 62
     0
 10
187.037
 20
1.53651
 30
0.0
 11
186.807
 21
1.3243
 31
0.0
  0
LINE
  8
0
 62
     0
 10
186.807
 20
1.3243
 30
0.0
 11
186.559
 21
1.12861
 31
0.0
  0
LINE
  8
0
 62
     0
 10
186.559
 20
1.12861
 30
0.0
 11
186.298
 21
0.95498
 31
0.0
  0
LINE
  8
0
 62
     0
 10
186.298
 20
0.95498
 30
0.0
 11
186.024
 21
0.80064
 31
0.0
  0
LINE
  8
0
 62
     0
 10
186.024
 20
0.80064
 30
0.0
 11
185.739
 21
0.669727
 31
0.0
  0
LINE
  8
0
 62
     0
 10
185.739
 20
0.669727
 30
0.0
 11
185.444
 21
0.56086
 31
0.0
  0
LINE
  8
0
 62
     0
 10
185.444
 20
0.56086
 30
0.0
 11
185.142
 21
0.475424
 31
0.0
  0
LINE
  8
0
 62
     0
 10
185.142
 20
0.475424
 30
0.0
 11
184.835
 21
0.414789
 31
0.0
  0
LINE
  8
0
 62
     0
 10
184.835
 20
0.414789
 30
0.0
 11
184.522
 21
0.377582
 31
0.0
  0
LINE
  8
0
 62
     0
 10
184.522
 20
0.377582
 30
0.0
 11
184.208
 21
0.365181
 31
0.0
  0
LINE
  8
0
 62
     0
 10
184.208
 20
0.365181
 30
0.0
 11
4.09554
 21
0.365181
 31
0.0
  0
LINE
  8
0
 62
     0
 10
4.09554
 20
0.365181
 30
0.0
 11
3.78135
 21
0.377582
 31
0.0
  0
LINE
  8
0
 62
     0
 10
3.78135
 20
0.377582
 30
0.0
 11
3.4699
 21
0.414789
 31
0.0
  0
LINE
  8
0
 62
     0
 10
3.4699
 20
0.414789
 30
0.0
 11
3.16122
 21
0.475424
 31
0.0
  0
LINE
  8
0
 62
     0
 10
3.16122
 20
0.475424
 30
0.0
 11
2.85805
 21
0.56086
 31
0.0
  0
LINE
  8
0
 62
     0
 10
2.85805
 20
0.56086
 30
0.0
 11
2.56453
 21
0.669727
 31
0.0
  0
LINE
  8
0
 62
     0
 10
2.56453
 20
0.669727
 30
0.0
 11
2.27928
 21
0.80064
 31
0.0
  0
LINE
  8
0
 62
     0
 10
2.27928
 20
0.80064
 30
0.0
 11
2.00504
 21
0.95498
 31
0.0
  0
LINE
  8
0
 62
     0
 10
2.00504
 20
0.95498
 30
0.0
 11
1.74322
 21
1.12861
 31
0.0
  0
LINE
  8
0
 62
     0
 10
1.74322
 20
1.12861
 30
0.0
 11
1.49793
 21
1.3243
 31
0.0
  0
LINE
  8
0
 62
     0
 10
1.49793
 20
1.3243
 30
0.0
 11
1.26642
 21
1.53651
 31
0.0
  0
LINE
  8
0
 62
     0
 10
1.26642
 20
1.53651
 30
0.0
 11
1.05282
 21
1.76802
 31
0.0
  0
LINE
  8
0
 62
     0
 10
1.05282
 20
1.76802
 30
0.0
 11
0.858516
 21
2.01331
 31
0.0
  0
LINE
  8
0
 62
     0
 10
0.858516
 20
2.01331
 30
0.0
 11
0.684886
 21
2.27514
 31
0.0
  0
LINE
  8
0
 62
     0
 10
0.684886
 20
2.27514
 30
0.0
 11
0.530546
 21
2.54937
 31
0.0
  0
LINE
  8
0
 62
     0
 10
0.530546
 20
2.54937
 30
0.0
 11
0.39963
 21
2.83463
 31
0.0
  0
LINE
  8
0
 62
     0
 10
0.39963
 20
2.83463
 30
0.0
 11
0.290766
 21
3.12815
 31
0.0
  0
LINE
  8
0
 62
     0
 10
0.290766
 20
3.12815
 30
0.0
 11
0.205328
 21
3.43131
 31
0.0
  0
LINE
  8
0
 62
     0
 10
0.205328
 20
3.43131
 30
0.0
 11
0.144694
 21
3.74001
 31
0.0
  0
LINE
  8
0
 62
     0
 10
0.144694
 20
3.74001
 30
0.0
 11
0.107487
 21
4.05144
 31
0.0
  0
LINE
  8
0
 62
     0
 10
0.107487
 20
4.05144
 30
0.0
 11
0.0950846
 21
4.36425
 31
0.0
  0
LINE
  8
0
 62
     0
 10
0.0950846
 20
4.36425
 30
0.0
 11
0.0950846
 21
140.191
 31
0.0
  0
LINE
  8
0
 62
     0
 10
0.0950846
 20
140.191
 30
0.0
 11
0.107487
 21
140.505
 31
0.0
  0
LINE
  8
0
 62
     0
 10
0.107487
 20
140.505
 30
0.0
 11
0.144694
 21
140.816
 31
0.0
  0
LINE
  8
0
 62
     0
 10
0.144694
 20
140.816
 30
0.0
 11
0.205328
 21
141.125
 31
0.0
  0
LINE
  8
0
 62
     0
 10
0.205328
 20
141.125
 30
0.0
 11
0.290766
 21
141.428
 31
0.0
  0
LINE
  8
0
 62
     0
 10
0.290766
 20
141.428
 30
0.0
 11
0.39963
 21
141.721
 31
0.0
  0
LINE
  8
0
 62
     0
 10
0.39963
 20
141.721
 30
0.0
 11
0.530546
 21
142.007
 31
0.0
  0
LINE
  8
0
 62
     0
 10
0.530546
 20
142.007
 30
0.0
 11
0.684886
 21
142.281
 31
0.0
  0
LINE
  8
0
 62
     0
 10
0.684886
 20
142.281
 30
0.0
 11
0.858516
 21
142.543
 31
0.0
  0
LINE
  8
0
 62
     0
 10
0.858516
 20
142.543
 30
0.0
 11
1.05282
 21
142.788
 31
0.0
  0
LINE
  8
0
 62
     0
 10
1.05282
 20
142.788
 30
0.0
 11
1.26642
 21
143.02
 31
0.0
  0
LINE
  8
0
 62
     0
 10
1.26642
 20
143.02
 30
0.0
 11
1.49793
 21
143.233
 31
0.0
  0
LINE
  8
0
 62
     0
 10
1.49793
 20
143.233
 30
0.0
 11
1.74322
 21
143.427
 31
0.0
  0
LINE
  8
0
 62
     0
 10
1.74322
 20
143.427
 30
0.0
 11
2.00504
 21
143.601
 31
0.0
  0
LINE
  8
0
 62
     0
 10
2.00504
 20
143.601
 30
0.0
 11
2.27928
 21
143.756
 31
0.0
  0
LINE
  8
0
 62
     0
 10
2.27928
 20
143.756
 30
0.0
 11
2.56453
 21
143.886
 31
0.0
  0
LINE
  8
0
 62
     0
 10
2.56453
 20
143.886
 30
0.0
 11
2.85805
 21
143.995
 31
0.0
  0
LINE
  8
0
 62
     0
 10
2.85805
 20
143.995
 30
0.0
 11
3.16122
 21
144.081
 31
0.0
  0
LINE
  8
0
 62
     0
 10
3.16122
 20
144.081
 30
0.0
 11
3.4699
 21
144.141
 31
0.0
  0
LINE
  8
0
 62
     0
 10
3.4699
 20
144.141
 30
0.0
 11
3.78135
 21
144.179
 31
0.0
  0
LINE
  8
0
 62
     0
 10
3.78135
 20
144.179
 30
0.0
 11
4.09554
 21
144.191
 31
0.0
  0
LINE
  8
0
 62
     0
 10
4.09554
 20
144.191
 30
0.0
 11
184.208
 21
144.191
 31
0.0
  0
LINE
  8
0
 62
     0
 10
183.59
 20
6.26731
 30
0.0
 11
183.032
 21
5.98343
 31
0.0
  0
LINE
  8
0
 62
     0
 10
183.032
 20
5.98343
 30
0.0
 11
182.59
 21
5.54108
 31
0.0
  0
LINE
  8
0
 62
     0
 10
182.59
 20
5.54108
 30
0.0
 11
182.306
 21
4.98299
 31
0.0
  0
LINE
  8
0
 62
     0
 10
182.306
 20
4.98299
 30
0.0
 11
182.208
 21
4.36425
 31
0.0
  0
LINE
  8
0
 62
     0
 10
182.208
 20
4.36425
 30
0.0
 11
182.306
 21
3.74689
 31
0.0
  0
LINE
  8
0
 62
     0
 10
182.306
 20
3.74689
 30
0.0
 11
182.59
 21
3.19016
 31
0.0
  0
LINE
  8
0
 62
     0
 10
182.59
 20
3.19016
 30
0.0
 11
183.032
 21
2.74643
 31
0.0
  0
LINE
  8
0
 62
     0
 10
183.032
 20
2.74643
 30
0.0
 11
183.59
 21
2.46255
 31
0.0
  0
LINE
  8
0
 62
     0
 10
183.59
 20
2.46255
 30
0.0
 11
184.208
 21
2.36472
 31
0.0
  0
LINE
  8
0
 62
     0
 10
184.208
 20
2.36472
 30
0.0
 11
184.827
 21
2.46255
 31
0.0
  0
LINE
  8
0
 62
     0
 10
184.827
 20
2.46255
 30
0.0
 11
185.385
 21
2.74643
 31
0.0
  0
LINE
  8
0
 62
     0
 10
185.385
 20
2.74643
 30
0.0
 11
185.827
 21
3.19016
 31
0.0
  0
LINE
  8
0
 62
     0
 10
185.827
 20
3.19016
 30
0.0
 11
186.111
 21
3.74689
 31
0.0
  0
LINE
  8
0
 62
     0
 10
186.111
 20
3.74689
 30
0.0
 11
186.209
 21
4.36425
 31
0.0
  0
LINE
  8
0
 62
     0
 10
186.209
 20
4.36425
 30
0.0
 11
186.111
 21
4.98299
 31
0.0
  0
LINE
  8
0
 62
     0
 10
186.111
 20
4.98299
 30
0.0
 11
185.827
 21
5.54108
 31
0.0
  0
LINE
  8
0
 62
     0
 10
185.827
 20
5.54108
 30
0.0
 11
185.385
 21
5.98343
 31
0.0
  0
LINE
  8
0
 62
     0
 10
185.385
 20
5.98343
 30
0.0
 11
184.827
 21
6.26731
 31
0.0
  0
LINE
  8
0
 62
     0
 10
184.827
 20
6.26731
 30
0.0
 11
184.208
 21
6.36517
 31
0.0
  0
LINE
  8
0
 62
     0
 10
184.208
 20
6.36517
 30
0.0
 11
183.59
 21
6.26731
 31
0.0
  0
LINE
  8
0
 62
     0
 10
93.533
 20
6.26731
 30
0.0
 11
92.9763
 21
5.98343
 31
0.0
  0
LINE
  8
0
 62
     0
 10
92.9763
 20
5.98343
 30
0.0
 11
92.534
 21
5.54108
 31
0.0
  0
LINE
  8
0
 62
     0
 10
92.534
 20
5.54108
 30
0.0
 11
92.25
 21
4.98299
 31
0.0
  0
LINE
  8
0
 62
     0
 10
92.25
 20
4.98299
 30
0.0
 11
92.1523
 21
4.36425
 31
0.0
  0
LINE
  8
0
 62
     0
 10
92.1523
 20
4.36425
 30
0.0
 11
92.25
 21
3.74689
 31
0.0
  0
LINE
  8
0
 62
     0
 10
92.25
 20
3.74689
 30
0.0
 11
92.534
 21
3.19016
 31
0.0
  0
LINE
  8
0
 62
     0
 10
92.534
 20
3.19016
 30
0.0
 11
92.9763
 21
2.74643
 31
0.0
  0
LINE
  8
0
 62
     0
 10
92.9763
 20
2.74643
 30
0.0
 11
93.533
 21
2.46255
 31
0.0
  0
LINE
  8
0
 62
     0
 10
93.533
 20
2.46255
 30
0.0
 11
94.1518
 21
2.36472
 31
0.0
  0
LINE
  8
0
 62
     0
 10
94.1518
 20
2.36472
 30
0.0
 11
94.7692
 21
2.46255
 31
0.0
  0
LINE
  8
0
 62
     0
 10
94.7692
 20
2.46255
 30
0.0
 11
95.3273
 21
2.74643
 31
0.0
  0
LINE
  8
0
 62
     0
 10
95.3273
 20
2.74643
 30
0.0
 11
95.7696
 21
3.19016
 31
0.0
  0
LINE
  8
0
 62
     0
 10
95.7696
 20
3.19016
 30
0.0
 11
96.0533
 21
3.74689
 31
0.0
  0
LINE
  8
0
 62
     0
 10
96.0533
 20
3.74689
 30
0.0
 11
96.1513
 21
4.36425
 31
0.0
  0
LINE
  8
0
 62
     0
 10
96.1513
 20
4.36425
 30
0.0
 11
96.0533
 21
4.98299
 31
0.0
  0
LINE
  8
0
 62
     0
 10
96.0533
 20
4.98299
 30
0.0
 11
95.7696
 21
5.54108
 31
0.0
  0
LINE
  8
0
 62
     0
 10
95.7696
 20
5.54108
 30
0.0
 11
95.3273
 21
5.98343
 31
0.0
  0
LINE
  8
0
 62
     0
 10
95.3273
 20
5.98343
 30
0.0
 11
94.7692
 21
6.26731
 31
0.0
  0
LINE
  8
0
 62
     0
 10
94.7692
 20
6.26731
 30
0.0
 11
94.1518
 21
6.36517
 31
0.0
  0
LINE
  8
0
 62
     0
 10
94.1518
 20
6.36517
 30
0.0
 11
93.533
 21
6.26731
 31
0.0
  0
LINE
  8
0
 62
     0
 10
3.47679
 20
6.26731
 30
0.0
 11
2.92006
 21
5.98343
 31
0.0
  0
LINE
  8
0
 62
     0
 10
2.92006
 20
5.98343
 30
0.0
 11
2.47633
 21
5.54108
 31
0.0
  0
LINE
  8
0
 62
     0
 10
2.47633
 20
5.54108
 30
0.0
 11
2.19246
 21
4.98299
 31
0.0
  0
LINE
  8
0
 62
     0
 10
2.19246
 20
4.98299
 30
0.0
 11
2.09462
 21
4.36425
 31
0.0
  0
LINE
  8
0
 62
     0
 10
2.09462
 20
4.36425
 30
0.0
 11
2.19246
 21
3.74689
 31
0.0
  0
LINE
  8
0
 62
     0
 10
2.19246
 20
3.74689
 30
0.0
 11
2.47633
 21
3.19016
 31
0.0
  0
LINE
  8
0
 62
     0
 10
2.47633
 20
3.19016
 30
0.0
 11
2.92006
 21
2.74643
 31
0.0
  0
LINE
  8
0
 62
     0
 10
2.92006
 20
2.74643
 30
0.0
 11
3.47679
 21
2.46255
 31
0.0
  0
LINE
  8
0
 62
     0
 10
3.47679
 20
2.46255
 30
0.0
 11
4.09554
 21
2.36472
 31
0.0
  0
LINE
  8
0
 62
     0
 10
4.09554
 20
2.36472
 30
0.0
 11
4.7129
 21
2.46255
 31
0.0
  0
LINE
  8
0
 62
     0
 10
4.7129
 20
2.46255
 30
0.0
 11
5.27099
 21
2.74643
 31
0.0
  0
LINE
  8
0
 62
     0
 10
5.27099
 20
2.74643
 30
0.0
 11
5.71334
 21
3.19016
 31
0.0
  0
LINE
  8
0
 62
     0
 10
5.71334
 20
3.19016
 30
0.0
 11
5.99722
 21
3.74689
 31
0.0
  0
LINE
  8
0
 62
     0
 10
5.99722
 20
3.74689
 30
0.0
 11
6.09505
 21
4.36425
 31
0.0
  0
LINE
  8
0
 62
     0
 10
6.09505
 20
4.36425
 30
0.0
 11
5.99722
 21
4.98299
 31
0.0
  0
LINE
  8
0
 62
     0
 10
5.99722
 20
4.98299
 30
0.0
 11
5.71334
 21
5.54108
 31
0.0
  0
LINE
  8
0
 62
     0
 10
5.71334
 20
5.54108
 30
0.0
 11
5.27099
 21
5.98343
 31
0.0
  0
LINE
  8
0
 62
     0
 10
5.27099
 20
5.98343
 30
0.0
 11
4.7129
 21
6.26731
 31
0.0
  0
LINE
  8
0
 62
     0
 10
4.7129
 20
6.26731
 30
0.0
 11
4.09554
 21
6.36517
 31
0.0
  0
LINE
  8
0
 62
     0
 10
4.09554
 20
6.36517
 30
0.0
 11
3.47679
 21
6.26731
 31
0.0
  0
LINE
  8
0
 62
     0
 10
93.533
 20
142.094
 30
0.0
 11
92.9763
 21
141.81
 31
0.0
  0
LINE
  8
0
 62
     0
 10
92.9763
 20
141.81
 30
0.0
 11
92.534
 21
141.366
 31
0.0
  0
LINE
  8
0
 62
     0
 10
92.534
 20
141.366
 30
0.0
 11
92.25
 21
140.809
 31
0.0
  0
LINE
  8
0
 62
     0
 10
92.25
 20
140.809
 30
0.0
 11
92.1523
 21
140.191
 31
0.0
  0
LINE
  8
0
 62
     0
 10
92.1523
 20
140.191
 30
0.0
 11
92.25
 21
139.573
 31
0.0
  0
LINE
  8
0
 62
     0
 10
92.25
 20
139.573
 30
0.0
 11
92.534
 21
139.015
 31
0.0
  0
LINE
  8
0
 62
     0
 10
92.534
 20
139.015
 30
0.0
 11
92.9763
 21
138.573
 31
0.0
  0
LINE
  8
0
 62
     0
 10
92.9763
 20
138.573
 30
0.0
 11
93.533
 21
138.289
 31
0.0
  0
LINE
  8
0
 62
     0
 10
93.533
 20
138.289
 30
0.0
 11
94.1518
 21
138.191
 31
0.0
  0
LINE
  8
0
 62
     0
 10
94.1518
 20
138.191
 30
0.0
 11
94.7692
 21
138.289
 31
0.0
  0
LINE
  8
0
 62
     0
 10
94.7692
 20
138.289
 30
0.0
 11
95.3273
 21
138.573
 31
0.0
  0
LINE
  8
0
 62
     0
 10
95.3273
 20
138.573
 30
0.0
 11
95.7696
 21
139.015
 31
0.0
  0
LINE
  8
0
 62
     0
 10
95.7696
 20
139.015
 30
0.0
 11
96.0533
 21
139.573
 31
0.0
  0
LINE
  8
0
 62
     0
 10
96.0533
 20
139.573
 30
0.0
 11
96.1513
 21
140.191
 31
0.0
  0
LINE
  8
0
 62
     0
 10
96.1513
 20
140.191
 30
0.0
 11
96.0533
 21
140.809
 31
0.0
  0
LINE
  8
0
 62
     0
 10
96.0533
 20
140.809
 30
0.0
 11
95.7696
 21
141.366
 31
0.0
  0
LINE
  8
0
 62
     0
 10
95.7696
 20
141.366
 30
0.0
 11
95.3273
 21
141.81
 31
0.0
  0
LINE
  8
0
 62
     0
 10
95.3273
 20
141.81
 30
0.0
 11
94.7692
 21
142.094
 31
0.0
  0
LINE
  8
0
 62
     0
 10
94.7692
 20
142.094
 30
0.0
 11
94.1518
 21
142.19
 31
0.0
  0
LINE
  8
0
 62
     0
 10
94.1518
 20
142.19
 30
0.0
 11
93.533
 21
142.094
 31
0.0
  0
LINE
  8
0
 62
     0
 10
183.59
 20
142.094
 30
0.0
 11
183.032
 21
141.81
 31
0.0
  0
LINE
  8
0
 62
     0
 10
183.032
 20
141.81
 30
0.0
 11
182.59
 21
141.366
 31
0.0
  0
LINE
  8
0
 62
     0
 10
182.59
 20
141.366
 30
0.0
 11
182.306
 21
140.809
 31
0.0
  0
LINE
  8
0
 62
     0
 10
182.306
 20
140.809
 30
0.0
 11
182.208
 21
140.191
 31
0.0
  0
LINE
  8
0
 62
     0
 10
182.208
 20
140.191
 30
0.0
 11
182.306
 21
139.573
 31
0.0
  0
LINE
  8
0
 62
     0
 10
182.306
 20
139.573
 30
0.0
 11
182.59
 21
139.015
 31
0.0
  0
LINE
  8
0
 62
     0
 10
182.59
 20
139.015
 30
0.0
 11
183.032
 21
138.573
 31
0.0
  0
LINE
  8
0
 62
     0
 10
183.032
 20
138.573
 30
0.0
 11
183.59
 21
138.289
 31
0.0
  0
LINE
  8
0
 62
     0
 10
183.59
 20
138.289
 30
0.0
 11
184.208
 21
138.191
 31
0.0
  0
LINE
  8
0
 62
     0
 10
184.208
 20
138.191
 30
0.0
 11
184.827
 21
138.289
 31
0.0
  0
LINE
  8
0
 62
     0
 10
184.827
 20
138.289
 30
0.0
 11
185.385
 21
138.573
 31
0.0
  0
LINE
  8
0
 62
     0
 10
185.385
 20
138.573
 30
0.0
 11
185.827
 21
139.015
 31
0.0
  0
LINE
  8
0
 62
     0
 10
185.827
 20
139.015
 30
0.0
 11
186.111
 21
139.573
 31
0.0
  0
LINE
  8
0
 62
     0
 10
186.111
 20
139.573
 30
0.0
 11
186.209
 21
140.191
 31
0.0
  0
LINE
  8
0
 62
     0
 10
186.209
 20
140.191
 30
0.0
 11
186.111
 21
140.809
 31
0.0
  0
LINE
  8
0
 62
     0
 10
186.111
 20
140.809
 30
0.0
 11
185.827
 21
141.366
 31
0.0
  0
LINE
  8
0
 62
     0
 10
185.827
 20
141.366
 30
0.0
 11
185.385
 21
141.81
 31
0.0
  0
LINE
  8
0
 62
     0
 10
185.385
 20
141.81
 30
0.0
 11
184.827
 21
142.094
 31
0.0
  0
LINE
  8
0
 62
     0
 10
184.827
 20
142.094
 30
0.0
 11
184.208
 21
142.19
 31
0.0
  0
LINE
  8
0
 62
     0
 10
184.208
 20
142.19
 30
0.0
 11
183.59
 21
142.094
 31
0.0
  0
LINE
  8
0
 62
     0
 10
3.47679
 20
142.094
 30
0.0
 11
2.92006
 21
141.81
 31
0.0
  0
LINE
  8
0
 62
     0
 10
2.92006
 20
141.81
 30
0.0
 11
2.47633
 21
141.366
 31
0.0
  0
LINE
  8
0
 62
     0
 10
2.47633
 20
141.366
 30
0.0
 11
2.19246
 21
140.809
 31
0.0
  0
LINE
  8
0
 62
     0
 10
2.19246
 20
140.809
 30
0.0
 11
2.09462
 21
140.191
 31
0.0
  0
LINE
  8
0
 62
     0
 10
2.09462
 20
140.191
 30
0.0
 11
2.19246
 21
139.573
 31
0.0
  0
LINE
  8
0
 62
     0
 10
2.19246
 20
139.573
 30
0.0
 11
2.47633
 21
139.015
 31
0.0
  0
LINE
  8
0
 62
     0
 10
2.47633
 20
139.015
 30
0.0
 11
2.92006
 21
138.573
 31
0.0
  0
LINE
  8
0
 62
     0
 10
2.92006
 20
138.573
 30
0.0
 11
3.47679
 21
138.289
 31
0.0
  0
LINE
  8
0
 62
     0
 10
3.47679
 20
138.289
 30
0.0
 11
4.09554
 21
138.191
 31
0.0
  0
LINE
  8
0
 62
     0
 10
4.09554
 20
138.191
 30
0.0
 11
4.7129
 21
138.289
 31
0.0
  0
LINE
  8
0
 62
     0
 10
4.7129
 20
138.289
 30
0.0
 11
5.27099
 21
138.573
 31
0.0
  0
LINE
  8
0
 62
     0
 10
5.27099
 20
138.573
 30
0.0
 11
5.71334
 21
139.015
 31
0.0
  0
LINE
  8
0
 62
     0
 10
5.71334
 20
139.015
 30
0.0
 11
5.99722
 21
139.573
 31
0.0
  0
LINE
  8
0
 62
     0
 10
5.99722
 20
139.573
 30
0.0
 11
6.09505
 21
140.191
 31
0.0
  0
LINE
  8
0
 62
     0
 10
6.09505
 20
140.191
 30
0.0
 11
5.99722
 21
140.809
 31
0.0
  0
LINE
  8
0
 62
     0
 10
5.99722
 20
140.809
 30
0.0
 11
5.71334
 21
141.366
 31
0.0
  0
LINE
  8
0
 62
     0
 10
5.71334
 20
141.366
 30
0.0
 11
5.27099
 21
141.81
 31
0.0
  0
LINE
  8
0
 62
     0
 10
5.27099
 20
141.81
 30
0.0
 11
4.7129
 21
142.094
 31
0.0
  0
LINE
  8
0
 62
     0
 10
4.7129
 20
142.094
 30
0.0
 11
4.09554
 21
142.19
 31
0.0
  0
LINE
  8
0
 62
     0
 10
4.09554
 20
142.19
 30
0.0
 11
3.47679
 21
142.094
 31
0.0
  0
ENDSEC
  0
EOF
