<?xml version="1.0"?>
<!-- Generated by SVGo -->
<svg width="198.114mm" height="153.827mm"
     viewBox="0.000 0.000 198.114 153.827"
     xmlns="http://www.w3.org/2000/svg" 
     xmlns:xlink="http://www.w3.org/1999/xlink">
<polygon points="189.114,5.001 189.428,5.013 189.740,5.050 190.048,5.111 190.350,5.196 190.645,5.305 190.930,5.436 191.204,5.590 191.465,5.764 191.712,5.959 191.942,6.172 192.156,6.403 192.350,6.649 192.525,6.911 192.678,7.185 192.810,7.470 192.918,7.764 193.003,8.067 193.065,8.375 193.102,8.687 193.114,9.001 193.114,144.827 193.102,145.140 193.065,145.452 193.003,145.760 192.918,146.063 192.810,146.357 192.678,146.642 192.525,146.916 192.350,147.178 192.156,147.424 191.942,147.655 191.712,147.868 191.465,148.063 191.204,148.237 190.930,148.391 190.645,148.522 190.350,148.631 190.048,148.716 189.740,148.777 189.428,148.814 189.114,148.826 9.001,148.827 8.687,148.814 8.375,148.777 8.067,148.716 7.764,148.631 7.470,148.522 7.185,148.391 6.911,148.237 6.649,148.063 6.403,147.868 6.172,147.655 5.959,147.424 5.764,147.178 5.590,146.916 5.436,146.642 5.305,146.357 5.196,146.063 5.111,145.760 5.050,145.452 5.013,145.140 5.000,144.827 5.001,9.001 5.013,8.687 5.050,8.375 5.111,8.067 5.196,7.764 5.305,7.470 5.436,7.185 5.590,6.911 5.764,6.649 5.959,6.403 6.172,6.172 6.403,5.959 6.649,5.764 6.911,5.590 7.185,5.436 7.470,5.305 7.764,5.196 8.067,5.111 8.375,5.050 8.687,5.013 9.001,5.000" style="fill:none;stroke-width:0.050000mm;stroke:black"/>
<polygon points="188.496,142.924 187.938,143.208 187.496,143.651 187.212,144.208 187.114,144.827 187.212,145.445 187.496,146.002 187.938,146.445 188.496,146.729 189.114,146.827 189.732,146.729 190.290,146.445 190.732,146.002 191.016,145.445 191.114,144.827 191.016,144.208 190.732,143.651 190.290,143.208 189.732,142.924 189.114,142.827" style="fill:none;stroke-width:0.050000mm;stroke:black"/>
<polygon points="98.439,142.924 97.882,143.208 97.439,143.651 97.155,144.208 97.057,144.827 97.155,145.445 97.439,146.002 97.882,146.445 98.439,146.729 99.057,146.827 99.675,146.729 100.233,146.445 100.675,146.002 100.959,145.445 101.057,144.827 100.959,144.208 100.675,143.651 100.233,143.208 99.675,142.924 99.057,142.827" style="fill:none;stroke-width:0.050000mm;stroke:black"/>
<polygon points="8.382,142.924 7.825,143.208 7.382,143.651 7.098,144.208 7.000,144.827 7.098,145.445 7.382,146.002 7.825,146.445 8.382,146.729 9.001,146.827 9.619,146.729 10.176,146.445 10.619,146.002 10.903,145.445 11.001,144.827 10.903,144.208 10.619,143.651 10.176,143.208 9.619,142.924 9.001,142.827" style="fill:none;stroke-width:0.050000mm;stroke:black"/>
<polygon points="154.682,122.301 154.682,123.301 153.882,123.301 153.882,126.401 154.682,126.401 154.682,127.001 153.157,127.001 153.157,123.771 151.432,123.771 151.432,122.851 148.132,122.851 148.132,123.771 146.407,123.771 146.407,127.001 145.582,127.001 145.582,129.801 146.407,129.801 146.407,136.071 148.132,136.071 148.132,137.051 151.432,137.051 151.432,136.071 153.157,136.071 153.157,131.601 154.682,131.601 154.682,132.201 153.882,132.201 153.882,135.301 154.682,135.301 154.682,136.301 168.682,136.301 168.682,135.301 169.482,135.301 169.482,132.201 168.682,132.201 168.682,131.601 170.207,131.601 170.207,136.071 171.932,136.071 171.932,137.051 175.232,137.051 175.232,136.071 176.957,136.071 176.957,129.801 177.782,129.801 177.782,127.001 176.957,127.001 176.957,123.771 175.232,123.771 175.232,122.851 171.932,122.851 171.932,123.771 170.207,123.771 170.207,127.001 168.682,127.001 168.682,126.401 169.482,126.401 169.482,123.301 168.682,123.301 168.682,122.301" style="fill:none;stroke-width:0.050000mm;stroke:black"/>
<polygon points="49.907,122.301 49.907,123.301 49.107,123.301 49.107,126.401 49.907,126.401 49.907,132.201 49.107,132.201 49.107,135.301 49.907,135.301 49.907,136.301 63.907,136.301 63.907,135.301 64.707,135.301 64.707,132.201 63.907,132.201 63.907,126.401 64.707,126.401 64.707,123.301 63.907,123.301 63.907,122.301" style="fill:none;stroke-width:0.050000mm;stroke:black"/>
<polygon points="73.719,122.301 73.719,123.301 72.919,123.301 72.919,126.401 73.719,126.401 73.719,132.201 72.919,132.201 72.919,135.301 73.719,135.301 73.719,136.301 87.719,136.301 87.719,135.301 88.519,135.301 88.519,132.201 87.719,132.201 87.719,126.401 88.519,126.401 88.519,123.301 87.719,123.301 87.719,122.301" style="fill:none;stroke-width:0.050000mm;stroke:black"/>
<polygon points="97.532,122.301 97.532,123.301 96.732,123.301 96.732,126.401 97.532,126.401 97.532,132.201 96.732,132.201 96.732,135.301 97.532,135.301 97.532,136.301 111.532,136.301 111.532,135.301 112.332,135.301 112.332,132.201 111.532,132.201 111.532,126.401 112.332,126.401 112.332,123.301 111.532,123.301 111.532,122.301" style="fill:none;stroke-width:0.050000mm;stroke:black"/>
<polygon points="121.344,122.301 121.344,123.301 120.544,123.301 120.544,126.401 121.344,126.401 121.344,132.201 120.544,132.201 120.544,135.301 121.344,135.301 121.344,136.301 135.344,136.301 135.344,135.301 136.144,135.301 136.144,132.201 135.344,132.201 135.344,126.401 136.144,126.401 136.144,123.301 135.344,123.301 135.344,122.301" style="fill:none;stroke-width:0.050000mm;stroke:black"/>
<polygon points="59.432,103.251 59.432,104.251 58.632,104.251 58.632,107.351 59.432,107.351 59.432,107.951 57.907,107.951 57.907,104.721 56.182,104.721 56.182,103.801 52.882,103.801 52.882,104.721 51.157,104.721 51.157,107.951 50.332,107.951 50.332,110.751 51.157,110.751 51.157,117.021 52.882,117.021 52.882,118.001 56.182,118.001 56.182,117.021 57.907,117.021 57.907,112.551 59.432,112.551 59.432,113.151 58.632,113.151 58.632,116.251 59.432,116.251 59.432,117.251 73.432,117.251 73.432,116.251 74.232,116.251 74.232,113.151 73.432,113.151 73.432,112.551 74.957,112.551 74.957,117.021 76.682,117.021 76.682,118.001 79.982,118.001 79.982,117.021 81.707,117.021 81.707,110.751 82.532,110.751 82.532,107.951 81.707,107.951 81.707,104.721 79.982,104.721 79.982,103.801 76.682,103.801 76.682,104.721 74.957,104.721 74.957,107.951 73.432,107.951 73.432,107.351 74.232,107.351 74.232,104.251 73.432,104.251 73.432,103.251" style="fill:none;stroke-width:0.050000mm;stroke:black"/>
<polygon points="90.388,103.251 90.388,104.251 89.588,104.251 89.588,107.351 90.388,107.351 90.388,113.151 89.588,113.151 89.588,116.251 90.388,116.251 90.388,117.251 104.388,117.251 104.388,116.251 105.188,116.251 105.188,113.151 104.388,113.151 104.388,107.351 105.188,107.351 105.188,104.251 104.388,104.251 104.388,103.251" style="fill:none;stroke-width:0.050000mm;stroke:black"/>
<polygon points="109.438,103.251 109.438,104.251 108.638,104.251 108.638,107.351 109.438,107.351 109.438,113.151 108.638,113.151 108.638,116.251 109.438,116.251 109.438,117.251 123.438,117.251 123.438,116.251 124.238,116.251 124.238,113.151 123.438,113.151 123.438,107.351 124.238,107.351 124.238,104.251 123.438,104.251 123.438,103.251" style="fill:none;stroke-width:0.050000mm;stroke:black"/>
<polygon points="128.488,103.251 128.488,104.251 127.688,104.251 127.688,107.351 128.488,107.351 128.488,113.151 127.688,113.151 127.688,116.251 128.488,116.251 128.488,117.251 142.488,117.251 142.488,116.251 143.288,116.251 143.288,113.151 142.488,113.151 142.488,107.351 143.288,107.351 143.288,104.251 142.488,104.251 142.488,103.251" style="fill:none;stroke-width:0.050000mm;stroke:black"/>
<polygon points="147.538,103.251 147.538,104.251 146.738,104.251 146.738,107.351 147.538,107.351 147.538,113.151 146.738,113.151 146.738,116.251 147.538,116.251 147.538,117.251 161.538,117.251 161.538,116.251 162.338,116.251 162.338,113.151 161.538,113.151 161.538,107.351 162.338,107.351 162.338,104.251 161.538,104.251 161.538,103.251" style="fill:none;stroke-width:0.050000mm;stroke:black"/>
<polygon points="166.588,103.251 166.588,104.251 165.788,104.251 165.788,107.351 166.588,107.351 166.588,113.151 165.788,113.151 165.788,116.251 166.588,116.251 166.588,117.251 180.588,117.251 180.588,116.251 181.388,116.251 181.388,113.151 180.588,113.151 180.588,107.351 181.388,107.351 181.388,104.251 180.588,104.251 180.588,103.251" style="fill:none;stroke-width:0.050000mm;stroke:black"/>
<polygon points="54.669,84.201 54.669,85.201 53.869,85.201 53.869,88.301 54.669,88.301 54.669,94.101 53.869,94.101 53.869,97.201 54.669,97.201 54.669,98.201 68.669,98.201 68.669,97.201 69.469,97.201 69.469,94.101 68.669,94.101 68.669,88.301 69.469,88.301 69.469,85.201 68.669,85.201 68.669,84.201" style="fill:none;stroke-width:0.050000mm;stroke:black"/>
<polygon points="80.863,84.201 80.863,85.201 80.063,85.201 80.063,88.301 80.863,88.301 80.863,94.101 80.063,94.101 80.063,97.201 80.863,97.201 80.863,98.201 94.863,98.201 94.863,97.201 95.663,97.201 95.663,94.101 94.863,94.101 94.863,88.301 95.663,88.301 95.663,85.201 94.863,85.201 94.863,84.201" style="fill:none;stroke-width:0.050000mm;stroke:black"/>
<polygon points="99.913,84.201 99.913,85.201 99.113,85.201 99.113,88.301 99.913,88.301 99.913,94.101 99.113,94.101 99.113,97.201 99.913,97.201 99.913,98.201 113.913,98.201 113.913,97.201 114.713,97.201 114.713,94.101 113.913,94.101 113.913,88.301 114.713,88.301 114.713,85.201 113.913,85.201 113.913,84.201" style="fill:none;stroke-width:0.050000mm;stroke:black"/>
<polygon points="118.963,84.201 118.963,85.201 118.163,85.201 118.163,88.301 118.963,88.301 118.963,94.101 118.163,94.101 118.163,97.201 118.963,97.201 118.963,98.201 132.963,98.201 132.963,97.201 133.763,97.201 133.763,94.101 132.963,94.101 132.963,88.301 133.763,88.301 133.763,85.201 132.963,85.201 132.963,84.201" style="fill:none;stroke-width:0.050000mm;stroke:black"/>
<polygon points="138.013,84.201 138.013,85.201 137.213,85.201 137.213,88.301 138.013,88.301 138.013,94.101 137.213,94.101 137.213,97.201 138.013,97.201 138.013,98.201 152.013,98.201 152.013,97.201 152.813,97.201 152.813,94.101 152.013,94.101 152.013,88.301 152.813,88.301 152.813,85.201 152.013,85.201 152.013,84.201" style="fill:none;stroke-width:0.050000mm;stroke:black"/>
<polygon points="157.063,84.201 157.063,85.201 156.263,85.201 156.263,88.301 157.063,88.301 157.063,94.101 156.263,94.101 156.263,97.201 157.063,97.201 157.063,98.201 171.063,98.201 171.063,97.201 171.863,97.201 171.863,94.101 171.063,94.101 171.063,88.301 171.863,88.301 171.863,85.201 171.063,85.201 171.063,84.201" style="fill:none;stroke-width:0.050000mm;stroke:black"/>
<polygon points="52.288,65.151 52.288,66.151 51.488,66.151 51.488,69.251 52.288,69.251 52.288,75.051 51.488,75.051 51.488,78.151 52.288,78.151 52.288,79.151 66.288,79.151 66.288,78.151 67.088,78.151 67.088,75.051 66.288,75.051 66.288,69.251 67.088,69.251 67.088,66.151 66.288,66.151 66.288,65.151" style="fill:none;stroke-width:0.050000mm;stroke:black"/>
<polygon points="76.101,65.151 76.101,66.151 75.301,66.151 75.301,69.251 76.101,69.251 76.101,75.051 75.301,75.051 75.301,78.151 76.101,78.151 76.101,79.151 90.101,79.151 90.101,78.151 90.900,78.151 90.900,75.051 90.101,75.051 90.101,69.251 90.900,69.251 90.900,66.151 90.101,66.151 90.101,65.151" style="fill:none;stroke-width:0.050000mm;stroke:black"/>
<polygon points="95.150,65.151 95.150,66.151 94.351,66.151 94.351,69.251 95.150,69.251 95.150,75.051 94.351,75.051 94.351,78.151 95.150,78.151 95.150,79.151 109.150,79.151 109.150,78.151 109.950,78.151 109.950,75.051 109.150,75.051 109.150,69.251 109.950,69.251 109.950,66.151 109.150,66.151 109.150,65.151" style="fill:none;stroke-width:0.050000mm;stroke:black"/>
<polygon points="114.200,65.151 114.200,66.151 113.400,66.151 113.400,69.251 114.200,69.251 114.200,75.051 113.400,75.051 113.400,78.151 114.200,78.151 114.200,79.151 128.200,79.151 128.200,78.151 129.001,78.151 129.001,75.051 128.200,75.051 128.200,69.251 129.001,69.251 129.001,66.151 128.200,66.151 128.200,65.151" style="fill:none;stroke-width:0.050000mm;stroke:black"/>
<polygon points="133.251,65.151 133.251,66.151 132.451,66.151 132.451,69.251 133.251,69.251 133.251,75.051 132.451,75.051 132.451,78.151 133.251,78.151 133.251,79.151 147.251,79.151 147.251,78.151 148.051,78.151 148.051,75.051 147.251,75.051 147.251,69.251 148.051,69.251 148.051,66.151 147.251,66.151 147.251,65.151" style="fill:none;stroke-width:0.050000mm;stroke:black"/>
<polygon points="152.301,65.151 152.301,66.151 151.501,66.151 151.501,69.251 152.301,69.251 152.301,75.051 151.501,75.051 151.501,78.151 152.301,78.151 152.301,79.151 166.301,79.151 166.301,78.151 167.101,78.151 167.101,75.051 166.301,75.051 166.301,69.251 167.101,69.251 167.101,66.151 166.301,66.151 166.301,65.151" style="fill:none;stroke-width:0.050000mm;stroke:black"/>
<polygon points="47.526,46.101 47.526,47.101 46.726,47.101 46.726,50.201 47.526,50.201 47.526,56.001 46.726,56.001 46.726,59.101 47.526,59.101 47.526,60.101 61.526,60.101 61.526,59.101 62.325,59.101 62.325,56.001 61.526,56.001 61.526,50.201 62.325,50.201 62.325,47.101 61.526,47.101 61.526,46.101" style="fill:none;stroke-width:0.050000mm;stroke:black"/>
<polygon points="66.576,46.101 66.576,47.101 65.776,47.101 65.776,50.201 66.576,50.201 66.576,56.001 65.776,56.001 65.776,59.101 66.576,59.101 66.576,60.101 80.576,60.101 80.576,59.101 81.376,59.101 81.376,56.001 80.576,56.001 80.576,50.201 81.376,50.201 81.376,47.101 80.576,47.101 80.576,46.101" style="fill:none;stroke-width:0.050000mm;stroke:black"/>
<polygon points="85.626,46.101 85.626,47.101 84.826,47.101 84.826,50.201 85.626,50.201 85.626,56.001 84.826,56.001 84.826,59.101 85.626,59.101 85.626,60.101 99.626,60.101 99.626,59.101 100.426,59.101 100.426,56.001 99.626,56.001 99.626,50.201 100.426,50.201 100.426,47.101 99.626,47.101 99.626,46.101" style="fill:none;stroke-width:0.050000mm;stroke:black"/>
<polygon points="104.676,46.101 104.676,47.101 103.876,47.101 103.876,50.201 104.676,50.201 104.676,56.001 103.876,56.001 103.876,59.101 104.676,59.101 104.676,60.101 118.676,60.101 118.676,59.101 119.476,59.101 119.476,56.001 118.676,56.001 118.676,50.201 119.476,50.201 119.476,47.101 118.676,47.101 118.676,46.101" style="fill:none;stroke-width:0.050000mm;stroke:black"/>
<polygon points="123.726,46.101 123.726,47.101 122.926,47.101 122.926,50.201 123.726,50.201 123.726,56.001 122.926,56.001 122.926,59.101 123.726,59.101 123.726,60.101 137.726,60.101 137.726,59.101 138.526,59.101 138.526,56.001 137.726,56.001 137.726,50.201 138.526,50.201 138.526,47.101 137.726,47.101 137.726,46.101" style="fill:none;stroke-width:0.050000mm;stroke:black"/>
<polygon points="142.776,46.101 142.776,47.101 141.976,47.101 141.976,50.201 142.776,50.201 142.776,56.001 141.976,56.001 141.976,59.101 142.776,59.101 142.776,60.101 156.776,60.101 156.776,59.101 157.576,59.101 157.576,56.001 156.776,56.001 156.776,50.201 157.576,50.201 157.576,47.101 156.776,47.101 156.776,46.101" style="fill:none;stroke-width:0.050000mm;stroke:black"/>
<polygon points="161.826,46.101 161.826,47.101 161.026,47.101 161.026,50.201 161.826,50.201 161.826,56.001 161.026,56.001 161.026,59.101 161.826,59.101 161.826,60.101 175.826,60.101 175.826,59.101 176.626,59.101 176.626,56.001 175.826,56.001 175.826,50.201 176.626,50.201 176.626,47.101 175.826,47.101 175.826,46.101" style="fill:none;stroke-width:0.050000mm;stroke:black"/>
<polygon points="47.526,17.526 47.526,18.526 46.726,18.526 46.726,21.626 47.526,21.626 47.526,27.425 46.726,27.425 46.726,30.526 47.526,30.526 47.526,31.526 61.526,31.526 61.526,30.526 62.325,30.526 62.325,27.425 61.526,27.425 61.526,21.626 62.325,21.626 62.325,18.526 61.526,18.526 61.526,17.526" style="fill:none;stroke-width:0.050000mm;stroke:black"/>
<polygon points="85.626,17.526 85.626,18.526 84.826,18.526 84.826,21.626 85.626,21.626 85.626,27.425 84.826,27.425 84.826,30.526 85.626,30.526 85.626,31.526 99.626,31.526 99.626,30.526 100.426,30.526 100.426,27.425 99.626,27.425 99.626,21.626 100.426,21.626 100.426,18.526 99.626,18.526 99.626,17.526" style="fill:none;stroke-width:0.050000mm;stroke:black"/>
<polygon points="104.676,17.526 104.676,18.526 103.876,18.526 103.876,21.626 104.676,21.626 104.676,27.425 103.876,27.425 103.876,30.526 104.676,30.526 104.676,31.526 118.676,31.526 118.676,30.526 119.476,30.526 119.476,27.425 118.676,27.425 118.676,21.626 119.476,21.626 119.476,18.526 118.676,18.526 118.676,17.526" style="fill:none;stroke-width:0.050000mm;stroke:black"/>
<polygon points="123.726,17.526 123.726,18.526 122.926,18.526 122.926,21.626 123.726,21.626 123.726,27.425 122.926,27.425 122.926,30.526 123.726,30.526 123.726,31.526 137.726,31.526 137.726,30.526 138.526,30.526 138.526,27.425 137.726,27.425 137.726,21.626 138.526,21.626 138.526,18.526 137.726,18.526 137.726,17.526" style="fill:none;stroke-width:0.050000mm;stroke:black"/>
<polygon points="142.776,17.526 142.776,18.526 141.976,18.526 141.976,21.626 142.776,21.626 142.776,27.425 141.976,27.425 141.976,30.526 142.776,30.526 142.776,31.526 156.776,31.526 156.776,30.526 157.576,30.526 157.576,27.425 156.776,27.425 156.776,21.626 157.576,21.626 157.576,18.526 156.776,18.526 156.776,17.526" style="fill:none;stroke-width:0.050000mm;stroke:black"/>
<polygon points="161.826,17.526 161.826,18.526 161.026,18.526 161.026,21.626 161.826,21.626 161.826,27.425 161.026,27.425 161.026,30.526 161.826,30.526 161.826,31.526 175.826,31.526 175.826,30.526 176.626,30.526 176.626,27.425 175.826,27.425 175.826,21.626 176.626,21.626 176.626,18.526 175.826,18.526 175.826,17.526" style="fill:none;stroke-width:0.050000mm;stroke:black"/>
<polygon points="98.439,7.098 97.882,7.382 97.439,7.825 97.155,8.382 97.057,9.001 97.155,9.619 97.439,10.176 97.882,10.619 98.439,10.903 99.057,11.001 99.675,10.903 100.233,10.619 100.675,10.176 100.959,9.619 101.057,9.001 100.959,8.382 100.675,7.825 100.233,7.382 99.675,7.098 99.057,7.001" style="fill:none;stroke-width:0.050000mm;stroke:black"/>
<polygon points="188.496,7.098 187.938,7.382 187.496,7.825 187.212,8.382 187.114,9.001 187.212,9.619 187.496,10.176 187.938,10.619 188.496,10.903 189.114,11.001 189.732,10.903 190.290,10.619 190.732,10.176 191.016,9.619 191.114,9.001 191.016,8.382 190.732,7.825 190.290,7.382 189.732,7.098 189.114,7.001" style="fill:none;stroke-width:0.050000mm;stroke:black"/>
<polygon points="8.382,7.098 7.825,7.382 7.382,7.825 7.098,8.382 7.000,9.001 7.098,9.619 7.382,10.176 7.825,10.619 8.382,10.903 9.001,11.001 9.619,10.903 10.176,10.619 10.619,10.176 10.903,9.619 11.001,9.001 10.903,8.382 10.619,7.825 10.176,7.382 9.619,7.098 9.001,7.001" style="fill:none;stroke-width:0.050000mm;stroke:black"/>
</svg>
