  0
SECTION
  2
HEADER
  9
$ACADVER
  1
AC1009
  9
$FILLMODE
 70
 0
  9
$SPLFRAME
 70
 1
  9
$EXTMIN
 10
0
 20
0
 30
0.0
  9
$EXTMAX
 10
1058.33
 20
1058.33
 30
0.0
  0
ENDSEC
  0
SECTION
  2
TABLES
  0
TABLE
  2
LAYER
 70
1
  0
LAYER
  2
0
 70
     0
 62
     7
  6
CONTINUOUS
  0
ENDTAB
  0
ENDSEC
  0
SECTION
  2
ENTITIES
  0
LINE
  8
0
 62
     0
 10
184.208
 20
144.191
 30
0.0
 11
184.522
 21
144.179
 31
0.0
  0
LINE
  8
0
 62
     0
 10
184.522
 20
144.179
 30
0.0
 11
184.835
 21
144.141
 31
0.0
  0
LINE
  8
0
 62
     0
 10
184.835
 20
144.141
 30
0.0
 11
185.142
 21
144.081
 31
0.0
  0
LINE
  8
0
 62
     0
 10
185.142
 20
144.081
 30
0.0
 11
185.444
 21
143.995
 31
0.0
  0
LINE
  8
0
 62
     0
 10
185.444
 20
143.995
 30
0.0
 11
185.739
 21
143.886
 31
0.0
  0
LINE
  8
0
 62
     0
 10
185.739
 20
143.886
 30
0.0
 11
186.024
 21
143.756
 31
0.0
  0
LINE
  8
0
 62
     0
 10
186.024
 20
143.756
 30
0.0
 11
186.298
 21
143.601
 31
0.0
  0
LINE
  8
0
 62
     0
 10
186.298
 20
143.601
 30
0.0
 11
186.559
 21
143.427
 31
0.0
  0
LINE
  8
0
 62
     0
 10
186.559
 20
143.427
 30
0.0
 11
186.807
 21
143.233
 31
0.0
  0
LINE
  8
0
 62
     0
 10
186.807
 20
143.233
 30
0.0
 11
187.037
 21
143.02
 31
0.0
  0
LINE
  8
0
 62
     0
 10
187.037
 20
143.02
 30
0.0
 11
187.251
 21
142.788
 31
0.0
  0
LINE
  8
0
 62
     0
 10
187.251
 20
142.788
 30
0.0
 11
187.445
 21
142.543
 31
0.0
  0
LINE
  8
0
 62
     0
 10
187.445
 20
142.543
 30
0.0
 11
187.62
 21
142.281
 31
0.0
  0
LINE
  8
0
 62
     0
 10
187.62
 20
142.281
 30
0.0
 11
187.773
 21
142.007
 31
0.0
  0
LINE
  8
0
 62
     0
 10
187.773
 20
142.007
 30
0.0
 11
187.905
 21
141.721
 31
0.0
  0
LINE
  8
0
 62
     0
 10
187.905
 20
141.721
 30
0.0
 11
188.013
 21
141.428
 31
0.0
  0
LINE
  8
0
 62
     0
 10
188.013
 20
141.428
 30
0.0
 11
188.098
 21
141.125
 31
0.0
  0
LINE
  8
0
 62
     0
 10
188.098
 20
141.125
 30
0.0
 11
188.16
 21
140.816
 31
0.0
  0
LINE
  8
0
 62
     0
 10
188.16
 20
140.816
 30
0.0
 11
188.196
 21
140.505
 31
0.0
  0
LINE
  8
0
 62
     0
 10
188.196
 20
140.505
 30
0.0
 11
188.208
 21
140.191
 31
0.0
  0
LINE
  8
0
 62
     0
 10
188.208
 20
140.191
 30
0.0
 11
188.208
 21
4.36425
 31
0.0
  0
LINE
  8
0
 62
     0
 10
188.208
 20
4.36425
 30
0.0
 11
188.196
 21
4.05144
 31
0.0
  0
LINE
  8
0
 62
     0
 10
188.196
 20
4.05144
 30
0.0
 11
188.16
 21
3.74001
 31
0.0
  0
LINE
  8
0
 62
     0
 10
188.16
 20
3.74001
 30
0.0
 11
188.098
 21
3.43131
 31
0.0
  0
LINE
  8
0
 62
     0
 10
188.098
 20
3.43131
 30
0.0
 11
188.013
 21
3.12815
 31
0.0
  0
LINE
  8
0
 62
     0
 10
188.013
 20
3.12815
 30
0.0
 11
187.905
 21
2.83463
 31
0.0
  0
LINE
  8
0
 62
     0
 10
187.905
 20
2.83463
 30
0.0
 11
187.773
 21
2.54937
 31
0.0
  0
LINE
  8
0
 62
     0
 10
187.773
 20
2.54937
 30
0.0
 11
187.62
 21
2.27514
 31
0.0
  0
LINE
  8
0
 62
     0
 10
187.62
 20
2.27514
 30
0.0
 11
187.445
 21
2.01331
 31
0.0
  0
LINE
  8
0
 62
     0
 10
187.445
 20
2.01331
 30
0.0
 11
187.251
 21
1.76802
 31
0.0
  0
LINE
  8
0
 62
     0
 10
187.251
 20
1.76802
 30
0.0
 11
187.037
 21
1.53651
 31
0.0
  0
LINE
  8
0
 62
     0
 10
187.037
 20
1.53651
 30
0.0
 11
186.807
 21
1.3243
 31
0.0
  0
LINE
  8
0
 62
     0
 10
186.807
 20
1.3243
 30
0.0
 11
186.559
 21
1.12861
 31
0.0
  0
LINE
  8
0
 62
     0
 10
186.559
 20
1.12861
 30
0.0
 11
186.298
 21
0.95498
 31
0.0
  0
LINE
  8
0
 62
     0
 10
186.298
 20
0.95498
 30
0.0
 11
186.024
 21
0.80064
 31
0.0
  0
LINE
  8
0
 62
     0
 10
186.024
 20
0.80064
 30
0.0
 11
185.739
 21
0.669727
 31
0.0
  0
LINE
  8
0
 62
     0
 10
185.739
 20
0.669727
 30
0.0
 11
185.444
 21
0.56086
 31
0.0
  0
LINE
  8
0
 62
     0
 10
185.444
 20
0.56086
 30
0.0
 11
185.142
 21
0.475424
 31
0.0
  0
LINE
  8
0
 62
     0
 10
185.142
 20
0.475424
 30
0.0
 11
184.835
 21
0.414789
 31
0.0
  0
LINE
  8
0
 62
     0
 10
184.835
 20
0.414789
 30
0.0
 11
184.522
 21
0.377582
 31
0.0
  0
LINE
  8
0
 62
     0
 10
184.522
 20
0.377582
 30
0.0
 11
184.208
 21
0.365181
 31
0.0
  0
LINE
  8
0
 62
     0
 10
184.208
 20
0.365181
 30
0.0
 11
4.09554
 21
0.365181
 31
0.0
  0
LINE
  8
0
 62
     0
 10
4.09554
 20
0.365181
 30
0.0
 11
3.78135
 21
0.377582
 31
0.0
  0
LINE
  8
0
 62
     0
 10
3.78135
 20
0.377582
 30
0.0
 11
3.4699
 21
0.414789
 31
0.0
  0
LINE
  8
0
 62
     0
 10
3.4699
 20
0.414789
 30
0.0
 11
3.16122
 21
0.475424
 31
0.0
  0
LINE
  8
0
 62
     0
 10
3.16122
 20
0.475424
 30
0.0
 11
2.85805
 21
0.56086
 31
0.0
  0
LINE
  8
0
 62
     0
 10
2.85805
 20
0.56086
 30
0.0
 11
2.56453
 21
0.669727
 31
0.0
  0
LINE
  8
0
 62
     0
 10
2.56453
 20
0.669727
 30
0.0
 11
2.27928
 21
0.80064
 31
0.0
  0
LINE
  8
0
 62
     0
 10
2.27928
 20
0.80064
 30
0.0
 11
2.00504
 21
0.95498
 31
0.0
  0
LINE
  8
0
 62
     0
 10
2.00504
 20
0.95498
 30
0.0
 11
1.74322
 21
1.12861
 31
0.0
  0
LINE
  8
0
 62
     0
 10
1.74322
 20
1.12861
 30
0.0
 11
1.49793
 21
1.3243
 31
0.0
  0
LINE
  8
0
 62
     0
 10
1.49793
 20
1.3243
 30
0.0
 11
1.26642
 21
1.53651
 31
0.0
  0
LINE
  8
0
 62
     0
 10
1.26642
 20
1.53651
 30
0.0
 11
1.05282
 21
1.76802
 31
0.0
  0
LINE
  8
0
 62
     0
 10
1.05282
 20
1.76802
 30
0.0
 11
0.858516
 21
2.01331
 31
0.0
  0
LINE
  8
0
 62
     0
 10
0.858516
 20
2.01331
 30
0.0
 11
0.684886
 21
2.27514
 31
0.0
  0
LINE
  8
0
 62
     0
 10
0.684886
 20
2.27514
 30
0.0
 11
0.530546
 21
2.54937
 31
0.0
  0
LINE
  8
0
 62
     0
 10
0.530546
 20
2.54937
 30
0.0
 11
0.39963
 21
2.83463
 31
0.0
  0
LINE
  8
0
 62
     0
 10
0.39963
 20
2.83463
 30
0.0
 11
0.290766
 21
3.12815
 31
0.0
  0
LINE
  8
0
 62
     0
 10
0.290766
 20
3.12815
 30
0.0
 11
0.205328
 21
3.43131
 31
0.0
  0
LINE
  8
0
 62
     0
 10
0.205328
 20
3.43131
 30
0.0
 11
0.144694
 21
3.74001
 31
0.0
  0
LINE
  8
0
 62
     0
 10
0.144694
 20
3.74001
 30
0.0
 11
0.107487
 21
4.05144
 31
0.0
  0
LINE
  8
0
 62
     0
 10
0.107487
 20
4.05144
 30
0.0
 11
0.0950846
 21
4.36425
 31
0.0
  0
LINE
  8
0
 62
     0
 10
0.0950846
 20
4.36425
 30
0.0
 11
0.0950846
 21
140.191
 31
0.0
  0
LINE
  8
0
 62
     0
 10
0.0950846
 20
140.191
 30
0.0
 11
0.107487
 21
140.505
 31
0.0
  0
LINE
  8
0
 62
     0
 10
0.107487
 20
140.505
 30
0.0
 11
0.144694
 21
140.816
 31
0.0
  0
LINE
  8
0
 62
     0
 10
0.144694
 20
140.816
 30
0.0
 11
0.205328
 21
141.125
 31
0.0
  0
LINE
  8
0
 62
     0
 10
0.205328
 20
141.125
 30
0.0
 11
0.290766
 21
141.428
 31
0.0
  0
LINE
  8
0
 62
     0
 10
0.290766
 20
141.428
 30
0.0
 11
0.39963
 21
141.721
 31
0.0
  0
LINE
  8
0
 62
     0
 10
0.39963
 20
141.721
 30
0.0
 11
0.530546
 21
142.007
 31
0.0
  0
LINE
  8
0
 62
     0
 10
0.530546
 20
142.007
 30
0.0
 11
0.684886
 21
142.281
 31
0.0
  0
LINE
  8
0
 62
     0
 10
0.684886
 20
142.281
 30
0.0
 11
0.858516
 21
142.543
 31
0.0
  0
LINE
  8
0
 62
     0
 10
0.858516
 20
142.543
 30
0.0
 11
1.05282
 21
142.788
 31
0.0
  0
LINE
  8
0
 62
     0
 10
1.05282
 20
142.788
 30
0.0
 11
1.26642
 21
143.02
 31
0.0
  0
LINE
  8
0
 62
     0
 10
1.26642
 20
143.02
 30
0.0
 11
1.49793
 21
143.233
 31
0.0
  0
LINE
  8
0
 62
     0
 10
1.49793
 20
143.233
 30
0.0
 11
1.74322
 21
143.427
 31
0.0
  0
LINE
  8
0
 62
     0
 10
1.74322
 20
143.427
 30
0.0
 11
2.00504
 21
143.601
 31
0.0
  0
LINE
  8
0
 62
     0
 10
2.00504
 20
143.601
 30
0.0
 11
2.27928
 21
143.756
 31
0.0
  0
LINE
  8
0
 62
     0
 10
2.27928
 20
143.756
 30
0.0
 11
2.56453
 21
143.886
 31
0.0
  0
LINE
  8
0
 62
     0
 10
2.56453
 20
143.886
 30
0.0
 11
2.85805
 21
143.995
 31
0.0
  0
LINE
  8
0
 62
     0
 10
2.85805
 20
143.995
 30
0.0
 11
3.16122
 21
144.081
 31
0.0
  0
LINE
  8
0
 62
     0
 10
3.16122
 20
144.081
 30
0.0
 11
3.4699
 21
144.141
 31
0.0
  0
LINE
  8
0
 62
     0
 10
3.4699
 20
144.141
 30
0.0
 11
3.78135
 21
144.179
 31
0.0
  0
LINE
  8
0
 62
     0
 10
3.78135
 20
144.179
 30
0.0
 11
4.09554
 21
144.191
 31
0.0
  0
LINE
  8
0
 62
     0
 10
4.09554
 20
144.191
 30
0.0
 11
184.208
 21
144.191
 31
0.0
  0
LINE
  8
0
 62
     0
 10
183.59
 20
6.26731
 30
0.0
 11
183.032
 21
5.98343
 31
0.0
  0
LINE
  8
0
 62
     0
 10
183.032
 20
5.98343
 30
0.0
 11
182.59
 21
5.54108
 31
0.0
  0
LINE
  8
0
 62
     0
 10
182.59
 20
5.54108
 30
0.0
 11
182.306
 21
4.98299
 31
0.0
  0
LINE
  8
0
 62
     0
 10
182.306
 20
4.98299
 30
0.0
 11
182.208
 21
4.36425
 31
0.0
  0
LINE
  8
0
 62
     0
 10
182.208
 20
4.36425
 30
0.0
 11
182.306
 21
3.74689
 31
0.0
  0
LINE
  8
0
 62
     0
 10
182.306
 20
3.74689
 30
0.0
 11
182.59
 21
3.19016
 31
0.0
  0
LINE
  8
0
 62
     0
 10
182.59
 20
3.19016
 30
0.0
 11
183.032
 21
2.74643
 31
0.0
  0
LINE
  8
0
 62
     0
 10
183.032
 20
2.74643
 30
0.0
 11
183.59
 21
2.46255
 31
0.0
  0
LINE
  8
0
 62
     0
 10
183.59
 20
2.46255
 30
0.0
 11
184.208
 21
2.36472
 31
0.0
  0
LINE
  8
0
 62
     0
 10
184.208
 20
2.36472
 30
0.0
 11
184.827
 21
2.46255
 31
0.0
  0
LINE
  8
0
 62
     0
 10
184.827
 20
2.46255
 30
0.0
 11
185.385
 21
2.74643
 31
0.0
  0
LINE
  8
0
 62
     0
 10
185.385
 20
2.74643
 30
0.0
 11
185.827
 21
3.19016
 31
0.0
  0
LINE
  8
0
 62
     0
 10
185.827
 20
3.19016
 30
0.0
 11
186.111
 21
3.74689
 31
0.0
  0
LINE
  8
0
 62
     0
 10
186.111
 20
3.74689
 30
0.0
 11
186.209
 21
4.36425
 31
0.0
  0
LINE
  8
0
 62
     0
 10
186.209
 20
4.36425
 30
0.0
 11
186.111
 21
4.98299
 31
0.0
  0
LINE
  8
0
 62
     0
 10
186.111
 20
4.98299
 30
0.0
 11
185.827
 21
5.54108
 31
0.0
  0
LINE
  8
0
 62
     0
 10
185.827
 20
5.54108
 30
0.0
 11
185.385
 21
5.98343
 31
0.0
  0
LINE
  8
0
 62
     0
 10
185.385
 20
5.98343
 30
0.0
 11
184.827
 21
6.26731
 31
0.0
  0
LINE
  8
0
 62
     0
 10
184.827
 20
6.26731
 30
0.0
 11
184.208
 21
6.36517
 31
0.0
  0
LINE
  8
0
 62
     0
 10
184.208
 20
6.36517
 30
0.0
 11
183.59
 21
6.26731
 31
0.0
  0
LINE
  8
0
 62
     0
 10
93.533
 20
6.26731
 30
0.0
 11
92.9763
 21
5.98343
 31
0.0
  0
LINE
  8
0
 62
     0
 10
92.9763
 20
5.98343
 30
0.0
 11
92.534
 21
5.54108
 31
0.0
  0
LINE
  8
0
 62
     0
 10
92.534
 20
5.54108
 30
0.0
 11
92.25
 21
4.98299
 31
0.0
  0
LINE
  8
0
 62
     0
 10
92.25
 20
4.98299
 30
0.0
 11
92.1523
 21
4.36425
 31
0.0
  0
LINE
  8
0
 62
     0
 10
92.1523
 20
4.36425
 30
0.0
 11
92.25
 21
3.74689
 31
0.0
  0
LINE
  8
0
 62
     0
 10
92.25
 20
3.74689
 30
0.0
 11
92.534
 21
3.19016
 31
0.0
  0
LINE
  8
0
 62
     0
 10
92.534
 20
3.19016
 30
0.0
 11
92.9763
 21
2.74643
 31
0.0
  0
LINE
  8
0
 62
     0
 10
92.9763
 20
2.74643
 30
0.0
 11
93.533
 21
2.46255
 31
0.0
  0
LINE
  8
0
 62
     0
 10
93.533
 20
2.46255
 30
0.0
 11
94.1518
 21
2.36472
 31
0.0
  0
LINE
  8
0
 62
     0
 10
94.1518
 20
2.36472
 30
0.0
 11
94.7692
 21
2.46255
 31
0.0
  0
LINE
  8
0
 62
     0
 10
94.7692
 20
2.46255
 30
0.0
 11
95.3273
 21
2.74643
 31
0.0
  0
LINE
  8
0
 62
     0
 10
95.3273
 20
2.74643
 30
0.0
 11
95.7696
 21
3.19016
 31
0.0
  0
LINE
  8
0
 62
     0
 10
95.7696
 20
3.19016
 30
0.0
 11
96.0533
 21
3.74689
 31
0.0
  0
LINE
  8
0
 62
     0
 10
96.0533
 20
3.74689
 30
0.0
 11
96.1513
 21
4.36425
 31
0.0
  0
LINE
  8
0
 62
     0
 10
96.1513
 20
4.36425
 30
0.0
 11
96.0533
 21
4.98299
 31
0.0
  0
LINE
  8
0
 62
     0
 10
96.0533
 20
4.98299
 30
0.0
 11
95.7696
 21
5.54108
 31
0.0
  0
LINE
  8
0
 62
     0
 10
95.7696
 20
5.54108
 30
0.0
 11
95.3273
 21
5.98343
 31
0.0
  0
LINE
  8
0
 62
     0
 10
95.3273
 20
5.98343
 30
0.0
 11
94.7692
 21
6.26731
 31
0.0
  0
LINE
  8
0
 62
     0
 10
94.7692
 20
6.26731
 30
0.0
 11
94.1518
 21
6.36517
 31
0.0
  0
LINE
  8
0
 62
     0
 10
94.1518
 20
6.36517
 30
0.0
 11
93.533
 21
6.26731
 31
0.0
  0
LINE
  8
0
 62
     0
 10
3.47679
 20
6.26731
 30
0.0
 11
2.92006
 21
5.98343
 31
0.0
  0
LINE
  8
0
 62
     0
 10
2.92006
 20
5.98343
 30
0.0
 11
2.47633
 21
5.54108
 31
0.0
  0
LINE
  8
0
 62
     0
 10
2.47633
 20
5.54108
 30
0.0
 11
2.19246
 21
4.98299
 31
0.0
  0
LINE
  8
0
 62
     0
 10
2.19246
 20
4.98299
 30
0.0
 11
2.09462
 21
4.36425
 31
0.0
  0
LINE
  8
0
 62
     0
 10
2.09462
 20
4.36425
 30
0.0
 11
2.19246
 21
3.74689
 31
0.0
  0
LINE
  8
0
 62
     0
 10
2.19246
 20
3.74689
 30
0.0
 11
2.47633
 21
3.19016
 31
0.0
  0
LINE
  8
0
 62
     0
 10
2.47633
 20
3.19016
 30
0.0
 11
2.92006
 21
2.74643
 31
0.0
  0
LINE
  8
0
 62
     0
 10
2.92006
 20
2.74643
 30
0.0
 11
3.47679
 21
2.46255
 31
0.0
  0
LINE
  8
0
 62
     0
 10
3.47679
 20
2.46255
 30
0.0
 11
4.09554
 21
2.36472
 31
0.0
  0
LINE
  8
0
 62
     0
 10
4.09554
 20
2.36472
 30
0.0
 11
4.7129
 21
2.46255
 31
0.0
  0
LINE
  8
0
 62
     0
 10
4.7129
 20
2.46255
 30
0.0
 11
5.27099
 21
2.74643
 31
0.0
  0
LINE
  8
0
 62
     0
 10
5.27099
 20
2.74643
 30
0.0
 11
5.71334
 21
3.19016
 31
0.0
  0
LINE
  8
0
 62
     0
 10
5.71334
 20
3.19016
 30
0.0
 11
5.99722
 21
3.74689
 31
0.0
  0
LINE
  8
0
 62
     0
 10
5.99722
 20
3.74689
 30
0.0
 11
6.09505
 21
4.36425
 31
0.0
  0
LINE
  8
0
 62
     0
 10
6.09505
 20
4.36425
 30
0.0
 11
5.99722
 21
4.98299
 31
0.0
  0
LINE
  8
0
 62
     0
 10
5.99722
 20
4.98299
 30
0.0
 11
5.71334
 21
5.54108
 31
0.0
  0
LINE
  8
0
 62
     0
 10
5.71334
 20
5.54108
 30
0.0
 11
5.27099
 21
5.98343
 31
0.0
  0
LINE
  8
0
 62
     0
 10
5.27099
 20
5.98343
 30
0.0
 11
4.7129
 21
6.26731
 31
0.0
  0
LINE
  8
0
 62
     0
 10
4.7129
 20
6.26731
 30
0.0
 11
4.09554
 21
6.36517
 31
0.0
  0
LINE
  8
0
 62
     0
 10
4.09554
 20
6.36517
 30
0.0
 11
3.47679
 21
6.26731
 31
0.0
  0
LINE
  8
0
 62
     0
 10
149.776
 20
26.8911
 30
0.0
 11
149.776
 21
25.8906
 31
0.0
  0
LINE
  8
0
 62
     0
 10
149.776
 20
25.8906
 30
0.0
 11
148.977
 21
25.8906
 31
0.0
  0
LINE
  8
0
 62
     0
 10
148.977
 20
25.8906
 30
0.0
 11
148.977
 21
22.79
 31
0.0
  0
LINE
  8
0
 62
     0
 10
148.977
 20
22.79
 30
0.0
 11
149.776
 21
22.79
 31
0.0
  0
LINE
  8
0
 62
     0
 10
149.776
 20
22.79
 30
0.0
 11
149.776
 21
22.1905
 31
0.0
  0
LINE
  8
0
 62
     0
 10
149.776
 20
22.1905
 30
0.0
 11
148.252
 21
22.1905
 31
0.0
  0
LINE
  8
0
 62
     0
 10
148.252
 20
22.1905
 30
0.0
 11
148.252
 21
25.4207
 31
0.0
  0
LINE
  8
0
 62
     0
 10
148.252
 20
25.4207
 30
0.0
 11
146.527
 21
25.4207
 31
0.0
  0
LINE
  8
0
 62
     0
 10
146.527
 20
25.4207
 30
0.0
 11
146.527
 21
26.3412
 31
0.0
  0
LINE
  8
0
 62
     0
 10
146.527
 20
26.3412
 30
0.0
 11
143.226
 21
26.3412
 31
0.0
  0
LINE
  8
0
 62
     0
 10
143.226
 20
26.3412
 30
0.0
 11
143.226
 21
25.4207
 31
0.0
  0
LINE
  8
0
 62
     0
 10
143.226
 20
25.4207
 30
0.0
 11
141.501
 21
25.4207
 31
0.0
  0
LINE
  8
0
 62
     0
 10
141.501
 20
25.4207
 30
0.0
 11
141.501
 21
22.1905
 31
0.0
  0
LINE
  8
0
 62
     0
 10
141.501
 20
22.1905
 30
0.0
 11
140.677
 21
22.1905
 31
0.0
  0
LINE
  8
0
 62
     0
 10
140.677
 20
22.1905
 30
0.0
 11
140.677
 21
19.3904
 31
0.0
  0
LINE
  8
0
 62
     0
 10
140.677
 20
19.3904
 30
0.0
 11
141.501
 21
19.3904
 31
0.0
  0
LINE
  8
0
 62
     0
 10
141.501
 20
19.3904
 30
0.0
 11
141.501
 21
13.1203
 31
0.0
  0
LINE
  8
0
 62
     0
 10
141.501
 20
13.1203
 30
0.0
 11
143.226
 21
13.1203
 31
0.0
  0
LINE
  8
0
 62
     0
 10
143.226
 20
13.1203
 30
0.0
 11
143.226
 21
12.1405
 31
0.0
  0
LINE
  8
0
 62
     0
 10
143.226
 20
12.1405
 30
0.0
 11
146.527
 21
12.1405
 31
0.0
  0
LINE
  8
0
 62
     0
 10
146.527
 20
12.1405
 30
0.0
 11
146.527
 21
13.1203
 31
0.0
  0
LINE
  8
0
 62
     0
 10
146.527
 20
13.1203
 30
0.0
 11
148.252
 21
13.1203
 31
0.0
  0
LINE
  8
0
 62
     0
 10
148.252
 20
13.1203
 30
0.0
 11
148.252
 21
17.5907
 31
0.0
  0
LINE
  8
0
 62
     0
 10
148.252
 20
17.5907
 30
0.0
 11
149.776
 21
17.5907
 31
0.0
  0
LINE
  8
0
 62
     0
 10
149.776
 20
17.5907
 30
0.0
 11
149.776
 21
16.9912
 31
0.0
  0
LINE
  8
0
 62
     0
 10
149.776
 20
16.9912
 30
0.0
 11
148.977
 21
16.9912
 31
0.0
  0
LINE
  8
0
 62
     0
 10
148.977
 20
16.9912
 30
0.0
 11
148.977
 21
13.8906
 31
0.0
  0
LINE
  8
0
 62
     0
 10
148.977
 20
13.8906
 30
0.0
 11
149.776
 21
13.8906
 31
0.0
  0
LINE
  8
0
 62
     0
 10
149.776
 20
13.8906
 30
0.0
 11
149.776
 21
12.8902
 31
0.0
  0
LINE
  8
0
 62
     0
 10
149.776
 20
12.8902
 30
0.0
 11
163.777
 21
12.8902
 31
0.0
  0
LINE
  8
0
 62
     0
 10
163.777
 20
12.8902
 30
0.0
 11
163.777
 21
13.8906
 31
0.0
  0
LINE
  8
0
 62
     0
 10
163.777
 20
13.8906
 30
0.0
 11
164.576
 21
13.8906
 31
0.0
  0
LINE
  8
0
 62
     0
 10
164.576
 20
13.8906
 30
0.0
 11
164.576
 21
16.9912
 31
0.0
  0
LINE
  8
0
 62
     0
 10
164.576
 20
16.9912
 30
0.0
 11
163.777
 21
16.9912
 31
0.0
  0
LINE
  8
0
 62
     0
 10
163.777
 20
16.9912
 30
0.0
 11
163.777
 21
17.5907
 31
0.0
  0
LINE
  8
0
 62
     0
 10
163.777
 20
17.5907
 30
0.0
 11
165.301
 21
17.5907
 31
0.0
  0
LINE
  8
0
 62
     0
 10
165.301
 20
17.5907
 30
0.0
 11
165.301
 21
13.1203
 31
0.0
  0
LINE
  8
0
 62
     0
 10
165.301
 20
13.1203
 30
0.0
 11
167.027
 21
13.1203
 31
0.0
  0
LINE
  8
0
 62
     0
 10
167.027
 20
13.1203
 30
0.0
 11
167.027
 21
12.1405
 31
0.0
  0
LINE
  8
0
 62
     0
 10
167.027
 20
12.1405
 30
0.0
 11
170.327
 21
12.1405
 31
0.0
  0
LINE
  8
0
 62
     0
 10
170.327
 20
12.1405
 30
0.0
 11
170.327
 21
13.1203
 31
0.0
  0
LINE
  8
0
 62
     0
 10
170.327
 20
13.1203
 30
0.0
 11
172.051
 21
13.1203
 31
0.0
  0
LINE
  8
0
 62
     0
 10
172.051
 20
13.1203
 30
0.0
 11
172.051
 21
19.3904
 31
0.0
  0
LINE
  8
0
 62
     0
 10
172.051
 20
19.3904
 30
0.0
 11
172.876
 21
19.3904
 31
0.0
  0
LINE
  8
0
 62
     0
 10
172.876
 20
19.3904
 30
0.0
 11
172.876
 21
22.1905
 31
0.0
  0
LINE
  8
0
 62
     0
 10
172.876
 20
22.1905
 30
0.0
 11
172.051
 21
22.1905
 31
0.0
  0
LINE
  8
0
 62
     0
 10
172.051
 20
22.1905
 30
0.0
 11
172.051
 21
25.4207
 31
0.0
  0
LINE
  8
0
 62
     0
 10
172.051
 20
25.4207
 30
0.0
 11
170.327
 21
25.4207
 31
0.0
  0
LINE
  8
0
 62
     0
 10
170.327
 20
25.4207
 30
0.0
 11
170.327
 21
26.3412
 31
0.0
  0
LINE
  8
0
 62
     0
 10
170.327
 20
26.3412
 30
0.0
 11
167.027
 21
26.3412
 31
0.0
  0
LINE
  8
0
 62
     0
 10
167.027
 20
26.3412
 30
0.0
 11
167.027
 21
25.4207
 31
0.0
  0
LINE
  8
0
 62
     0
 10
167.027
 20
25.4207
 30
0.0
 11
165.301
 21
25.4207
 31
0.0
  0
LINE
  8
0
 62
     0
 10
165.301
 20
25.4207
 30
0.0
 11
165.301
 21
22.1905
 31
0.0
  0
LINE
  8
0
 62
     0
 10
165.301
 20
22.1905
 30
0.0
 11
163.777
 21
22.1905
 31
0.0
  0
LINE
  8
0
 62
     0
 10
163.777
 20
22.1905
 30
0.0
 11
163.777
 21
22.79
 31
0.0
  0
LINE
  8
0
 62
     0
 10
163.777
 20
22.79
 30
0.0
 11
164.576
 21
22.79
 31
0.0
  0
LINE
  8
0
 62
     0
 10
164.576
 20
22.79
 30
0.0
 11
164.576
 21
25.8906
 31
0.0
  0
LINE
  8
0
 62
     0
 10
164.576
 20
25.8906
 30
0.0
 11
163.777
 21
25.8906
 31
0.0
  0
LINE
  8
0
 62
     0
 10
163.777
 20
25.8906
 30
0.0
 11
163.777
 21
26.8911
 31
0.0
  0
LINE
  8
0
 62
     0
 10
163.777
 20
26.8911
 30
0.0
 11
149.776
 21
26.8911
 31
0.0
  0
LINE
  8
0
 62
     0
 10
45.0014
 20
26.8911
 30
0.0
 11
45.0014
 21
25.8906
 31
0.0
  0
LINE
  8
0
 62
     0
 10
45.0014
 20
25.8906
 30
0.0
 11
44.202
 21
25.8906
 31
0.0
  0
LINE
  8
0
 62
     0
 10
44.202
 20
25.8906
 30
0.0
 11
44.202
 21
22.79
 31
0.0
  0
LINE
  8
0
 62
     0
 10
44.202
 20
22.79
 30
0.0
 11
45.0014
 21
22.79
 31
0.0
  0
LINE
  8
0
 62
     0
 10
45.0014
 20
22.79
 30
0.0
 11
45.0014
 21
16.9912
 31
0.0
  0
LINE
  8
0
 62
     0
 10
45.0014
 20
16.9912
 30
0.0
 11
44.202
 21
16.9912
 31
0.0
  0
LINE
  8
0
 62
     0
 10
44.202
 20
16.9912
 30
0.0
 11
44.202
 21
13.8906
 31
0.0
  0
LINE
  8
0
 62
     0
 10
44.202
 20
13.8906
 30
0.0
 11
45.0014
 21
13.8906
 31
0.0
  0
LINE
  8
0
 62
     0
 10
45.0014
 20
13.8906
 30
0.0
 11
45.0014
 21
12.8902
 31
0.0
  0
LINE
  8
0
 62
     0
 10
45.0014
 20
12.8902
 30
0.0
 11
59.0021
 21
12.8902
 31
0.0
  0
LINE
  8
0
 62
     0
 10
59.0021
 20
12.8902
 30
0.0
 11
59.0021
 21
13.8906
 31
0.0
  0
LINE
  8
0
 62
     0
 10
59.0021
 20
13.8906
 30
0.0
 11
59.8015
 21
13.8906
 31
0.0
  0
LINE
  8
0
 62
     0
 10
59.8015
 20
13.8906
 30
0.0
 11
59.8015
 21
16.9912
 31
0.0
  0
LINE
  8
0
 62
     0
 10
59.8015
 20
16.9912
 30
0.0
 11
59.0021
 21
16.9912
 31
0.0
  0
LINE
  8
0
 62
     0
 10
59.0021
 20
16.9912
 30
0.0
 11
59.0021
 21
22.79
 31
0.0
  0
LINE
  8
0
 62
     0
 10
59.0021
 20
22.79
 30
0.0
 11
59.8015
 21
22.79
 31
0.0
  0
LINE
  8
0
 62
     0
 10
59.8015
 20
22.79
 30
0.0
 11
59.8015
 21
25.8906
 31
0.0
  0
LINE
  8
0
 62
     0
 10
59.8015
 20
25.8906
 30
0.0
 11
59.0021
 21
25.8906
 31
0.0
  0
LINE
  8
0
 62
     0
 10
59.0021
 20
25.8906
 30
0.0
 11
59.0021
 21
26.8911
 31
0.0
  0
LINE
  8
0
 62
     0
 10
59.0021
 20
26.8911
 30
0.0
 11
45.0014
 21
26.8911
 31
0.0
  0
LINE
  8
0
 62
     0
 10
68.8139
 20
26.8911
 30
0.0
 11
68.8139
 21
25.8906
 31
0.0
  0
LINE
  8
0
 62
     0
 10
68.8139
 20
25.8906
 30
0.0
 11
68.0131
 21
25.8906
 31
0.0
  0
LINE
  8
0
 62
     0
 10
68.0131
 20
25.8906
 30
0.0
 11
68.0131
 21
22.79
 31
0.0
  0
LINE
  8
0
 62
     0
 10
68.0131
 20
22.79
 30
0.0
 11
68.8139
 21
22.79
 31
0.0
  0
LINE
  8
0
 62
     0
 10
68.8139
 20
22.79
 30
0.0
 11
68.8139
 21
16.9912
 31
0.0
  0
LINE
  8
0
 62
     0
 10
68.8139
 20
16.9912
 30
0.0
 11
68.0131
 21
16.9912
 31
0.0
  0
LINE
  8
0
 62
     0
 10
68.0131
 20
16.9912
 30
0.0
 11
68.0131
 21
13.8906
 31
0.0
  0
LINE
  8
0
 62
     0
 10
68.0131
 20
13.8906
 30
0.0
 11
68.8139
 21
13.8906
 31
0.0
  0
LINE
  8
0
 62
     0
 10
68.8139
 20
13.8906
 30
0.0
 11
68.8139
 21
12.8902
 31
0.0
  0
LINE
  8
0
 62
     0
 10
68.8139
 20
12.8902
 30
0.0
 11
82.8132
 21
12.8902
 31
0.0
  0
LINE
  8
0
 62
     0
 10
82.8132
 20
12.8902
 30
0.0
 11
82.8132
 21
13.8906
 31
0.0
  0
LINE
  8
0
 62
     0
 10
82.8132
 20
13.8906
 30
0.0
 11
83.614
 21
13.8906
 31
0.0
  0
LINE
  8
0
 62
     0
 10
83.614
 20
13.8906
 30
0.0
 11
83.614
 21
16.9912
 31
0.0
  0
LINE
  8
0
 62
     0
 10
83.614
 20
16.9912
 30
0.0
 11
82.8132
 21
16.9912
 31
0.0
  0
LINE
  8
0
 62
     0
 10
82.8132
 20
16.9912
 30
0.0
 11
82.8132
 21
22.79
 31
0.0
  0
LINE
  8
0
 62
     0
 10
82.8132
 20
22.79
 30
0.0
 11
83.614
 21
22.79
 31
0.0
  0
LINE
  8
0
 62
     0
 10
83.614
 20
22.79
 30
0.0
 11
83.614
 21
25.8906
 31
0.0
  0
LINE
  8
0
 62
     0
 10
83.614
 20
25.8906
 30
0.0
 11
82.8132
 21
25.8906
 31
0.0
  0
LINE
  8
0
 62
     0
 10
82.8132
 20
25.8906
 30
0.0
 11
82.8132
 21
26.8911
 31
0.0
  0
LINE
  8
0
 62
     0
 10
82.8132
 20
26.8911
 30
0.0
 11
68.8139
 21
26.8911
 31
0.0
  0
LINE
  8
0
 62
     0
 10
92.6264
 20
26.8911
 30
0.0
 11
92.6264
 21
25.8906
 31
0.0
  0
LINE
  8
0
 62
     0
 10
92.6264
 20
25.8906
 30
0.0
 11
91.827
 21
25.8906
 31
0.0
  0
LINE
  8
0
 62
     0
 10
91.827
 20
25.8906
 30
0.0
 11
91.827
 21
22.79
 31
0.0
  0
LINE
  8
0
 62
     0
 10
91.827
 20
22.79
 30
0.0
 11
92.6264
 21
22.79
 31
0.0
  0
LINE
  8
0
 62
     0
 10
92.6264
 20
22.79
 30
0.0
 11
92.6264
 21
16.9912
 31
0.0
  0
LINE
  8
0
 62
     0
 10
92.6264
 20
16.9912
 30
0.0
 11
91.827
 21
16.9912
 31
0.0
  0
LINE
  8
0
 62
     0
 10
91.827
 20
16.9912
 30
0.0
 11
91.827
 21
13.8906
 31
0.0
  0
LINE
  8
0
 62
     0
 10
91.827
 20
13.8906
 30
0.0
 11
92.6264
 21
13.8906
 31
0.0
  0
LINE
  8
0
 62
     0
 10
92.6264
 20
13.8906
 30
0.0
 11
92.6264
 21
12.8902
 31
0.0
  0
LINE
  8
0
 62
     0
 10
92.6264
 20
12.8902
 30
0.0
 11
106.627
 21
12.8902
 31
0.0
  0
LINE
  8
0
 62
     0
 10
106.627
 20
12.8902
 30
0.0
 11
106.627
 21
13.8906
 31
0.0
  0
LINE
  8
0
 62
     0
 10
106.627
 20
13.8906
 30
0.0
 11
107.426
 21
13.8906
 31
0.0
  0
LINE
  8
0
 62
     0
 10
107.426
 20
13.8906
 30
0.0
 11
107.426
 21
16.9912
 31
0.0
  0
LINE
  8
0
 62
     0
 10
107.426
 20
16.9912
 30
0.0
 11
106.627
 21
16.9912
 31
0.0
  0
LINE
  8
0
 62
     0
 10
106.627
 20
16.9912
 30
0.0
 11
106.627
 21
22.79
 31
0.0
  0
LINE
  8
0
 62
     0
 10
106.627
 20
22.79
 30
0.0
 11
107.426
 21
22.79
 31
0.0
  0
LINE
  8
0
 62
     0
 10
107.426
 20
22.79
 30
0.0
 11
107.426
 21
25.8906
 31
0.0
  0
LINE
  8
0
 62
     0
 10
107.426
 20
25.8906
 30
0.0
 11
106.627
 21
25.8906
 31
0.0
  0
LINE
  8
0
 62
     0
 10
106.627
 20
25.8906
 30
0.0
 11
106.627
 21
26.8911
 31
0.0
  0
LINE
  8
0
 62
     0
 10
106.627
 20
26.8911
 30
0.0
 11
92.6264
 21
26.8911
 31
0.0
  0
LINE
  8
0
 62
     0
 10
116.439
 20
26.8911
 30
0.0
 11
116.439
 21
25.8906
 31
0.0
  0
LINE
  8
0
 62
     0
 10
116.439
 20
25.8906
 30
0.0
 11
115.638
 21
25.8906
 31
0.0
  0
LINE
  8
0
 62
     0
 10
115.638
 20
25.8906
 30
0.0
 11
115.638
 21
22.79
 31
0.0
  0
LINE
  8
0
 62
     0
 10
115.638
 20
22.79
 30
0.0
 11
116.439
 21
22.79
 31
0.0
  0
LINE
  8
0
 62
     0
 10
116.439
 20
22.79
 30
0.0
 11
116.439
 21
16.9912
 31
0.0
  0
LINE
  8
0
 62
     0
 10
116.439
 20
16.9912
 30
0.0
 11
115.638
 21
16.9912
 31
0.0
  0
LINE
  8
0
 62
     0
 10
115.638
 20
16.9912
 30
0.0
 11
115.638
 21
13.8906
 31
0.0
  0
LINE
  8
0
 62
     0
 10
115.638
 20
13.8906
 30
0.0
 11
116.439
 21
13.8906
 31
0.0
  0
LINE
  8
0
 62
     0
 10
116.439
 20
13.8906
 30
0.0
 11
116.439
 21
12.8902
 31
0.0
  0
LINE
  8
0
 62
     0
 10
116.439
 20
12.8902
 30
0.0
 11
130.438
 21
12.8902
 31
0.0
  0
LINE
  8
0
 62
     0
 10
130.438
 20
12.8902
 30
0.0
 11
130.438
 21
13.8906
 31
0.0
  0
LINE
  8
0
 62
     0
 10
130.438
 20
13.8906
 30
0.0
 11
131.239
 21
13.8906
 31
0.0
  0
LINE
  8
0
 62
     0
 10
131.239
 20
13.8906
 30
0.0
 11
131.239
 21
16.9912
 31
0.0
  0
LINE
  8
0
 62
     0
 10
131.239
 20
16.9912
 30
0.0
 11
130.438
 21
16.9912
 31
0.0
  0
LINE
  8
0
 62
     0
 10
130.438
 20
16.9912
 30
0.0
 11
130.438
 21
22.79
 31
0.0
  0
LINE
  8
0
 62
     0
 10
130.438
 20
22.79
 30
0.0
 11
131.239
 21
22.79
 31
0.0
  0
LINE
  8
0
 62
     0
 10
131.239
 20
22.79
 30
0.0
 11
131.239
 21
25.8906
 31
0.0
  0
LINE
  8
0
 62
     0
 10
131.239
 20
25.8906
 30
0.0
 11
130.438
 21
25.8906
 31
0.0
  0
LINE
  8
0
 62
     0
 10
130.438
 20
25.8906
 30
0.0
 11
130.438
 21
26.8911
 31
0.0
  0
LINE
  8
0
 62
     0
 10
130.438
 20
26.8911
 30
0.0
 11
116.439
 21
26.8911
 31
0.0
  0
LINE
  8
0
 62
     0
 10
54.5264
 20
45.9412
 30
0.0
 11
54.5264
 21
44.9407
 31
0.0
  0
LINE
  8
0
 62
     0
 10
54.5264
 20
44.9407
 30
0.0
 11
53.727
 21
44.9407
 31
0.0
  0
LINE
  8
0
 62
     0
 10
53.727
 20
44.9407
 30
0.0
 11
53.727
 21
41.8401
 31
0.0
  0
LINE
  8
0
 62
     0
 10
53.727
 20
41.8401
 30
0.0
 11
54.5264
 21
41.8401
 31
0.0
  0
LINE
  8
0
 62
     0
 10
54.5264
 20
41.8401
 30
0.0
 11
54.5264
 21
41.2404
 31
0.0
  0
LINE
  8
0
 62
     0
 10
54.5264
 20
41.2404
 30
0.0
 11
53.002
 21
41.2404
 31
0.0
  0
LINE
  8
0
 62
     0
 10
53.002
 20
41.2404
 30
0.0
 11
53.002
 21
44.4708
 31
0.0
  0
LINE
  8
0
 62
     0
 10
53.002
 20
44.4708
 30
0.0
 11
51.277
 21
44.4708
 31
0.0
  0
LINE
  8
0
 62
     0
 10
51.277
 20
44.4708
 30
0.0
 11
51.277
 21
45.3912
 31
0.0
  0
LINE
  8
0
 62
     0
 10
51.277
 20
45.3912
 30
0.0
 11
47.9764
 21
45.3912
 31
0.0
  0
LINE
  8
0
 62
     0
 10
47.9764
 20
45.3912
 30
0.0
 11
47.9764
 21
44.4708
 31
0.0
  0
LINE
  8
0
 62
     0
 10
47.9764
 20
44.4708
 30
0.0
 11
46.2509
 21
44.4708
 31
0.0
  0
LINE
  8
0
 62
     0
 10
46.2509
 20
44.4708
 30
0.0
 11
46.2509
 21
41.2404
 31
0.0
  0
LINE
  8
0
 62
     0
 10
46.2509
 20
41.2404
 30
0.0
 11
45.4272
 21
41.2404
 31
0.0
  0
LINE
  8
0
 62
     0
 10
45.4272
 20
41.2404
 30
0.0
 11
45.4272
 21
38.4404
 31
0.0
  0
LINE
  8
0
 62
     0
 10
45.4272
 20
38.4404
 30
0.0
 11
46.2509
 21
38.4404
 31
0.0
  0
LINE
  8
0
 62
     0
 10
46.2509
 20
38.4404
 30
0.0
 11
46.2509
 21
32.1703
 31
0.0
  0
LINE
  8
0
 62
     0
 10
46.2509
 20
32.1703
 30
0.0
 11
47.9764
 21
32.1703
 31
0.0
  0
LINE
  8
0
 62
     0
 10
47.9764
 20
32.1703
 30
0.0
 11
47.9764
 21
31.1905
 31
0.0
  0
LINE
  8
0
 62
     0
 10
47.9764
 20
31.1905
 30
0.0
 11
51.277
 21
31.1905
 31
0.0
  0
LINE
  8
0
 62
     0
 10
51.277
 20
31.1905
 30
0.0
 11
51.277
 21
32.1703
 31
0.0
  0
LINE
  8
0
 62
     0
 10
51.277
 20
32.1703
 30
0.0
 11
53.002
 21
32.1703
 31
0.0
  0
LINE
  8
0
 62
     0
 10
53.002
 20
32.1703
 30
0.0
 11
53.002
 21
36.6406
 31
0.0
  0
LINE
  8
0
 62
     0
 10
53.002
 20
36.6406
 30
0.0
 11
54.5264
 21
36.6406
 31
0.0
  0
LINE
  8
0
 62
     0
 10
54.5264
 20
36.6406
 30
0.0
 11
54.5264
 21
36.0412
 31
0.0
  0
LINE
  8
0
 62
     0
 10
54.5264
 20
36.0412
 30
0.0
 11
53.727
 21
36.0412
 31
0.0
  0
LINE
  8
0
 62
     0
 10
53.727
 20
36.0412
 30
0.0
 11
53.727
 21
32.9406
 31
0.0
  0
LINE
  8
0
 62
     0
 10
53.727
 20
32.9406
 30
0.0
 11
54.5264
 21
32.9406
 31
0.0
  0
LINE
  8
0
 62
     0
 10
54.5264
 20
32.9406
 30
0.0
 11
54.5264
 21
31.9402
 31
0.0
  0
LINE
  8
0
 62
     0
 10
54.5264
 20
31.9402
 30
0.0
 11
68.5271
 21
31.9402
 31
0.0
  0
LINE
  8
0
 62
     0
 10
68.5271
 20
31.9402
 30
0.0
 11
68.5271
 21
32.9406
 31
0.0
  0
LINE
  8
0
 62
     0
 10
68.5271
 20
32.9406
 30
0.0
 11
69.3265
 21
32.9406
 31
0.0
  0
LINE
  8
0
 62
     0
 10
69.3265
 20
32.9406
 30
0.0
 11
69.3265
 21
36.0412
 31
0.0
  0
LINE
  8
0
 62
     0
 10
69.3265
 20
36.0412
 30
0.0
 11
68.5271
 21
36.0412
 31
0.0
  0
LINE
  8
0
 62
     0
 10
68.5271
 20
36.0412
 30
0.0
 11
68.5271
 21
36.6406
 31
0.0
  0
LINE
  8
0
 62
     0
 10
68.5271
 20
36.6406
 30
0.0
 11
70.0511
 21
36.6406
 31
0.0
  0
LINE
  8
0
 62
     0
 10
70.0511
 20
36.6406
 30
0.0
 11
70.0511
 21
32.1703
 31
0.0
  0
LINE
  8
0
 62
     0
 10
70.0511
 20
32.1703
 30
0.0
 11
71.7765
 21
32.1703
 31
0.0
  0
LINE
  8
0
 62
     0
 10
71.7765
 20
32.1703
 30
0.0
 11
71.7765
 21
31.1905
 31
0.0
  0
LINE
  8
0
 62
     0
 10
71.7765
 20
31.1905
 30
0.0
 11
75.0768
 21
31.1905
 31
0.0
  0
LINE
  8
0
 62
     0
 10
75.0768
 20
31.1905
 30
0.0
 11
75.0768
 21
32.1703
 31
0.0
  0
LINE
  8
0
 62
     0
 10
75.0768
 20
32.1703
 30
0.0
 11
76.8008
 21
32.1703
 31
0.0
  0
LINE
  8
0
 62
     0
 10
76.8008
 20
32.1703
 30
0.0
 11
76.8008
 21
38.4404
 31
0.0
  0
LINE
  8
0
 62
     0
 10
76.8008
 20
38.4404
 30
0.0
 11
77.6263
 21
38.4404
 31
0.0
  0
LINE
  8
0
 62
     0
 10
77.6263
 20
38.4404
 30
0.0
 11
77.6263
 21
41.2404
 31
0.0
  0
LINE
  8
0
 62
     0
 10
77.6263
 20
41.2404
 30
0.0
 11
76.8008
 21
41.2404
 31
0.0
  0
LINE
  8
0
 62
     0
 10
76.8008
 20
41.2404
 30
0.0
 11
76.8008
 21
44.4708
 31
0.0
  0
LINE
  8
0
 62
     0
 10
76.8008
 20
44.4708
 30
0.0
 11
75.0768
 21
44.4708
 31
0.0
  0
LINE
  8
0
 62
     0
 10
75.0768
 20
44.4708
 30
0.0
 11
75.0768
 21
45.3912
 31
0.0
  0
LINE
  8
0
 62
     0
 10
75.0768
 20
45.3912
 30
0.0
 11
71.7765
 21
45.3912
 31
0.0
  0
LINE
  8
0
 62
     0
 10
71.7765
 20
45.3912
 30
0.0
 11
71.7765
 21
44.4708
 31
0.0
  0
LINE
  8
0
 62
     0
 10
71.7765
 20
44.4708
 30
0.0
 11
70.0511
 21
44.4708
 31
0.0
  0
LINE
  8
0
 62
     0
 10
70.0511
 20
44.4708
 30
0.0
 11
70.0511
 21
41.2404
 31
0.0
  0
LINE
  8
0
 62
     0
 10
70.0511
 20
41.2404
 30
0.0
 11
68.5271
 21
41.2404
 31
0.0
  0
LINE
  8
0
 62
     0
 10
68.5271
 20
41.2404
 30
0.0
 11
68.5271
 21
41.8401
 31
0.0
  0
LINE
  8
0
 62
     0
 10
68.5271
 20
41.8401
 30
0.0
 11
69.3265
 21
41.8401
 31
0.0
  0
LINE
  8
0
 62
     0
 10
69.3265
 20
41.8401
 30
0.0
 11
69.3265
 21
44.9407
 31
0.0
  0
LINE
  8
0
 62
     0
 10
69.3265
 20
44.9407
 30
0.0
 11
68.5271
 21
44.9407
 31
0.0
  0
LINE
  8
0
 62
     0
 10
68.5271
 20
44.9407
 30
0.0
 11
68.5271
 21
45.9412
 31
0.0
  0
LINE
  8
0
 62
     0
 10
68.5271
 20
45.9412
 30
0.0
 11
54.5264
 21
45.9412
 31
0.0
  0
LINE
  8
0
 62
     0
 10
85.4826
 20
45.9412
 30
0.0
 11
85.4826
 21
44.9407
 31
0.0
  0
LINE
  8
0
 62
     0
 10
85.4826
 20
44.9407
 30
0.0
 11
84.6818
 21
44.9407
 31
0.0
  0
LINE
  8
0
 62
     0
 10
84.6818
 20
44.9407
 30
0.0
 11
84.6818
 21
41.8401
 31
0.0
  0
LINE
  8
0
 62
     0
 10
84.6818
 20
41.8401
 30
0.0
 11
85.4826
 21
41.8401
 31
0.0
  0
LINE
  8
0
 62
     0
 10
85.4826
 20
41.8401
 30
0.0
 11
85.4826
 21
36.0412
 31
0.0
  0
LINE
  8
0
 62
     0
 10
85.4826
 20
36.0412
 30
0.0
 11
84.6818
 21
36.0412
 31
0.0
  0
LINE
  8
0
 62
     0
 10
84.6818
 20
36.0412
 30
0.0
 11
84.6818
 21
32.9406
 31
0.0
  0
LINE
  8
0
 62
     0
 10
84.6818
 20
32.9406
 30
0.0
 11
85.4826
 21
32.9406
 31
0.0
  0
LINE
  8
0
 62
     0
 10
85.4826
 20
32.9406
 30
0.0
 11
85.4826
 21
31.9402
 31
0.0
  0
LINE
  8
0
 62
     0
 10
85.4826
 20
31.9402
 30
0.0
 11
99.4819
 21
31.9402
 31
0.0
  0
LINE
  8
0
 62
     0
 10
99.4819
 20
31.9402
 30
0.0
 11
99.4819
 21
32.9406
 31
0.0
  0
LINE
  8
0
 62
     0
 10
99.4819
 20
32.9406
 30
0.0
 11
100.283
 21
32.9406
 31
0.0
  0
LINE
  8
0
 62
     0
 10
100.283
 20
32.9406
 30
0.0
 11
100.283
 21
36.0412
 31
0.0
  0
LINE
  8
0
 62
     0
 10
100.283
 20
36.0412
 30
0.0
 11
99.4819
 21
36.0412
 31
0.0
  0
LINE
  8
0
 62
     0
 10
99.4819
 20
36.0412
 30
0.0
 11
99.4819
 21
41.8401
 31
0.0
  0
LINE
  8
0
 62
     0
 10
99.4819
 20
41.8401
 30
0.0
 11
100.283
 21
41.8401
 31
0.0
  0
LINE
  8
0
 62
     0
 10
100.283
 20
41.8401
 30
0.0
 11
100.283
 21
44.9407
 31
0.0
  0
LINE
  8
0
 62
     0
 10
100.283
 20
44.9407
 30
0.0
 11
99.4819
 21
44.9407
 31
0.0
  0
LINE
  8
0
 62
     0
 10
99.4819
 20
44.9407
 30
0.0
 11
99.4819
 21
45.9412
 31
0.0
  0
LINE
  8
0
 62
     0
 10
99.4819
 20
45.9412
 30
0.0
 11
85.4826
 21
45.9412
 31
0.0
  0
LINE
  8
0
 62
     0
 10
104.533
 20
45.9412
 30
0.0
 11
104.533
 21
44.9407
 31
0.0
  0
LINE
  8
0
 62
     0
 10
104.533
 20
44.9407
 30
0.0
 11
103.732
 21
44.9407
 31
0.0
  0
LINE
  8
0
 62
     0
 10
103.732
 20
44.9407
 30
0.0
 11
103.732
 21
41.8401
 31
0.0
  0
LINE
  8
0
 62
     0
 10
103.732
 20
41.8401
 30
0.0
 11
104.533
 21
41.8401
 31
0.0
  0
LINE
  8
0
 62
     0
 10
104.533
 20
41.8401
 30
0.0
 11
104.533
 21
36.0412
 31
0.0
  0
LINE
  8
0
 62
     0
 10
104.533
 20
36.0412
 30
0.0
 11
103.732
 21
36.0412
 31
0.0
  0
LINE
  8
0
 62
     0
 10
103.732
 20
36.0412
 30
0.0
 11
103.732
 21
32.9406
 31
0.0
  0
LINE
  8
0
 62
     0
 10
103.732
 20
32.9406
 30
0.0
 11
104.533
 21
32.9406
 31
0.0
  0
LINE
  8
0
 62
     0
 10
104.533
 20
32.9406
 30
0.0
 11
104.533
 21
31.9402
 31
0.0
  0
LINE
  8
0
 62
     0
 10
104.533
 20
31.9402
 30
0.0
 11
118.532
 21
31.9402
 31
0.0
  0
LINE
  8
0
 62
     0
 10
118.532
 20
31.9402
 30
0.0
 11
118.532
 21
32.9406
 31
0.0
  0
LINE
  8
0
 62
     0
 10
118.532
 20
32.9406
 30
0.0
 11
119.333
 21
32.9406
 31
0.0
  0
LINE
  8
0
 62
     0
 10
119.333
 20
32.9406
 30
0.0
 11
119.333
 21
36.0412
 31
0.0
  0
LINE
  8
0
 62
     0
 10
119.333
 20
36.0412
 30
0.0
 11
118.532
 21
36.0412
 31
0.0
  0
LINE
  8
0
 62
     0
 10
118.532
 20
36.0412
 30
0.0
 11
118.532
 21
41.8401
 31
0.0
  0
LINE
  8
0
 62
     0
 10
118.532
 20
41.8401
 30
0.0
 11
119.333
 21
41.8401
 31
0.0
  0
LINE
  8
0
 62
     0
 10
119.333
 20
41.8401
 30
0.0
 11
119.333
 21
44.9407
 31
0.0
  0
LINE
  8
0
 62
     0
 10
119.333
 20
44.9407
 30
0.0
 11
118.532
 21
44.9407
 31
0.0
  0
LINE
  8
0
 62
     0
 10
118.532
 20
44.9407
 30
0.0
 11
118.532
 21
45.9412
 31
0.0
  0
LINE
  8
0
 62
     0
 10
118.532
 20
45.9412
 30
0.0
 11
104.533
 21
45.9412
 31
0.0
  0
LINE
  8
0
 62
     0
 10
123.583
 20
45.9412
 30
0.0
 11
123.583
 21
44.9407
 31
0.0
  0
LINE
  8
0
 62
     0
 10
123.583
 20
44.9407
 30
0.0
 11
122.782
 21
44.9407
 31
0.0
  0
LINE
  8
0
 62
     0
 10
122.782
 20
44.9407
 30
0.0
 11
122.782
 21
41.8401
 31
0.0
  0
LINE
  8
0
 62
     0
 10
122.782
 20
41.8401
 30
0.0
 11
123.583
 21
41.8401
 31
0.0
  0
LINE
  8
0
 62
     0
 10
123.583
 20
41.8401
 30
0.0
 11
123.583
 21
36.0412
 31
0.0
  0
LINE
  8
0
 62
     0
 10
123.583
 20
36.0412
 30
0.0
 11
122.782
 21
36.0412
 31
0.0
  0
LINE
  8
0
 62
     0
 10
122.782
 20
36.0412
 30
0.0
 11
122.782
 21
32.9406
 31
0.0
  0
LINE
  8
0
 62
     0
 10
122.782
 20
32.9406
 30
0.0
 11
123.583
 21
32.9406
 31
0.0
  0
LINE
  8
0
 62
     0
 10
123.583
 20
32.9406
 30
0.0
 11
123.583
 21
31.9402
 31
0.0
  0
LINE
  8
0
 62
     0
 10
123.583
 20
31.9402
 30
0.0
 11
137.582
 21
31.9402
 31
0.0
  0
LINE
  8
0
 62
     0
 10
137.582
 20
31.9402
 30
0.0
 11
137.582
 21
32.9406
 31
0.0
  0
LINE
  8
0
 62
     0
 10
137.582
 20
32.9406
 30
0.0
 11
138.383
 21
32.9406
 31
0.0
  0
LINE
  8
0
 62
     0
 10
138.383
 20
32.9406
 30
0.0
 11
138.383
 21
36.0412
 31
0.0
  0
LINE
  8
0
 62
     0
 10
138.383
 20
36.0412
 30
0.0
 11
137.582
 21
36.0412
 31
0.0
  0
LINE
  8
0
 62
     0
 10
137.582
 20
36.0412
 30
0.0
 11
137.582
 21
41.8401
 31
0.0
  0
LINE
  8
0
 62
     0
 10
137.582
 20
41.8401
 30
0.0
 11
138.383
 21
41.8401
 31
0.0
  0
LINE
  8
0
 62
     0
 10
138.383
 20
41.8401
 30
0.0
 11
138.383
 21
44.9407
 31
0.0
  0
LINE
  8
0
 62
     0
 10
138.383
 20
44.9407
 30
0.0
 11
137.582
 21
44.9407
 31
0.0
  0
LINE
  8
0
 62
     0
 10
137.582
 20
44.9407
 30
0.0
 11
137.582
 21
45.9412
 31
0.0
  0
LINE
  8
0
 62
     0
 10
137.582
 20
45.9412
 30
0.0
 11
123.583
 21
45.9412
 31
0.0
  0
LINE
  8
0
 62
     0
 10
142.633
 20
45.9412
 30
0.0
 11
142.633
 21
44.9407
 31
0.0
  0
LINE
  8
0
 62
     0
 10
142.633
 20
44.9407
 30
0.0
 11
141.832
 21
44.9407
 31
0.0
  0
LINE
  8
0
 62
     0
 10
141.832
 20
44.9407
 30
0.0
 11
141.832
 21
41.8401
 31
0.0
  0
LINE
  8
0
 62
     0
 10
141.832
 20
41.8401
 30
0.0
 11
142.633
 21
41.8401
 31
0.0
  0
LINE
  8
0
 62
     0
 10
142.633
 20
41.8401
 30
0.0
 11
142.633
 21
36.0412
 31
0.0
  0
LINE
  8
0
 62
     0
 10
142.633
 20
36.0412
 30
0.0
 11
141.832
 21
36.0412
 31
0.0
  0
LINE
  8
0
 62
     0
 10
141.832
 20
36.0412
 30
0.0
 11
141.832
 21
32.9406
 31
0.0
  0
LINE
  8
0
 62
     0
 10
141.832
 20
32.9406
 30
0.0
 11
142.633
 21
32.9406
 31
0.0
  0
LINE
  8
0
 62
     0
 10
142.633
 20
32.9406
 30
0.0
 11
142.633
 21
31.9402
 31
0.0
  0
LINE
  8
0
 62
     0
 10
142.633
 20
31.9402
 30
0.0
 11
156.632
 21
31.9402
 31
0.0
  0
LINE
  8
0
 62
     0
 10
156.632
 20
31.9402
 30
0.0
 11
156.632
 21
32.9406
 31
0.0
  0
LINE
  8
0
 62
     0
 10
156.632
 20
32.9406
 30
0.0
 11
157.433
 21
32.9406
 31
0.0
  0
LINE
  8
0
 62
     0
 10
157.433
 20
32.9406
 30
0.0
 11
157.433
 21
36.0412
 31
0.0
  0
LINE
  8
0
 62
     0
 10
157.433
 20
36.0412
 30
0.0
 11
156.632
 21
36.0412
 31
0.0
  0
LINE
  8
0
 62
     0
 10
156.632
 20
36.0412
 30
0.0
 11
156.632
 21
41.8401
 31
0.0
  0
LINE
  8
0
 62
     0
 10
156.632
 20
41.8401
 30
0.0
 11
157.433
 21
41.8401
 31
0.0
  0
LINE
  8
0
 62
     0
 10
157.433
 20
41.8401
 30
0.0
 11
157.433
 21
44.9407
 31
0.0
  0
LINE
  8
0
 62
     0
 10
157.433
 20
44.9407
 30
0.0
 11
156.632
 21
44.9407
 31
0.0
  0
LINE
  8
0
 62
     0
 10
156.632
 20
44.9407
 30
0.0
 11
156.632
 21
45.9412
 31
0.0
  0
LINE
  8
0
 62
     0
 10
156.632
 20
45.9412
 30
0.0
 11
142.633
 21
45.9412
 31
0.0
  0
LINE
  8
0
 62
     0
 10
161.683
 20
45.9412
 30
0.0
 11
161.683
 21
44.9407
 31
0.0
  0
LINE
  8
0
 62
     0
 10
161.683
 20
44.9407
 30
0.0
 11
160.882
 21
44.9407
 31
0.0
  0
LINE
  8
0
 62
     0
 10
160.882
 20
44.9407
 30
0.0
 11
160.882
 21
41.8401
 31
0.0
  0
LINE
  8
0
 62
     0
 10
160.882
 20
41.8401
 30
0.0
 11
161.683
 21
41.8401
 31
0.0
  0
LINE
  8
0
 62
     0
 10
161.683
 20
41.8401
 30
0.0
 11
161.683
 21
36.0412
 31
0.0
  0
LINE
  8
0
 62
     0
 10
161.683
 20
36.0412
 30
0.0
 11
160.882
 21
36.0412
 31
0.0
  0
LINE
  8
0
 62
     0
 10
160.882
 20
36.0412
 30
0.0
 11
160.882
 21
32.9406
 31
0.0
  0
LINE
  8
0
 62
     0
 10
160.882
 20
32.9406
 30
0.0
 11
161.683
 21
32.9406
 31
0.0
  0
LINE
  8
0
 62
     0
 10
161.683
 20
32.9406
 30
0.0
 11
161.683
 21
31.9402
 31
0.0
  0
LINE
  8
0
 62
     0
 10
161.683
 20
31.9402
 30
0.0
 11
175.682
 21
31.9402
 31
0.0
  0
LINE
  8
0
 62
     0
 10
175.682
 20
31.9402
 30
0.0
 11
175.682
 21
32.9406
 31
0.0
  0
LINE
  8
0
 62
     0
 10
175.682
 20
32.9406
 30
0.0
 11
176.483
 21
32.9406
 31
0.0
  0
LINE
  8
0
 62
     0
 10
176.483
 20
32.9406
 30
0.0
 11
176.483
 21
36.0412
 31
0.0
  0
LINE
  8
0
 62
     0
 10
176.483
 20
36.0412
 30
0.0
 11
175.682
 21
36.0412
 31
0.0
  0
LINE
  8
0
 62
     0
 10
175.682
 20
36.0412
 30
0.0
 11
175.682
 21
41.8401
 31
0.0
  0
LINE
  8
0
 62
     0
 10
175.682
 20
41.8401
 30
0.0
 11
176.483
 21
41.8401
 31
0.0
  0
LINE
  8
0
 62
     0
 10
176.483
 20
41.8401
 30
0.0
 11
176.483
 21
44.9407
 31
0.0
  0
LINE
  8
0
 62
     0
 10
176.483
 20
44.9407
 30
0.0
 11
175.682
 21
44.9407
 31
0.0
  0
LINE
  8
0
 62
     0
 10
175.682
 20
44.9407
 30
0.0
 11
175.682
 21
45.9412
 31
0.0
  0
LINE
  8
0
 62
     0
 10
175.682
 20
45.9412
 30
0.0
 11
161.683
 21
45.9412
 31
0.0
  0
LINE
  8
0
 62
     0
 10
49.7639
 20
64.9912
 30
0.0
 11
49.7639
 21
63.9907
 31
0.0
  0
LINE
  8
0
 62
     0
 10
49.7639
 20
63.9907
 30
0.0
 11
48.9631
 21
63.9907
 31
0.0
  0
LINE
  8
0
 62
     0
 10
48.9631
 20
63.9907
 30
0.0
 11
48.9631
 21
60.8902
 31
0.0
  0
LINE
  8
0
 62
     0
 10
48.9631
 20
60.8902
 30
0.0
 11
49.7639
 21
60.8902
 31
0.0
  0
LINE
  8
0
 62
     0
 10
49.7639
 20
60.8902
 30
0.0
 11
49.7639
 21
55.0912
 31
0.0
  0
LINE
  8
0
 62
     0
 10
49.7639
 20
55.0912
 30
0.0
 11
48.9631
 21
55.0912
 31
0.0
  0
LINE
  8
0
 62
     0
 10
48.9631
 20
55.0912
 30
0.0
 11
48.9631
 21
51.9906
 31
0.0
  0
LINE
  8
0
 62
     0
 10
48.9631
 20
51.9906
 30
0.0
 11
49.7639
 21
51.9906
 31
0.0
  0
LINE
  8
0
 62
     0
 10
49.7639
 20
51.9906
 30
0.0
 11
49.7639
 21
50.9901
 31
0.0
  0
LINE
  8
0
 62
     0
 10
49.7639
 20
50.9901
 30
0.0
 11
63.7632
 21
50.9901
 31
0.0
  0
LINE
  8
0
 62
     0
 10
63.7632
 20
50.9901
 30
0.0
 11
63.7632
 21
51.9906
 31
0.0
  0
LINE
  8
0
 62
     0
 10
63.7632
 20
51.9906
 30
0.0
 11
64.564
 21
51.9906
 31
0.0
  0
LINE
  8
0
 62
     0
 10
64.564
 20
51.9906
 30
0.0
 11
64.564
 21
55.0912
 31
0.0
  0
LINE
  8
0
 62
     0
 10
64.564
 20
55.0912
 30
0.0
 11
63.7632
 21
55.0912
 31
0.0
  0
LINE
  8
0
 62
     0
 10
63.7632
 20
55.0912
 30
0.0
 11
63.7632
 21
60.8902
 31
0.0
  0
LINE
  8
0
 62
     0
 10
63.7632
 20
60.8902
 30
0.0
 11
64.564
 21
60.8902
 31
0.0
  0
LINE
  8
0
 62
     0
 10
64.564
 20
60.8902
 30
0.0
 11
64.564
 21
63.9907
 31
0.0
  0
LINE
  8
0
 62
     0
 10
64.564
 20
63.9907
 30
0.0
 11
63.7632
 21
63.9907
 31
0.0
  0
LINE
  8
0
 62
     0
 10
63.7632
 20
63.9907
 30
0.0
 11
63.7632
 21
64.9912
 31
0.0
  0
LINE
  8
0
 62
     0
 10
63.7632
 20
64.9912
 30
0.0
 11
49.7639
 21
64.9912
 31
0.0
  0
LINE
  8
0
 62
     0
 10
75.9576
 20
64.9912
 30
0.0
 11
75.9576
 21
63.9907
 31
0.0
  0
LINE
  8
0
 62
     0
 10
75.9576
 20
63.9907
 30
0.0
 11
75.1568
 21
63.9907
 31
0.0
  0
LINE
  8
0
 62
     0
 10
75.1568
 20
63.9907
 30
0.0
 11
75.1568
 21
60.8902
 31
0.0
  0
LINE
  8
0
 62
     0
 10
75.1568
 20
60.8902
 30
0.0
 11
75.9576
 21
60.8902
 31
0.0
  0
LINE
  8
0
 62
     0
 10
75.9576
 20
60.8902
 30
0.0
 11
75.9576
 21
55.0912
 31
0.0
  0
LINE
  8
0
 62
     0
 10
75.9576
 20
55.0912
 30
0.0
 11
75.1568
 21
55.0912
 31
0.0
  0
LINE
  8
0
 62
     0
 10
75.1568
 20
55.0912
 30
0.0
 11
75.1568
 21
51.9906
 31
0.0
  0
LINE
  8
0
 62
     0
 10
75.1568
 20
51.9906
 30
0.0
 11
75.9576
 21
51.9906
 31
0.0
  0
LINE
  8
0
 62
     0
 10
75.9576
 20
51.9906
 30
0.0
 11
75.9576
 21
50.9901
 31
0.0
  0
LINE
  8
0
 62
     0
 10
75.9576
 20
50.9901
 30
0.0
 11
89.9569
 21
50.9901
 31
0.0
  0
LINE
  8
0
 62
     0
 10
89.9569
 20
50.9901
 30
0.0
 11
89.9569
 21
51.9906
 31
0.0
  0
LINE
  8
0
 62
     0
 10
89.9569
 20
51.9906
 30
0.0
 11
90.7577
 21
51.9906
 31
0.0
  0
LINE
  8
0
 62
     0
 10
90.7577
 20
51.9906
 30
0.0
 11
90.7577
 21
55.0912
 31
0.0
  0
LINE
  8
0
 62
     0
 10
90.7577
 20
55.0912
 30
0.0
 11
89.9569
 21
55.0912
 31
0.0
  0
LINE
  8
0
 62
     0
 10
89.9569
 20
55.0912
 30
0.0
 11
89.9569
 21
60.8902
 31
0.0
  0
LINE
  8
0
 62
     0
 10
89.9569
 20
60.8902
 30
0.0
 11
90.7577
 21
60.8902
 31
0.0
  0
LINE
  8
0
 62
     0
 10
90.7577
 20
60.8902
 30
0.0
 11
90.7577
 21
63.9907
 31
0.0
  0
LINE
  8
0
 62
     0
 10
90.7577
 20
63.9907
 30
0.0
 11
89.9569
 21
63.9907
 31
0.0
  0
LINE
  8
0
 62
     0
 10
89.9569
 20
63.9907
 30
0.0
 11
89.9569
 21
64.9912
 31
0.0
  0
LINE
  8
0
 62
     0
 10
89.9569
 20
64.9912
 30
0.0
 11
75.9576
 21
64.9912
 31
0.0
  0
LINE
  8
0
 62
     0
 10
95.0076
 20
64.9912
 30
0.0
 11
95.0076
 21
63.9907
 31
0.0
  0
LINE
  8
0
 62
     0
 10
95.0076
 20
63.9907
 30
0.0
 11
94.2068
 21
63.9907
 31
0.0
  0
LINE
  8
0
 62
     0
 10
94.2068
 20
63.9907
 30
0.0
 11
94.2068
 21
60.8902
 31
0.0
  0
LINE
  8
0
 62
     0
 10
94.2068
 20
60.8902
 30
0.0
 11
95.0076
 21
60.8902
 31
0.0
  0
LINE
  8
0
 62
     0
 10
95.0076
 20
60.8902
 30
0.0
 11
95.0076
 21
55.0912
 31
0.0
  0
LINE
  8
0
 62
     0
 10
95.0076
 20
55.0912
 30
0.0
 11
94.2068
 21
55.0912
 31
0.0
  0
LINE
  8
0
 62
     0
 10
94.2068
 20
55.0912
 30
0.0
 11
94.2068
 21
51.9906
 31
0.0
  0
LINE
  8
0
 62
     0
 10
94.2068
 20
51.9906
 30
0.0
 11
95.0076
 21
51.9906
 31
0.0
  0
LINE
  8
0
 62
     0
 10
95.0076
 20
51.9906
 30
0.0
 11
95.0076
 21
50.9901
 31
0.0
  0
LINE
  8
0
 62
     0
 10
95.0076
 20
50.9901
 30
0.0
 11
109.007
 21
50.9901
 31
0.0
  0
LINE
  8
0
 62
     0
 10
109.007
 20
50.9901
 30
0.0
 11
109.007
 21
51.9906
 31
0.0
  0
LINE
  8
0
 62
     0
 10
109.007
 20
51.9906
 30
0.0
 11
109.808
 21
51.9906
 31
0.0
  0
LINE
  8
0
 62
     0
 10
109.808
 20
51.9906
 30
0.0
 11
109.808
 21
55.0912
 31
0.0
  0
LINE
  8
0
 62
     0
 10
109.808
 20
55.0912
 30
0.0
 11
109.007
 21
55.0912
 31
0.0
  0
LINE
  8
0
 62
     0
 10
109.007
 20
55.0912
 30
0.0
 11
109.007
 21
60.8902
 31
0.0
  0
LINE
  8
0
 62
     0
 10
109.007
 20
60.8902
 30
0.0
 11
109.808
 21
60.8902
 31
0.0
  0
LINE
  8
0
 62
     0
 10
109.808
 20
60.8902
 30
0.0
 11
109.808
 21
63.9907
 31
0.0
  0
LINE
  8
0
 62
     0
 10
109.808
 20
63.9907
 30
0.0
 11
109.007
 21
63.9907
 31
0.0
  0
LINE
  8
0
 62
     0
 10
109.007
 20
63.9907
 30
0.0
 11
109.007
 21
64.9912
 31
0.0
  0
LINE
  8
0
 62
     0
 10
109.007
 20
64.9912
 30
0.0
 11
95.0076
 21
64.9912
 31
0.0
  0
LINE
  8
0
 62
     0
 10
114.058
 20
64.9912
 30
0.0
 11
114.058
 21
63.9907
 31
0.0
  0
LINE
  8
0
 62
     0
 10
114.058
 20
63.9907
 30
0.0
 11
113.257
 21
63.9907
 31
0.0
  0
LINE
  8
0
 62
     0
 10
113.257
 20
63.9907
 30
0.0
 11
113.257
 21
60.8902
 31
0.0
  0
LINE
  8
0
 62
     0
 10
113.257
 20
60.8902
 30
0.0
 11
114.058
 21
60.8902
 31
0.0
  0
LINE
  8
0
 62
     0
 10
114.058
 20
60.8902
 30
0.0
 11
114.058
 21
55.0912
 31
0.0
  0
LINE
  8
0
 62
     0
 10
114.058
 20
55.0912
 30
0.0
 11
113.257
 21
55.0912
 31
0.0
  0
LINE
  8
0
 62
     0
 10
113.257
 20
55.0912
 30
0.0
 11
113.257
 21
51.9906
 31
0.0
  0
LINE
  8
0
 62
     0
 10
113.257
 20
51.9906
 30
0.0
 11
114.058
 21
51.9906
 31
0.0
  0
LINE
  8
0
 62
     0
 10
114.058
 20
51.9906
 30
0.0
 11
114.058
 21
50.9901
 31
0.0
  0
LINE
  8
0
 62
     0
 10
114.058
 20
50.9901
 30
0.0
 11
128.057
 21
50.9901
 31
0.0
  0
LINE
  8
0
 62
     0
 10
128.057
 20
50.9901
 30
0.0
 11
128.057
 21
51.9906
 31
0.0
  0
LINE
  8
0
 62
     0
 10
128.057
 20
51.9906
 30
0.0
 11
128.858
 21
51.9906
 31
0.0
  0
LINE
  8
0
 62
     0
 10
128.858
 20
51.9906
 30
0.0
 11
128.858
 21
55.0912
 31
0.0
  0
LINE
  8
0
 62
     0
 10
128.858
 20
55.0912
 30
0.0
 11
128.057
 21
55.0912
 31
0.0
  0
LINE
  8
0
 62
     0
 10
128.057
 20
55.0912
 30
0.0
 11
128.057
 21
60.8902
 31
0.0
  0
LINE
  8
0
 62
     0
 10
128.057
 20
60.8902
 30
0.0
 11
128.858
 21
60.8902
 31
0.0
  0
LINE
  8
0
 62
     0
 10
128.858
 20
60.8902
 30
0.0
 11
128.858
 21
63.9907
 31
0.0
  0
LINE
  8
0
 62
     0
 10
128.858
 20
63.9907
 30
0.0
 11
128.057
 21
63.9907
 31
0.0
  0
LINE
  8
0
 62
     0
 10
128.057
 20
63.9907
 30
0.0
 11
128.057
 21
64.9912
 31
0.0
  0
LINE
  8
0
 62
     0
 10
128.057
 20
64.9912
 30
0.0
 11
114.058
 21
64.9912
 31
0.0
  0
LINE
  8
0
 62
     0
 10
133.108
 20
64.9912
 30
0.0
 11
133.108
 21
63.9907
 31
0.0
  0
LINE
  8
0
 62
     0
 10
133.108
 20
63.9907
 30
0.0
 11
132.307
 21
63.9907
 31
0.0
  0
LINE
  8
0
 62
     0
 10
132.307
 20
63.9907
 30
0.0
 11
132.307
 21
60.8902
 31
0.0
  0
LINE
  8
0
 62
     0
 10
132.307
 20
60.8902
 30
0.0
 11
133.108
 21
60.8902
 31
0.0
  0
LINE
  8
0
 62
     0
 10
133.108
 20
60.8902
 30
0.0
 11
133.108
 21
55.0912
 31
0.0
  0
LINE
  8
0
 62
     0
 10
133.108
 20
55.0912
 30
0.0
 11
132.307
 21
55.0912
 31
0.0
  0
LINE
  8
0
 62
     0
 10
132.307
 20
55.0912
 30
0.0
 11
132.307
 21
51.9906
 31
0.0
  0
LINE
  8
0
 62
     0
 10
132.307
 20
51.9906
 30
0.0
 11
133.108
 21
51.9906
 31
0.0
  0
LINE
  8
0
 62
     0
 10
133.108
 20
51.9906
 30
0.0
 11
133.108
 21
50.9901
 31
0.0
  0
LINE
  8
0
 62
     0
 10
133.108
 20
50.9901
 30
0.0
 11
147.107
 21
50.9901
 31
0.0
  0
LINE
  8
0
 62
     0
 10
147.107
 20
50.9901
 30
0.0
 11
147.107
 21
51.9906
 31
0.0
  0
LINE
  8
0
 62
     0
 10
147.107
 20
51.9906
 30
0.0
 11
147.908
 21
51.9906
 31
0.0
  0
LINE
  8
0
 62
     0
 10
147.908
 20
51.9906
 30
0.0
 11
147.908
 21
55.0912
 31
0.0
  0
LINE
  8
0
 62
     0
 10
147.908
 20
55.0912
 30
0.0
 11
147.107
 21
55.0912
 31
0.0
  0
LINE
  8
0
 62
     0
 10
147.107
 20
55.0912
 30
0.0
 11
147.107
 21
60.8902
 31
0.0
  0
LINE
  8
0
 62
     0
 10
147.107
 20
60.8902
 30
0.0
 11
147.908
 21
60.8902
 31
0.0
  0
LINE
  8
0
 62
     0
 10
147.908
 20
60.8902
 30
0.0
 11
147.908
 21
63.9907
 31
0.0
  0
LINE
  8
0
 62
     0
 10
147.908
 20
63.9907
 30
0.0
 11
147.107
 21
63.9907
 31
0.0
  0
LINE
  8
0
 62
     0
 10
147.107
 20
63.9907
 30
0.0
 11
147.107
 21
64.9912
 31
0.0
  0
LINE
  8
0
 62
     0
 10
147.107
 20
64.9912
 30
0.0
 11
133.108
 21
64.9912
 31
0.0
  0
LINE
  8
0
 62
     0
 10
152.158
 20
64.9912
 30
0.0
 11
152.158
 21
63.9907
 31
0.0
  0
LINE
  8
0
 62
     0
 10
152.158
 20
63.9907
 30
0.0
 11
151.357
 21
63.9907
 31
0.0
  0
LINE
  8
0
 62
     0
 10
151.357
 20
63.9907
 30
0.0
 11
151.357
 21
60.8902
 31
0.0
  0
LINE
  8
0
 62
     0
 10
151.357
 20
60.8902
 30
0.0
 11
152.158
 21
60.8902
 31
0.0
  0
LINE
  8
0
 62
     0
 10
152.158
 20
60.8902
 30
0.0
 11
152.158
 21
55.0912
 31
0.0
  0
LINE
  8
0
 62
     0
 10
152.158
 20
55.0912
 30
0.0
 11
151.357
 21
55.0912
 31
0.0
  0
LINE
  8
0
 62
     0
 10
151.357
 20
55.0912
 30
0.0
 11
151.357
 21
51.9906
 31
0.0
  0
LINE
  8
0
 62
     0
 10
151.357
 20
51.9906
 30
0.0
 11
152.158
 21
51.9906
 31
0.0
  0
LINE
  8
0
 62
     0
 10
152.158
 20
51.9906
 30
0.0
 11
152.158
 21
50.9901
 31
0.0
  0
LINE
  8
0
 62
     0
 10
152.158
 20
50.9901
 30
0.0
 11
166.157
 21
50.9901
 31
0.0
  0
LINE
  8
0
 62
     0
 10
166.157
 20
50.9901
 30
0.0
 11
166.157
 21
51.9906
 31
0.0
  0
LINE
  8
0
 62
     0
 10
166.157
 20
51.9906
 30
0.0
 11
166.958
 21
51.9906
 31
0.0
  0
LINE
  8
0
 62
     0
 10
166.958
 20
51.9906
 30
0.0
 11
166.958
 21
55.0912
 31
0.0
  0
LINE
  8
0
 62
     0
 10
166.958
 20
55.0912
 30
0.0
 11
166.157
 21
55.0912
 31
0.0
  0
LINE
  8
0
 62
     0
 10
166.157
 20
55.0912
 30
0.0
 11
166.157
 21
60.8902
 31
0.0
  0
LINE
  8
0
 62
     0
 10
166.157
 20
60.8902
 30
0.0
 11
166.958
 21
60.8902
 31
0.0
  0
LINE
  8
0
 62
     0
 10
166.958
 20
60.8902
 30
0.0
 11
166.958
 21
63.9907
 31
0.0
  0
LINE
  8
0
 62
     0
 10
166.958
 20
63.9907
 30
0.0
 11
166.157
 21
63.9907
 31
0.0
  0
LINE
  8
0
 62
     0
 10
166.157
 20
63.9907
 30
0.0
 11
166.157
 21
64.9912
 31
0.0
  0
LINE
  8
0
 62
     0
 10
166.157
 20
64.9912
 30
0.0
 11
152.158
 21
64.9912
 31
0.0
  0
LINE
  8
0
 62
     0
 10
47.3826
 20
84.0412
 30
0.0
 11
47.3826
 21
83.0407
 31
0.0
  0
LINE
  8
0
 62
     0
 10
47.3826
 20
83.0407
 30
0.0
 11
46.5818
 21
83.0407
 31
0.0
  0
LINE
  8
0
 62
     0
 10
46.5818
 20
83.0407
 30
0.0
 11
46.5818
 21
79.9402
 31
0.0
  0
LINE
  8
0
 62
     0
 10
46.5818
 20
79.9402
 30
0.0
 11
47.3826
 21
79.9402
 31
0.0
  0
LINE
  8
0
 62
     0
 10
47.3826
 20
79.9402
 30
0.0
 11
47.3826
 21
74.1412
 31
0.0
  0
LINE
  8
0
 62
     0
 10
47.3826
 20
74.1412
 30
0.0
 11
46.5818
 21
74.1412
 31
0.0
  0
LINE
  8
0
 62
     0
 10
46.5818
 20
74.1412
 30
0.0
 11
46.5818
 21
71.0406
 31
0.0
  0
LINE
  8
0
 62
     0
 10
46.5818
 20
71.0406
 30
0.0
 11
47.3826
 21
71.0406
 31
0.0
  0
LINE
  8
0
 62
     0
 10
47.3826
 20
71.0406
 30
0.0
 11
47.3826
 21
70.0401
 31
0.0
  0
LINE
  8
0
 62
     0
 10
47.3826
 20
70.0401
 30
0.0
 11
61.3819
 21
70.0401
 31
0.0
  0
LINE
  8
0
 62
     0
 10
61.3819
 20
70.0401
 30
0.0
 11
61.3819
 21
71.0406
 31
0.0
  0
LINE
  8
0
 62
     0
 10
61.3819
 20
71.0406
 30
0.0
 11
62.1827
 21
71.0406
 31
0.0
  0
LINE
  8
0
 62
     0
 10
62.1827
 20
71.0406
 30
0.0
 11
62.1827
 21
74.1412
 31
0.0
  0
LINE
  8
0
 62
     0
 10
62.1827
 20
74.1412
 30
0.0
 11
61.3819
 21
74.1412
 31
0.0
  0
LINE
  8
0
 62
     0
 10
61.3819
 20
74.1412
 30
0.0
 11
61.3819
 21
79.9402
 31
0.0
  0
LINE
  8
0
 62
     0
 10
61.3819
 20
79.9402
 30
0.0
 11
62.1827
 21
79.9402
 31
0.0
  0
LINE
  8
0
 62
     0
 10
62.1827
 20
79.9402
 30
0.0
 11
62.1827
 21
83.0407
 31
0.0
  0
LINE
  8
0
 62
     0
 10
62.1827
 20
83.0407
 30
0.0
 11
61.3819
 21
83.0407
 31
0.0
  0
LINE
  8
0
 62
     0
 10
61.3819
 20
83.0407
 30
0.0
 11
61.3819
 21
84.0412
 31
0.0
  0
LINE
  8
0
 62
     0
 10
61.3819
 20
84.0412
 30
0.0
 11
47.3826
 21
84.0412
 31
0.0
  0
LINE
  8
0
 62
     0
 10
71.1951
 20
84.0412
 30
0.0
 11
71.1951
 21
83.0407
 31
0.0
  0
LINE
  8
0
 62
     0
 10
71.1951
 20
83.0407
 30
0.0
 11
70.3957
 21
83.0407
 31
0.0
  0
LINE
  8
0
 62
     0
 10
70.3957
 20
83.0407
 30
0.0
 11
70.3957
 21
79.9402
 31
0.0
  0
LINE
  8
0
 62
     0
 10
70.3957
 20
79.9402
 30
0.0
 11
71.1951
 21
79.9402
 31
0.0
  0
LINE
  8
0
 62
     0
 10
71.1951
 20
79.9402
 30
0.0
 11
71.1951
 21
74.1412
 31
0.0
  0
LINE
  8
0
 62
     0
 10
71.1951
 20
74.1412
 30
0.0
 11
70.3957
 21
74.1412
 31
0.0
  0
LINE
  8
0
 62
     0
 10
70.3957
 20
74.1412
 30
0.0
 11
70.3957
 21
71.0406
 31
0.0
  0
LINE
  8
0
 62
     0
 10
70.3957
 20
71.0406
 30
0.0
 11
71.1951
 21
71.0406
 31
0.0
  0
LINE
  8
0
 62
     0
 10
71.1951
 20
71.0406
 30
0.0
 11
71.1951
 21
70.0401
 31
0.0
  0
LINE
  8
0
 62
     0
 10
71.1951
 20
70.0401
 30
0.0
 11
85.1958
 21
70.0401
 31
0.0
  0
LINE
  8
0
 62
     0
 10
85.1958
 20
70.0401
 30
0.0
 11
85.1958
 21
71.0406
 31
0.0
  0
LINE
  8
0
 62
     0
 10
85.1958
 20
71.0406
 30
0.0
 11
85.9952
 21
71.0406
 31
0.0
  0
LINE
  8
0
 62
     0
 10
85.9952
 20
71.0406
 30
0.0
 11
85.9952
 21
74.1412
 31
0.0
  0
LINE
  8
0
 62
     0
 10
85.9952
 20
74.1412
 30
0.0
 11
85.1958
 21
74.1412
 31
0.0
  0
LINE
  8
0
 62
     0
 10
85.1958
 20
74.1412
 30
0.0
 11
85.1958
 21
79.9402
 31
0.0
  0
LINE
  8
0
 62
     0
 10
85.1958
 20
79.9402
 30
0.0
 11
85.9952
 21
79.9402
 31
0.0
  0
LINE
  8
0
 62
     0
 10
85.9952
 20
79.9402
 30
0.0
 11
85.9952
 21
83.0407
 31
0.0
  0
LINE
  8
0
 62
     0
 10
85.9952
 20
83.0407
 30
0.0
 11
85.1958
 21
83.0407
 31
0.0
  0
LINE
  8
0
 62
     0
 10
85.1958
 20
83.0407
 30
0.0
 11
85.1958
 21
84.0412
 31
0.0
  0
LINE
  8
0
 62
     0
 10
85.1958
 20
84.0412
 30
0.0
 11
71.1951
 21
84.0412
 31
0.0
  0
LINE
  8
0
 62
     0
 10
90.2451
 20
84.0412
 30
0.0
 11
90.2451
 21
83.0407
 31
0.0
  0
LINE
  8
0
 62
     0
 10
90.2451
 20
83.0407
 30
0.0
 11
89.4457
 21
83.0407
 31
0.0
  0
LINE
  8
0
 62
     0
 10
89.4457
 20
83.0407
 30
0.0
 11
89.4457
 21
79.9402
 31
0.0
  0
LINE
  8
0
 62
     0
 10
89.4457
 20
79.9402
 30
0.0
 11
90.2451
 21
79.9402
 31
0.0
  0
LINE
  8
0
 62
     0
 10
90.2451
 20
79.9402
 30
0.0
 11
90.2451
 21
74.1412
 31
0.0
  0
LINE
  8
0
 62
     0
 10
90.2451
 20
74.1412
 30
0.0
 11
89.4457
 21
74.1412
 31
0.0
  0
LINE
  8
0
 62
     0
 10
89.4457
 20
74.1412
 30
0.0
 11
89.4457
 21
71.0406
 31
0.0
  0
LINE
  8
0
 62
     0
 10
89.4457
 20
71.0406
 30
0.0
 11
90.2451
 21
71.0406
 31
0.0
  0
LINE
  8
0
 62
     0
 10
90.2451
 20
71.0406
 30
0.0
 11
90.2451
 21
70.0401
 31
0.0
  0
LINE
  8
0
 62
     0
 10
90.2451
 20
70.0401
 30
0.0
 11
104.244
 21
70.0401
 31
0.0
  0
LINE
  8
0
 62
     0
 10
104.244
 20
70.0401
 30
0.0
 11
104.244
 21
71.0406
 31
0.0
  0
LINE
  8
0
 62
     0
 10
104.244
 20
71.0406
 30
0.0
 11
105.045
 21
71.0406
 31
0.0
  0
LINE
  8
0
 62
     0
 10
105.045
 20
71.0406
 30
0.0
 11
105.045
 21
74.1412
 31
0.0
  0
LINE
  8
0
 62
     0
 10
105.045
 20
74.1412
 30
0.0
 11
104.244
 21
74.1412
 31
0.0
  0
LINE
  8
0
 62
     0
 10
104.244
 20
74.1412
 30
0.0
 11
104.244
 21
79.9402
 31
0.0
  0
LINE
  8
0
 62
     0
 10
104.244
 20
79.9402
 30
0.0
 11
105.045
 21
79.9402
 31
0.0
  0
LINE
  8
0
 62
     0
 10
105.045
 20
79.9402
 30
0.0
 11
105.045
 21
83.0407
 31
0.0
  0
LINE
  8
0
 62
     0
 10
105.045
 20
83.0407
 30
0.0
 11
104.244
 21
83.0407
 31
0.0
  0
LINE
  8
0
 62
     0
 10
104.244
 20
83.0407
 30
0.0
 11
104.244
 21
84.0412
 31
0.0
  0
LINE
  8
0
 62
     0
 10
104.244
 20
84.0412
 30
0.0
 11
90.2451
 21
84.0412
 31
0.0
  0
LINE
  8
0
 62
     0
 10
109.295
 20
84.0412
 30
0.0
 11
109.295
 21
83.0407
 31
0.0
  0
LINE
  8
0
 62
     0
 10
109.295
 20
83.0407
 30
0.0
 11
108.494
 21
83.0407
 31
0.0
  0
LINE
  8
0
 62
     0
 10
108.494
 20
83.0407
 30
0.0
 11
108.494
 21
79.9402
 31
0.0
  0
LINE
  8
0
 62
     0
 10
108.494
 20
79.9402
 30
0.0
 11
109.295
 21
79.9402
 31
0.0
  0
LINE
  8
0
 62
     0
 10
109.295
 20
79.9402
 30
0.0
 11
109.295
 21
74.1412
 31
0.0
  0
LINE
  8
0
 62
     0
 10
109.295
 20
74.1412
 30
0.0
 11
108.494
 21
74.1412
 31
0.0
  0
LINE
  8
0
 62
     0
 10
108.494
 20
74.1412
 30
0.0
 11
108.494
 21
71.0406
 31
0.0
  0
LINE
  8
0
 62
     0
 10
108.494
 20
71.0406
 30
0.0
 11
109.295
 21
71.0406
 31
0.0
  0
LINE
  8
0
 62
     0
 10
109.295
 20
71.0406
 30
0.0
 11
109.295
 21
70.0401
 31
0.0
  0
LINE
  8
0
 62
     0
 10
109.295
 20
70.0401
 30
0.0
 11
123.294
 21
70.0401
 31
0.0
  0
LINE
  8
0
 62
     0
 10
123.294
 20
70.0401
 30
0.0
 11
123.294
 21
71.0406
 31
0.0
  0
LINE
  8
0
 62
     0
 10
123.294
 20
71.0406
 30
0.0
 11
124.095
 21
71.0406
 31
0.0
  0
LINE
  8
0
 62
     0
 10
124.095
 20
71.0406
 30
0.0
 11
124.095
 21
74.1412
 31
0.0
  0
LINE
  8
0
 62
     0
 10
124.095
 20
74.1412
 30
0.0
 11
123.294
 21
74.1412
 31
0.0
  0
LINE
  8
0
 62
     0
 10
123.294
 20
74.1412
 30
0.0
 11
123.294
 21
79.9402
 31
0.0
  0
LINE
  8
0
 62
     0
 10
123.294
 20
79.9402
 30
0.0
 11
124.095
 21
79.9402
 31
0.0
  0
LINE
  8
0
 62
     0
 10
124.095
 20
79.9402
 30
0.0
 11
124.095
 21
83.0407
 31
0.0
  0
LINE
  8
0
 62
     0
 10
124.095
 20
83.0407
 30
0.0
 11
123.294
 21
83.0407
 31
0.0
  0
LINE
  8
0
 62
     0
 10
123.294
 20
83.0407
 30
0.0
 11
123.294
 21
84.0412
 31
0.0
  0
LINE
  8
0
 62
     0
 10
123.294
 20
84.0412
 30
0.0
 11
109.295
 21
84.0412
 31
0.0
  0
LINE
  8
0
 62
     0
 10
128.345
 20
84.0412
 30
0.0
 11
128.345
 21
83.0407
 31
0.0
  0
LINE
  8
0
 62
     0
 10
128.345
 20
83.0407
 30
0.0
 11
127.546
 21
83.0407
 31
0.0
  0
LINE
  8
0
 62
     0
 10
127.546
 20
83.0407
 30
0.0
 11
127.546
 21
79.9402
 31
0.0
  0
LINE
  8
0
 62
     0
 10
127.546
 20
79.9402
 30
0.0
 11
128.345
 21
79.9402
 31
0.0
  0
LINE
  8
0
 62
     0
 10
128.345
 20
79.9402
 30
0.0
 11
128.345
 21
74.1412
 31
0.0
  0
LINE
  8
0
 62
     0
 10
128.345
 20
74.1412
 30
0.0
 11
127.546
 21
74.1412
 31
0.0
  0
LINE
  8
0
 62
     0
 10
127.546
 20
74.1412
 30
0.0
 11
127.546
 21
71.0406
 31
0.0
  0
LINE
  8
0
 62
     0
 10
127.546
 20
71.0406
 30
0.0
 11
128.345
 21
71.0406
 31
0.0
  0
LINE
  8
0
 62
     0
 10
128.345
 20
71.0406
 30
0.0
 11
128.345
 21
70.0401
 31
0.0
  0
LINE
  8
0
 62
     0
 10
128.345
 20
70.0401
 30
0.0
 11
142.346
 21
70.0401
 31
0.0
  0
LINE
  8
0
 62
     0
 10
142.346
 20
70.0401
 30
0.0
 11
142.346
 21
71.0406
 31
0.0
  0
LINE
  8
0
 62
     0
 10
142.346
 20
71.0406
 30
0.0
 11
143.145
 21
71.0406
 31
0.0
  0
LINE
  8
0
 62
     0
 10
143.145
 20
71.0406
 30
0.0
 11
143.145
 21
74.1412
 31
0.0
  0
LINE
  8
0
 62
     0
 10
143.145
 20
74.1412
 30
0.0
 11
142.346
 21
74.1412
 31
0.0
  0
LINE
  8
0
 62
     0
 10
142.346
 20
74.1412
 30
0.0
 11
142.346
 21
79.9402
 31
0.0
  0
LINE
  8
0
 62
     0
 10
142.346
 20
79.9402
 30
0.0
 11
143.145
 21
79.9402
 31
0.0
  0
LINE
  8
0
 62
     0
 10
143.145
 20
79.9402
 30
0.0
 11
143.145
 21
83.0407
 31
0.0
  0
LINE
  8
0
 62
     0
 10
143.145
 20
83.0407
 30
0.0
 11
142.346
 21
83.0407
 31
0.0
  0
LINE
  8
0
 62
     0
 10
142.346
 20
83.0407
 30
0.0
 11
142.346
 21
84.0412
 31
0.0
  0
LINE
  8
0
 62
     0
 10
142.346
 20
84.0412
 30
0.0
 11
128.345
 21
84.0412
 31
0.0
  0
LINE
  8
0
 62
     0
 10
147.395
 20
84.0412
 30
0.0
 11
147.395
 21
83.0407
 31
0.0
  0
LINE
  8
0
 62
     0
 10
147.395
 20
83.0407
 30
0.0
 11
146.596
 21
83.0407
 31
0.0
  0
LINE
  8
0
 62
     0
 10
146.596
 20
83.0407
 30
0.0
 11
146.596
 21
79.9402
 31
0.0
  0
LINE
  8
0
 62
     0
 10
146.596
 20
79.9402
 30
0.0
 11
147.395
 21
79.9402
 31
0.0
  0
LINE
  8
0
 62
     0
 10
147.395
 20
79.9402
 30
0.0
 11
147.395
 21
74.1412
 31
0.0
  0
LINE
  8
0
 62
     0
 10
147.395
 20
74.1412
 30
0.0
 11
146.596
 21
74.1412
 31
0.0
  0
LINE
  8
0
 62
     0
 10
146.596
 20
74.1412
 30
0.0
 11
146.596
 21
71.0406
 31
0.0
  0
LINE
  8
0
 62
     0
 10
146.596
 20
71.0406
 30
0.0
 11
147.395
 21
71.0406
 31
0.0
  0
LINE
  8
0
 62
     0
 10
147.395
 20
71.0406
 30
0.0
 11
147.395
 21
70.0401
 31
0.0
  0
LINE
  8
0
 62
     0
 10
147.395
 20
70.0401
 30
0.0
 11
161.396
 21
70.0401
 31
0.0
  0
LINE
  8
0
 62
     0
 10
161.396
 20
70.0401
 30
0.0
 11
161.396
 21
71.0406
 31
0.0
  0
LINE
  8
0
 62
     0
 10
161.396
 20
71.0406
 30
0.0
 11
162.195
 21
71.0406
 31
0.0
  0
LINE
  8
0
 62
     0
 10
162.195
 20
71.0406
 30
0.0
 11
162.195
 21
74.1412
 31
0.0
  0
LINE
  8
0
 62
     0
 10
162.195
 20
74.1412
 30
0.0
 11
161.396
 21
74.1412
 31
0.0
  0
LINE
  8
0
 62
     0
 10
161.396
 20
74.1412
 30
0.0
 11
161.396
 21
79.9402
 31
0.0
  0
LINE
  8
0
 62
     0
 10
161.396
 20
79.9402
 30
0.0
 11
162.195
 21
79.9402
 31
0.0
  0
LINE
  8
0
 62
     0
 10
162.195
 20
79.9402
 30
0.0
 11
162.195
 21
83.0407
 31
0.0
  0
LINE
  8
0
 62
     0
 10
162.195
 20
83.0407
 30
0.0
 11
161.396
 21
83.0407
 31
0.0
  0
LINE
  8
0
 62
     0
 10
161.396
 20
83.0407
 30
0.0
 11
161.396
 21
84.0412
 31
0.0
  0
LINE
  8
0
 62
     0
 10
161.396
 20
84.0412
 30
0.0
 11
147.395
 21
84.0412
 31
0.0
  0
LINE
  8
0
 62
     0
 10
42.6201
 20
103.091
 30
0.0
 11
42.6201
 21
102.091
 31
0.0
  0
LINE
  8
0
 62
     0
 10
42.6201
 20
102.091
 30
0.0
 11
41.8207
 21
102.091
 31
0.0
  0
LINE
  8
0
 62
     0
 10
41.8207
 20
102.091
 30
0.0
 11
41.8207
 21
98.9901
 31
0.0
  0
LINE
  8
0
 62
     0
 10
41.8207
 20
98.9901
 30
0.0
 11
42.6201
 21
98.9901
 31
0.0
  0
LINE
  8
0
 62
     0
 10
42.6201
 20
98.9901
 30
0.0
 11
42.6201
 21
93.1912
 31
0.0
  0
LINE
  8
0
 62
     0
 10
42.6201
 20
93.1912
 30
0.0
 11
41.8207
 21
93.1912
 31
0.0
  0
LINE
  8
0
 62
     0
 10
41.8207
 20
93.1912
 30
0.0
 11
41.8207
 21
90.0906
 31
0.0
  0
LINE
  8
0
 62
     0
 10
41.8207
 20
90.0906
 30
0.0
 11
42.6201
 21
90.0906
 31
0.0
  0
LINE
  8
0
 62
     0
 10
42.6201
 20
90.0906
 30
0.0
 11
42.6201
 21
89.0901
 31
0.0
  0
LINE
  8
0
 62
     0
 10
42.6201
 20
89.0901
 30
0.0
 11
56.6208
 21
89.0901
 31
0.0
  0
LINE
  8
0
 62
     0
 10
56.6208
 20
89.0901
 30
0.0
 11
56.6208
 21
90.0906
 31
0.0
  0
LINE
  8
0
 62
     0
 10
56.6208
 20
90.0906
 30
0.0
 11
57.4202
 21
90.0906
 31
0.0
  0
LINE
  8
0
 62
     0
 10
57.4202
 20
90.0906
 30
0.0
 11
57.4202
 21
93.1912
 31
0.0
  0
LINE
  8
0
 62
     0
 10
57.4202
 20
93.1912
 30
0.0
 11
56.6208
 21
93.1912
 31
0.0
  0
LINE
  8
0
 62
     0
 10
56.6208
 20
93.1912
 30
0.0
 11
56.6208
 21
98.9901
 31
0.0
  0
LINE
  8
0
 62
     0
 10
56.6208
 20
98.9901
 30
0.0
 11
57.4202
 21
98.9901
 31
0.0
  0
LINE
  8
0
 62
     0
 10
57.4202
 20
98.9901
 30
0.0
 11
57.4202
 21
102.091
 31
0.0
  0
LINE
  8
0
 62
     0
 10
57.4202
 20
102.091
 30
0.0
 11
56.6208
 21
102.091
 31
0.0
  0
LINE
  8
0
 62
     0
 10
56.6208
 20
102.091
 30
0.0
 11
56.6208
 21
103.091
 31
0.0
  0
LINE
  8
0
 62
     0
 10
56.6208
 20
103.091
 30
0.0
 11
42.6201
 21
103.091
 31
0.0
  0
LINE
  8
0
 62
     0
 10
61.6701
 20
103.091
 30
0.0
 11
61.6701
 21
102.091
 31
0.0
  0
LINE
  8
0
 62
     0
 10
61.6701
 20
102.091
 30
0.0
 11
60.8707
 21
102.091
 31
0.0
  0
LINE
  8
0
 62
     0
 10
60.8707
 20
102.091
 30
0.0
 11
60.8707
 21
98.9901
 31
0.0
  0
LINE
  8
0
 62
     0
 10
60.8707
 20
98.9901
 30
0.0
 11
61.6701
 21
98.9901
 31
0.0
  0
LINE
  8
0
 62
     0
 10
61.6701
 20
98.9901
 30
0.0
 11
61.6701
 21
93.1912
 31
0.0
  0
LINE
  8
0
 62
     0
 10
61.6701
 20
93.1912
 30
0.0
 11
60.8707
 21
93.1912
 31
0.0
  0
LINE
  8
0
 62
     0
 10
60.8707
 20
93.1912
 30
0.0
 11
60.8707
 21
90.0906
 31
0.0
  0
LINE
  8
0
 62
     0
 10
60.8707
 20
90.0906
 30
0.0
 11
61.6701
 21
90.0906
 31
0.0
  0
LINE
  8
0
 62
     0
 10
61.6701
 20
90.0906
 30
0.0
 11
61.6701
 21
89.0901
 31
0.0
  0
LINE
  8
0
 62
     0
 10
61.6701
 20
89.0901
 30
0.0
 11
75.6708
 21
89.0901
 31
0.0
  0
LINE
  8
0
 62
     0
 10
75.6708
 20
89.0901
 30
0.0
 11
75.6708
 21
90.0906
 31
0.0
  0
LINE
  8
0
 62
     0
 10
75.6708
 20
90.0906
 30
0.0
 11
76.4702
 21
90.0906
 31
0.0
  0
LINE
  8
0
 62
     0
 10
76.4702
 20
90.0906
 30
0.0
 11
76.4702
 21
93.1912
 31
0.0
  0
LINE
  8
0
 62
     0
 10
76.4702
 20
93.1912
 30
0.0
 11
75.6708
 21
93.1912
 31
0.0
  0
LINE
  8
0
 62
     0
 10
75.6708
 20
93.1912
 30
0.0
 11
75.6708
 21
98.9901
 31
0.0
  0
LINE
  8
0
 62
     0
 10
75.6708
 20
98.9901
 30
0.0
 11
76.4702
 21
98.9901
 31
0.0
  0
LINE
  8
0
 62
     0
 10
76.4702
 20
98.9901
 30
0.0
 11
76.4702
 21
102.091
 31
0.0
  0
LINE
  8
0
 62
     0
 10
76.4702
 20
102.091
 30
0.0
 11
75.6708
 21
102.091
 31
0.0
  0
LINE
  8
0
 62
     0
 10
75.6708
 20
102.091
 30
0.0
 11
75.6708
 21
103.091
 31
0.0
  0
LINE
  8
0
 62
     0
 10
75.6708
 20
103.091
 30
0.0
 11
61.6701
 21
103.091
 31
0.0
  0
LINE
  8
0
 62
     0
 10
80.7201
 20
103.091
 30
0.0
 11
80.7201
 21
102.091
 31
0.0
  0
LINE
  8
0
 62
     0
 10
80.7201
 20
102.091
 30
0.0
 11
79.9207
 21
102.091
 31
0.0
  0
LINE
  8
0
 62
     0
 10
79.9207
 20
102.091
 30
0.0
 11
79.9207
 21
98.9901
 31
0.0
  0
LINE
  8
0
 62
     0
 10
79.9207
 20
98.9901
 30
0.0
 11
80.7201
 21
98.9901
 31
0.0
  0
LINE
  8
0
 62
     0
 10
80.7201
 20
98.9901
 30
0.0
 11
80.7201
 21
93.1912
 31
0.0
  0
LINE
  8
0
 62
     0
 10
80.7201
 20
93.1912
 30
0.0
 11
79.9207
 21
93.1912
 31
0.0
  0
LINE
  8
0
 62
     0
 10
79.9207
 20
93.1912
 30
0.0
 11
79.9207
 21
90.0906
 31
0.0
  0
LINE
  8
0
 62
     0
 10
79.9207
 20
90.0906
 30
0.0
 11
80.7201
 21
90.0906
 31
0.0
  0
LINE
  8
0
 62
     0
 10
80.7201
 20
90.0906
 30
0.0
 11
80.7201
 21
89.0901
 31
0.0
  0
LINE
  8
0
 62
     0
 10
80.7201
 20
89.0901
 30
0.0
 11
94.7208
 21
89.0901
 31
0.0
  0
LINE
  8
0
 62
     0
 10
94.7208
 20
89.0901
 30
0.0
 11
94.7208
 21
90.0906
 31
0.0
  0
LINE
  8
0
 62
     0
 10
94.7208
 20
90.0906
 30
0.0
 11
95.5202
 21
90.0906
 31
0.0
  0
LINE
  8
0
 62
     0
 10
95.5202
 20
90.0906
 30
0.0
 11
95.5202
 21
93.1912
 31
0.0
  0
LINE
  8
0
 62
     0
 10
95.5202
 20
93.1912
 30
0.0
 11
94.7208
 21
93.1912
 31
0.0
  0
LINE
  8
0
 62
     0
 10
94.7208
 20
93.1912
 30
0.0
 11
94.7208
 21
98.9901
 31
0.0
  0
LINE
  8
0
 62
     0
 10
94.7208
 20
98.9901
 30
0.0
 11
95.5202
 21
98.9901
 31
0.0
  0
LINE
  8
0
 62
     0
 10
95.5202
 20
98.9901
 30
0.0
 11
95.5202
 21
102.091
 31
0.0
  0
LINE
  8
0
 62
     0
 10
95.5202
 20
102.091
 30
0.0
 11
94.7208
 21
102.091
 31
0.0
  0
LINE
  8
0
 62
     0
 10
94.7208
 20
102.091
 30
0.0
 11
94.7208
 21
103.091
 31
0.0
  0
LINE
  8
0
 62
     0
 10
94.7208
 20
103.091
 30
0.0
 11
80.7201
 21
103.091
 31
0.0
  0
LINE
  8
0
 62
     0
 10
99.7701
 20
103.091
 30
0.0
 11
99.7701
 21
102.091
 31
0.0
  0
LINE
  8
0
 62
     0
 10
99.7701
 20
102.091
 30
0.0
 11
98.9707
 21
102.091
 31
0.0
  0
LINE
  8
0
 62
     0
 10
98.9707
 20
102.091
 30
0.0
 11
98.9707
 21
98.9901
 31
0.0
  0
LINE
  8
0
 62
     0
 10
98.9707
 20
98.9901
 30
0.0
 11
99.7701
 21
98.9901
 31
0.0
  0
LINE
  8
0
 62
     0
 10
99.7701
 20
98.9901
 30
0.0
 11
99.7701
 21
93.1912
 31
0.0
  0
LINE
  8
0
 62
     0
 10
99.7701
 20
93.1912
 30
0.0
 11
98.9707
 21
93.1912
 31
0.0
  0
LINE
  8
0
 62
     0
 10
98.9707
 20
93.1912
 30
0.0
 11
98.9707
 21
90.0906
 31
0.0
  0
LINE
  8
0
 62
     0
 10
98.9707
 20
90.0906
 30
0.0
 11
99.7701
 21
90.0906
 31
0.0
  0
LINE
  8
0
 62
     0
 10
99.7701
 20
90.0906
 30
0.0
 11
99.7701
 21
89.0901
 31
0.0
  0
LINE
  8
0
 62
     0
 10
99.7701
 20
89.0901
 30
0.0
 11
113.771
 21
89.0901
 31
0.0
  0
LINE
  8
0
 62
     0
 10
113.771
 20
89.0901
 30
0.0
 11
113.771
 21
90.0906
 31
0.0
  0
LINE
  8
0
 62
     0
 10
113.771
 20
90.0906
 30
0.0
 11
114.57
 21
90.0906
 31
0.0
  0
LINE
  8
0
 62
     0
 10
114.57
 20
90.0906
 30
0.0
 11
114.57
 21
93.1912
 31
0.0
  0
LINE
  8
0
 62
     0
 10
114.57
 20
93.1912
 30
0.0
 11
113.771
 21
93.1912
 31
0.0
  0
LINE
  8
0
 62
     0
 10
113.771
 20
93.1912
 30
0.0
 11
113.771
 21
98.9901
 31
0.0
  0
LINE
  8
0
 62
     0
 10
113.771
 20
98.9901
 30
0.0
 11
114.57
 21
98.9901
 31
0.0
  0
LINE
  8
0
 62
     0
 10
114.57
 20
98.9901
 30
0.0
 11
114.57
 21
102.091
 31
0.0
  0
LINE
  8
0
 62
     0
 10
114.57
 20
102.091
 30
0.0
 11
113.771
 21
102.091
 31
0.0
  0
LINE
  8
0
 62
     0
 10
113.771
 20
102.091
 30
0.0
 11
113.771
 21
103.091
 31
0.0
  0
LINE
  8
0
 62
     0
 10
113.771
 20
103.091
 30
0.0
 11
99.7701
 21
103.091
 31
0.0
  0
LINE
  8
0
 62
     0
 10
118.82
 20
103.091
 30
0.0
 11
118.82
 21
102.091
 31
0.0
  0
LINE
  8
0
 62
     0
 10
118.82
 20
102.091
 30
0.0
 11
118.021
 21
102.091
 31
0.0
  0
LINE
  8
0
 62
     0
 10
118.021
 20
102.091
 30
0.0
 11
118.021
 21
98.9901
 31
0.0
  0
LINE
  8
0
 62
     0
 10
118.021
 20
98.9901
 30
0.0
 11
118.82
 21
98.9901
 31
0.0
  0
LINE
  8
0
 62
     0
 10
118.82
 20
98.9901
 30
0.0
 11
118.82
 21
93.1912
 31
0.0
  0
LINE
  8
0
 62
     0
 10
118.82
 20
93.1912
 30
0.0
 11
118.021
 21
93.1912
 31
0.0
  0
LINE
  8
0
 62
     0
 10
118.021
 20
93.1912
 30
0.0
 11
118.021
 21
90.0906
 31
0.0
  0
LINE
  8
0
 62
     0
 10
118.021
 20
90.0906
 30
0.0
 11
118.82
 21
90.0906
 31
0.0
  0
LINE
  8
0
 62
     0
 10
118.82
 20
90.0906
 30
0.0
 11
118.82
 21
89.0901
 31
0.0
  0
LINE
  8
0
 62
     0
 10
118.82
 20
89.0901
 30
0.0
 11
132.821
 21
89.0901
 31
0.0
  0
LINE
  8
0
 62
     0
 10
132.821
 20
89.0901
 30
0.0
 11
132.821
 21
90.0906
 31
0.0
  0
LINE
  8
0
 62
     0
 10
132.821
 20
90.0906
 30
0.0
 11
133.62
 21
90.0906
 31
0.0
  0
LINE
  8
0
 62
     0
 10
133.62
 20
90.0906
 30
0.0
 11
133.62
 21
93.1912
 31
0.0
  0
LINE
  8
0
 62
     0
 10
133.62
 20
93.1912
 30
0.0
 11
132.821
 21
93.1912
 31
0.0
  0
LINE
  8
0
 62
     0
 10
132.821
 20
93.1912
 30
0.0
 11
132.821
 21
98.9901
 31
0.0
  0
LINE
  8
0
 62
     0
 10
132.821
 20
98.9901
 30
0.0
 11
133.62
 21
98.9901
 31
0.0
  0
LINE
  8
0
 62
     0
 10
133.62
 20
98.9901
 30
0.0
 11
133.62
 21
102.091
 31
0.0
  0
LINE
  8
0
 62
     0
 10
133.62
 20
102.091
 30
0.0
 11
132.821
 21
102.091
 31
0.0
  0
LINE
  8
0
 62
     0
 10
132.821
 20
102.091
 30
0.0
 11
132.821
 21
103.091
 31
0.0
  0
LINE
  8
0
 62
     0
 10
132.821
 20
103.091
 30
0.0
 11
118.82
 21
103.091
 31
0.0
  0
LINE
  8
0
 62
     0
 10
137.87
 20
103.091
 30
0.0
 11
137.87
 21
102.091
 31
0.0
  0
LINE
  8
0
 62
     0
 10
137.87
 20
102.091
 30
0.0
 11
137.071
 21
102.091
 31
0.0
  0
LINE
  8
0
 62
     0
 10
137.071
 20
102.091
 30
0.0
 11
137.071
 21
98.9901
 31
0.0
  0
LINE
  8
0
 62
     0
 10
137.071
 20
98.9901
 30
0.0
 11
137.87
 21
98.9901
 31
0.0
  0
LINE
  8
0
 62
     0
 10
137.87
 20
98.9901
 30
0.0
 11
137.87
 21
93.1912
 31
0.0
  0
LINE
  8
0
 62
     0
 10
137.87
 20
93.1912
 30
0.0
 11
137.071
 21
93.1912
 31
0.0
  0
LINE
  8
0
 62
     0
 10
137.071
 20
93.1912
 30
0.0
 11
137.071
 21
90.0906
 31
0.0
  0
LINE
  8
0
 62
     0
 10
137.071
 20
90.0906
 30
0.0
 11
137.87
 21
90.0906
 31
0.0
  0
LINE
  8
0
 62
     0
 10
137.87
 20
90.0906
 30
0.0
 11
137.87
 21
89.0901
 31
0.0
  0
LINE
  8
0
 62
     0
 10
137.87
 20
89.0901
 30
0.0
 11
151.871
 21
89.0901
 31
0.0
  0
LINE
  8
0
 62
     0
 10
151.871
 20
89.0901
 30
0.0
 11
151.871
 21
90.0906
 31
0.0
  0
LINE
  8
0
 62
     0
 10
151.871
 20
90.0906
 30
0.0
 11
152.67
 21
90.0906
 31
0.0
  0
LINE
  8
0
 62
     0
 10
152.67
 20
90.0906
 30
0.0
 11
152.67
 21
93.1912
 31
0.0
  0
LINE
  8
0
 62
     0
 10
152.67
 20
93.1912
 30
0.0
 11
151.871
 21
93.1912
 31
0.0
  0
LINE
  8
0
 62
     0
 10
151.871
 20
93.1912
 30
0.0
 11
151.871
 21
98.9901
 31
0.0
  0
LINE
  8
0
 62
     0
 10
151.871
 20
98.9901
 30
0.0
 11
152.67
 21
98.9901
 31
0.0
  0
LINE
  8
0
 62
     0
 10
152.67
 20
98.9901
 30
0.0
 11
152.67
 21
102.091
 31
0.0
  0
LINE
  8
0
 62
     0
 10
152.67
 20
102.091
 30
0.0
 11
151.871
 21
102.091
 31
0.0
  0
LINE
  8
0
 62
     0
 10
151.871
 20
102.091
 30
0.0
 11
151.871
 21
103.091
 31
0.0
  0
LINE
  8
0
 62
     0
 10
151.871
 20
103.091
 30
0.0
 11
137.87
 21
103.091
 31
0.0
  0
LINE
  8
0
 62
     0
 10
156.92
 20
103.091
 30
0.0
 11
156.92
 21
102.091
 31
0.0
  0
LINE
  8
0
 62
     0
 10
156.92
 20
102.091
 30
0.0
 11
156.121
 21
102.091
 31
0.0
  0
LINE
  8
0
 62
     0
 10
156.121
 20
102.091
 30
0.0
 11
156.121
 21
98.9901
 31
0.0
  0
LINE
  8
0
 62
     0
 10
156.121
 20
98.9901
 30
0.0
 11
156.92
 21
98.9901
 31
0.0
  0
LINE
  8
0
 62
     0
 10
156.92
 20
98.9901
 30
0.0
 11
156.92
 21
93.1912
 31
0.0
  0
LINE
  8
0
 62
     0
 10
156.92
 20
93.1912
 30
0.0
 11
156.121
 21
93.1912
 31
0.0
  0
LINE
  8
0
 62
     0
 10
156.121
 20
93.1912
 30
0.0
 11
156.121
 21
90.0906
 31
0.0
  0
LINE
  8
0
 62
     0
 10
156.121
 20
90.0906
 30
0.0
 11
156.92
 21
90.0906
 31
0.0
  0
LINE
  8
0
 62
     0
 10
156.92
 20
90.0906
 30
0.0
 11
156.92
 21
89.0901
 31
0.0
  0
LINE
  8
0
 62
     0
 10
156.92
 20
89.0901
 30
0.0
 11
170.921
 21
89.0901
 31
0.0
  0
LINE
  8
0
 62
     0
 10
170.921
 20
89.0901
 30
0.0
 11
170.921
 21
90.0906
 31
0.0
  0
LINE
  8
0
 62
     0
 10
170.921
 20
90.0906
 30
0.0
 11
171.72
 21
90.0906
 31
0.0
  0
LINE
  8
0
 62
     0
 10
171.72
 20
90.0906
 30
0.0
 11
171.72
 21
93.1912
 31
0.0
  0
LINE
  8
0
 62
     0
 10
171.72
 20
93.1912
 30
0.0
 11
170.921
 21
93.1912
 31
0.0
  0
LINE
  8
0
 62
     0
 10
170.921
 20
93.1912
 30
0.0
 11
170.921
 21
98.9901
 31
0.0
  0
LINE
  8
0
 62
     0
 10
170.921
 20
98.9901
 30
0.0
 11
171.72
 21
98.9901
 31
0.0
  0
LINE
  8
0
 62
     0
 10
171.72
 20
98.9901
 30
0.0
 11
171.72
 21
102.091
 31
0.0
  0
LINE
  8
0
 62
     0
 10
171.72
 20
102.091
 30
0.0
 11
170.921
 21
102.091
 31
0.0
  0
LINE
  8
0
 62
     0
 10
170.921
 20
102.091
 30
0.0
 11
170.921
 21
103.091
 31
0.0
  0
LINE
  8
0
 62
     0
 10
170.921
 20
103.091
 30
0.0
 11
156.92
 21
103.091
 31
0.0
  0
LINE
  8
0
 62
     0
 10
42.6201
 20
131.666
 30
0.0
 11
42.6201
 21
130.666
 31
0.0
  0
LINE
  8
0
 62
     0
 10
42.6201
 20
130.666
 30
0.0
 11
41.8207
 21
130.666
 31
0.0
  0
LINE
  8
0
 62
     0
 10
41.8207
 20
130.666
 30
0.0
 11
41.8207
 21
127.565
 31
0.0
  0
LINE
  8
0
 62
     0
 10
41.8207
 20
127.565
 30
0.0
 11
42.6201
 21
127.565
 31
0.0
  0
LINE
  8
0
 62
     0
 10
42.6201
 20
127.565
 30
0.0
 11
42.6201
 21
121.766
 31
0.0
  0
LINE
  8
0
 62
     0
 10
42.6201
 20
121.766
 30
0.0
 11
41.8207
 21
121.766
 31
0.0
  0
LINE
  8
0
 62
     0
 10
41.8207
 20
121.766
 30
0.0
 11
41.8207
 21
118.666
 31
0.0
  0
LINE
  8
0
 62
     0
 10
41.8207
 20
118.666
 30
0.0
 11
42.6201
 21
118.666
 31
0.0
  0
LINE
  8
0
 62
     0
 10
42.6201
 20
118.666
 30
0.0
 11
42.6201
 21
117.665
 31
0.0
  0
LINE
  8
0
 62
     0
 10
42.6201
 20
117.665
 30
0.0
 11
56.6208
 21
117.665
 31
0.0
  0
LINE
  8
0
 62
     0
 10
56.6208
 20
117.665
 30
0.0
 11
56.6208
 21
118.666
 31
0.0
  0
LINE
  8
0
 62
     0
 10
56.6208
 20
118.666
 30
0.0
 11
57.4202
 21
118.666
 31
0.0
  0
LINE
  8
0
 62
     0
 10
57.4202
 20
118.666
 30
0.0
 11
57.4202
 21
121.766
 31
0.0
  0
LINE
  8
0
 62
     0
 10
57.4202
 20
121.766
 30
0.0
 11
56.6208
 21
121.766
 31
0.0
  0
LINE
  8
0
 62
     0
 10
56.6208
 20
121.766
 30
0.0
 11
56.6208
 21
127.565
 31
0.0
  0
LINE
  8
0
 62
     0
 10
56.6208
 20
127.565
 30
0.0
 11
57.4202
 21
127.565
 31
0.0
  0
LINE
  8
0
 62
     0
 10
57.4202
 20
127.565
 30
0.0
 11
57.4202
 21
130.666
 31
0.0
  0
LINE
  8
0
 62
     0
 10
57.4202
 20
130.666
 30
0.0
 11
56.6208
 21
130.666
 31
0.0
  0
LINE
  8
0
 62
     0
 10
56.6208
 20
130.666
 30
0.0
 11
56.6208
 21
131.666
 31
0.0
  0
LINE
  8
0
 62
     0
 10
56.6208
 20
131.666
 30
0.0
 11
42.6201
 21
131.666
 31
0.0
  0
LINE
  8
0
 62
     0
 10
80.7201
 20
131.666
 30
0.0
 11
80.7201
 21
130.666
 31
0.0
  0
LINE
  8
0
 62
     0
 10
80.7201
 20
130.666
 30
0.0
 11
79.9207
 21
130.666
 31
0.0
  0
LINE
  8
0
 62
     0
 10
79.9207
 20
130.666
 30
0.0
 11
79.9207
 21
127.565
 31
0.0
  0
LINE
  8
0
 62
     0
 10
79.9207
 20
127.565
 30
0.0
 11
80.7201
 21
127.565
 31
0.0
  0
LINE
  8
0
 62
     0
 10
80.7201
 20
127.565
 30
0.0
 11
80.7201
 21
121.766
 31
0.0
  0
LINE
  8
0
 62
     0
 10
80.7201
 20
121.766
 30
0.0
 11
79.9207
 21
121.766
 31
0.0
  0
LINE
  8
0
 62
     0
 10
79.9207
 20
121.766
 30
0.0
 11
79.9207
 21
118.666
 31
0.0
  0
LINE
  8
0
 62
     0
 10
79.9207
 20
118.666
 30
0.0
 11
80.7201
 21
118.666
 31
0.0
  0
LINE
  8
0
 62
     0
 10
80.7201
 20
118.666
 30
0.0
 11
80.7201
 21
117.665
 31
0.0
  0
LINE
  8
0
 62
     0
 10
80.7201
 20
117.665
 30
0.0
 11
94.7208
 21
117.665
 31
0.0
  0
LINE
  8
0
 62
     0
 10
94.7208
 20
117.665
 30
0.0
 11
94.7208
 21
118.666
 31
0.0
  0
LINE
  8
0
 62
     0
 10
94.7208
 20
118.666
 30
0.0
 11
95.5202
 21
118.666
 31
0.0
  0
LINE
  8
0
 62
     0
 10
95.5202
 20
118.666
 30
0.0
 11
95.5202
 21
121.766
 31
0.0
  0
LINE
  8
0
 62
     0
 10
95.5202
 20
121.766
 30
0.0
 11
94.7208
 21
121.766
 31
0.0
  0
LINE
  8
0
 62
     0
 10
94.7208
 20
121.766
 30
0.0
 11
94.7208
 21
127.565
 31
0.0
  0
LINE
  8
0
 62
     0
 10
94.7208
 20
127.565
 30
0.0
 11
95.5202
 21
127.565
 31
0.0
  0
LINE
  8
0
 62
     0
 10
95.5202
 20
127.565
 30
0.0
 11
95.5202
 21
130.666
 31
0.0
  0
LINE
  8
0
 62
     0
 10
95.5202
 20
130.666
 30
0.0
 11
94.7208
 21
130.666
 31
0.0
  0
LINE
  8
0
 62
     0
 10
94.7208
 20
130.666
 30
0.0
 11
94.7208
 21
131.666
 31
0.0
  0
LINE
  8
0
 62
     0
 10
94.7208
 20
131.666
 30
0.0
 11
80.7201
 21
131.666
 31
0.0
  0
LINE
  8
0
 62
     0
 10
99.7701
 20
131.666
 30
0.0
 11
99.7701
 21
130.666
 31
0.0
  0
LINE
  8
0
 62
     0
 10
99.7701
 20
130.666
 30
0.0
 11
98.9707
 21
130.666
 31
0.0
  0
LINE
  8
0
 62
     0
 10
98.9707
 20
130.666
 30
0.0
 11
98.9707
 21
127.565
 31
0.0
  0
LINE
  8
0
 62
     0
 10
98.9707
 20
127.565
 30
0.0
 11
99.7701
 21
127.565
 31
0.0
  0
LINE
  8
0
 62
     0
 10
99.7701
 20
127.565
 30
0.0
 11
99.7701
 21
121.766
 31
0.0
  0
LINE
  8
0
 62
     0
 10
99.7701
 20
121.766
 30
0.0
 11
98.9707
 21
121.766
 31
0.0
  0
LINE
  8
0
 62
     0
 10
98.9707
 20
121.766
 30
0.0
 11
98.9707
 21
118.666
 31
0.0
  0
LINE
  8
0
 62
     0
 10
98.9707
 20
118.666
 30
0.0
 11
99.7701
 21
118.666
 31
0.0
  0
LINE
  8
0
 62
     0
 10
99.7701
 20
118.666
 30
0.0
 11
99.7701
 21
117.665
 31
0.0
  0
LINE
  8
0
 62
     0
 10
99.7701
 20
117.665
 30
0.0
 11
113.771
 21
117.665
 31
0.0
  0
LINE
  8
0
 62
     0
 10
113.771
 20
117.665
 30
0.0
 11
113.771
 21
118.666
 31
0.0
  0
LINE
  8
0
 62
     0
 10
113.771
 20
118.666
 30
0.0
 11
114.57
 21
118.666
 31
0.0
  0
LINE
  8
0
 62
     0
 10
114.57
 20
118.666
 30
0.0
 11
114.57
 21
121.766
 31
0.0
  0
LINE
  8
0
 62
     0
 10
114.57
 20
121.766
 30
0.0
 11
113.771
 21
121.766
 31
0.0
  0
LINE
  8
0
 62
     0
 10
113.771
 20
121.766
 30
0.0
 11
113.771
 21
127.565
 31
0.0
  0
LINE
  8
0
 62
     0
 10
113.771
 20
127.565
 30
0.0
 11
114.57
 21
127.565
 31
0.0
  0
LINE
  8
0
 62
     0
 10
114.57
 20
127.565
 30
0.0
 11
114.57
 21
130.666
 31
0.0
  0
LINE
  8
0
 62
     0
 10
114.57
 20
130.666
 30
0.0
 11
113.771
 21
130.666
 31
0.0
  0
LINE
  8
0
 62
     0
 10
113.771
 20
130.666
 30
0.0
 11
113.771
 21
131.666
 31
0.0
  0
LINE
  8
0
 62
     0
 10
113.771
 20
131.666
 30
0.0
 11
99.7701
 21
131.666
 31
0.0
  0
LINE
  8
0
 62
     0
 10
118.82
 20
131.666
 30
0.0
 11
118.82
 21
130.666
 31
0.0
  0
LINE
  8
0
 62
     0
 10
118.82
 20
130.666
 30
0.0
 11
118.021
 21
130.666
 31
0.0
  0
LINE
  8
0
 62
     0
 10
118.021
 20
130.666
 30
0.0
 11
118.021
 21
127.565
 31
0.0
  0
LINE
  8
0
 62
     0
 10
118.021
 20
127.565
 30
0.0
 11
118.82
 21
127.565
 31
0.0
  0
LINE
  8
0
 62
     0
 10
118.82
 20
127.565
 30
0.0
 11
118.82
 21
121.766
 31
0.0
  0
LINE
  8
0
 62
     0
 10
118.82
 20
121.766
 30
0.0
 11
118.021
 21
121.766
 31
0.0
  0
LINE
  8
0
 62
     0
 10
118.021
 20
121.766
 30
0.0
 11
118.021
 21
118.666
 31
0.0
  0
LINE
  8
0
 62
     0
 10
118.021
 20
118.666
 30
0.0
 11
118.82
 21
118.666
 31
0.0
  0
LINE
  8
0
 62
     0
 10
118.82
 20
118.666
 30
0.0
 11
118.82
 21
117.665
 31
0.0
  0
LINE
  8
0
 62
     0
 10
118.82
 20
117.665
 30
0.0
 11
132.821
 21
117.665
 31
0.0
  0
LINE
  8
0
 62
     0
 10
132.821
 20
117.665
 30
0.0
 11
132.821
 21
118.666
 31
0.0
  0
LINE
  8
0
 62
     0
 10
132.821
 20
118.666
 30
0.0
 11
133.62
 21
118.666
 31
0.0
  0
LINE
  8
0
 62
     0
 10
133.62
 20
118.666
 30
0.0
 11
133.62
 21
121.766
 31
0.0
  0
LINE
  8
0
 62
     0
 10
133.62
 20
121.766
 30
0.0
 11
132.821
 21
121.766
 31
0.0
  0
LINE
  8
0
 62
     0
 10
132.821
 20
121.766
 30
0.0
 11
132.821
 21
127.565
 31
0.0
  0
LINE
  8
0
 62
     0
 10
132.821
 20
127.565
 30
0.0
 11
133.62
 21
127.565
 31
0.0
  0
LINE
  8
0
 62
     0
 10
133.62
 20
127.565
 30
0.0
 11
133.62
 21
130.666
 31
0.0
  0
LINE
  8
0
 62
     0
 10
133.62
 20
130.666
 30
0.0
 11
132.821
 21
130.666
 31
0.0
  0
LINE
  8
0
 62
     0
 10
132.821
 20
130.666
 30
0.0
 11
132.821
 21
131.666
 31
0.0
  0
LINE
  8
0
 62
     0
 10
132.821
 20
131.666
 30
0.0
 11
118.82
 21
131.666
 31
0.0
  0
LINE
  8
0
 62
     0
 10
137.87
 20
131.666
 30
0.0
 11
137.87
 21
130.666
 31
0.0
  0
LINE
  8
0
 62
     0
 10
137.87
 20
130.666
 30
0.0
 11
137.071
 21
130.666
 31
0.0
  0
LINE
  8
0
 62
     0
 10
137.071
 20
130.666
 30
0.0
 11
137.071
 21
127.565
 31
0.0
  0
LINE
  8
0
 62
     0
 10
137.071
 20
127.565
 30
0.0
 11
137.87
 21
127.565
 31
0.0
  0
LINE
  8
0
 62
     0
 10
137.87
 20
127.565
 30
0.0
 11
137.87
 21
121.766
 31
0.0
  0
LINE
  8
0
 62
     0
 10
137.87
 20
121.766
 30
0.0
 11
137.071
 21
121.766
 31
0.0
  0
LINE
  8
0
 62
     0
 10
137.071
 20
121.766
 30
0.0
 11
137.071
 21
118.666
 31
0.0
  0
LINE
  8
0
 62
     0
 10
137.071
 20
118.666
 30
0.0
 11
137.87
 21
118.666
 31
0.0
  0
LINE
  8
0
 62
     0
 10
137.87
 20
118.666
 30
0.0
 11
137.87
 21
117.665
 31
0.0
  0
LINE
  8
0
 62
     0
 10
137.87
 20
117.665
 30
0.0
 11
151.871
 21
117.665
 31
0.0
  0
LINE
  8
0
 62
     0
 10
151.871
 20
117.665
 30
0.0
 11
151.871
 21
118.666
 31
0.0
  0
LINE
  8
0
 62
     0
 10
151.871
 20
118.666
 30
0.0
 11
152.67
 21
118.666
 31
0.0
  0
LINE
  8
0
 62
     0
 10
152.67
 20
118.666
 30
0.0
 11
152.67
 21
121.766
 31
0.0
  0
LINE
  8
0
 62
     0
 10
152.67
 20
121.766
 30
0.0
 11
151.871
 21
121.766
 31
0.0
  0
LINE
  8
0
 62
     0
 10
151.871
 20
121.766
 30
0.0
 11
151.871
 21
127.565
 31
0.0
  0
LINE
  8
0
 62
     0
 10
151.871
 20
127.565
 30
0.0
 11
152.67
 21
127.565
 31
0.0
  0
LINE
  8
0
 62
     0
 10
152.67
 20
127.565
 30
0.0
 11
152.67
 21
130.666
 31
0.0
  0
LINE
  8
0
 62
     0
 10
152.67
 20
130.666
 30
0.0
 11
151.871
 21
130.666
 31
0.0
  0
LINE
  8
0
 62
     0
 10
151.871
 20
130.666
 30
0.0
 11
151.871
 21
131.666
 31
0.0
  0
LINE
  8
0
 62
     0
 10
151.871
 20
131.666
 30
0.0
 11
137.87
 21
131.666
 31
0.0
  0
LINE
  8
0
 62
     0
 10
156.92
 20
131.666
 30
0.0
 11
156.92
 21
130.666
 31
0.0
  0
LINE
  8
0
 62
     0
 10
156.92
 20
130.666
 30
0.0
 11
156.121
 21
130.666
 31
0.0
  0
LINE
  8
0
 62
     0
 10
156.121
 20
130.666
 30
0.0
 11
156.121
 21
127.565
 31
0.0
  0
LINE
  8
0
 62
     0
 10
156.121
 20
127.565
 30
0.0
 11
156.92
 21
127.565
 31
0.0
  0
LINE
  8
0
 62
     0
 10
156.92
 20
127.565
 30
0.0
 11
156.92
 21
121.766
 31
0.0
  0
LINE
  8
0
 62
     0
 10
156.92
 20
121.766
 30
0.0
 11
156.121
 21
121.766
 31
0.0
  0
LINE
  8
0
 62
     0
 10
156.121
 20
121.766
 30
0.0
 11
156.121
 21
118.666
 31
0.0
  0
LINE
  8
0
 62
     0
 10
156.121
 20
118.666
 30
0.0
 11
156.92
 21
118.666
 31
0.0
  0
LINE
  8
0
 62
     0
 10
156.92
 20
118.666
 30
0.0
 11
156.92
 21
117.665
 31
0.0
  0
LINE
  8
0
 62
     0
 10
156.92
 20
117.665
 30
0.0
 11
170.921
 21
117.665
 31
0.0
  0
LINE
  8
0
 62
     0
 10
170.921
 20
117.665
 30
0.0
 11
170.921
 21
118.666
 31
0.0
  0
LINE
  8
0
 62
     0
 10
170.921
 20
118.666
 30
0.0
 11
171.72
 21
118.666
 31
0.0
  0
LINE
  8
0
 62
     0
 10
171.72
 20
118.666
 30
0.0
 11
171.72
 21
121.766
 31
0.0
  0
LINE
  8
0
 62
     0
 10
171.72
 20
121.766
 30
0.0
 11
170.921
 21
121.766
 31
0.0
  0
LINE
  8
0
 62
     0
 10
170.921
 20
121.766
 30
0.0
 11
170.921
 21
127.565
 31
0.0
  0
LINE
  8
0
 62
     0
 10
170.921
 20
127.565
 30
0.0
 11
171.72
 21
127.565
 31
0.0
  0
LINE
  8
0
 62
     0
 10
171.72
 20
127.565
 30
0.0
 11
171.72
 21
130.666
 31
0.0
  0
LINE
  8
0
 62
     0
 10
171.72
 20
130.666
 30
0.0
 11
170.921
 21
130.666
 31
0.0
  0
LINE
  8
0
 62
     0
 10
170.921
 20
130.666
 30
0.0
 11
170.921
 21
131.666
 31
0.0
  0
LINE
  8
0
 62
     0
 10
170.921
 20
131.666
 30
0.0
 11
156.92
 21
131.666
 31
0.0
  0
LINE
  8
0
 62
     0
 10
93.533
 20
142.094
 30
0.0
 11
92.9763
 21
141.81
 31
0.0
  0
LINE
  8
0
 62
     0
 10
92.9763
 20
141.81
 30
0.0
 11
92.534
 21
141.366
 31
0.0
  0
LINE
  8
0
 62
     0
 10
92.534
 20
141.366
 30
0.0
 11
92.25
 21
140.809
 31
0.0
  0
LINE
  8
0
 62
     0
 10
92.25
 20
140.809
 30
0.0
 11
92.1523
 21
140.191
 31
0.0
  0
LINE
  8
0
 62
     0
 10
92.1523
 20
140.191
 30
0.0
 11
92.25
 21
139.573
 31
0.0
  0
LINE
  8
0
 62
     0
 10
92.25
 20
139.573
 30
0.0
 11
92.534
 21
139.015
 31
0.0
  0
LINE
  8
0
 62
     0
 10
92.534
 20
139.015
 30
0.0
 11
92.9763
 21
138.573
 31
0.0
  0
LINE
  8
0
 62
     0
 10
92.9763
 20
138.573
 30
0.0
 11
93.533
 21
138.289
 31
0.0
  0
LINE
  8
0
 62
     0
 10
93.533
 20
138.289
 30
0.0
 11
94.1518
 21
138.191
 31
0.0
  0
LINE
  8
0
 62
     0
 10
94.1518
 20
138.191
 30
0.0
 11
94.7692
 21
138.289
 31
0.0
  0
LINE
  8
0
 62
     0
 10
94.7692
 20
138.289
 30
0.0
 11
95.3273
 21
138.573
 31
0.0
  0
LINE
  8
0
 62
     0
 10
95.3273
 20
138.573
 30
0.0
 11
95.7696
 21
139.015
 31
0.0
  0
LINE
  8
0
 62
     0
 10
95.7696
 20
139.015
 30
0.0
 11
96.0533
 21
139.573
 31
0.0
  0
LINE
  8
0
 62
     0
 10
96.0533
 20
139.573
 30
0.0
 11
96.1513
 21
140.191
 31
0.0
  0
LINE
  8
0
 62
     0
 10
96.1513
 20
140.191
 30
0.0
 11
96.0533
 21
140.809
 31
0.0
  0
LINE
  8
0
 62
     0
 10
96.0533
 20
140.809
 30
0.0
 11
95.7696
 21
141.366
 31
0.0
  0
LINE
  8
0
 62
     0
 10
95.7696
 20
141.366
 30
0.0
 11
95.3273
 21
141.81
 31
0.0
  0
LINE
  8
0
 62
     0
 10
95.3273
 20
141.81
 30
0.0
 11
94.7692
 21
142.094
 31
0.0
  0
LINE
  8
0
 62
     0
 10
94.7692
 20
142.094
 30
0.0
 11
94.1518
 21
142.19
 31
0.0
  0
LINE
  8
0
 62
     0
 10
94.1518
 20
142.19
 30
0.0
 11
93.533
 21
142.094
 31
0.0
  0
LINE
  8
0
 62
     0
 10
183.59
 20
142.094
 30
0.0
 11
183.032
 21
141.81
 31
0.0
  0
LINE
  8
0
 62
     0
 10
183.032
 20
141.81
 30
0.0
 11
182.59
 21
141.366
 31
0.0
  0
LINE
  8
0
 62
     0
 10
182.59
 20
141.366
 30
0.0
 11
182.306
 21
140.809
 31
0.0
  0
LINE
  8
0
 62
     0
 10
182.306
 20
140.809
 30
0.0
 11
182.208
 21
140.191
 31
0.0
  0
LINE
  8
0
 62
     0
 10
182.208
 20
140.191
 30
0.0
 11
182.306
 21
139.573
 31
0.0
  0
LINE
  8
0
 62
     0
 10
182.306
 20
139.573
 30
0.0
 11
182.59
 21
139.015
 31
0.0
  0
LINE
  8
0
 62
     0
 10
182.59
 20
139.015
 30
0.0
 11
183.032
 21
138.573
 31
0.0
  0
LINE
  8
0
 62
     0
 10
183.032
 20
138.573
 30
0.0
 11
183.59
 21
138.289
 31
0.0
  0
LINE
  8
0
 62
     0
 10
183.59
 20
138.289
 30
0.0
 11
184.208
 21
138.191
 31
0.0
  0
LINE
  8
0
 62
     0
 10
184.208
 20
138.191
 30
0.0
 11
184.827
 21
138.289
 31
0.0
  0
LINE
  8
0
 62
     0
 10
184.827
 20
138.289
 30
0.0
 11
185.385
 21
138.573
 31
0.0
  0
LINE
  8
0
 62
     0
 10
185.385
 20
138.573
 30
0.0
 11
185.827
 21
139.015
 31
0.0
  0
LINE
  8
0
 62
     0
 10
185.827
 20
139.015
 30
0.0
 11
186.111
 21
139.573
 31
0.0
  0
LINE
  8
0
 62
     0
 10
186.111
 20
139.573
 30
0.0
 11
186.209
 21
140.191
 31
0.0
  0
LINE
  8
0
 62
     0
 10
186.209
 20
140.191
 30
0.0
 11
186.111
 21
140.809
 31
0.0
  0
LINE
  8
0
 62
     0
 10
186.111
 20
140.809
 30
0.0
 11
185.827
 21
141.366
 31
0.0
  0
LINE
  8
0
 62
     0
 10
185.827
 20
141.366
 30
0.0
 11
185.385
 21
141.81
 31
0.0
  0
LINE
  8
0
 62
     0
 10
185.385
 20
141.81
 30
0.0
 11
184.827
 21
142.094
 31
0.0
  0
LINE
  8
0
 62
     0
 10
184.827
 20
142.094
 30
0.0
 11
184.208
 21
142.19
 31
0.0
  0
LINE
  8
0
 62
     0
 10
184.208
 20
142.19
 30
0.0
 11
183.59
 21
142.094
 31
0.0
  0
LINE
  8
0
 62
     0
 10
3.47679
 20
142.094
 30
0.0
 11
2.92006
 21
141.81
 31
0.0
  0
LINE
  8
0
 62
     0
 10
2.92006
 20
141.81
 30
0.0
 11
2.47633
 21
141.366
 31
0.0
  0
LINE
  8
0
 62
     0
 10
2.47633
 20
141.366
 30
0.0
 11
2.19246
 21
140.809
 31
0.0
  0
LINE
  8
0
 62
     0
 10
2.19246
 20
140.809
 30
0.0
 11
2.09462
 21
140.191
 31
0.0
  0
LINE
  8
0
 62
     0
 10
2.09462
 20
140.191
 30
0.0
 11
2.19246
 21
139.573
 31
0.0
  0
LINE
  8
0
 62
     0
 10
2.19246
 20
139.573
 30
0.0
 11
2.47633
 21
139.015
 31
0.0
  0
LINE
  8
0
 62
     0
 10
2.47633
 20
139.015
 30
0.0
 11
2.92006
 21
138.573
 31
0.0
  0
LINE
  8
0
 62
     0
 10
2.92006
 20
138.573
 30
0.0
 11
3.47679
 21
138.289
 31
0.0
  0
LINE
  8
0
 62
     0
 10
3.47679
 20
138.289
 30
0.0
 11
4.09554
 21
138.191
 31
0.0
  0
LINE
  8
0
 62
     0
 10
4.09554
 20
138.191
 30
0.0
 11
4.7129
 21
138.289
 31
0.0
  0
LINE
  8
0
 62
     0
 10
4.7129
 20
138.289
 30
0.0
 11
5.27099
 21
138.573
 31
0.0
  0
LINE
  8
0
 62
     0
 10
5.27099
 20
138.573
 30
0.0
 11
5.71334
 21
139.015
 31
0.0
  0
LINE
  8
0
 62
     0
 10
5.71334
 20
139.015
 30
0.0
 11
5.99722
 21
139.573
 31
0.0
  0
LINE
  8
0
 62
     0
 10
5.99722
 20
139.573
 30
0.0
 11
6.09505
 21
140.191
 31
0.0
  0
LINE
  8
0
 62
     0
 10
6.09505
 20
140.191
 30
0.0
 11
5.99722
 21
140.809
 31
0.0
  0
LINE
  8
0
 62
     0
 10
5.99722
 20
140.809
 30
0.0
 11
5.71334
 21
141.366
 31
0.0
  0
LINE
  8
0
 62
     0
 10
5.71334
 20
141.366
 30
0.0
 11
5.27099
 21
141.81
 31
0.0
  0
LINE
  8
0
 62
     0
 10
5.27099
 20
141.81
 30
0.0
 11
4.7129
 21
142.094
 31
0.0
  0
LINE
  8
0
 62
     0
 10
4.7129
 20
142.094
 30
0.0
 11
4.09554
 21
142.19
 31
0.0
  0
LINE
  8
0
 62
     0
 10
4.09554
 20
142.19
 30
0.0
 11
3.47679
 21
142.094
 31
0.0
  0
ENDSEC
  0
EOF
