<?xml version="1.0"?>
<!-- Generated by SVGo -->
<svg width="198.114mm" height="153.827mm"
     viewBox="0.000 0.000 198.114 153.827"
     xmlns="http://www.w3.org/2000/svg" 
     xmlns:xlink="http://www.w3.org/1999/xlink">
<polygon points="189.114,5.001 189.428,5.013 189.740,5.050 190.048,5.111 190.350,5.196 190.645,5.305 190.930,5.436 191.204,5.590 191.465,5.764 191.712,5.959 191.942,6.172 192.156,6.403 192.350,6.649 192.525,6.911 192.678,7.185 192.810,7.470 192.918,7.764 193.003,8.067 193.065,8.375 193.102,8.687 193.114,9.001 193.114,144.827 193.102,145.140 193.065,145.452 193.003,145.760 192.918,146.063 192.810,146.357 192.678,146.642 192.525,146.916 192.350,147.178 192.156,147.424 191.942,147.655 191.712,147.868 191.465,148.063 191.204,148.237 190.930,148.391 190.645,148.522 190.350,148.631 190.048,148.716 189.740,148.777 189.428,148.814 189.114,148.826 9.001,148.827 8.687,148.814 8.375,148.777 8.067,148.716 7.764,148.631 7.470,148.522 7.185,148.391 6.911,148.237 6.649,148.063 6.403,147.868 6.172,147.655 5.959,147.424 5.764,147.178 5.590,146.916 5.436,146.642 5.305,146.357 5.196,146.063 5.111,145.760 5.050,145.452 5.013,145.140 5.000,144.827 5.001,9.001 5.013,8.687 5.050,8.375 5.111,8.067 5.196,7.764 5.305,7.470 5.436,7.185 5.590,6.911 5.764,6.649 5.959,6.403 6.172,6.172 6.403,5.959 6.649,5.764 6.911,5.590 7.185,5.436 7.470,5.305 7.764,5.196 8.067,5.111 8.375,5.050 8.687,5.013 9.001,5.000" style="fill:none;stroke-width:0.050000mm;stroke:black"/>
<polygon points="188.496,142.924 187.938,143.208 187.496,143.651 187.212,144.208 187.114,144.827 187.212,145.445 187.496,146.002 187.938,146.445 188.496,146.729 189.114,146.827 189.732,146.729 190.290,146.445 190.732,146.002 191.016,145.445 191.114,144.827 191.016,144.208 190.732,143.651 190.290,143.208 189.732,142.924 189.114,142.827" style="fill:none;stroke-width:0.050000mm;stroke:black"/>
<polygon points="98.439,142.924 97.882,143.208 97.439,143.651 97.155,144.208 97.057,144.827 97.155,145.445 97.439,146.002 97.882,146.445 98.439,146.729 99.057,146.827 99.675,146.729 100.233,146.445 100.675,146.002 100.959,145.445 101.057,144.827 100.959,144.208 100.675,143.651 100.233,143.208 99.675,142.924 99.057,142.827" style="fill:none;stroke-width:0.050000mm;stroke:black"/>
<polygon points="8.382,142.924 7.825,143.208 7.382,143.651 7.098,144.208 7.000,144.827 7.098,145.445 7.382,146.002 7.825,146.445 8.382,146.729 9.001,146.827 9.619,146.729 10.176,146.445 10.619,146.002 10.903,145.445 11.001,144.827 10.903,144.208 10.619,143.651 10.176,143.208 9.619,142.924 9.001,142.827" style="fill:none;stroke-width:0.050000mm;stroke:black"/>
<polygon points="98.439,7.098 97.882,7.382 97.439,7.825 97.155,8.382 97.057,9.001 97.155,9.619 97.439,10.176 97.882,10.619 98.439,10.903 99.057,11.001 99.675,10.903 100.233,10.619 100.675,10.176 100.959,9.619 101.057,9.001 100.959,8.382 100.675,7.825 100.233,7.382 99.675,7.098 99.057,7.001" style="fill:none;stroke-width:0.050000mm;stroke:black"/>
<polygon points="188.496,7.098 187.938,7.382 187.496,7.825 187.212,8.382 187.114,9.001 187.212,9.619 187.496,10.176 187.938,10.619 188.496,10.903 189.114,11.001 189.732,10.903 190.290,10.619 190.732,10.176 191.016,9.619 191.114,9.001 191.016,8.382 190.732,7.825 190.290,7.382 189.732,7.098 189.114,7.001" style="fill:none;stroke-width:0.050000mm;stroke:black"/>
<polygon points="8.382,7.098 7.825,7.382 7.382,7.825 7.098,8.382 7.000,9.001 7.098,9.619 7.382,10.176 7.825,10.619 8.382,10.903 9.001,11.001 9.619,10.903 10.176,10.619 10.619,10.176 10.903,9.619 11.001,9.001 10.903,8.382 10.619,7.825 10.176,7.382 9.619,7.098 9.001,7.001" style="fill:none;stroke-width:0.050000mm;stroke:black"/>
</svg>
