  0
SECTION
  2
HEADER
  9
$ACADVER
  1
AC1009
  9
$FILLMODE
 70
 0
  9
$SPLFRAME
 70
 1
  9
$EXTMIN
 10
0
 20
0
 30
0.0
  9
$EXTMAX
 10
1058.33
 20
1058.33
 30
0.0
  0
ENDSEC
  0
SECTION
  2
TABLES
  0
TABLE
  2
LAYER
 70
1
  0
LAYER
  2
0
 70
     0
 62
     7
  6
CONTINUOUS
  0
ENDTAB
  0
ENDSEC
  0
SECTION
  2
ENTITIES
  0
LINE
  8
0
 62
     0
 10
269.933
 20
144.191
 30
0.0
 11
270.247
 21
144.179
 31
0.0
  0
LINE
  8
0
 62
     0
 10
270.247
 20
144.179
 30
0.0
 11
270.56
 21
144.141
 31
0.0
  0
LINE
  8
0
 62
     0
 10
270.56
 20
144.141
 30
0.0
 11
270.867
 21
144.081
 31
0.0
  0
LINE
  8
0
 62
     0
 10
270.867
 20
144.081
 30
0.0
 11
271.169
 21
143.995
 31
0.0
  0
LINE
  8
0
 62
     0
 10
271.169
 20
143.995
 30
0.0
 11
271.464
 21
143.886
 31
0.0
  0
LINE
  8
0
 62
     0
 10
271.464
 20
143.886
 30
0.0
 11
271.749
 21
143.756
 31
0.0
  0
LINE
  8
0
 62
     0
 10
271.749
 20
143.756
 30
0.0
 11
272.023
 21
143.601
 31
0.0
  0
LINE
  8
0
 62
     0
 10
272.023
 20
143.601
 30
0.0
 11
272.284
 21
143.427
 31
0.0
  0
LINE
  8
0
 62
     0
 10
272.284
 20
143.427
 30
0.0
 11
272.532
 21
143.233
 31
0.0
  0
LINE
  8
0
 62
     0
 10
272.532
 20
143.233
 30
0.0
 11
272.762
 21
143.02
 31
0.0
  0
LINE
  8
0
 62
     0
 10
272.762
 20
143.02
 30
0.0
 11
272.976
 21
142.788
 31
0.0
  0
LINE
  8
0
 62
     0
 10
272.976
 20
142.788
 30
0.0
 11
273.17
 21
142.543
 31
0.0
  0
LINE
  8
0
 62
     0
 10
273.17
 20
142.543
 30
0.0
 11
273.345
 21
142.281
 31
0.0
  0
LINE
  8
0
 62
     0
 10
273.345
 20
142.281
 30
0.0
 11
273.498
 21
142.007
 31
0.0
  0
LINE
  8
0
 62
     0
 10
273.498
 20
142.007
 30
0.0
 11
273.63
 21
141.721
 31
0.0
  0
LINE
  8
0
 62
     0
 10
273.63
 20
141.721
 30
0.0
 11
273.738
 21
141.428
 31
0.0
  0
LINE
  8
0
 62
     0
 10
273.738
 20
141.428
 30
0.0
 11
273.823
 21
141.125
 31
0.0
  0
LINE
  8
0
 62
     0
 10
273.823
 20
141.125
 30
0.0
 11
273.885
 21
140.816
 31
0.0
  0
LINE
  8
0
 62
     0
 10
273.885
 20
140.816
 30
0.0
 11
273.921
 21
140.505
 31
0.0
  0
LINE
  8
0
 62
     0
 10
273.921
 20
140.505
 30
0.0
 11
273.933
 21
140.191
 31
0.0
  0
LINE
  8
0
 62
     0
 10
273.933
 20
140.191
 30
0.0
 11
273.933
 21
4.36425
 31
0.0
  0
LINE
  8
0
 62
     0
 10
273.933
 20
4.36425
 30
0.0
 11
273.921
 21
4.05144
 31
0.0
  0
LINE
  8
0
 62
     0
 10
273.921
 20
4.05144
 30
0.0
 11
273.885
 21
3.74001
 31
0.0
  0
LINE
  8
0
 62
     0
 10
273.885
 20
3.74001
 30
0.0
 11
273.823
 21
3.43131
 31
0.0
  0
LINE
  8
0
 62
     0
 10
273.823
 20
3.43131
 30
0.0
 11
273.738
 21
3.12815
 31
0.0
  0
LINE
  8
0
 62
     0
 10
273.738
 20
3.12815
 30
0.0
 11
273.63
 21
2.83463
 31
0.0
  0
LINE
  8
0
 62
     0
 10
273.63
 20
2.83463
 30
0.0
 11
273.498
 21
2.54937
 31
0.0
  0
LINE
  8
0
 62
     0
 10
273.498
 20
2.54937
 30
0.0
 11
273.345
 21
2.27514
 31
0.0
  0
LINE
  8
0
 62
     0
 10
273.345
 20
2.27514
 30
0.0
 11
273.17
 21
2.01331
 31
0.0
  0
LINE
  8
0
 62
     0
 10
273.17
 20
2.01331
 30
0.0
 11
272.976
 21
1.76802
 31
0.0
  0
LINE
  8
0
 62
     0
 10
272.976
 20
1.76802
 30
0.0
 11
272.762
 21
1.53651
 31
0.0
  0
LINE
  8
0
 62
     0
 10
272.762
 20
1.53651
 30
0.0
 11
272.532
 21
1.3243
 31
0.0
  0
LINE
  8
0
 62
     0
 10
272.532
 20
1.3243
 30
0.0
 11
272.284
 21
1.12861
 31
0.0
  0
LINE
  8
0
 62
     0
 10
272.284
 20
1.12861
 30
0.0
 11
272.023
 21
0.95498
 31
0.0
  0
LINE
  8
0
 62
     0
 10
272.023
 20
0.95498
 30
0.0
 11
271.749
 21
0.80064
 31
0.0
  0
LINE
  8
0
 62
     0
 10
271.749
 20
0.80064
 30
0.0
 11
271.464
 21
0.669727
 31
0.0
  0
LINE
  8
0
 62
     0
 10
271.464
 20
0.669727
 30
0.0
 11
271.169
 21
0.56086
 31
0.0
  0
LINE
  8
0
 62
     0
 10
271.169
 20
0.56086
 30
0.0
 11
270.867
 21
0.475424
 31
0.0
  0
LINE
  8
0
 62
     0
 10
270.867
 20
0.475424
 30
0.0
 11
270.56
 21
0.414789
 31
0.0
  0
LINE
  8
0
 62
     0
 10
270.56
 20
0.414789
 30
0.0
 11
270.247
 21
0.377582
 31
0.0
  0
LINE
  8
0
 62
     0
 10
270.247
 20
0.377582
 30
0.0
 11
269.933
 21
0.365181
 31
0.0
  0
LINE
  8
0
 62
     0
 10
269.933
 20
0.365181
 30
0.0
 11
4.09554
 21
0.365181
 31
0.0
  0
LINE
  8
0
 62
     0
 10
4.09554
 20
0.365181
 30
0.0
 11
3.78135
 21
0.377582
 31
0.0
  0
LINE
  8
0
 62
     0
 10
3.78135
 20
0.377582
 30
0.0
 11
3.4699
 21
0.414789
 31
0.0
  0
LINE
  8
0
 62
     0
 10
3.4699
 20
0.414789
 30
0.0
 11
3.16122
 21
0.475424
 31
0.0
  0
LINE
  8
0
 62
     0
 10
3.16122
 20
0.475424
 30
0.0
 11
2.85805
 21
0.56086
 31
0.0
  0
LINE
  8
0
 62
     0
 10
2.85805
 20
0.56086
 30
0.0
 11
2.56453
 21
0.669727
 31
0.0
  0
LINE
  8
0
 62
     0
 10
2.56453
 20
0.669727
 30
0.0
 11
2.27928
 21
0.80064
 31
0.0
  0
LINE
  8
0
 62
     0
 10
2.27928
 20
0.80064
 30
0.0
 11
2.00504
 21
0.95498
 31
0.0
  0
LINE
  8
0
 62
     0
 10
2.00504
 20
0.95498
 30
0.0
 11
1.74322
 21
1.12861
 31
0.0
  0
LINE
  8
0
 62
     0
 10
1.74322
 20
1.12861
 30
0.0
 11
1.49793
 21
1.3243
 31
0.0
  0
LINE
  8
0
 62
     0
 10
1.49793
 20
1.3243
 30
0.0
 11
1.26642
 21
1.53651
 31
0.0
  0
LINE
  8
0
 62
     0
 10
1.26642
 20
1.53651
 30
0.0
 11
1.05282
 21
1.76802
 31
0.0
  0
LINE
  8
0
 62
     0
 10
1.05282
 20
1.76802
 30
0.0
 11
0.858516
 21
2.01331
 31
0.0
  0
LINE
  8
0
 62
     0
 10
0.858516
 20
2.01331
 30
0.0
 11
0.684886
 21
2.27514
 31
0.0
  0
LINE
  8
0
 62
     0
 10
0.684886
 20
2.27514
 30
0.0
 11
0.530546
 21
2.54937
 31
0.0
  0
LINE
  8
0
 62
     0
 10
0.530546
 20
2.54937
 30
0.0
 11
0.39963
 21
2.83463
 31
0.0
  0
LINE
  8
0
 62
     0
 10
0.39963
 20
2.83463
 30
0.0
 11
0.290766
 21
3.12815
 31
0.0
  0
LINE
  8
0
 62
     0
 10
0.290766
 20
3.12815
 30
0.0
 11
0.205328
 21
3.43131
 31
0.0
  0
LINE
  8
0
 62
     0
 10
0.205328
 20
3.43131
 30
0.0
 11
0.144694
 21
3.74001
 31
0.0
  0
LINE
  8
0
 62
     0
 10
0.144694
 20
3.74001
 30
0.0
 11
0.107487
 21
4.05144
 31
0.0
  0
LINE
  8
0
 62
     0
 10
0.107487
 20
4.05144
 30
0.0
 11
0.0950846
 21
4.36425
 31
0.0
  0
LINE
  8
0
 62
     0
 10
0.0950846
 20
4.36425
 30
0.0
 11
0.0950846
 21
140.191
 31
0.0
  0
LINE
  8
0
 62
     0
 10
0.0950846
 20
140.191
 30
0.0
 11
0.107487
 21
140.505
 31
0.0
  0
LINE
  8
0
 62
     0
 10
0.107487
 20
140.505
 30
0.0
 11
0.144694
 21
140.816
 31
0.0
  0
LINE
  8
0
 62
     0
 10
0.144694
 20
140.816
 30
0.0
 11
0.205328
 21
141.125
 31
0.0
  0
LINE
  8
0
 62
     0
 10
0.205328
 20
141.125
 30
0.0
 11
0.290766
 21
141.428
 31
0.0
  0
LINE
  8
0
 62
     0
 10
0.290766
 20
141.428
 30
0.0
 11
0.39963
 21
141.721
 31
0.0
  0
LINE
  8
0
 62
     0
 10
0.39963
 20
141.721
 30
0.0
 11
0.530546
 21
142.007
 31
0.0
  0
LINE
  8
0
 62
     0
 10
0.530546
 20
142.007
 30
0.0
 11
0.684886
 21
142.281
 31
0.0
  0
LINE
  8
0
 62
     0
 10
0.684886
 20
142.281
 30
0.0
 11
0.858516
 21
142.543
 31
0.0
  0
LINE
  8
0
 62
     0
 10
0.858516
 20
142.543
 30
0.0
 11
1.05282
 21
142.788
 31
0.0
  0
LINE
  8
0
 62
     0
 10
1.05282
 20
142.788
 30
0.0
 11
1.26642
 21
143.02
 31
0.0
  0
LINE
  8
0
 62
     0
 10
1.26642
 20
143.02
 30
0.0
 11
1.49793
 21
143.233
 31
0.0
  0
LINE
  8
0
 62
     0
 10
1.49793
 20
143.233
 30
0.0
 11
1.74322
 21
143.427
 31
0.0
  0
LINE
  8
0
 62
     0
 10
1.74322
 20
143.427
 30
0.0
 11
2.00504
 21
143.601
 31
0.0
  0
LINE
  8
0
 62
     0
 10
2.00504
 20
143.601
 30
0.0
 11
2.27928
 21
143.756
 31
0.0
  0
LINE
  8
0
 62
     0
 10
2.27928
 20
143.756
 30
0.0
 11
2.56453
 21
143.886
 31
0.0
  0
LINE
  8
0
 62
     0
 10
2.56453
 20
143.886
 30
0.0
 11
2.85805
 21
143.995
 31
0.0
  0
LINE
  8
0
 62
     0
 10
2.85805
 20
143.995
 30
0.0
 11
3.16122
 21
144.081
 31
0.0
  0
LINE
  8
0
 62
     0
 10
3.16122
 20
144.081
 30
0.0
 11
3.4699
 21
144.141
 31
0.0
  0
LINE
  8
0
 62
     0
 10
3.4699
 20
144.141
 30
0.0
 11
3.78135
 21
144.179
 31
0.0
  0
LINE
  8
0
 62
     0
 10
3.78135
 20
144.179
 30
0.0
 11
4.09554
 21
144.191
 31
0.0
  0
LINE
  8
0
 62
     0
 10
4.09554
 20
144.191
 30
0.0
 11
269.933
 21
144.191
 31
0.0
  0
LINE
  8
0
 62
     0
 10
269.315
 20
6.26731
 30
0.0
 11
268.757
 21
5.98343
 31
0.0
  0
LINE
  8
0
 62
     0
 10
268.757
 20
5.98343
 30
0.0
 11
268.315
 21
5.54108
 31
0.0
  0
LINE
  8
0
 62
     0
 10
268.315
 20
5.54108
 30
0.0
 11
268.031
 21
4.98299
 31
0.0
  0
LINE
  8
0
 62
     0
 10
268.031
 20
4.98299
 30
0.0
 11
267.933
 21
4.36425
 31
0.0
  0
LINE
  8
0
 62
     0
 10
267.933
 20
4.36425
 30
0.0
 11
268.031
 21
3.74689
 31
0.0
  0
LINE
  8
0
 62
     0
 10
268.031
 20
3.74689
 30
0.0
 11
268.315
 21
3.19016
 31
0.0
  0
LINE
  8
0
 62
     0
 10
268.315
 20
3.19016
 30
0.0
 11
268.757
 21
2.74643
 31
0.0
  0
LINE
  8
0
 62
     0
 10
268.757
 20
2.74643
 30
0.0
 11
269.315
 21
2.46255
 31
0.0
  0
LINE
  8
0
 62
     0
 10
269.315
 20
2.46255
 30
0.0
 11
269.933
 21
2.36472
 31
0.0
  0
LINE
  8
0
 62
     0
 10
269.933
 20
2.36472
 30
0.0
 11
270.552
 21
2.46255
 31
0.0
  0
LINE
  8
0
 62
     0
 10
270.552
 20
2.46255
 30
0.0
 11
271.11
 21
2.74643
 31
0.0
  0
LINE
  8
0
 62
     0
 10
271.11
 20
2.74643
 30
0.0
 11
271.552
 21
3.19016
 31
0.0
  0
LINE
  8
0
 62
     0
 10
271.552
 20
3.19016
 30
0.0
 11
271.836
 21
3.74689
 31
0.0
  0
LINE
  8
0
 62
     0
 10
271.836
 20
3.74689
 30
0.0
 11
271.934
 21
4.36425
 31
0.0
  0
LINE
  8
0
 62
     0
 10
271.934
 20
4.36425
 30
0.0
 11
271.836
 21
4.98299
 31
0.0
  0
LINE
  8
0
 62
     0
 10
271.836
 20
4.98299
 30
0.0
 11
271.552
 21
5.54108
 31
0.0
  0
LINE
  8
0
 62
     0
 10
271.552
 20
5.54108
 30
0.0
 11
271.11
 21
5.98343
 31
0.0
  0
LINE
  8
0
 62
     0
 10
271.11
 20
5.98343
 30
0.0
 11
270.552
 21
6.26731
 31
0.0
  0
LINE
  8
0
 62
     0
 10
270.552
 20
6.26731
 30
0.0
 11
269.933
 21
6.36517
 31
0.0
  0
LINE
  8
0
 62
     0
 10
269.933
 20
6.36517
 30
0.0
 11
269.315
 21
6.26731
 31
0.0
  0
LINE
  8
0
 62
     0
 10
136.397
 20
6.26731
 30
0.0
 11
135.839
 21
5.98343
 31
0.0
  0
LINE
  8
0
 62
     0
 10
135.839
 20
5.98343
 30
0.0
 11
135.396
 21
5.54108
 31
0.0
  0
LINE
  8
0
 62
     0
 10
135.396
 20
5.54108
 30
0.0
 11
135.112
 21
4.98299
 31
0.0
  0
LINE
  8
0
 62
     0
 10
135.112
 20
4.98299
 30
0.0
 11
135.015
 21
4.36425
 31
0.0
  0
LINE
  8
0
 62
     0
 10
135.015
 20
4.36425
 30
0.0
 11
135.112
 21
3.74689
 31
0.0
  0
LINE
  8
0
 62
     0
 10
135.112
 20
3.74689
 30
0.0
 11
135.396
 21
3.19016
 31
0.0
  0
LINE
  8
0
 62
     0
 10
135.396
 20
3.19016
 30
0.0
 11
135.839
 21
2.74643
 31
0.0
  0
LINE
  8
0
 62
     0
 10
135.839
 20
2.74643
 30
0.0
 11
136.397
 21
2.46255
 31
0.0
  0
LINE
  8
0
 62
     0
 10
136.397
 20
2.46255
 30
0.0
 11
137.014
 21
2.36472
 31
0.0
  0
LINE
  8
0
 62
     0
 10
137.014
 20
2.36472
 30
0.0
 11
137.633
 21
2.46255
 31
0.0
  0
LINE
  8
0
 62
     0
 10
137.633
 20
2.46255
 30
0.0
 11
138.19
 21
2.74643
 31
0.0
  0
LINE
  8
0
 62
     0
 10
138.19
 20
2.74643
 30
0.0
 11
138.632
 21
3.19016
 31
0.0
  0
LINE
  8
0
 62
     0
 10
138.632
 20
3.19016
 30
0.0
 11
138.916
 21
3.74689
 31
0.0
  0
LINE
  8
0
 62
     0
 10
138.916
 20
3.74689
 30
0.0
 11
139.015
 21
4.36425
 31
0.0
  0
LINE
  8
0
 62
     0
 10
139.015
 20
4.36425
 30
0.0
 11
138.916
 21
4.98299
 31
0.0
  0
LINE
  8
0
 62
     0
 10
138.916
 20
4.98299
 30
0.0
 11
138.632
 21
5.54108
 31
0.0
  0
LINE
  8
0
 62
     0
 10
138.632
 20
5.54108
 30
0.0
 11
138.19
 21
5.98343
 31
0.0
  0
LINE
  8
0
 62
     0
 10
138.19
 20
5.98343
 30
0.0
 11
137.633
 21
6.26731
 31
0.0
  0
LINE
  8
0
 62
     0
 10
137.633
 20
6.26731
 30
0.0
 11
137.014
 21
6.36517
 31
0.0
  0
LINE
  8
0
 62
     0
 10
137.014
 20
6.36517
 30
0.0
 11
136.397
 21
6.26731
 31
0.0
  0
LINE
  8
0
 62
     0
 10
3.47679
 20
6.26731
 30
0.0
 11
2.92006
 21
5.98343
 31
0.0
  0
LINE
  8
0
 62
     0
 10
2.92006
 20
5.98343
 30
0.0
 11
2.47633
 21
5.54108
 31
0.0
  0
LINE
  8
0
 62
     0
 10
2.47633
 20
5.54108
 30
0.0
 11
2.19246
 21
4.98299
 31
0.0
  0
LINE
  8
0
 62
     0
 10
2.19246
 20
4.98299
 30
0.0
 11
2.09462
 21
4.36425
 31
0.0
  0
LINE
  8
0
 62
     0
 10
2.09462
 20
4.36425
 30
0.0
 11
2.19246
 21
3.74689
 31
0.0
  0
LINE
  8
0
 62
     0
 10
2.19246
 20
3.74689
 30
0.0
 11
2.47633
 21
3.19016
 31
0.0
  0
LINE
  8
0
 62
     0
 10
2.47633
 20
3.19016
 30
0.0
 11
2.92006
 21
2.74643
 31
0.0
  0
LINE
  8
0
 62
     0
 10
2.92006
 20
2.74643
 30
0.0
 11
3.47679
 21
2.46255
 31
0.0
  0
LINE
  8
0
 62
     0
 10
3.47679
 20
2.46255
 30
0.0
 11
4.09554
 21
2.36472
 31
0.0
  0
LINE
  8
0
 62
     0
 10
4.09554
 20
2.36472
 30
0.0
 11
4.7129
 21
2.46255
 31
0.0
  0
LINE
  8
0
 62
     0
 10
4.7129
 20
2.46255
 30
0.0
 11
5.27099
 21
2.74643
 31
0.0
  0
LINE
  8
0
 62
     0
 10
5.27099
 20
2.74643
 30
0.0
 11
5.71334
 21
3.19016
 31
0.0
  0
LINE
  8
0
 62
     0
 10
5.71334
 20
3.19016
 30
0.0
 11
5.99722
 21
3.74689
 31
0.0
  0
LINE
  8
0
 62
     0
 10
5.99722
 20
3.74689
 30
0.0
 11
6.09505
 21
4.36425
 31
0.0
  0
LINE
  8
0
 62
     0
 10
6.09505
 20
4.36425
 30
0.0
 11
5.99722
 21
4.98299
 31
0.0
  0
LINE
  8
0
 62
     0
 10
5.99722
 20
4.98299
 30
0.0
 11
5.71334
 21
5.54108
 31
0.0
  0
LINE
  8
0
 62
     0
 10
5.71334
 20
5.54108
 30
0.0
 11
5.27099
 21
5.98343
 31
0.0
  0
LINE
  8
0
 62
     0
 10
5.27099
 20
5.98343
 30
0.0
 11
4.7129
 21
6.26731
 31
0.0
  0
LINE
  8
0
 62
     0
 10
4.7129
 20
6.26731
 30
0.0
 11
4.09554
 21
6.36517
 31
0.0
  0
LINE
  8
0
 62
     0
 10
4.09554
 20
6.36517
 30
0.0
 11
3.47679
 21
6.26731
 31
0.0
  0
LINE
  8
0
 62
     0
 10
43.5762
 20
26.8911
 30
0.0
 11
43.5762
 21
25.8906
 31
0.0
  0
LINE
  8
0
 62
     0
 10
43.5762
 20
25.8906
 30
0.0
 11
42.7771
 21
25.8906
 31
0.0
  0
LINE
  8
0
 62
     0
 10
42.7771
 20
25.8906
 30
0.0
 11
42.7771
 21
22.79
 31
0.0
  0
LINE
  8
0
 62
     0
 10
42.7771
 20
22.79
 30
0.0
 11
43.5762
 21
22.79
 31
0.0
  0
LINE
  8
0
 62
     0
 10
43.5762
 20
22.79
 30
0.0
 11
43.5762
 21
22.1905
 31
0.0
  0
LINE
  8
0
 62
     0
 10
43.5762
 20
22.1905
 30
0.0
 11
42.0508
 21
22.1905
 31
0.0
  0
LINE
  8
0
 62
     0
 10
42.0508
 20
22.1905
 30
0.0
 11
42.0508
 21
25.4207
 31
0.0
  0
LINE
  8
0
 62
     0
 10
42.0508
 20
25.4207
 30
0.0
 11
40.3271
 21
25.4207
 31
0.0
  0
LINE
  8
0
 62
     0
 10
40.3271
 20
25.4207
 30
0.0
 11
40.3271
 21
26.3412
 31
0.0
  0
LINE
  8
0
 62
     0
 10
40.3271
 20
26.3412
 30
0.0
 11
37.0265
 21
26.3412
 31
0.0
  0
LINE
  8
0
 62
     0
 10
37.0265
 20
26.3412
 30
0.0
 11
37.0265
 21
25.4207
 31
0.0
  0
LINE
  8
0
 62
     0
 10
37.0265
 20
25.4207
 30
0.0
 11
35.3011
 21
25.4207
 31
0.0
  0
LINE
  8
0
 62
     0
 10
35.3011
 20
25.4207
 30
0.0
 11
35.3011
 21
22.1905
 31
0.0
  0
LINE
  8
0
 62
     0
 10
35.3011
 20
22.1905
 30
0.0
 11
34.4771
 21
22.1905
 31
0.0
  0
LINE
  8
0
 62
     0
 10
34.4771
 20
22.1905
 30
0.0
 11
34.4771
 21
19.3904
 31
0.0
  0
LINE
  8
0
 62
     0
 10
34.4771
 20
19.3904
 30
0.0
 11
35.3011
 21
19.3904
 31
0.0
  0
LINE
  8
0
 62
     0
 10
35.3011
 20
19.3904
 30
0.0
 11
35.3011
 21
13.1203
 31
0.0
  0
LINE
  8
0
 62
     0
 10
35.3011
 20
13.1203
 30
0.0
 11
37.0265
 21
13.1203
 31
0.0
  0
LINE
  8
0
 62
     0
 10
37.0265
 20
13.1203
 30
0.0
 11
37.0265
 21
12.1405
 31
0.0
  0
LINE
  8
0
 62
     0
 10
37.0265
 20
12.1405
 30
0.0
 11
40.3271
 21
12.1405
 31
0.0
  0
LINE
  8
0
 62
     0
 10
40.3271
 20
12.1405
 30
0.0
 11
40.3271
 21
13.1203
 31
0.0
  0
LINE
  8
0
 62
     0
 10
40.3271
 20
13.1203
 30
0.0
 11
42.0508
 21
13.1203
 31
0.0
  0
LINE
  8
0
 62
     0
 10
42.0508
 20
13.1203
 30
0.0
 11
42.0508
 21
17.5907
 31
0.0
  0
LINE
  8
0
 62
     0
 10
42.0508
 20
17.5907
 30
0.0
 11
43.5762
 21
17.5907
 31
0.0
  0
LINE
  8
0
 62
     0
 10
43.5762
 20
17.5907
 30
0.0
 11
43.5762
 21
16.9912
 31
0.0
  0
LINE
  8
0
 62
     0
 10
43.5762
 20
16.9912
 30
0.0
 11
42.7771
 21
16.9912
 31
0.0
  0
LINE
  8
0
 62
     0
 10
42.7771
 20
16.9912
 30
0.0
 11
42.7771
 21
13.8906
 31
0.0
  0
LINE
  8
0
 62
     0
 10
42.7771
 20
13.8906
 30
0.0
 11
43.5762
 21
13.8906
 31
0.0
  0
LINE
  8
0
 62
     0
 10
43.5762
 20
13.8906
 30
0.0
 11
43.5762
 21
12.8902
 31
0.0
  0
LINE
  8
0
 62
     0
 10
43.5762
 20
12.8902
 30
0.0
 11
57.5758
 21
12.8902
 31
0.0
  0
LINE
  8
0
 62
     0
 10
57.5758
 20
12.8902
 30
0.0
 11
57.5758
 21
13.8906
 31
0.0
  0
LINE
  8
0
 62
     0
 10
57.5758
 20
13.8906
 30
0.0
 11
58.3766
 21
13.8906
 31
0.0
  0
LINE
  8
0
 62
     0
 10
58.3766
 20
13.8906
 30
0.0
 11
58.3766
 21
16.9912
 31
0.0
  0
LINE
  8
0
 62
     0
 10
58.3766
 20
16.9912
 30
0.0
 11
57.5758
 21
16.9912
 31
0.0
  0
LINE
  8
0
 62
     0
 10
57.5758
 20
16.9912
 30
0.0
 11
57.5758
 21
17.5907
 31
0.0
  0
LINE
  8
0
 62
     0
 10
57.5758
 20
17.5907
 30
0.0
 11
59.1012
 21
17.5907
 31
0.0
  0
LINE
  8
0
 62
     0
 10
59.1012
 20
17.5907
 30
0.0
 11
59.1012
 21
13.1203
 31
0.0
  0
LINE
  8
0
 62
     0
 10
59.1012
 20
13.1203
 30
0.0
 11
60.8266
 21
13.1203
 31
0.0
  0
LINE
  8
0
 62
     0
 10
60.8266
 20
13.1203
 30
0.0
 11
60.8266
 21
12.1405
 31
0.0
  0
LINE
  8
0
 62
     0
 10
60.8266
 20
12.1405
 30
0.0
 11
64.1269
 21
12.1405
 31
0.0
  0
LINE
  8
0
 62
     0
 10
64.1269
 20
12.1405
 30
0.0
 11
64.1269
 21
13.1203
 31
0.0
  0
LINE
  8
0
 62
     0
 10
64.1269
 20
13.1203
 30
0.0
 11
65.8509
 21
13.1203
 31
0.0
  0
LINE
  8
0
 62
     0
 10
65.8509
 20
13.1203
 30
0.0
 11
65.8509
 21
19.3904
 31
0.0
  0
LINE
  8
0
 62
     0
 10
65.8509
 20
19.3904
 30
0.0
 11
66.6764
 21
19.3904
 31
0.0
  0
LINE
  8
0
 62
     0
 10
66.6764
 20
19.3904
 30
0.0
 11
66.6764
 21
22.1905
 31
0.0
  0
LINE
  8
0
 62
     0
 10
66.6764
 20
22.1905
 30
0.0
 11
65.8509
 21
22.1905
 31
0.0
  0
LINE
  8
0
 62
     0
 10
65.8509
 20
22.1905
 30
0.0
 11
65.8509
 21
25.4207
 31
0.0
  0
LINE
  8
0
 62
     0
 10
65.8509
 20
25.4207
 30
0.0
 11
64.1269
 21
25.4207
 31
0.0
  0
LINE
  8
0
 62
     0
 10
64.1269
 20
25.4207
 30
0.0
 11
64.1269
 21
26.3412
 31
0.0
  0
LINE
  8
0
 62
     0
 10
64.1269
 20
26.3412
 30
0.0
 11
60.8266
 21
26.3412
 31
0.0
  0
LINE
  8
0
 62
     0
 10
60.8266
 20
26.3412
 30
0.0
 11
60.8266
 21
25.4207
 31
0.0
  0
LINE
  8
0
 62
     0
 10
60.8266
 20
25.4207
 30
0.0
 11
59.1012
 21
25.4207
 31
0.0
  0
LINE
  8
0
 62
     0
 10
59.1012
 20
25.4207
 30
0.0
 11
59.1012
 21
22.1905
 31
0.0
  0
LINE
  8
0
 62
     0
 10
59.1012
 20
22.1905
 30
0.0
 11
57.5758
 21
22.1905
 31
0.0
  0
LINE
  8
0
 62
     0
 10
57.5758
 20
22.1905
 30
0.0
 11
57.5758
 21
22.79
 31
0.0
  0
LINE
  8
0
 62
     0
 10
57.5758
 20
22.79
 30
0.0
 11
58.3766
 21
22.79
 31
0.0
  0
LINE
  8
0
 62
     0
 10
58.3766
 20
22.79
 30
0.0
 11
58.3766
 21
25.8906
 31
0.0
  0
LINE
  8
0
 62
     0
 10
58.3766
 20
25.8906
 30
0.0
 11
57.5758
 21
25.8906
 31
0.0
  0
LINE
  8
0
 62
     0
 10
57.5758
 20
25.8906
 30
0.0
 11
57.5758
 21
26.8911
 31
0.0
  0
LINE
  8
0
 62
     0
 10
57.5758
 20
26.8911
 30
0.0
 11
43.5762
 21
26.8911
 31
0.0
  0
LINE
  8
0
 62
     0
 10
81.6762
 20
26.8911
 30
0.0
 11
81.6762
 21
25.8906
 31
0.0
  0
LINE
  8
0
 62
     0
 10
81.6762
 20
25.8906
 30
0.0
 11
80.8771
 21
25.8906
 31
0.0
  0
LINE
  8
0
 62
     0
 10
80.8771
 20
25.8906
 30
0.0
 11
80.8771
 21
22.79
 31
0.0
  0
LINE
  8
0
 62
     0
 10
80.8771
 20
22.79
 30
0.0
 11
81.6762
 21
22.79
 31
0.0
  0
LINE
  8
0
 62
     0
 10
81.6762
 20
22.79
 30
0.0
 11
81.6762
 21
16.9912
 31
0.0
  0
LINE
  8
0
 62
     0
 10
81.6762
 20
16.9912
 30
0.0
 11
80.8771
 21
16.9912
 31
0.0
  0
LINE
  8
0
 62
     0
 10
80.8771
 20
16.9912
 30
0.0
 11
80.8771
 21
13.8906
 31
0.0
  0
LINE
  8
0
 62
     0
 10
80.8771
 20
13.8906
 30
0.0
 11
81.6762
 21
13.8906
 31
0.0
  0
LINE
  8
0
 62
     0
 10
81.6762
 20
13.8906
 30
0.0
 11
81.6762
 21
12.8902
 31
0.0
  0
LINE
  8
0
 62
     0
 10
81.6762
 20
12.8902
 30
0.0
 11
95.6758
 21
12.8902
 31
0.0
  0
LINE
  8
0
 62
     0
 10
95.6758
 20
12.8902
 30
0.0
 11
95.6758
 21
13.8906
 31
0.0
  0
LINE
  8
0
 62
     0
 10
95.6758
 20
13.8906
 30
0.0
 11
96.4766
 21
13.8906
 31
0.0
  0
LINE
  8
0
 62
     0
 10
96.4766
 20
13.8906
 30
0.0
 11
96.4766
 21
16.9912
 31
0.0
  0
LINE
  8
0
 62
     0
 10
96.4766
 20
16.9912
 30
0.0
 11
95.6758
 21
16.9912
 31
0.0
  0
LINE
  8
0
 62
     0
 10
95.6758
 20
16.9912
 30
0.0
 11
95.6758
 21
22.79
 31
0.0
  0
LINE
  8
0
 62
     0
 10
95.6758
 20
22.79
 30
0.0
 11
96.4766
 21
22.79
 31
0.0
  0
LINE
  8
0
 62
     0
 10
96.4766
 20
22.79
 30
0.0
 11
96.4766
 21
25.8906
 31
0.0
  0
LINE
  8
0
 62
     0
 10
96.4766
 20
25.8906
 30
0.0
 11
95.6758
 21
25.8906
 31
0.0
  0
LINE
  8
0
 62
     0
 10
95.6758
 20
25.8906
 30
0.0
 11
95.6758
 21
26.8911
 31
0.0
  0
LINE
  8
0
 62
     0
 10
95.6758
 20
26.8911
 30
0.0
 11
81.6762
 21
26.8911
 31
0.0
  0
LINE
  8
0
 62
     0
 10
105.489
 20
26.8911
 30
0.0
 11
105.489
 21
25.8906
 31
0.0
  0
LINE
  8
0
 62
     0
 10
105.489
 20
25.8906
 30
0.0
 11
104.688
 21
25.8906
 31
0.0
  0
LINE
  8
0
 62
     0
 10
104.688
 20
25.8906
 30
0.0
 11
104.688
 21
22.79
 31
0.0
  0
LINE
  8
0
 62
     0
 10
104.688
 20
22.79
 30
0.0
 11
105.489
 21
22.79
 31
0.0
  0
LINE
  8
0
 62
     0
 10
105.489
 20
22.79
 30
0.0
 11
105.489
 21
16.9912
 31
0.0
  0
LINE
  8
0
 62
     0
 10
105.489
 20
16.9912
 30
0.0
 11
104.688
 21
16.9912
 31
0.0
  0
LINE
  8
0
 62
     0
 10
104.688
 20
16.9912
 30
0.0
 11
104.688
 21
13.8906
 31
0.0
  0
LINE
  8
0
 62
     0
 10
104.688
 20
13.8906
 30
0.0
 11
105.489
 21
13.8906
 31
0.0
  0
LINE
  8
0
 62
     0
 10
105.489
 20
13.8906
 30
0.0
 11
105.489
 21
12.8902
 31
0.0
  0
LINE
  8
0
 62
     0
 10
105.489
 20
12.8902
 30
0.0
 11
119.488
 21
12.8902
 31
0.0
  0
LINE
  8
0
 62
     0
 10
119.488
 20
12.8902
 30
0.0
 11
119.488
 21
13.8906
 31
0.0
  0
LINE
  8
0
 62
     0
 10
119.488
 20
13.8906
 30
0.0
 11
120.289
 21
13.8906
 31
0.0
  0
LINE
  8
0
 62
     0
 10
120.289
 20
13.8906
 30
0.0
 11
120.289
 21
16.9912
 31
0.0
  0
LINE
  8
0
 62
     0
 10
120.289
 20
16.9912
 30
0.0
 11
119.488
 21
16.9912
 31
0.0
  0
LINE
  8
0
 62
     0
 10
119.488
 20
16.9912
 30
0.0
 11
119.488
 21
22.79
 31
0.0
  0
LINE
  8
0
 62
     0
 10
119.488
 20
22.79
 30
0.0
 11
120.289
 21
22.79
 31
0.0
  0
LINE
  8
0
 62
     0
 10
120.289
 20
22.79
 30
0.0
 11
120.289
 21
25.8906
 31
0.0
  0
LINE
  8
0
 62
     0
 10
120.289
 20
25.8906
 30
0.0
 11
119.488
 21
25.8906
 31
0.0
  0
LINE
  8
0
 62
     0
 10
119.488
 20
25.8906
 30
0.0
 11
119.488
 21
26.8911
 31
0.0
  0
LINE
  8
0
 62
     0
 10
119.488
 20
26.8911
 30
0.0
 11
105.489
 21
26.8911
 31
0.0
  0
LINE
  8
0
 62
     0
 10
129.301
 20
26.8911
 30
0.0
 11
129.301
 21
25.8906
 31
0.0
  0
LINE
  8
0
 62
     0
 10
129.301
 20
25.8906
 30
0.0
 11
128.502
 21
25.8906
 31
0.0
  0
LINE
  8
0
 62
     0
 10
128.502
 20
25.8906
 30
0.0
 11
128.502
 21
22.79
 31
0.0
  0
LINE
  8
0
 62
     0
 10
128.502
 20
22.79
 30
0.0
 11
129.301
 21
22.79
 31
0.0
  0
LINE
  8
0
 62
     0
 10
129.301
 20
22.79
 30
0.0
 11
129.301
 21
16.9912
 31
0.0
  0
LINE
  8
0
 62
     0
 10
129.301
 20
16.9912
 30
0.0
 11
128.502
 21
16.9912
 31
0.0
  0
LINE
  8
0
 62
     0
 10
128.502
 20
16.9912
 30
0.0
 11
128.502
 21
13.8906
 31
0.0
  0
LINE
  8
0
 62
     0
 10
128.502
 20
13.8906
 30
0.0
 11
129.301
 21
13.8906
 31
0.0
  0
LINE
  8
0
 62
     0
 10
129.301
 20
13.8906
 30
0.0
 11
129.301
 21
12.8902
 31
0.0
  0
LINE
  8
0
 62
     0
 10
129.301
 20
12.8902
 30
0.0
 11
143.301
 21
12.8902
 31
0.0
  0
LINE
  8
0
 62
     0
 10
143.301
 20
12.8902
 30
0.0
 11
143.301
 21
13.8906
 31
0.0
  0
LINE
  8
0
 62
     0
 10
143.301
 20
13.8906
 30
0.0
 11
144.102
 21
13.8906
 31
0.0
  0
LINE
  8
0
 62
     0
 10
144.102
 20
13.8906
 30
0.0
 11
144.102
 21
16.9912
 31
0.0
  0
LINE
  8
0
 62
     0
 10
144.102
 20
16.9912
 30
0.0
 11
143.301
 21
16.9912
 31
0.0
  0
LINE
  8
0
 62
     0
 10
143.301
 20
16.9912
 30
0.0
 11
143.301
 21
22.79
 31
0.0
  0
LINE
  8
0
 62
     0
 10
143.301
 20
22.79
 30
0.0
 11
144.102
 21
22.79
 31
0.0
  0
LINE
  8
0
 62
     0
 10
144.102
 20
22.79
 30
0.0
 11
144.102
 21
25.8906
 31
0.0
  0
LINE
  8
0
 62
     0
 10
144.102
 20
25.8906
 30
0.0
 11
143.301
 21
25.8906
 31
0.0
  0
LINE
  8
0
 62
     0
 10
143.301
 20
25.8906
 30
0.0
 11
143.301
 21
26.8911
 31
0.0
  0
LINE
  8
0
 62
     0
 10
143.301
 20
26.8911
 30
0.0
 11
129.301
 21
26.8911
 31
0.0
  0
LINE
  8
0
 62
     0
 10
153.114
 20
26.8911
 30
0.0
 11
153.114
 21
25.8906
 31
0.0
  0
LINE
  8
0
 62
     0
 10
153.114
 20
25.8906
 30
0.0
 11
152.313
 21
25.8906
 31
0.0
  0
LINE
  8
0
 62
     0
 10
152.313
 20
25.8906
 30
0.0
 11
152.313
 21
22.79
 31
0.0
  0
LINE
  8
0
 62
     0
 10
152.313
 20
22.79
 30
0.0
 11
153.114
 21
22.79
 31
0.0
  0
LINE
  8
0
 62
     0
 10
153.114
 20
22.79
 30
0.0
 11
153.114
 21
16.9912
 31
0.0
  0
LINE
  8
0
 62
     0
 10
153.114
 20
16.9912
 30
0.0
 11
152.313
 21
16.9912
 31
0.0
  0
LINE
  8
0
 62
     0
 10
152.313
 20
16.9912
 30
0.0
 11
152.313
 21
13.8906
 31
0.0
  0
LINE
  8
0
 62
     0
 10
152.313
 20
13.8906
 30
0.0
 11
153.114
 21
13.8906
 31
0.0
  0
LINE
  8
0
 62
     0
 10
153.114
 20
13.8906
 30
0.0
 11
153.114
 21
12.8902
 31
0.0
  0
LINE
  8
0
 62
     0
 10
153.114
 20
12.8902
 30
0.0
 11
167.113
 21
12.8902
 31
0.0
  0
LINE
  8
0
 62
     0
 10
167.113
 20
12.8902
 30
0.0
 11
167.113
 21
13.8906
 31
0.0
  0
LINE
  8
0
 62
     0
 10
167.113
 20
13.8906
 30
0.0
 11
167.914
 21
13.8906
 31
0.0
  0
LINE
  8
0
 62
     0
 10
167.914
 20
13.8906
 30
0.0
 11
167.914
 21
16.9912
 31
0.0
  0
LINE
  8
0
 62
     0
 10
167.914
 20
16.9912
 30
0.0
 11
167.113
 21
16.9912
 31
0.0
  0
LINE
  8
0
 62
     0
 10
167.113
 20
16.9912
 30
0.0
 11
167.113
 21
22.79
 31
0.0
  0
LINE
  8
0
 62
     0
 10
167.113
 20
22.79
 30
0.0
 11
167.914
 21
22.79
 31
0.0
  0
LINE
  8
0
 62
     0
 10
167.914
 20
22.79
 30
0.0
 11
167.914
 21
25.8906
 31
0.0
  0
LINE
  8
0
 62
     0
 10
167.914
 20
25.8906
 30
0.0
 11
167.113
 21
25.8906
 31
0.0
  0
LINE
  8
0
 62
     0
 10
167.113
 20
25.8906
 30
0.0
 11
167.113
 21
26.8911
 31
0.0
  0
LINE
  8
0
 62
     0
 10
167.113
 20
26.8911
 30
0.0
 11
153.114
 21
26.8911
 31
0.0
  0
LINE
  8
0
 62
     0
 10
179.307
 20
26.8911
 30
0.0
 11
179.307
 21
25.8906
 31
0.0
  0
LINE
  8
0
 62
     0
 10
179.307
 20
25.8906
 30
0.0
 11
178.507
 21
25.8906
 31
0.0
  0
LINE
  8
0
 62
     0
 10
178.507
 20
25.8906
 30
0.0
 11
178.507
 21
22.79
 31
0.0
  0
LINE
  8
0
 62
     0
 10
178.507
 20
22.79
 30
0.0
 11
179.307
 21
22.79
 31
0.0
  0
LINE
  8
0
 62
     0
 10
179.307
 20
22.79
 30
0.0
 11
179.307
 21
16.9912
 31
0.0
  0
LINE
  8
0
 62
     0
 10
179.307
 20
16.9912
 30
0.0
 11
178.507
 21
16.9912
 31
0.0
  0
LINE
  8
0
 62
     0
 10
178.507
 20
16.9912
 30
0.0
 11
178.507
 21
13.8906
 31
0.0
  0
LINE
  8
0
 62
     0
 10
178.507
 20
13.8906
 30
0.0
 11
179.307
 21
13.8906
 31
0.0
  0
LINE
  8
0
 62
     0
 10
179.307
 20
13.8906
 30
0.0
 11
179.307
 21
12.8902
 31
0.0
  0
LINE
  8
0
 62
     0
 10
179.307
 20
12.8902
 30
0.0
 11
193.307
 21
12.8902
 31
0.0
  0
LINE
  8
0
 62
     0
 10
193.307
 20
12.8902
 30
0.0
 11
193.307
 21
13.8906
 31
0.0
  0
LINE
  8
0
 62
     0
 10
193.307
 20
13.8906
 30
0.0
 11
194.108
 21
13.8906
 31
0.0
  0
LINE
  8
0
 62
     0
 10
194.108
 20
13.8906
 30
0.0
 11
194.108
 21
16.9912
 31
0.0
  0
LINE
  8
0
 62
     0
 10
194.108
 20
16.9912
 30
0.0
 11
193.307
 21
16.9912
 31
0.0
  0
LINE
  8
0
 62
     0
 10
193.307
 20
16.9912
 30
0.0
 11
193.307
 21
22.79
 31
0.0
  0
LINE
  8
0
 62
     0
 10
193.307
 20
22.79
 30
0.0
 11
194.108
 21
22.79
 31
0.0
  0
LINE
  8
0
 62
     0
 10
194.108
 20
22.79
 30
0.0
 11
194.108
 21
25.8906
 31
0.0
  0
LINE
  8
0
 62
     0
 10
194.108
 20
25.8906
 30
0.0
 11
193.307
 21
25.8906
 31
0.0
  0
LINE
  8
0
 62
     0
 10
193.307
 20
25.8906
 30
0.0
 11
193.307
 21
26.8911
 31
0.0
  0
LINE
  8
0
 62
     0
 10
193.307
 20
26.8911
 30
0.0
 11
179.307
 21
26.8911
 31
0.0
  0
LINE
  8
0
 62
     0
 10
198.357
 20
26.8911
 30
0.0
 11
198.357
 21
25.8906
 31
0.0
  0
LINE
  8
0
 62
     0
 10
198.357
 20
25.8906
 30
0.0
 11
197.557
 21
25.8906
 31
0.0
  0
LINE
  8
0
 62
     0
 10
197.557
 20
25.8906
 30
0.0
 11
197.557
 21
22.79
 31
0.0
  0
LINE
  8
0
 62
     0
 10
197.557
 20
22.79
 30
0.0
 11
198.357
 21
22.79
 31
0.0
  0
LINE
  8
0
 62
     0
 10
198.357
 20
22.79
 30
0.0
 11
198.357
 21
16.9912
 31
0.0
  0
LINE
  8
0
 62
     0
 10
198.357
 20
16.9912
 30
0.0
 11
197.557
 21
16.9912
 31
0.0
  0
LINE
  8
0
 62
     0
 10
197.557
 20
16.9912
 30
0.0
 11
197.557
 21
13.8906
 31
0.0
  0
LINE
  8
0
 62
     0
 10
197.557
 20
13.8906
 30
0.0
 11
198.357
 21
13.8906
 31
0.0
  0
LINE
  8
0
 62
     0
 10
198.357
 20
13.8906
 30
0.0
 11
198.357
 21
12.8902
 31
0.0
  0
LINE
  8
0
 62
     0
 10
198.357
 20
12.8902
 30
0.0
 11
212.357
 21
12.8902
 31
0.0
  0
LINE
  8
0
 62
     0
 10
212.357
 20
12.8902
 30
0.0
 11
212.357
 21
13.8906
 31
0.0
  0
LINE
  8
0
 62
     0
 10
212.357
 20
13.8906
 30
0.0
 11
213.158
 21
13.8906
 31
0.0
  0
LINE
  8
0
 62
     0
 10
213.158
 20
13.8906
 30
0.0
 11
213.158
 21
16.9912
 31
0.0
  0
LINE
  8
0
 62
     0
 10
213.158
 20
16.9912
 30
0.0
 11
212.357
 21
16.9912
 31
0.0
  0
LINE
  8
0
 62
     0
 10
212.357
 20
16.9912
 30
0.0
 11
212.357
 21
22.79
 31
0.0
  0
LINE
  8
0
 62
     0
 10
212.357
 20
22.79
 30
0.0
 11
213.158
 21
22.79
 31
0.0
  0
LINE
  8
0
 62
     0
 10
213.158
 20
22.79
 30
0.0
 11
213.158
 21
25.8906
 31
0.0
  0
LINE
  8
0
 62
     0
 10
213.158
 20
25.8906
 30
0.0
 11
212.357
 21
25.8906
 31
0.0
  0
LINE
  8
0
 62
     0
 10
212.357
 20
25.8906
 30
0.0
 11
212.357
 21
26.8911
 31
0.0
  0
LINE
  8
0
 62
     0
 10
212.357
 20
26.8911
 30
0.0
 11
198.357
 21
26.8911
 31
0.0
  0
LINE
  8
0
 62
     0
 10
217.407
 20
26.8911
 30
0.0
 11
217.407
 21
25.8906
 31
0.0
  0
LINE
  8
0
 62
     0
 10
217.407
 20
25.8906
 30
0.0
 11
216.607
 21
25.8906
 31
0.0
  0
LINE
  8
0
 62
     0
 10
216.607
 20
25.8906
 30
0.0
 11
216.607
 21
22.79
 31
0.0
  0
LINE
  8
0
 62
     0
 10
216.607
 20
22.79
 30
0.0
 11
217.407
 21
22.79
 31
0.0
  0
LINE
  8
0
 62
     0
 10
217.407
 20
22.79
 30
0.0
 11
217.407
 21
16.9912
 31
0.0
  0
LINE
  8
0
 62
     0
 10
217.407
 20
16.9912
 30
0.0
 11
216.607
 21
16.9912
 31
0.0
  0
LINE
  8
0
 62
     0
 10
216.607
 20
16.9912
 30
0.0
 11
216.607
 21
13.8906
 31
0.0
  0
LINE
  8
0
 62
     0
 10
216.607
 20
13.8906
 30
0.0
 11
217.407
 21
13.8906
 31
0.0
  0
LINE
  8
0
 62
     0
 10
217.407
 20
13.8906
 30
0.0
 11
217.407
 21
12.8902
 31
0.0
  0
LINE
  8
0
 62
     0
 10
217.407
 20
12.8902
 30
0.0
 11
231.407
 21
12.8902
 31
0.0
  0
LINE
  8
0
 62
     0
 10
231.407
 20
12.8902
 30
0.0
 11
231.407
 21
13.8906
 31
0.0
  0
LINE
  8
0
 62
     0
 10
231.407
 20
13.8906
 30
0.0
 11
232.208
 21
13.8906
 31
0.0
  0
LINE
  8
0
 62
     0
 10
232.208
 20
13.8906
 30
0.0
 11
232.208
 21
16.9912
 31
0.0
  0
LINE
  8
0
 62
     0
 10
232.208
 20
16.9912
 30
0.0
 11
231.407
 21
16.9912
 31
0.0
  0
LINE
  8
0
 62
     0
 10
231.407
 20
16.9912
 30
0.0
 11
231.407
 21
22.79
 31
0.0
  0
LINE
  8
0
 62
     0
 10
231.407
 20
22.79
 30
0.0
 11
232.208
 21
22.79
 31
0.0
  0
LINE
  8
0
 62
     0
 10
232.208
 20
22.79
 30
0.0
 11
232.208
 21
25.8906
 31
0.0
  0
LINE
  8
0
 62
     0
 10
232.208
 20
25.8906
 30
0.0
 11
231.407
 21
25.8906
 31
0.0
  0
LINE
  8
0
 62
     0
 10
231.407
 20
25.8906
 30
0.0
 11
231.407
 21
26.8911
 31
0.0
  0
LINE
  8
0
 62
     0
 10
231.407
 20
26.8911
 30
0.0
 11
217.407
 21
26.8911
 31
0.0
  0
LINE
  8
0
 62
     0
 10
138.826
 20
45.9412
 30
0.0
 11
138.826
 21
44.9407
 31
0.0
  0
LINE
  8
0
 62
     0
 10
138.826
 20
44.9407
 30
0.0
 11
138.027
 21
44.9407
 31
0.0
  0
LINE
  8
0
 62
     0
 10
138.027
 20
44.9407
 30
0.0
 11
138.027
 21
41.8401
 31
0.0
  0
LINE
  8
0
 62
     0
 10
138.027
 20
41.8401
 30
0.0
 11
138.826
 21
41.8401
 31
0.0
  0
LINE
  8
0
 62
     0
 10
138.826
 20
41.8401
 30
0.0
 11
138.826
 21
41.2404
 31
0.0
  0
LINE
  8
0
 62
     0
 10
138.826
 20
41.2404
 30
0.0
 11
137.301
 21
41.2404
 31
0.0
  0
LINE
  8
0
 62
     0
 10
137.301
 20
41.2404
 30
0.0
 11
137.301
 21
44.4708
 31
0.0
  0
LINE
  8
0
 62
     0
 10
137.301
 20
44.4708
 30
0.0
 11
135.577
 21
44.4708
 31
0.0
  0
LINE
  8
0
 62
     0
 10
135.577
 20
44.4708
 30
0.0
 11
135.577
 21
45.3912
 31
0.0
  0
LINE
  8
0
 62
     0
 10
135.577
 20
45.3912
 30
0.0
 11
132.276
 21
45.3912
 31
0.0
  0
LINE
  8
0
 62
     0
 10
132.276
 20
45.3912
 30
0.0
 11
132.276
 21
44.4708
 31
0.0
  0
LINE
  8
0
 62
     0
 10
132.276
 20
44.4708
 30
0.0
 11
130.551
 21
44.4708
 31
0.0
  0
LINE
  8
0
 62
     0
 10
130.551
 20
44.4708
 30
0.0
 11
130.551
 21
41.2404
 31
0.0
  0
LINE
  8
0
 62
     0
 10
130.551
 20
41.2404
 30
0.0
 11
129.727
 21
41.2404
 31
0.0
  0
LINE
  8
0
 62
     0
 10
129.727
 20
41.2404
 30
0.0
 11
129.727
 21
38.4404
 31
0.0
  0
LINE
  8
0
 62
     0
 10
129.727
 20
38.4404
 30
0.0
 11
130.551
 21
38.4404
 31
0.0
  0
LINE
  8
0
 62
     0
 10
130.551
 20
38.4404
 30
0.0
 11
130.551
 21
32.1703
 31
0.0
  0
LINE
  8
0
 62
     0
 10
130.551
 20
32.1703
 30
0.0
 11
132.276
 21
32.1703
 31
0.0
  0
LINE
  8
0
 62
     0
 10
132.276
 20
32.1703
 30
0.0
 11
132.276
 21
31.1905
 31
0.0
  0
LINE
  8
0
 62
     0
 10
132.276
 20
31.1905
 30
0.0
 11
135.577
 21
31.1905
 31
0.0
  0
LINE
  8
0
 62
     0
 10
135.577
 20
31.1905
 30
0.0
 11
135.577
 21
32.1703
 31
0.0
  0
LINE
  8
0
 62
     0
 10
135.577
 20
32.1703
 30
0.0
 11
137.301
 21
32.1703
 31
0.0
  0
LINE
  8
0
 62
     0
 10
137.301
 20
32.1703
 30
0.0
 11
137.301
 21
36.6406
 31
0.0
  0
LINE
  8
0
 62
     0
 10
137.301
 20
36.6406
 30
0.0
 11
138.826
 21
36.6406
 31
0.0
  0
LINE
  8
0
 62
     0
 10
138.826
 20
36.6406
 30
0.0
 11
138.826
 21
36.0412
 31
0.0
  0
LINE
  8
0
 62
     0
 10
138.826
 20
36.0412
 30
0.0
 11
138.027
 21
36.0412
 31
0.0
  0
LINE
  8
0
 62
     0
 10
138.027
 20
36.0412
 30
0.0
 11
138.027
 21
32.9406
 31
0.0
  0
LINE
  8
0
 62
     0
 10
138.027
 20
32.9406
 30
0.0
 11
138.826
 21
32.9406
 31
0.0
  0
LINE
  8
0
 62
     0
 10
138.826
 20
32.9406
 30
0.0
 11
138.826
 21
31.9402
 31
0.0
  0
LINE
  8
0
 62
     0
 10
138.826
 20
31.9402
 30
0.0
 11
152.826
 21
31.9402
 31
0.0
  0
LINE
  8
0
 62
     0
 10
152.826
 20
31.9402
 30
0.0
 11
152.826
 21
32.9406
 31
0.0
  0
LINE
  8
0
 62
     0
 10
152.826
 20
32.9406
 30
0.0
 11
153.627
 21
32.9406
 31
0.0
  0
LINE
  8
0
 62
     0
 10
153.627
 20
32.9406
 30
0.0
 11
153.627
 21
36.0412
 31
0.0
  0
LINE
  8
0
 62
     0
 10
153.627
 20
36.0412
 30
0.0
 11
152.826
 21
36.0412
 31
0.0
  0
LINE
  8
0
 62
     0
 10
152.826
 20
36.0412
 30
0.0
 11
152.826
 21
36.6406
 31
0.0
  0
LINE
  8
0
 62
     0
 10
152.826
 20
36.6406
 30
0.0
 11
154.351
 21
36.6406
 31
0.0
  0
LINE
  8
0
 62
     0
 10
154.351
 20
36.6406
 30
0.0
 11
154.351
 21
32.1703
 31
0.0
  0
LINE
  8
0
 62
     0
 10
154.351
 20
32.1703
 30
0.0
 11
156.077
 21
32.1703
 31
0.0
  0
LINE
  8
0
 62
     0
 10
156.077
 20
32.1703
 30
0.0
 11
156.077
 21
31.1905
 31
0.0
  0
LINE
  8
0
 62
     0
 10
156.077
 20
31.1905
 30
0.0
 11
159.377
 21
31.1905
 31
0.0
  0
LINE
  8
0
 62
     0
 10
159.377
 20
31.1905
 30
0.0
 11
159.377
 21
32.1703
 31
0.0
  0
LINE
  8
0
 62
     0
 10
159.377
 20
32.1703
 30
0.0
 11
161.101
 21
32.1703
 31
0.0
  0
LINE
  8
0
 62
     0
 10
161.101
 20
32.1703
 30
0.0
 11
161.101
 21
38.4404
 31
0.0
  0
LINE
  8
0
 62
     0
 10
161.101
 20
38.4404
 30
0.0
 11
161.926
 21
38.4404
 31
0.0
  0
LINE
  8
0
 62
     0
 10
161.926
 20
38.4404
 30
0.0
 11
161.926
 21
41.2404
 31
0.0
  0
LINE
  8
0
 62
     0
 10
161.926
 20
41.2404
 30
0.0
 11
161.101
 21
41.2404
 31
0.0
  0
LINE
  8
0
 62
     0
 10
161.101
 20
41.2404
 30
0.0
 11
161.101
 21
44.4708
 31
0.0
  0
LINE
  8
0
 62
     0
 10
161.101
 20
44.4708
 30
0.0
 11
159.377
 21
44.4708
 31
0.0
  0
LINE
  8
0
 62
     0
 10
159.377
 20
44.4708
 30
0.0
 11
159.377
 21
45.3912
 31
0.0
  0
LINE
  8
0
 62
     0
 10
159.377
 20
45.3912
 30
0.0
 11
156.077
 21
45.3912
 31
0.0
  0
LINE
  8
0
 62
     0
 10
156.077
 20
45.3912
 30
0.0
 11
156.077
 21
44.4708
 31
0.0
  0
LINE
  8
0
 62
     0
 10
156.077
 20
44.4708
 30
0.0
 11
154.351
 21
44.4708
 31
0.0
  0
LINE
  8
0
 62
     0
 10
154.351
 20
44.4708
 30
0.0
 11
154.351
 21
41.2404
 31
0.0
  0
LINE
  8
0
 62
     0
 10
154.351
 20
41.2404
 30
0.0
 11
152.826
 21
41.2404
 31
0.0
  0
LINE
  8
0
 62
     0
 10
152.826
 20
41.2404
 30
0.0
 11
152.826
 21
41.8401
 31
0.0
  0
LINE
  8
0
 62
     0
 10
152.826
 20
41.8401
 30
0.0
 11
153.627
 21
41.8401
 31
0.0
  0
LINE
  8
0
 62
     0
 10
153.627
 20
41.8401
 30
0.0
 11
153.627
 21
44.9407
 31
0.0
  0
LINE
  8
0
 62
     0
 10
153.627
 20
44.9407
 30
0.0
 11
152.826
 21
44.9407
 31
0.0
  0
LINE
  8
0
 62
     0
 10
152.826
 20
44.9407
 30
0.0
 11
152.826
 21
45.9412
 31
0.0
  0
LINE
  8
0
 62
     0
 10
152.826
 20
45.9412
 30
0.0
 11
138.826
 21
45.9412
 31
0.0
  0
LINE
  8
0
 62
     0
 10
26.9076
 20
45.9412
 30
0.0
 11
26.9076
 21
44.9407
 31
0.0
  0
LINE
  8
0
 62
     0
 10
26.9076
 20
44.9407
 30
0.0
 11
26.1069
 21
44.9407
 31
0.0
  0
LINE
  8
0
 62
     0
 10
26.1069
 20
44.9407
 30
0.0
 11
26.1069
 21
41.8401
 31
0.0
  0
LINE
  8
0
 62
     0
 10
26.1069
 20
41.8401
 30
0.0
 11
26.9076
 21
41.8401
 31
0.0
  0
LINE
  8
0
 62
     0
 10
26.9076
 20
41.8401
 30
0.0
 11
26.9076
 21
36.0412
 31
0.0
  0
LINE
  8
0
 62
     0
 10
26.9076
 20
36.0412
 30
0.0
 11
26.1069
 21
36.0412
 31
0.0
  0
LINE
  8
0
 62
     0
 10
26.1069
 20
36.0412
 30
0.0
 11
26.1069
 21
32.9406
 31
0.0
  0
LINE
  8
0
 62
     0
 10
26.1069
 20
32.9406
 30
0.0
 11
26.9076
 21
32.9406
 31
0.0
  0
LINE
  8
0
 62
     0
 10
26.9076
 20
32.9406
 30
0.0
 11
26.9076
 21
31.9402
 31
0.0
  0
LINE
  8
0
 62
     0
 10
26.9076
 20
31.9402
 30
0.0
 11
40.9071
 21
31.9402
 31
0.0
  0
LINE
  8
0
 62
     0
 10
40.9071
 20
31.9402
 30
0.0
 11
40.9071
 21
32.9406
 31
0.0
  0
LINE
  8
0
 62
     0
 10
40.9071
 20
32.9406
 30
0.0
 11
41.7079
 21
32.9406
 31
0.0
  0
LINE
  8
0
 62
     0
 10
41.7079
 20
32.9406
 30
0.0
 11
41.7079
 21
36.0412
 31
0.0
  0
LINE
  8
0
 62
     0
 10
41.7079
 20
36.0412
 30
0.0
 11
40.9071
 21
36.0412
 31
0.0
  0
LINE
  8
0
 62
     0
 10
40.9071
 20
36.0412
 30
0.0
 11
40.9071
 21
41.8401
 31
0.0
  0
LINE
  8
0
 62
     0
 10
40.9071
 20
41.8401
 30
0.0
 11
41.7079
 21
41.8401
 31
0.0
  0
LINE
  8
0
 62
     0
 10
41.7079
 20
41.8401
 30
0.0
 11
41.7079
 21
44.9407
 31
0.0
  0
LINE
  8
0
 62
     0
 10
41.7079
 20
44.9407
 30
0.0
 11
40.9071
 21
44.9407
 31
0.0
  0
LINE
  8
0
 62
     0
 10
40.9071
 20
44.9407
 30
0.0
 11
40.9071
 21
45.9412
 31
0.0
  0
LINE
  8
0
 62
     0
 10
40.9071
 20
45.9412
 30
0.0
 11
26.9076
 21
45.9412
 31
0.0
  0
LINE
  8
0
 62
     0
 10
45.9574
 20
45.9412
 30
0.0
 11
45.9574
 21
44.9407
 31
0.0
  0
LINE
  8
0
 62
     0
 10
45.9574
 20
44.9407
 30
0.0
 11
45.157
 21
44.9407
 31
0.0
  0
LINE
  8
0
 62
     0
 10
45.157
 20
44.9407
 30
0.0
 11
45.157
 21
41.8401
 31
0.0
  0
LINE
  8
0
 62
     0
 10
45.157
 20
41.8401
 30
0.0
 11
45.9574
 21
41.8401
 31
0.0
  0
LINE
  8
0
 62
     0
 10
45.9574
 20
41.8401
 30
0.0
 11
45.9574
 21
36.0412
 31
0.0
  0
LINE
  8
0
 62
     0
 10
45.9574
 20
36.0412
 30
0.0
 11
45.157
 21
36.0412
 31
0.0
  0
LINE
  8
0
 62
     0
 10
45.157
 20
36.0412
 30
0.0
 11
45.157
 21
32.9406
 31
0.0
  0
LINE
  8
0
 62
     0
 10
45.157
 20
32.9406
 30
0.0
 11
45.9574
 21
32.9406
 31
0.0
  0
LINE
  8
0
 62
     0
 10
45.9574
 20
32.9406
 30
0.0
 11
45.9574
 21
31.9402
 31
0.0
  0
LINE
  8
0
 62
     0
 10
45.9574
 20
31.9402
 30
0.0
 11
59.9571
 21
31.9402
 31
0.0
  0
LINE
  8
0
 62
     0
 10
59.9571
 20
31.9402
 30
0.0
 11
59.9571
 21
32.9406
 31
0.0
  0
LINE
  8
0
 62
     0
 10
59.9571
 20
32.9406
 30
0.0
 11
60.7579
 21
32.9406
 31
0.0
  0
LINE
  8
0
 62
     0
 10
60.7579
 20
32.9406
 30
0.0
 11
60.7579
 21
36.0412
 31
0.0
  0
LINE
  8
0
 62
     0
 10
60.7579
 20
36.0412
 30
0.0
 11
59.9571
 21
36.0412
 31
0.0
  0
LINE
  8
0
 62
     0
 10
59.9571
 20
36.0412
 30
0.0
 11
59.9571
 21
41.8401
 31
0.0
  0
LINE
  8
0
 62
     0
 10
59.9571
 20
41.8401
 30
0.0
 11
60.7579
 21
41.8401
 31
0.0
  0
LINE
  8
0
 62
     0
 10
60.7579
 20
41.8401
 30
0.0
 11
60.7579
 21
44.9407
 31
0.0
  0
LINE
  8
0
 62
     0
 10
60.7579
 20
44.9407
 30
0.0
 11
59.9571
 21
44.9407
 31
0.0
  0
LINE
  8
0
 62
     0
 10
59.9571
 20
44.9407
 30
0.0
 11
59.9571
 21
45.9412
 31
0.0
  0
LINE
  8
0
 62
     0
 10
59.9571
 20
45.9412
 30
0.0
 11
45.9574
 21
45.9412
 31
0.0
  0
LINE
  8
0
 62
     0
 10
65.0074
 20
45.9412
 30
0.0
 11
65.0074
 21
44.9407
 31
0.0
  0
LINE
  8
0
 62
     0
 10
65.0074
 20
44.9407
 30
0.0
 11
64.207
 21
44.9407
 31
0.0
  0
LINE
  8
0
 62
     0
 10
64.207
 20
44.9407
 30
0.0
 11
64.207
 21
41.8401
 31
0.0
  0
LINE
  8
0
 62
     0
 10
64.207
 20
41.8401
 30
0.0
 11
65.0074
 21
41.8401
 31
0.0
  0
LINE
  8
0
 62
     0
 10
65.0074
 20
41.8401
 30
0.0
 11
65.0074
 21
36.0412
 31
0.0
  0
LINE
  8
0
 62
     0
 10
65.0074
 20
36.0412
 30
0.0
 11
64.207
 21
36.0412
 31
0.0
  0
LINE
  8
0
 62
     0
 10
64.207
 20
36.0412
 30
0.0
 11
64.207
 21
32.9406
 31
0.0
  0
LINE
  8
0
 62
     0
 10
64.207
 20
32.9406
 30
0.0
 11
65.0074
 21
32.9406
 31
0.0
  0
LINE
  8
0
 62
     0
 10
65.0074
 20
32.9406
 30
0.0
 11
65.0074
 21
31.9402
 31
0.0
  0
LINE
  8
0
 62
     0
 10
65.0074
 20
31.9402
 30
0.0
 11
79.0071
 21
31.9402
 31
0.0
  0
LINE
  8
0
 62
     0
 10
79.0071
 20
31.9402
 30
0.0
 11
79.0071
 21
32.9406
 31
0.0
  0
LINE
  8
0
 62
     0
 10
79.0071
 20
32.9406
 30
0.0
 11
79.8079
 21
32.9406
 31
0.0
  0
LINE
  8
0
 62
     0
 10
79.8079
 20
32.9406
 30
0.0
 11
79.8079
 21
36.0412
 31
0.0
  0
LINE
  8
0
 62
     0
 10
79.8079
 20
36.0412
 30
0.0
 11
79.0071
 21
36.0412
 31
0.0
  0
LINE
  8
0
 62
     0
 10
79.0071
 20
36.0412
 30
0.0
 11
79.0071
 21
41.8401
 31
0.0
  0
LINE
  8
0
 62
     0
 10
79.0071
 20
41.8401
 30
0.0
 11
79.8079
 21
41.8401
 31
0.0
  0
LINE
  8
0
 62
     0
 10
79.8079
 20
41.8401
 30
0.0
 11
79.8079
 21
44.9407
 31
0.0
  0
LINE
  8
0
 62
     0
 10
79.8079
 20
44.9407
 30
0.0
 11
79.0071
 21
44.9407
 31
0.0
  0
LINE
  8
0
 62
     0
 10
79.0071
 20
44.9407
 30
0.0
 11
79.0071
 21
45.9412
 31
0.0
  0
LINE
  8
0
 62
     0
 10
79.0071
 20
45.9412
 30
0.0
 11
65.0074
 21
45.9412
 31
0.0
  0
LINE
  8
0
 62
     0
 10
84.0574
 20
45.9412
 30
0.0
 11
84.0574
 21
44.9407
 31
0.0
  0
LINE
  8
0
 62
     0
 10
84.0574
 20
44.9407
 30
0.0
 11
83.257
 21
44.9407
 31
0.0
  0
LINE
  8
0
 62
     0
 10
83.257
 20
44.9407
 30
0.0
 11
83.257
 21
41.8401
 31
0.0
  0
LINE
  8
0
 62
     0
 10
83.257
 20
41.8401
 30
0.0
 11
84.0574
 21
41.8401
 31
0.0
  0
LINE
  8
0
 62
     0
 10
84.0574
 20
41.8401
 30
0.0
 11
84.0574
 21
36.0412
 31
0.0
  0
LINE
  8
0
 62
     0
 10
84.0574
 20
36.0412
 30
0.0
 11
83.257
 21
36.0412
 31
0.0
  0
LINE
  8
0
 62
     0
 10
83.257
 20
36.0412
 30
0.0
 11
83.257
 21
32.9406
 31
0.0
  0
LINE
  8
0
 62
     0
 10
83.257
 20
32.9406
 30
0.0
 11
84.0574
 21
32.9406
 31
0.0
  0
LINE
  8
0
 62
     0
 10
84.0574
 20
32.9406
 30
0.0
 11
84.0574
 21
31.9402
 31
0.0
  0
LINE
  8
0
 62
     0
 10
84.0574
 20
31.9402
 30
0.0
 11
98.0571
 21
31.9402
 31
0.0
  0
LINE
  8
0
 62
     0
 10
98.0571
 20
31.9402
 30
0.0
 11
98.0571
 21
32.9406
 31
0.0
  0
LINE
  8
0
 62
     0
 10
98.0571
 20
32.9406
 30
0.0
 11
98.8579
 21
32.9406
 31
0.0
  0
LINE
  8
0
 62
     0
 10
98.8579
 20
32.9406
 30
0.0
 11
98.8579
 21
36.0412
 31
0.0
  0
LINE
  8
0
 62
     0
 10
98.8579
 20
36.0412
 30
0.0
 11
98.0571
 21
36.0412
 31
0.0
  0
LINE
  8
0
 62
     0
 10
98.0571
 20
36.0412
 30
0.0
 11
98.0571
 21
41.8401
 31
0.0
  0
LINE
  8
0
 62
     0
 10
98.0571
 20
41.8401
 30
0.0
 11
98.8579
 21
41.8401
 31
0.0
  0
LINE
  8
0
 62
     0
 10
98.8579
 20
41.8401
 30
0.0
 11
98.8579
 21
44.9407
 31
0.0
  0
LINE
  8
0
 62
     0
 10
98.8579
 20
44.9407
 30
0.0
 11
98.0571
 21
44.9407
 31
0.0
  0
LINE
  8
0
 62
     0
 10
98.0571
 20
44.9407
 30
0.0
 11
98.0571
 21
45.9412
 31
0.0
  0
LINE
  8
0
 62
     0
 10
98.0571
 20
45.9412
 30
0.0
 11
84.0574
 21
45.9412
 31
0.0
  0
LINE
  8
0
 62
     0
 10
103.107
 20
45.9412
 30
0.0
 11
103.107
 21
44.9407
 31
0.0
  0
LINE
  8
0
 62
     0
 10
103.107
 20
44.9407
 30
0.0
 11
102.307
 21
44.9407
 31
0.0
  0
LINE
  8
0
 62
     0
 10
102.307
 20
44.9407
 30
0.0
 11
102.307
 21
41.8401
 31
0.0
  0
LINE
  8
0
 62
     0
 10
102.307
 20
41.8401
 30
0.0
 11
103.107
 21
41.8401
 31
0.0
  0
LINE
  8
0
 62
     0
 10
103.107
 20
41.8401
 30
0.0
 11
103.107
 21
36.0412
 31
0.0
  0
LINE
  8
0
 62
     0
 10
103.107
 20
36.0412
 30
0.0
 11
102.307
 21
36.0412
 31
0.0
  0
LINE
  8
0
 62
     0
 10
102.307
 20
36.0412
 30
0.0
 11
102.307
 21
32.9406
 31
0.0
  0
LINE
  8
0
 62
     0
 10
102.307
 20
32.9406
 30
0.0
 11
103.107
 21
32.9406
 31
0.0
  0
LINE
  8
0
 62
     0
 10
103.107
 20
32.9406
 30
0.0
 11
103.107
 21
31.9402
 31
0.0
  0
LINE
  8
0
 62
     0
 10
103.107
 20
31.9402
 30
0.0
 11
117.107
 21
31.9402
 31
0.0
  0
LINE
  8
0
 62
     0
 10
117.107
 20
31.9402
 30
0.0
 11
117.107
 21
32.9406
 31
0.0
  0
LINE
  8
0
 62
     0
 10
117.107
 20
32.9406
 30
0.0
 11
117.908
 21
32.9406
 31
0.0
  0
LINE
  8
0
 62
     0
 10
117.908
 20
32.9406
 30
0.0
 11
117.908
 21
36.0412
 31
0.0
  0
LINE
  8
0
 62
     0
 10
117.908
 20
36.0412
 30
0.0
 11
117.107
 21
36.0412
 31
0.0
  0
LINE
  8
0
 62
     0
 10
117.107
 20
36.0412
 30
0.0
 11
117.107
 21
41.8401
 31
0.0
  0
LINE
  8
0
 62
     0
 10
117.107
 20
41.8401
 30
0.0
 11
117.908
 21
41.8401
 31
0.0
  0
LINE
  8
0
 62
     0
 10
117.908
 20
41.8401
 30
0.0
 11
117.908
 21
44.9407
 31
0.0
  0
LINE
  8
0
 62
     0
 10
117.908
 20
44.9407
 30
0.0
 11
117.107
 21
44.9407
 31
0.0
  0
LINE
  8
0
 62
     0
 10
117.107
 20
44.9407
 30
0.0
 11
117.107
 21
45.9412
 31
0.0
  0
LINE
  8
0
 62
     0
 10
117.107
 20
45.9412
 30
0.0
 11
103.107
 21
45.9412
 31
0.0
  0
LINE
  8
0
 62
     0
 10
198.357
 20
45.9412
 30
0.0
 11
198.357
 21
44.9407
 31
0.0
  0
LINE
  8
0
 62
     0
 10
198.357
 20
44.9407
 30
0.0
 11
197.557
 21
44.9407
 31
0.0
  0
LINE
  8
0
 62
     0
 10
197.557
 20
44.9407
 30
0.0
 11
197.557
 21
41.8401
 31
0.0
  0
LINE
  8
0
 62
     0
 10
197.557
 20
41.8401
 30
0.0
 11
198.357
 21
41.8401
 31
0.0
  0
LINE
  8
0
 62
     0
 10
198.357
 20
41.8401
 30
0.0
 11
198.357
 21
36.0412
 31
0.0
  0
LINE
  8
0
 62
     0
 10
198.357
 20
36.0412
 30
0.0
 11
197.557
 21
36.0412
 31
0.0
  0
LINE
  8
0
 62
     0
 10
197.557
 20
36.0412
 30
0.0
 11
197.557
 21
32.9406
 31
0.0
  0
LINE
  8
0
 62
     0
 10
197.557
 20
32.9406
 30
0.0
 11
198.357
 21
32.9406
 31
0.0
  0
LINE
  8
0
 62
     0
 10
198.357
 20
32.9406
 30
0.0
 11
198.357
 21
31.9402
 31
0.0
  0
LINE
  8
0
 62
     0
 10
198.357
 20
31.9402
 30
0.0
 11
212.357
 21
31.9402
 31
0.0
  0
LINE
  8
0
 62
     0
 10
212.357
 20
31.9402
 30
0.0
 11
212.357
 21
32.9406
 31
0.0
  0
LINE
  8
0
 62
     0
 10
212.357
 20
32.9406
 30
0.0
 11
213.158
 21
32.9406
 31
0.0
  0
LINE
  8
0
 62
     0
 10
213.158
 20
32.9406
 30
0.0
 11
213.158
 21
36.0412
 31
0.0
  0
LINE
  8
0
 62
     0
 10
213.158
 20
36.0412
 30
0.0
 11
212.357
 21
36.0412
 31
0.0
  0
LINE
  8
0
 62
     0
 10
212.357
 20
36.0412
 30
0.0
 11
212.357
 21
41.8401
 31
0.0
  0
LINE
  8
0
 62
     0
 10
212.357
 20
41.8401
 30
0.0
 11
213.158
 21
41.8401
 31
0.0
  0
LINE
  8
0
 62
     0
 10
213.158
 20
41.8401
 30
0.0
 11
213.158
 21
44.9407
 31
0.0
  0
LINE
  8
0
 62
     0
 10
213.158
 20
44.9407
 30
0.0
 11
212.357
 21
44.9407
 31
0.0
  0
LINE
  8
0
 62
     0
 10
212.357
 20
44.9407
 30
0.0
 11
212.357
 21
45.9412
 31
0.0
  0
LINE
  8
0
 62
     0
 10
212.357
 20
45.9412
 30
0.0
 11
198.357
 21
45.9412
 31
0.0
  0
LINE
  8
0
 62
     0
 10
143.589
 20
64.9912
 30
0.0
 11
143.589
 21
63.9907
 31
0.0
  0
LINE
  8
0
 62
     0
 10
143.589
 20
63.9907
 30
0.0
 11
142.788
 21
63.9907
 31
0.0
  0
LINE
  8
0
 62
     0
 10
142.788
 20
63.9907
 30
0.0
 11
142.788
 21
60.8902
 31
0.0
  0
LINE
  8
0
 62
     0
 10
142.788
 20
60.8902
 30
0.0
 11
143.589
 21
60.8902
 31
0.0
  0
LINE
  8
0
 62
     0
 10
143.589
 20
60.8902
 30
0.0
 11
143.589
 21
60.2904
 31
0.0
  0
LINE
  8
0
 62
     0
 10
143.589
 20
60.2904
 30
0.0
 11
142.063
 21
60.2904
 31
0.0
  0
LINE
  8
0
 62
     0
 10
142.063
 20
60.2904
 30
0.0
 11
142.063
 21
63.5208
 31
0.0
  0
LINE
  8
0
 62
     0
 10
142.063
 20
63.5208
 30
0.0
 11
140.338
 21
63.5208
 31
0.0
  0
LINE
  8
0
 62
     0
 10
140.338
 20
63.5208
 30
0.0
 11
140.338
 21
64.4412
 31
0.0
  0
LINE
  8
0
 62
     0
 10
140.338
 20
64.4412
 30
0.0
 11
137.039
 21
64.4412
 31
0.0
  0
LINE
  8
0
 62
     0
 10
137.039
 20
64.4412
 30
0.0
 11
137.039
 21
63.5208
 31
0.0
  0
LINE
  8
0
 62
     0
 10
137.039
 20
63.5208
 30
0.0
 11
135.314
 21
63.5208
 31
0.0
  0
LINE
  8
0
 62
     0
 10
135.314
 20
63.5208
 30
0.0
 11
135.314
 21
60.2904
 31
0.0
  0
LINE
  8
0
 62
     0
 10
135.314
 20
60.2904
 30
0.0
 11
134.488
 21
60.2904
 31
0.0
  0
LINE
  8
0
 62
     0
 10
134.488
 20
60.2904
 30
0.0
 11
134.488
 21
57.4904
 31
0.0
  0
LINE
  8
0
 62
     0
 10
134.488
 20
57.4904
 30
0.0
 11
135.314
 21
57.4904
 31
0.0
  0
LINE
  8
0
 62
     0
 10
135.314
 20
57.4904
 30
0.0
 11
135.314
 21
51.2202
 31
0.0
  0
LINE
  8
0
 62
     0
 10
135.314
 20
51.2202
 30
0.0
 11
137.039
 21
51.2202
 31
0.0
  0
LINE
  8
0
 62
     0
 10
137.039
 20
51.2202
 30
0.0
 11
137.039
 21
50.2405
 31
0.0
  0
LINE
  8
0
 62
     0
 10
137.039
 20
50.2405
 30
0.0
 11
140.338
 21
50.2405
 31
0.0
  0
LINE
  8
0
 62
     0
 10
140.338
 20
50.2405
 30
0.0
 11
140.338
 21
51.2202
 31
0.0
  0
LINE
  8
0
 62
     0
 10
140.338
 20
51.2202
 30
0.0
 11
142.063
 21
51.2202
 31
0.0
  0
LINE
  8
0
 62
     0
 10
142.063
 20
51.2202
 30
0.0
 11
142.063
 21
55.6906
 31
0.0
  0
LINE
  8
0
 62
     0
 10
142.063
 20
55.6906
 30
0.0
 11
143.589
 21
55.6906
 31
0.0
  0
LINE
  8
0
 62
     0
 10
143.589
 20
55.6906
 30
0.0
 11
143.589
 21
55.0912
 31
0.0
  0
LINE
  8
0
 62
     0
 10
143.589
 20
55.0912
 30
0.0
 11
142.788
 21
55.0912
 31
0.0
  0
LINE
  8
0
 62
     0
 10
142.788
 20
55.0912
 30
0.0
 11
142.788
 21
51.9906
 31
0.0
  0
LINE
  8
0
 62
     0
 10
142.788
 20
51.9906
 30
0.0
 11
143.589
 21
51.9906
 31
0.0
  0
LINE
  8
0
 62
     0
 10
143.589
 20
51.9906
 30
0.0
 11
143.589
 21
50.9901
 31
0.0
  0
LINE
  8
0
 62
     0
 10
143.589
 20
50.9901
 30
0.0
 11
157.588
 21
50.9901
 31
0.0
  0
LINE
  8
0
 62
     0
 10
157.588
 20
50.9901
 30
0.0
 11
157.588
 21
51.9906
 31
0.0
  0
LINE
  8
0
 62
     0
 10
157.588
 20
51.9906
 30
0.0
 11
158.389
 21
51.9906
 31
0.0
  0
LINE
  8
0
 62
     0
 10
158.389
 20
51.9906
 30
0.0
 11
158.389
 21
55.0912
 31
0.0
  0
LINE
  8
0
 62
     0
 10
158.389
 20
55.0912
 30
0.0
 11
157.588
 21
55.0912
 31
0.0
  0
LINE
  8
0
 62
     0
 10
157.588
 20
55.0912
 30
0.0
 11
157.588
 21
55.6906
 31
0.0
  0
LINE
  8
0
 62
     0
 10
157.588
 20
55.6906
 30
0.0
 11
159.114
 21
55.6906
 31
0.0
  0
LINE
  8
0
 62
     0
 10
159.114
 20
55.6906
 30
0.0
 11
159.114
 21
51.2202
 31
0.0
  0
LINE
  8
0
 62
     0
 10
159.114
 20
51.2202
 30
0.0
 11
160.839
 21
51.2202
 31
0.0
  0
LINE
  8
0
 62
     0
 10
160.839
 20
51.2202
 30
0.0
 11
160.839
 21
50.2405
 31
0.0
  0
LINE
  8
0
 62
     0
 10
160.839
 20
50.2405
 30
0.0
 11
164.138
 21
50.2405
 31
0.0
  0
LINE
  8
0
 62
     0
 10
164.138
 20
50.2405
 30
0.0
 11
164.138
 21
51.2202
 31
0.0
  0
LINE
  8
0
 62
     0
 10
164.138
 20
51.2202
 30
0.0
 11
165.863
 21
51.2202
 31
0.0
  0
LINE
  8
0
 62
     0
 10
165.863
 20
51.2202
 30
0.0
 11
165.863
 21
57.4904
 31
0.0
  0
LINE
  8
0
 62
     0
 10
165.863
 20
57.4904
 30
0.0
 11
166.689
 21
57.4904
 31
0.0
  0
LINE
  8
0
 62
     0
 10
166.689
 20
57.4904
 30
0.0
 11
166.689
 21
60.2904
 31
0.0
  0
LINE
  8
0
 62
     0
 10
166.689
 20
60.2904
 30
0.0
 11
165.863
 21
60.2904
 31
0.0
  0
LINE
  8
0
 62
     0
 10
165.863
 20
60.2904
 30
0.0
 11
165.863
 21
63.5208
 31
0.0
  0
LINE
  8
0
 62
     0
 10
165.863
 20
63.5208
 30
0.0
 11
164.138
 21
63.5208
 31
0.0
  0
LINE
  8
0
 62
     0
 10
164.138
 20
63.5208
 30
0.0
 11
164.138
 21
64.4412
 31
0.0
  0
LINE
  8
0
 62
     0
 10
164.138
 20
64.4412
 30
0.0
 11
160.839
 21
64.4412
 31
0.0
  0
LINE
  8
0
 62
     0
 10
160.839
 20
64.4412
 30
0.0
 11
160.839
 21
63.5208
 31
0.0
  0
LINE
  8
0
 62
     0
 10
160.839
 20
63.5208
 30
0.0
 11
159.114
 21
63.5208
 31
0.0
  0
LINE
  8
0
 62
     0
 10
159.114
 20
63.5208
 30
0.0
 11
159.114
 21
60.2904
 31
0.0
  0
LINE
  8
0
 62
     0
 10
159.114
 20
60.2904
 30
0.0
 11
157.588
 21
60.2904
 31
0.0
  0
LINE
  8
0
 62
     0
 10
157.588
 20
60.2904
 30
0.0
 11
157.588
 21
60.8902
 31
0.0
  0
LINE
  8
0
 62
     0
 10
157.588
 20
60.8902
 30
0.0
 11
158.389
 21
60.8902
 31
0.0
  0
LINE
  8
0
 62
     0
 10
158.389
 20
60.8902
 30
0.0
 11
158.389
 21
63.9907
 31
0.0
  0
LINE
  8
0
 62
     0
 10
158.389
 20
63.9907
 30
0.0
 11
157.588
 21
63.9907
 31
0.0
  0
LINE
  8
0
 62
     0
 10
157.588
 20
63.9907
 30
0.0
 11
157.588
 21
64.9912
 31
0.0
  0
LINE
  8
0
 62
     0
 10
157.588
 20
64.9912
 30
0.0
 11
143.589
 21
64.9912
 31
0.0
  0
LINE
  8
0
 62
     0
 10
17.3826
 20
64.9912
 30
0.0
 11
17.3826
 21
63.9907
 31
0.0
  0
LINE
  8
0
 62
     0
 10
17.3826
 20
63.9907
 30
0.0
 11
16.5819
 21
63.9907
 31
0.0
  0
LINE
  8
0
 62
     0
 10
16.5819
 20
63.9907
 30
0.0
 11
16.5819
 21
60.8902
 31
0.0
  0
LINE
  8
0
 62
     0
 10
16.5819
 20
60.8902
 30
0.0
 11
17.3826
 21
60.8902
 31
0.0
  0
LINE
  8
0
 62
     0
 10
17.3826
 20
60.8902
 30
0.0
 11
17.3826
 21
55.0912
 31
0.0
  0
LINE
  8
0
 62
     0
 10
17.3826
 20
55.0912
 30
0.0
 11
16.5819
 21
55.0912
 31
0.0
  0
LINE
  8
0
 62
     0
 10
16.5819
 20
55.0912
 30
0.0
 11
16.5819
 21
51.9906
 31
0.0
  0
LINE
  8
0
 62
     0
 10
16.5819
 20
51.9906
 30
0.0
 11
17.3826
 21
51.9906
 31
0.0
  0
LINE
  8
0
 62
     0
 10
17.3826
 20
51.9906
 30
0.0
 11
17.3826
 21
50.9901
 31
0.0
  0
LINE
  8
0
 62
     0
 10
17.3826
 20
50.9901
 30
0.0
 11
31.3821
 21
50.9901
 31
0.0
  0
LINE
  8
0
 62
     0
 10
31.3821
 20
50.9901
 30
0.0
 11
31.3821
 21
51.9906
 31
0.0
  0
LINE
  8
0
 62
     0
 10
31.3821
 20
51.9906
 30
0.0
 11
32.1827
 21
51.9906
 31
0.0
  0
LINE
  8
0
 62
     0
 10
32.1827
 20
51.9906
 30
0.0
 11
32.1827
 21
55.0912
 31
0.0
  0
LINE
  8
0
 62
     0
 10
32.1827
 20
55.0912
 30
0.0
 11
31.3821
 21
55.0912
 31
0.0
  0
LINE
  8
0
 62
     0
 10
31.3821
 20
55.0912
 30
0.0
 11
31.3821
 21
60.8902
 31
0.0
  0
LINE
  8
0
 62
     0
 10
31.3821
 20
60.8902
 30
0.0
 11
32.1827
 21
60.8902
 31
0.0
  0
LINE
  8
0
 62
     0
 10
32.1827
 20
60.8902
 30
0.0
 11
32.1827
 21
63.9907
 31
0.0
  0
LINE
  8
0
 62
     0
 10
32.1827
 20
63.9907
 30
0.0
 11
31.3821
 21
63.9907
 31
0.0
  0
LINE
  8
0
 62
     0
 10
31.3821
 20
63.9907
 30
0.0
 11
31.3821
 21
64.9912
 31
0.0
  0
LINE
  8
0
 62
     0
 10
31.3821
 20
64.9912
 30
0.0
 11
17.3826
 21
64.9912
 31
0.0
  0
LINE
  8
0
 62
     0
 10
36.4324
 20
64.9912
 30
0.0
 11
36.4324
 21
63.9907
 31
0.0
  0
LINE
  8
0
 62
     0
 10
36.4324
 20
63.9907
 30
0.0
 11
35.632
 21
63.9907
 31
0.0
  0
LINE
  8
0
 62
     0
 10
35.632
 20
63.9907
 30
0.0
 11
35.632
 21
60.8902
 31
0.0
  0
LINE
  8
0
 62
     0
 10
35.632
 20
60.8902
 30
0.0
 11
36.4324
 21
60.8902
 31
0.0
  0
LINE
  8
0
 62
     0
 10
36.4324
 20
60.8902
 30
0.0
 11
36.4324
 21
55.0912
 31
0.0
  0
LINE
  8
0
 62
     0
 10
36.4324
 20
55.0912
 30
0.0
 11
35.632
 21
55.0912
 31
0.0
  0
LINE
  8
0
 62
     0
 10
35.632
 20
55.0912
 30
0.0
 11
35.632
 21
51.9906
 31
0.0
  0
LINE
  8
0
 62
     0
 10
35.632
 20
51.9906
 30
0.0
 11
36.4324
 21
51.9906
 31
0.0
  0
LINE
  8
0
 62
     0
 10
36.4324
 20
51.9906
 30
0.0
 11
36.4324
 21
50.9901
 31
0.0
  0
LINE
  8
0
 62
     0
 10
36.4324
 20
50.9901
 30
0.0
 11
50.4321
 21
50.9901
 31
0.0
  0
LINE
  8
0
 62
     0
 10
50.4321
 20
50.9901
 30
0.0
 11
50.4321
 21
51.9906
 31
0.0
  0
LINE
  8
0
 62
     0
 10
50.4321
 20
51.9906
 30
0.0
 11
51.2329
 21
51.9906
 31
0.0
  0
LINE
  8
0
 62
     0
 10
51.2329
 20
51.9906
 30
0.0
 11
51.2329
 21
55.0912
 31
0.0
  0
LINE
  8
0
 62
     0
 10
51.2329
 20
55.0912
 30
0.0
 11
50.4321
 21
55.0912
 31
0.0
  0
LINE
  8
0
 62
     0
 10
50.4321
 20
55.0912
 30
0.0
 11
50.4321
 21
60.8902
 31
0.0
  0
LINE
  8
0
 62
     0
 10
50.4321
 20
60.8902
 30
0.0
 11
51.2329
 21
60.8902
 31
0.0
  0
LINE
  8
0
 62
     0
 10
51.2329
 20
60.8902
 30
0.0
 11
51.2329
 21
63.9907
 31
0.0
  0
LINE
  8
0
 62
     0
 10
51.2329
 20
63.9907
 30
0.0
 11
50.4321
 21
63.9907
 31
0.0
  0
LINE
  8
0
 62
     0
 10
50.4321
 20
63.9907
 30
0.0
 11
50.4321
 21
64.9912
 31
0.0
  0
LINE
  8
0
 62
     0
 10
50.4321
 20
64.9912
 30
0.0
 11
36.4324
 21
64.9912
 31
0.0
  0
LINE
  8
0
 62
     0
 10
55.4824
 20
64.9912
 30
0.0
 11
55.4824
 21
63.9907
 31
0.0
  0
LINE
  8
0
 62
     0
 10
55.4824
 20
63.9907
 30
0.0
 11
54.682
 21
63.9907
 31
0.0
  0
LINE
  8
0
 62
     0
 10
54.682
 20
63.9907
 30
0.0
 11
54.682
 21
60.8902
 31
0.0
  0
LINE
  8
0
 62
     0
 10
54.682
 20
60.8902
 30
0.0
 11
55.4824
 21
60.8902
 31
0.0
  0
LINE
  8
0
 62
     0
 10
55.4824
 20
60.8902
 30
0.0
 11
55.4824
 21
55.0912
 31
0.0
  0
LINE
  8
0
 62
     0
 10
55.4824
 20
55.0912
 30
0.0
 11
54.682
 21
55.0912
 31
0.0
  0
LINE
  8
0
 62
     0
 10
54.682
 20
55.0912
 30
0.0
 11
54.682
 21
51.9906
 31
0.0
  0
LINE
  8
0
 62
     0
 10
54.682
 20
51.9906
 30
0.0
 11
55.4824
 21
51.9906
 31
0.0
  0
LINE
  8
0
 62
     0
 10
55.4824
 20
51.9906
 30
0.0
 11
55.4824
 21
50.9901
 31
0.0
  0
LINE
  8
0
 62
     0
 10
55.4824
 20
50.9901
 30
0.0
 11
69.4821
 21
50.9901
 31
0.0
  0
LINE
  8
0
 62
     0
 10
69.4821
 20
50.9901
 30
0.0
 11
69.4821
 21
51.9906
 31
0.0
  0
LINE
  8
0
 62
     0
 10
69.4821
 20
51.9906
 30
0.0
 11
70.2829
 21
51.9906
 31
0.0
  0
LINE
  8
0
 62
     0
 10
70.2829
 20
51.9906
 30
0.0
 11
70.2829
 21
55.0912
 31
0.0
  0
LINE
  8
0
 62
     0
 10
70.2829
 20
55.0912
 30
0.0
 11
69.4821
 21
55.0912
 31
0.0
  0
LINE
  8
0
 62
     0
 10
69.4821
 20
55.0912
 30
0.0
 11
69.4821
 21
60.8902
 31
0.0
  0
LINE
  8
0
 62
     0
 10
69.4821
 20
60.8902
 30
0.0
 11
70.2829
 21
60.8902
 31
0.0
  0
LINE
  8
0
 62
     0
 10
70.2829
 20
60.8902
 30
0.0
 11
70.2829
 21
63.9907
 31
0.0
  0
LINE
  8
0
 62
     0
 10
70.2829
 20
63.9907
 30
0.0
 11
69.4821
 21
63.9907
 31
0.0
  0
LINE
  8
0
 62
     0
 10
69.4821
 20
63.9907
 30
0.0
 11
69.4821
 21
64.9912
 31
0.0
  0
LINE
  8
0
 62
     0
 10
69.4821
 20
64.9912
 30
0.0
 11
55.4824
 21
64.9912
 31
0.0
  0
LINE
  8
0
 62
     0
 10
74.5324
 20
64.9912
 30
0.0
 11
74.5324
 21
63.9907
 31
0.0
  0
LINE
  8
0
 62
     0
 10
74.5324
 20
63.9907
 30
0.0
 11
73.732
 21
63.9907
 31
0.0
  0
LINE
  8
0
 62
     0
 10
73.732
 20
63.9907
 30
0.0
 11
73.732
 21
60.8902
 31
0.0
  0
LINE
  8
0
 62
     0
 10
73.732
 20
60.8902
 30
0.0
 11
74.5324
 21
60.8902
 31
0.0
  0
LINE
  8
0
 62
     0
 10
74.5324
 20
60.8902
 30
0.0
 11
74.5324
 21
55.0912
 31
0.0
  0
LINE
  8
0
 62
     0
 10
74.5324
 20
55.0912
 30
0.0
 11
73.732
 21
55.0912
 31
0.0
  0
LINE
  8
0
 62
     0
 10
73.732
 20
55.0912
 30
0.0
 11
73.732
 21
51.9906
 31
0.0
  0
LINE
  8
0
 62
     0
 10
73.732
 20
51.9906
 30
0.0
 11
74.5324
 21
51.9906
 31
0.0
  0
LINE
  8
0
 62
     0
 10
74.5324
 20
51.9906
 30
0.0
 11
74.5324
 21
50.9901
 31
0.0
  0
LINE
  8
0
 62
     0
 10
74.5324
 20
50.9901
 30
0.0
 11
88.5321
 21
50.9901
 31
0.0
  0
LINE
  8
0
 62
     0
 10
88.5321
 20
50.9901
 30
0.0
 11
88.5321
 21
51.9906
 31
0.0
  0
LINE
  8
0
 62
     0
 10
88.5321
 20
51.9906
 30
0.0
 11
89.3329
 21
51.9906
 31
0.0
  0
LINE
  8
0
 62
     0
 10
89.3329
 20
51.9906
 30
0.0
 11
89.3329
 21
55.0912
 31
0.0
  0
LINE
  8
0
 62
     0
 10
89.3329
 20
55.0912
 30
0.0
 11
88.5321
 21
55.0912
 31
0.0
  0
LINE
  8
0
 62
     0
 10
88.5321
 20
55.0912
 30
0.0
 11
88.5321
 21
60.8902
 31
0.0
  0
LINE
  8
0
 62
     0
 10
88.5321
 20
60.8902
 30
0.0
 11
89.3329
 21
60.8902
 31
0.0
  0
LINE
  8
0
 62
     0
 10
89.3329
 20
60.8902
 30
0.0
 11
89.3329
 21
63.9907
 31
0.0
  0
LINE
  8
0
 62
     0
 10
89.3329
 20
63.9907
 30
0.0
 11
88.5321
 21
63.9907
 31
0.0
  0
LINE
  8
0
 62
     0
 10
88.5321
 20
63.9907
 30
0.0
 11
88.5321
 21
64.9912
 31
0.0
  0
LINE
  8
0
 62
     0
 10
88.5321
 20
64.9912
 30
0.0
 11
74.5324
 21
64.9912
 31
0.0
  0
LINE
  8
0
 62
     0
 10
93.5824
 20
64.9912
 30
0.0
 11
93.5824
 21
63.9907
 31
0.0
  0
LINE
  8
0
 62
     0
 10
93.5824
 20
63.9907
 30
0.0
 11
92.782
 21
63.9907
 31
0.0
  0
LINE
  8
0
 62
     0
 10
92.782
 20
63.9907
 30
0.0
 11
92.782
 21
60.8902
 31
0.0
  0
LINE
  8
0
 62
     0
 10
92.782
 20
60.8902
 30
0.0
 11
93.5824
 21
60.8902
 31
0.0
  0
LINE
  8
0
 62
     0
 10
93.5824
 20
60.8902
 30
0.0
 11
93.5824
 21
55.0912
 31
0.0
  0
LINE
  8
0
 62
     0
 10
93.5824
 20
55.0912
 30
0.0
 11
92.782
 21
55.0912
 31
0.0
  0
LINE
  8
0
 62
     0
 10
92.782
 20
55.0912
 30
0.0
 11
92.782
 21
51.9906
 31
0.0
  0
LINE
  8
0
 62
     0
 10
92.782
 20
51.9906
 30
0.0
 11
93.5824
 21
51.9906
 31
0.0
  0
LINE
  8
0
 62
     0
 10
93.5824
 20
51.9906
 30
0.0
 11
93.5824
 21
50.9901
 31
0.0
  0
LINE
  8
0
 62
     0
 10
93.5824
 20
50.9901
 30
0.0
 11
107.582
 21
50.9901
 31
0.0
  0
LINE
  8
0
 62
     0
 10
107.582
 20
50.9901
 30
0.0
 11
107.582
 21
51.9906
 31
0.0
  0
LINE
  8
0
 62
     0
 10
107.582
 20
51.9906
 30
0.0
 11
108.383
 21
51.9906
 31
0.0
  0
LINE
  8
0
 62
     0
 10
108.383
 20
51.9906
 30
0.0
 11
108.383
 21
55.0912
 31
0.0
  0
LINE
  8
0
 62
     0
 10
108.383
 20
55.0912
 30
0.0
 11
107.582
 21
55.0912
 31
0.0
  0
LINE
  8
0
 62
     0
 10
107.582
 20
55.0912
 30
0.0
 11
107.582
 21
60.8902
 31
0.0
  0
LINE
  8
0
 62
     0
 10
107.582
 20
60.8902
 30
0.0
 11
108.383
 21
60.8902
 31
0.0
  0
LINE
  8
0
 62
     0
 10
108.383
 20
60.8902
 30
0.0
 11
108.383
 21
63.9907
 31
0.0
  0
LINE
  8
0
 62
     0
 10
108.383
 20
63.9907
 30
0.0
 11
107.582
 21
63.9907
 31
0.0
  0
LINE
  8
0
 62
     0
 10
107.582
 20
63.9907
 30
0.0
 11
107.582
 21
64.9912
 31
0.0
  0
LINE
  8
0
 62
     0
 10
107.582
 20
64.9912
 30
0.0
 11
93.5824
 21
64.9912
 31
0.0
  0
LINE
  8
0
 62
     0
 10
112.632
 20
64.9912
 30
0.0
 11
112.632
 21
63.9907
 31
0.0
  0
LINE
  8
0
 62
     0
 10
112.632
 20
63.9907
 30
0.0
 11
111.832
 21
63.9907
 31
0.0
  0
LINE
  8
0
 62
     0
 10
111.832
 20
63.9907
 30
0.0
 11
111.832
 21
60.8902
 31
0.0
  0
LINE
  8
0
 62
     0
 10
111.832
 20
60.8902
 30
0.0
 11
112.632
 21
60.8902
 31
0.0
  0
LINE
  8
0
 62
     0
 10
112.632
 20
60.8902
 30
0.0
 11
112.632
 21
55.0912
 31
0.0
  0
LINE
  8
0
 62
     0
 10
112.632
 20
55.0912
 30
0.0
 11
111.832
 21
55.0912
 31
0.0
  0
LINE
  8
0
 62
     0
 10
111.832
 20
55.0912
 30
0.0
 11
111.832
 21
51.9906
 31
0.0
  0
LINE
  8
0
 62
     0
 10
111.832
 20
51.9906
 30
0.0
 11
112.632
 21
51.9906
 31
0.0
  0
LINE
  8
0
 62
     0
 10
112.632
 20
51.9906
 30
0.0
 11
112.632
 21
50.9901
 31
0.0
  0
LINE
  8
0
 62
     0
 10
112.632
 20
50.9901
 30
0.0
 11
126.632
 21
50.9901
 31
0.0
  0
LINE
  8
0
 62
     0
 10
126.632
 20
50.9901
 30
0.0
 11
126.632
 21
51.9906
 31
0.0
  0
LINE
  8
0
 62
     0
 10
126.632
 20
51.9906
 30
0.0
 11
127.433
 21
51.9906
 31
0.0
  0
LINE
  8
0
 62
     0
 10
127.433
 20
51.9906
 30
0.0
 11
127.433
 21
55.0912
 31
0.0
  0
LINE
  8
0
 62
     0
 10
127.433
 20
55.0912
 30
0.0
 11
126.632
 21
55.0912
 31
0.0
  0
LINE
  8
0
 62
     0
 10
126.632
 20
55.0912
 30
0.0
 11
126.632
 21
60.8902
 31
0.0
  0
LINE
  8
0
 62
     0
 10
126.632
 20
60.8902
 30
0.0
 11
127.433
 21
60.8902
 31
0.0
  0
LINE
  8
0
 62
     0
 10
127.433
 20
60.8902
 30
0.0
 11
127.433
 21
63.9907
 31
0.0
  0
LINE
  8
0
 62
     0
 10
127.433
 20
63.9907
 30
0.0
 11
126.632
 21
63.9907
 31
0.0
  0
LINE
  8
0
 62
     0
 10
126.632
 20
63.9907
 30
0.0
 11
126.632
 21
64.9912
 31
0.0
  0
LINE
  8
0
 62
     0
 10
126.632
 20
64.9912
 30
0.0
 11
112.632
 21
64.9912
 31
0.0
  0
LINE
  8
0
 62
     0
 10
12.6201
 20
84.0412
 30
0.0
 11
12.6201
 21
83.0407
 31
0.0
  0
LINE
  8
0
 62
     0
 10
12.6201
 20
83.0407
 30
0.0
 11
11.8194
 21
83.0407
 31
0.0
  0
LINE
  8
0
 62
     0
 10
11.8194
 20
83.0407
 30
0.0
 11
11.8194
 21
79.9402
 31
0.0
  0
LINE
  8
0
 62
     0
 10
11.8194
 20
79.9402
 30
0.0
 11
12.6201
 21
79.9402
 31
0.0
  0
LINE
  8
0
 62
     0
 10
12.6201
 20
79.9402
 30
0.0
 11
12.6201
 21
74.1412
 31
0.0
  0
LINE
  8
0
 62
     0
 10
12.6201
 20
74.1412
 30
0.0
 11
11.8194
 21
74.1412
 31
0.0
  0
LINE
  8
0
 62
     0
 10
11.8194
 20
74.1412
 30
0.0
 11
11.8194
 21
71.0406
 31
0.0
  0
LINE
  8
0
 62
     0
 10
11.8194
 20
71.0406
 30
0.0
 11
12.6201
 21
71.0406
 31
0.0
  0
LINE
  8
0
 62
     0
 10
12.6201
 20
71.0406
 30
0.0
 11
12.6201
 21
70.0401
 31
0.0
  0
LINE
  8
0
 62
     0
 10
12.6201
 20
70.0401
 30
0.0
 11
26.6209
 21
70.0401
 31
0.0
  0
LINE
  8
0
 62
     0
 10
26.6209
 20
70.0401
 30
0.0
 11
26.6209
 21
71.0406
 31
0.0
  0
LINE
  8
0
 62
     0
 10
26.6209
 20
71.0406
 30
0.0
 11
27.4188
 21
71.0406
 31
0.0
  0
LINE
  8
0
 62
     0
 10
27.4188
 20
71.0406
 30
0.0
 11
27.4188
 21
74.1412
 31
0.0
  0
LINE
  8
0
 62
     0
 10
27.4188
 20
74.1412
 30
0.0
 11
26.6209
 21
74.1412
 31
0.0
  0
LINE
  8
0
 62
     0
 10
26.6209
 20
74.1412
 30
0.0
 11
26.6209
 21
79.9402
 31
0.0
  0
LINE
  8
0
 62
     0
 10
26.6209
 20
79.9402
 30
0.0
 11
27.4188
 21
79.9402
 31
0.0
  0
LINE
  8
0
 62
     0
 10
27.4188
 20
79.9402
 30
0.0
 11
27.4188
 21
83.0407
 31
0.0
  0
LINE
  8
0
 62
     0
 10
27.4188
 20
83.0407
 30
0.0
 11
26.6209
 21
83.0407
 31
0.0
  0
LINE
  8
0
 62
     0
 10
26.6209
 20
83.0407
 30
0.0
 11
26.6209
 21
84.0412
 31
0.0
  0
LINE
  8
0
 62
     0
 10
26.6209
 20
84.0412
 30
0.0
 11
12.6201
 21
84.0412
 31
0.0
  0
LINE
  8
0
 62
     0
 10
31.6701
 20
84.0412
 30
0.0
 11
31.6701
 21
83.0407
 31
0.0
  0
LINE
  8
0
 62
     0
 10
31.6701
 20
83.0407
 30
0.0
 11
30.8708
 21
83.0407
 31
0.0
  0
LINE
  8
0
 62
     0
 10
30.8708
 20
83.0407
 30
0.0
 11
30.8708
 21
79.9402
 31
0.0
  0
LINE
  8
0
 62
     0
 10
30.8708
 20
79.9402
 30
0.0
 11
31.6701
 21
79.9402
 31
0.0
  0
LINE
  8
0
 62
     0
 10
31.6701
 20
79.9402
 30
0.0
 11
31.6701
 21
74.1412
 31
0.0
  0
LINE
  8
0
 62
     0
 10
31.6701
 20
74.1412
 30
0.0
 11
30.8708
 21
74.1412
 31
0.0
  0
LINE
  8
0
 62
     0
 10
30.8708
 20
74.1412
 30
0.0
 11
30.8708
 21
71.0406
 31
0.0
  0
LINE
  8
0
 62
     0
 10
30.8708
 20
71.0406
 30
0.0
 11
31.6701
 21
71.0406
 31
0.0
  0
LINE
  8
0
 62
     0
 10
31.6701
 20
71.0406
 30
0.0
 11
31.6701
 21
70.0401
 31
0.0
  0
LINE
  8
0
 62
     0
 10
31.6701
 20
70.0401
 30
0.0
 11
45.671
 21
70.0401
 31
0.0
  0
LINE
  8
0
 62
     0
 10
45.671
 20
70.0401
 30
0.0
 11
45.671
 21
71.0406
 31
0.0
  0
LINE
  8
0
 62
     0
 10
45.671
 20
71.0406
 30
0.0
 11
46.4704
 21
71.0406
 31
0.0
  0
LINE
  8
0
 62
     0
 10
46.4704
 20
71.0406
 30
0.0
 11
46.4704
 21
74.1412
 31
0.0
  0
LINE
  8
0
 62
     0
 10
46.4704
 20
74.1412
 30
0.0
 11
45.671
 21
74.1412
 31
0.0
  0
LINE
  8
0
 62
     0
 10
45.671
 20
74.1412
 30
0.0
 11
45.671
 21
79.9402
 31
0.0
  0
LINE
  8
0
 62
     0
 10
45.671
 20
79.9402
 30
0.0
 11
46.4704
 21
79.9402
 31
0.0
  0
LINE
  8
0
 62
     0
 10
46.4704
 20
79.9402
 30
0.0
 11
46.4704
 21
83.0407
 31
0.0
  0
LINE
  8
0
 62
     0
 10
46.4704
 20
83.0407
 30
0.0
 11
45.671
 21
83.0407
 31
0.0
  0
LINE
  8
0
 62
     0
 10
45.671
 20
83.0407
 30
0.0
 11
45.671
 21
84.0412
 31
0.0
  0
LINE
  8
0
 62
     0
 10
45.671
 20
84.0412
 30
0.0
 11
31.6701
 21
84.0412
 31
0.0
  0
LINE
  8
0
 62
     0
 10
50.7199
 20
84.0412
 30
0.0
 11
50.7199
 21
83.0407
 31
0.0
  0
LINE
  8
0
 62
     0
 10
50.7199
 20
83.0407
 30
0.0
 11
49.9209
 21
83.0407
 31
0.0
  0
LINE
  8
0
 62
     0
 10
49.9209
 20
83.0407
 30
0.0
 11
49.9209
 21
79.9402
 31
0.0
  0
LINE
  8
0
 62
     0
 10
49.9209
 20
79.9402
 30
0.0
 11
50.7199
 21
79.9402
 31
0.0
  0
LINE
  8
0
 62
     0
 10
50.7199
 20
79.9402
 30
0.0
 11
50.7199
 21
74.1412
 31
0.0
  0
LINE
  8
0
 62
     0
 10
50.7199
 20
74.1412
 30
0.0
 11
49.9209
 21
74.1412
 31
0.0
  0
LINE
  8
0
 62
     0
 10
49.9209
 20
74.1412
 30
0.0
 11
49.9209
 21
71.0406
 31
0.0
  0
LINE
  8
0
 62
     0
 10
49.9209
 20
71.0406
 30
0.0
 11
50.7199
 21
71.0406
 31
0.0
  0
LINE
  8
0
 62
     0
 10
50.7199
 20
71.0406
 30
0.0
 11
50.7199
 21
70.0401
 31
0.0
  0
LINE
  8
0
 62
     0
 10
50.7199
 20
70.0401
 30
0.0
 11
64.721
 21
70.0401
 31
0.0
  0
LINE
  8
0
 62
     0
 10
64.721
 20
70.0401
 30
0.0
 11
64.721
 21
71.0406
 31
0.0
  0
LINE
  8
0
 62
     0
 10
64.721
 20
71.0406
 30
0.0
 11
65.5204
 21
71.0406
 31
0.0
  0
LINE
  8
0
 62
     0
 10
65.5204
 20
71.0406
 30
0.0
 11
65.5204
 21
74.1412
 31
0.0
  0
LINE
  8
0
 62
     0
 10
65.5204
 20
74.1412
 30
0.0
 11
64.721
 21
74.1412
 31
0.0
  0
LINE
  8
0
 62
     0
 10
64.721
 20
74.1412
 30
0.0
 11
64.721
 21
79.9402
 31
0.0
  0
LINE
  8
0
 62
     0
 10
64.721
 20
79.9402
 30
0.0
 11
65.5204
 21
79.9402
 31
0.0
  0
LINE
  8
0
 62
     0
 10
65.5204
 20
79.9402
 30
0.0
 11
65.5204
 21
83.0407
 31
0.0
  0
LINE
  8
0
 62
     0
 10
65.5204
 20
83.0407
 30
0.0
 11
64.721
 21
83.0407
 31
0.0
  0
LINE
  8
0
 62
     0
 10
64.721
 20
83.0407
 30
0.0
 11
64.721
 21
84.0412
 31
0.0
  0
LINE
  8
0
 62
     0
 10
64.721
 20
84.0412
 30
0.0
 11
50.7199
 21
84.0412
 31
0.0
  0
LINE
  8
0
 62
     0
 10
69.7699
 20
84.0412
 30
0.0
 11
69.7699
 21
83.0407
 31
0.0
  0
LINE
  8
0
 62
     0
 10
69.7699
 20
83.0407
 30
0.0
 11
68.9709
 21
83.0407
 31
0.0
  0
LINE
  8
0
 62
     0
 10
68.9709
 20
83.0407
 30
0.0
 11
68.9709
 21
79.9402
 31
0.0
  0
LINE
  8
0
 62
     0
 10
68.9709
 20
79.9402
 30
0.0
 11
69.7699
 21
79.9402
 31
0.0
  0
LINE
  8
0
 62
     0
 10
69.7699
 20
79.9402
 30
0.0
 11
69.7699
 21
74.1412
 31
0.0
  0
LINE
  8
0
 62
     0
 10
69.7699
 20
74.1412
 30
0.0
 11
68.9709
 21
74.1412
 31
0.0
  0
LINE
  8
0
 62
     0
 10
68.9709
 20
74.1412
 30
0.0
 11
68.9709
 21
71.0406
 31
0.0
  0
LINE
  8
0
 62
     0
 10
68.9709
 20
71.0406
 30
0.0
 11
69.7699
 21
71.0406
 31
0.0
  0
LINE
  8
0
 62
     0
 10
69.7699
 20
71.0406
 30
0.0
 11
69.7699
 21
70.0401
 31
0.0
  0
LINE
  8
0
 62
     0
 10
69.7699
 20
70.0401
 30
0.0
 11
83.771
 21
70.0401
 31
0.0
  0
LINE
  8
0
 62
     0
 10
83.771
 20
70.0401
 30
0.0
 11
83.771
 21
71.0406
 31
0.0
  0
LINE
  8
0
 62
     0
 10
83.771
 20
71.0406
 30
0.0
 11
84.5704
 21
71.0406
 31
0.0
  0
LINE
  8
0
 62
     0
 10
84.5704
 20
71.0406
 30
0.0
 11
84.5704
 21
74.1412
 31
0.0
  0
LINE
  8
0
 62
     0
 10
84.5704
 20
74.1412
 30
0.0
 11
83.771
 21
74.1412
 31
0.0
  0
LINE
  8
0
 62
     0
 10
83.771
 20
74.1412
 30
0.0
 11
83.771
 21
79.9402
 31
0.0
  0
LINE
  8
0
 62
     0
 10
83.771
 20
79.9402
 30
0.0
 11
84.5704
 21
79.9402
 31
0.0
  0
LINE
  8
0
 62
     0
 10
84.5704
 20
79.9402
 30
0.0
 11
84.5704
 21
83.0407
 31
0.0
  0
LINE
  8
0
 62
     0
 10
84.5704
 20
83.0407
 30
0.0
 11
83.771
 21
83.0407
 31
0.0
  0
LINE
  8
0
 62
     0
 10
83.771
 20
83.0407
 30
0.0
 11
83.771
 21
84.0412
 31
0.0
  0
LINE
  8
0
 62
     0
 10
83.771
 20
84.0412
 30
0.0
 11
69.7699
 21
84.0412
 31
0.0
  0
LINE
  8
0
 62
     0
 10
88.8199
 20
84.0412
 30
0.0
 11
88.8199
 21
83.0407
 31
0.0
  0
LINE
  8
0
 62
     0
 10
88.8199
 20
83.0407
 30
0.0
 11
88.0209
 21
83.0407
 31
0.0
  0
LINE
  8
0
 62
     0
 10
88.0209
 20
83.0407
 30
0.0
 11
88.0209
 21
79.9402
 31
0.0
  0
LINE
  8
0
 62
     0
 10
88.0209
 20
79.9402
 30
0.0
 11
88.8199
 21
79.9402
 31
0.0
  0
LINE
  8
0
 62
     0
 10
88.8199
 20
79.9402
 30
0.0
 11
88.8199
 21
74.1412
 31
0.0
  0
LINE
  8
0
 62
     0
 10
88.8199
 20
74.1412
 30
0.0
 11
88.0209
 21
74.1412
 31
0.0
  0
LINE
  8
0
 62
     0
 10
88.0209
 20
74.1412
 30
0.0
 11
88.0209
 21
71.0406
 31
0.0
  0
LINE
  8
0
 62
     0
 10
88.0209
 20
71.0406
 30
0.0
 11
88.8199
 21
71.0406
 31
0.0
  0
LINE
  8
0
 62
     0
 10
88.8199
 20
71.0406
 30
0.0
 11
88.8199
 21
70.0401
 31
0.0
  0
LINE
  8
0
 62
     0
 10
88.8199
 20
70.0401
 30
0.0
 11
102.821
 21
70.0401
 31
0.0
  0
LINE
  8
0
 62
     0
 10
102.821
 20
70.0401
 30
0.0
 11
102.821
 21
71.0406
 31
0.0
  0
LINE
  8
0
 62
     0
 10
102.821
 20
71.0406
 30
0.0
 11
103.619
 21
71.0406
 31
0.0
  0
LINE
  8
0
 62
     0
 10
103.619
 20
71.0406
 30
0.0
 11
103.619
 21
74.1412
 31
0.0
  0
LINE
  8
0
 62
     0
 10
103.619
 20
74.1412
 30
0.0
 11
102.821
 21
74.1412
 31
0.0
  0
LINE
  8
0
 62
     0
 10
102.821
 20
74.1412
 30
0.0
 11
102.821
 21
79.9402
 31
0.0
  0
LINE
  8
0
 62
     0
 10
102.821
 20
79.9402
 30
0.0
 11
103.619
 21
79.9402
 31
0.0
  0
LINE
  8
0
 62
     0
 10
103.619
 20
79.9402
 30
0.0
 11
103.619
 21
83.0407
 31
0.0
  0
LINE
  8
0
 62
     0
 10
103.619
 20
83.0407
 30
0.0
 11
102.821
 21
83.0407
 31
0.0
  0
LINE
  8
0
 62
     0
 10
102.821
 20
83.0407
 30
0.0
 11
102.821
 21
84.0412
 31
0.0
  0
LINE
  8
0
 62
     0
 10
102.821
 20
84.0412
 30
0.0
 11
88.8199
 21
84.0412
 31
0.0
  0
LINE
  8
0
 62
     0
 10
107.87
 20
84.0412
 30
0.0
 11
107.87
 21
83.0407
 31
0.0
  0
LINE
  8
0
 62
     0
 10
107.87
 20
83.0407
 30
0.0
 11
107.071
 21
83.0407
 31
0.0
  0
LINE
  8
0
 62
     0
 10
107.071
 20
83.0407
 30
0.0
 11
107.071
 21
79.9402
 31
0.0
  0
LINE
  8
0
 62
     0
 10
107.071
 20
79.9402
 30
0.0
 11
107.87
 21
79.9402
 31
0.0
  0
LINE
  8
0
 62
     0
 10
107.87
 20
79.9402
 30
0.0
 11
107.87
 21
74.1412
 31
0.0
  0
LINE
  8
0
 62
     0
 10
107.87
 20
74.1412
 30
0.0
 11
107.071
 21
74.1412
 31
0.0
  0
LINE
  8
0
 62
     0
 10
107.071
 20
74.1412
 30
0.0
 11
107.071
 21
71.0406
 31
0.0
  0
LINE
  8
0
 62
     0
 10
107.071
 20
71.0406
 30
0.0
 11
107.87
 21
71.0406
 31
0.0
  0
LINE
  8
0
 62
     0
 10
107.87
 20
71.0406
 30
0.0
 11
107.87
 21
70.0401
 31
0.0
  0
LINE
  8
0
 62
     0
 10
107.87
 20
70.0401
 30
0.0
 11
121.87
 21
70.0401
 31
0.0
  0
LINE
  8
0
 62
     0
 10
121.87
 20
70.0401
 30
0.0
 11
121.87
 21
71.0406
 31
0.0
  0
LINE
  8
0
 62
     0
 10
121.87
 20
71.0406
 30
0.0
 11
122.669
 21
71.0406
 31
0.0
  0
LINE
  8
0
 62
     0
 10
122.669
 20
71.0406
 30
0.0
 11
122.669
 21
74.1412
 31
0.0
  0
LINE
  8
0
 62
     0
 10
122.669
 20
74.1412
 30
0.0
 11
121.87
 21
74.1412
 31
0.0
  0
LINE
  8
0
 62
     0
 10
121.87
 20
74.1412
 30
0.0
 11
121.87
 21
79.9402
 31
0.0
  0
LINE
  8
0
 62
     0
 10
121.87
 20
79.9402
 30
0.0
 11
122.669
 21
79.9402
 31
0.0
  0
LINE
  8
0
 62
     0
 10
122.669
 20
79.9402
 30
0.0
 11
122.669
 21
83.0407
 31
0.0
  0
LINE
  8
0
 62
     0
 10
122.669
 20
83.0407
 30
0.0
 11
121.87
 21
83.0407
 31
0.0
  0
LINE
  8
0
 62
     0
 10
121.87
 20
83.0407
 30
0.0
 11
121.87
 21
84.0412
 31
0.0
  0
LINE
  8
0
 62
     0
 10
121.87
 20
84.0412
 30
0.0
 11
107.87
 21
84.0412
 31
0.0
  0
LINE
  8
0
 62
     0
 10
126.92
 20
84.0412
 30
0.0
 11
126.92
 21
83.0407
 31
0.0
  0
LINE
  8
0
 62
     0
 10
126.92
 20
83.0407
 30
0.0
 11
126.119
 21
83.0407
 31
0.0
  0
LINE
  8
0
 62
     0
 10
126.119
 20
83.0407
 30
0.0
 11
126.119
 21
79.9402
 31
0.0
  0
LINE
  8
0
 62
     0
 10
126.119
 20
79.9402
 30
0.0
 11
126.92
 21
79.9402
 31
0.0
  0
LINE
  8
0
 62
     0
 10
126.92
 20
79.9402
 30
0.0
 11
126.92
 21
74.1412
 31
0.0
  0
LINE
  8
0
 62
     0
 10
126.92
 20
74.1412
 30
0.0
 11
126.119
 21
74.1412
 31
0.0
  0
LINE
  8
0
 62
     0
 10
126.119
 20
74.1412
 30
0.0
 11
126.119
 21
71.0406
 31
0.0
  0
LINE
  8
0
 62
     0
 10
126.119
 20
71.0406
 30
0.0
 11
126.92
 21
71.0406
 31
0.0
  0
LINE
  8
0
 62
     0
 10
126.92
 20
71.0406
 30
0.0
 11
126.92
 21
70.0401
 31
0.0
  0
LINE
  8
0
 62
     0
 10
126.92
 20
70.0401
 30
0.0
 11
140.921
 21
70.0401
 31
0.0
  0
LINE
  8
0
 62
     0
 10
140.921
 20
70.0401
 30
0.0
 11
140.921
 21
71.0406
 31
0.0
  0
LINE
  8
0
 62
     0
 10
140.921
 20
71.0406
 30
0.0
 11
141.72
 21
71.0406
 31
0.0
  0
LINE
  8
0
 62
     0
 10
141.72
 20
71.0406
 30
0.0
 11
141.72
 21
74.1412
 31
0.0
  0
LINE
  8
0
 62
     0
 10
141.72
 20
74.1412
 30
0.0
 11
140.921
 21
74.1412
 31
0.0
  0
LINE
  8
0
 62
     0
 10
140.921
 20
74.1412
 30
0.0
 11
140.921
 21
79.9402
 31
0.0
  0
LINE
  8
0
 62
     0
 10
140.921
 20
79.9402
 30
0.0
 11
141.72
 21
79.9402
 31
0.0
  0
LINE
  8
0
 62
     0
 10
141.72
 20
79.9402
 30
0.0
 11
141.72
 21
83.0407
 31
0.0
  0
LINE
  8
0
 62
     0
 10
141.72
 20
83.0407
 30
0.0
 11
140.921
 21
83.0407
 31
0.0
  0
LINE
  8
0
 62
     0
 10
140.921
 20
83.0407
 30
0.0
 11
140.921
 21
84.0412
 31
0.0
  0
LINE
  8
0
 62
     0
 10
140.921
 20
84.0412
 30
0.0
 11
126.92
 21
84.0412
 31
0.0
  0
LINE
  8
0
 62
     0
 10
150.732
 20
84.0412
 30
0.0
 11
150.732
 21
83.0407
 31
0.0
  0
LINE
  8
0
 62
     0
 10
150.732
 20
83.0407
 30
0.0
 11
149.932
 21
83.0407
 31
0.0
  0
LINE
  8
0
 62
     0
 10
149.932
 20
83.0407
 30
0.0
 11
149.932
 21
79.9402
 31
0.0
  0
LINE
  8
0
 62
     0
 10
149.932
 20
79.9402
 30
0.0
 11
150.732
 21
79.9402
 31
0.0
  0
LINE
  8
0
 62
     0
 10
150.732
 20
79.9402
 30
0.0
 11
150.732
 21
74.1412
 31
0.0
  0
LINE
  8
0
 62
     0
 10
150.732
 20
74.1412
 30
0.0
 11
149.932
 21
74.1412
 31
0.0
  0
LINE
  8
0
 62
     0
 10
149.932
 20
74.1412
 30
0.0
 11
149.932
 21
71.0406
 31
0.0
  0
LINE
  8
0
 62
     0
 10
149.932
 20
71.0406
 30
0.0
 11
150.732
 21
71.0406
 31
0.0
  0
LINE
  8
0
 62
     0
 10
150.732
 20
71.0406
 30
0.0
 11
150.732
 21
70.0401
 31
0.0
  0
LINE
  8
0
 62
     0
 10
150.732
 20
70.0401
 30
0.0
 11
164.732
 21
70.0401
 31
0.0
  0
LINE
  8
0
 62
     0
 10
164.732
 20
70.0401
 30
0.0
 11
164.732
 21
71.0406
 31
0.0
  0
LINE
  8
0
 62
     0
 10
164.732
 20
71.0406
 30
0.0
 11
165.533
 21
71.0406
 31
0.0
  0
LINE
  8
0
 62
     0
 10
165.533
 20
71.0406
 30
0.0
 11
165.533
 21
74.1412
 31
0.0
  0
LINE
  8
0
 62
     0
 10
165.533
 20
74.1412
 30
0.0
 11
164.732
 21
74.1412
 31
0.0
  0
LINE
  8
0
 62
     0
 10
164.732
 20
74.1412
 30
0.0
 11
164.732
 21
79.9402
 31
0.0
  0
LINE
  8
0
 62
     0
 10
164.732
 20
79.9402
 30
0.0
 11
165.533
 21
79.9402
 31
0.0
  0
LINE
  8
0
 62
     0
 10
165.533
 20
79.9402
 30
0.0
 11
165.533
 21
83.0407
 31
0.0
  0
LINE
  8
0
 62
     0
 10
165.533
 20
83.0407
 30
0.0
 11
164.732
 21
83.0407
 31
0.0
  0
LINE
  8
0
 62
     0
 10
164.732
 20
83.0407
 30
0.0
 11
164.732
 21
84.0412
 31
0.0
  0
LINE
  8
0
 62
     0
 10
164.732
 20
84.0412
 30
0.0
 11
150.732
 21
84.0412
 31
0.0
  0
LINE
  8
0
 62
     0
 10
179.307
 20
84.0412
 30
0.0
 11
179.307
 21
83.0407
 31
0.0
  0
LINE
  8
0
 62
     0
 10
179.307
 20
83.0407
 30
0.0
 11
178.507
 21
83.0407
 31
0.0
  0
LINE
  8
0
 62
     0
 10
178.507
 20
83.0407
 30
0.0
 11
178.507
 21
79.9402
 31
0.0
  0
LINE
  8
0
 62
     0
 10
178.507
 20
79.9402
 30
0.0
 11
179.307
 21
79.9402
 31
0.0
  0
LINE
  8
0
 62
     0
 10
179.307
 20
79.9402
 30
0.0
 11
179.307
 21
74.1412
 31
0.0
  0
LINE
  8
0
 62
     0
 10
179.307
 20
74.1412
 30
0.0
 11
178.507
 21
74.1412
 31
0.0
  0
LINE
  8
0
 62
     0
 10
178.507
 20
74.1412
 30
0.0
 11
178.507
 21
71.0406
 31
0.0
  0
LINE
  8
0
 62
     0
 10
178.507
 20
71.0406
 30
0.0
 11
179.307
 21
71.0406
 31
0.0
  0
LINE
  8
0
 62
     0
 10
179.307
 20
71.0406
 30
0.0
 11
179.307
 21
70.0401
 31
0.0
  0
LINE
  8
0
 62
     0
 10
179.307
 20
70.0401
 30
0.0
 11
193.307
 21
70.0401
 31
0.0
  0
LINE
  8
0
 62
     0
 10
193.307
 20
70.0401
 30
0.0
 11
193.307
 21
71.0406
 31
0.0
  0
LINE
  8
0
 62
     0
 10
193.307
 20
71.0406
 30
0.0
 11
194.108
 21
71.0406
 31
0.0
  0
LINE
  8
0
 62
     0
 10
194.108
 20
71.0406
 30
0.0
 11
194.108
 21
74.1412
 31
0.0
  0
LINE
  8
0
 62
     0
 10
194.108
 20
74.1412
 30
0.0
 11
193.307
 21
74.1412
 31
0.0
  0
LINE
  8
0
 62
     0
 10
193.307
 20
74.1412
 30
0.0
 11
193.307
 21
79.9402
 31
0.0
  0
LINE
  8
0
 62
     0
 10
193.307
 20
79.9402
 30
0.0
 11
194.108
 21
79.9402
 31
0.0
  0
LINE
  8
0
 62
     0
 10
194.108
 20
79.9402
 30
0.0
 11
194.108
 21
83.0407
 31
0.0
  0
LINE
  8
0
 62
     0
 10
194.108
 20
83.0407
 30
0.0
 11
193.307
 21
83.0407
 31
0.0
  0
LINE
  8
0
 62
     0
 10
193.307
 20
83.0407
 30
0.0
 11
193.307
 21
84.0412
 31
0.0
  0
LINE
  8
0
 62
     0
 10
193.307
 20
84.0412
 30
0.0
 11
179.307
 21
84.0412
 31
0.0
  0
LINE
  8
0
 62
     0
 10
198.357
 20
84.0412
 30
0.0
 11
198.357
 21
83.0407
 31
0.0
  0
LINE
  8
0
 62
     0
 10
198.357
 20
83.0407
 30
0.0
 11
197.557
 21
83.0407
 31
0.0
  0
LINE
  8
0
 62
     0
 10
197.557
 20
83.0407
 30
0.0
 11
197.557
 21
79.9402
 31
0.0
  0
LINE
  8
0
 62
     0
 10
197.557
 20
79.9402
 30
0.0
 11
198.357
 21
79.9402
 31
0.0
  0
LINE
  8
0
 62
     0
 10
198.357
 20
79.9402
 30
0.0
 11
198.357
 21
74.1412
 31
0.0
  0
LINE
  8
0
 62
     0
 10
198.357
 20
74.1412
 30
0.0
 11
197.557
 21
74.1412
 31
0.0
  0
LINE
  8
0
 62
     0
 10
197.557
 20
74.1412
 30
0.0
 11
197.557
 21
71.0406
 31
0.0
  0
LINE
  8
0
 62
     0
 10
197.557
 20
71.0406
 30
0.0
 11
198.357
 21
71.0406
 31
0.0
  0
LINE
  8
0
 62
     0
 10
198.357
 20
71.0406
 30
0.0
 11
198.357
 21
70.0401
 31
0.0
  0
LINE
  8
0
 62
     0
 10
198.357
 20
70.0401
 30
0.0
 11
212.357
 21
70.0401
 31
0.0
  0
LINE
  8
0
 62
     0
 10
212.357
 20
70.0401
 30
0.0
 11
212.357
 21
71.0406
 31
0.0
  0
LINE
  8
0
 62
     0
 10
212.357
 20
71.0406
 30
0.0
 11
213.158
 21
71.0406
 31
0.0
  0
LINE
  8
0
 62
     0
 10
213.158
 20
71.0406
 30
0.0
 11
213.158
 21
74.1412
 31
0.0
  0
LINE
  8
0
 62
     0
 10
213.158
 20
74.1412
 30
0.0
 11
212.357
 21
74.1412
 31
0.0
  0
LINE
  8
0
 62
     0
 10
212.357
 20
74.1412
 30
0.0
 11
212.357
 21
79.9402
 31
0.0
  0
LINE
  8
0
 62
     0
 10
212.357
 20
79.9402
 30
0.0
 11
213.158
 21
79.9402
 31
0.0
  0
LINE
  8
0
 62
     0
 10
213.158
 20
79.9402
 30
0.0
 11
213.158
 21
83.0407
 31
0.0
  0
LINE
  8
0
 62
     0
 10
213.158
 20
83.0407
 30
0.0
 11
212.357
 21
83.0407
 31
0.0
  0
LINE
  8
0
 62
     0
 10
212.357
 20
83.0407
 30
0.0
 11
212.357
 21
84.0412
 31
0.0
  0
LINE
  8
0
 62
     0
 10
212.357
 20
84.0412
 30
0.0
 11
198.357
 21
84.0412
 31
0.0
  0
LINE
  8
0
 62
     0
 10
217.407
 20
84.0412
 30
0.0
 11
217.407
 21
83.0407
 31
0.0
  0
LINE
  8
0
 62
     0
 10
217.407
 20
83.0407
 30
0.0
 11
216.607
 21
83.0407
 31
0.0
  0
LINE
  8
0
 62
     0
 10
216.607
 20
83.0407
 30
0.0
 11
216.607
 21
79.9402
 31
0.0
  0
LINE
  8
0
 62
     0
 10
216.607
 20
79.9402
 30
0.0
 11
217.407
 21
79.9402
 31
0.0
  0
LINE
  8
0
 62
     0
 10
217.407
 20
79.9402
 30
0.0
 11
217.407
 21
74.1412
 31
0.0
  0
LINE
  8
0
 62
     0
 10
217.407
 20
74.1412
 30
0.0
 11
216.607
 21
74.1412
 31
0.0
  0
LINE
  8
0
 62
     0
 10
216.607
 20
74.1412
 30
0.0
 11
216.607
 21
71.0406
 31
0.0
  0
LINE
  8
0
 62
     0
 10
216.607
 20
71.0406
 30
0.0
 11
217.407
 21
71.0406
 31
0.0
  0
LINE
  8
0
 62
     0
 10
217.407
 20
71.0406
 30
0.0
 11
217.407
 21
70.0401
 31
0.0
  0
LINE
  8
0
 62
     0
 10
217.407
 20
70.0401
 30
0.0
 11
231.407
 21
70.0401
 31
0.0
  0
LINE
  8
0
 62
     0
 10
231.407
 20
70.0401
 30
0.0
 11
231.407
 21
71.0406
 31
0.0
  0
LINE
  8
0
 62
     0
 10
231.407
 20
71.0406
 30
0.0
 11
232.208
 21
71.0406
 31
0.0
  0
LINE
  8
0
 62
     0
 10
232.208
 20
71.0406
 30
0.0
 11
232.208
 21
74.1412
 31
0.0
  0
LINE
  8
0
 62
     0
 10
232.208
 20
74.1412
 30
0.0
 11
231.407
 21
74.1412
 31
0.0
  0
LINE
  8
0
 62
     0
 10
231.407
 20
74.1412
 30
0.0
 11
231.407
 21
79.9402
 31
0.0
  0
LINE
  8
0
 62
     0
 10
231.407
 20
79.9402
 30
0.0
 11
232.208
 21
79.9402
 31
0.0
  0
LINE
  8
0
 62
     0
 10
232.208
 20
79.9402
 30
0.0
 11
232.208
 21
83.0407
 31
0.0
  0
LINE
  8
0
 62
     0
 10
232.208
 20
83.0407
 30
0.0
 11
231.407
 21
83.0407
 31
0.0
  0
LINE
  8
0
 62
     0
 10
231.407
 20
83.0407
 30
0.0
 11
231.407
 21
84.0412
 31
0.0
  0
LINE
  8
0
 62
     0
 10
231.407
 20
84.0412
 30
0.0
 11
217.407
 21
84.0412
 31
0.0
  0
LINE
  8
0
 62
     0
 10
145.97
 20
103.091
 30
0.0
 11
145.97
 21
102.091
 31
0.0
  0
LINE
  8
0
 62
     0
 10
145.97
 20
102.091
 30
0.0
 11
145.171
 21
102.091
 31
0.0
  0
LINE
  8
0
 62
     0
 10
145.171
 20
102.091
 30
0.0
 11
145.171
 21
98.9901
 31
0.0
  0
LINE
  8
0
 62
     0
 10
145.171
 20
98.9901
 30
0.0
 11
145.97
 21
98.9901
 31
0.0
  0
LINE
  8
0
 62
     0
 10
145.97
 20
98.9901
 30
0.0
 11
145.97
 21
98.3904
 31
0.0
  0
LINE
  8
0
 62
     0
 10
145.97
 20
98.3904
 30
0.0
 11
144.446
 21
98.3904
 31
0.0
  0
LINE
  8
0
 62
     0
 10
144.446
 20
98.3904
 30
0.0
 11
144.446
 21
101.621
 31
0.0
  0
LINE
  8
0
 62
     0
 10
144.446
 20
101.621
 30
0.0
 11
142.721
 21
101.621
 31
0.0
  0
LINE
  8
0
 62
     0
 10
142.721
 20
101.621
 30
0.0
 11
142.721
 21
102.541
 31
0.0
  0
LINE
  8
0
 62
     0
 10
142.721
 20
102.541
 30
0.0
 11
139.42
 21
102.541
 31
0.0
  0
LINE
  8
0
 62
     0
 10
139.42
 20
102.541
 30
0.0
 11
139.42
 21
101.621
 31
0.0
  0
LINE
  8
0
 62
     0
 10
139.42
 20
101.621
 30
0.0
 11
137.695
 21
101.621
 31
0.0
  0
LINE
  8
0
 62
     0
 10
137.695
 20
101.621
 30
0.0
 11
137.695
 21
98.3904
 31
0.0
  0
LINE
  8
0
 62
     0
 10
137.695
 20
98.3904
 30
0.0
 11
136.871
 21
98.3904
 31
0.0
  0
LINE
  8
0
 62
     0
 10
136.871
 20
98.3904
 30
0.0
 11
136.871
 21
95.5904
 31
0.0
  0
LINE
  8
0
 62
     0
 10
136.871
 20
95.5904
 30
0.0
 11
137.695
 21
95.5904
 31
0.0
  0
LINE
  8
0
 62
     0
 10
137.695
 20
95.5904
 30
0.0
 11
137.695
 21
89.3202
 31
0.0
  0
LINE
  8
0
 62
     0
 10
137.695
 20
89.3202
 30
0.0
 11
139.42
 21
89.3202
 31
0.0
  0
LINE
  8
0
 62
     0
 10
139.42
 20
89.3202
 30
0.0
 11
139.42
 21
88.3405
 31
0.0
  0
LINE
  8
0
 62
     0
 10
139.42
 20
88.3405
 30
0.0
 11
142.721
 21
88.3405
 31
0.0
  0
LINE
  8
0
 62
     0
 10
142.721
 20
88.3405
 30
0.0
 11
142.721
 21
89.3202
 31
0.0
  0
LINE
  8
0
 62
     0
 10
142.721
 20
89.3202
 30
0.0
 11
144.446
 21
89.3202
 31
0.0
  0
LINE
  8
0
 62
     0
 10
144.446
 20
89.3202
 30
0.0
 11
144.446
 21
93.7906
 31
0.0
  0
LINE
  8
0
 62
     0
 10
144.446
 20
93.7906
 30
0.0
 11
145.97
 21
93.7906
 31
0.0
  0
LINE
  8
0
 62
     0
 10
145.97
 20
93.7906
 30
0.0
 11
145.97
 21
93.1912
 31
0.0
  0
LINE
  8
0
 62
     0
 10
145.97
 20
93.1912
 30
0.0
 11
145.171
 21
93.1912
 31
0.0
  0
LINE
  8
0
 62
     0
 10
145.171
 20
93.1912
 30
0.0
 11
145.171
 21
90.0906
 31
0.0
  0
LINE
  8
0
 62
     0
 10
145.171
 20
90.0906
 30
0.0
 11
145.97
 21
90.0906
 31
0.0
  0
LINE
  8
0
 62
     0
 10
145.97
 20
90.0906
 30
0.0
 11
145.97
 21
89.0901
 31
0.0
  0
LINE
  8
0
 62
     0
 10
145.97
 20
89.0901
 30
0.0
 11
159.971
 21
89.0901
 31
0.0
  0
LINE
  8
0
 62
     0
 10
159.971
 20
89.0901
 30
0.0
 11
159.971
 21
90.0906
 31
0.0
  0
LINE
  8
0
 62
     0
 10
159.971
 20
90.0906
 30
0.0
 11
160.77
 21
90.0906
 31
0.0
  0
LINE
  8
0
 62
     0
 10
160.77
 20
90.0906
 30
0.0
 11
160.77
 21
93.1912
 31
0.0
  0
LINE
  8
0
 62
     0
 10
160.77
 20
93.1912
 30
0.0
 11
159.971
 21
93.1912
 31
0.0
  0
LINE
  8
0
 62
     0
 10
159.971
 20
93.1912
 30
0.0
 11
159.971
 21
93.7906
 31
0.0
  0
LINE
  8
0
 62
     0
 10
159.971
 20
93.7906
 30
0.0
 11
161.495
 21
93.7906
 31
0.0
  0
LINE
  8
0
 62
     0
 10
161.495
 20
93.7906
 30
0.0
 11
161.495
 21
89.3202
 31
0.0
  0
LINE
  8
0
 62
     0
 10
161.495
 20
89.3202
 30
0.0
 11
163.22
 21
89.3202
 31
0.0
  0
LINE
  8
0
 62
     0
 10
163.22
 20
89.3202
 30
0.0
 11
163.22
 21
88.3405
 31
0.0
  0
LINE
  8
0
 62
     0
 10
163.22
 20
88.3405
 30
0.0
 11
166.521
 21
88.3405
 31
0.0
  0
LINE
  8
0
 62
     0
 10
166.521
 20
88.3405
 30
0.0
 11
166.521
 21
89.3202
 31
0.0
  0
LINE
  8
0
 62
     0
 10
166.521
 20
89.3202
 30
0.0
 11
168.246
 21
89.3202
 31
0.0
  0
LINE
  8
0
 62
     0
 10
168.246
 20
89.3202
 30
0.0
 11
168.246
 21
95.5904
 31
0.0
  0
LINE
  8
0
 62
     0
 10
168.246
 20
95.5904
 30
0.0
 11
169.07
 21
95.5904
 31
0.0
  0
LINE
  8
0
 62
     0
 10
169.07
 20
95.5904
 30
0.0
 11
169.07
 21
98.3904
 31
0.0
  0
LINE
  8
0
 62
     0
 10
169.07
 20
98.3904
 30
0.0
 11
168.246
 21
98.3904
 31
0.0
  0
LINE
  8
0
 62
     0
 10
168.246
 20
98.3904
 30
0.0
 11
168.246
 21
101.621
 31
0.0
  0
LINE
  8
0
 62
     0
 10
168.246
 20
101.621
 30
0.0
 11
166.521
 21
101.621
 31
0.0
  0
LINE
  8
0
 62
     0
 10
166.521
 20
101.621
 30
0.0
 11
166.521
 21
102.541
 31
0.0
  0
LINE
  8
0
 62
     0
 10
166.521
 20
102.541
 30
0.0
 11
163.22
 21
102.541
 31
0.0
  0
LINE
  8
0
 62
     0
 10
163.22
 20
102.541
 30
0.0
 11
163.22
 21
101.621
 31
0.0
  0
LINE
  8
0
 62
     0
 10
163.22
 20
101.621
 30
0.0
 11
161.495
 21
101.621
 31
0.0
  0
LINE
  8
0
 62
     0
 10
161.495
 20
101.621
 30
0.0
 11
161.495
 21
98.3904
 31
0.0
  0
LINE
  8
0
 62
     0
 10
161.495
 20
98.3904
 30
0.0
 11
159.971
 21
98.3904
 31
0.0
  0
LINE
  8
0
 62
     0
 10
159.971
 20
98.3904
 30
0.0
 11
159.971
 21
98.9901
 31
0.0
  0
LINE
  8
0
 62
     0
 10
159.971
 20
98.9901
 30
0.0
 11
160.77
 21
98.9901
 31
0.0
  0
LINE
  8
0
 62
     0
 10
160.77
 20
98.9901
 30
0.0
 11
160.77
 21
102.091
 31
0.0
  0
LINE
  8
0
 62
     0
 10
160.77
 20
102.091
 30
0.0
 11
159.971
 21
102.091
 31
0.0
  0
LINE
  8
0
 62
     0
 10
159.971
 20
102.091
 30
0.0
 11
159.971
 21
103.091
 31
0.0
  0
LINE
  8
0
 62
     0
 10
159.971
 20
103.091
 30
0.0
 11
145.97
 21
103.091
 31
0.0
  0
LINE
  8
0
 62
     0
 10
22.1451
 20
103.091
 30
0.0
 11
22.1451
 21
102.091
 31
0.0
  0
LINE
  8
0
 62
     0
 10
22.1451
 20
102.091
 30
0.0
 11
21.3444
 21
102.091
 31
0.0
  0
LINE
  8
0
 62
     0
 10
21.3444
 20
102.091
 30
0.0
 11
21.3444
 21
98.9901
 31
0.0
  0
LINE
  8
0
 62
     0
 10
21.3444
 20
98.9901
 30
0.0
 11
22.1451
 21
98.9901
 31
0.0
  0
LINE
  8
0
 62
     0
 10
22.1451
 20
98.9901
 30
0.0
 11
22.1451
 21
93.1912
 31
0.0
  0
LINE
  8
0
 62
     0
 10
22.1451
 20
93.1912
 30
0.0
 11
21.3444
 21
93.1912
 31
0.0
  0
LINE
  8
0
 62
     0
 10
21.3444
 20
93.1912
 30
0.0
 11
21.3444
 21
90.0906
 31
0.0
  0
LINE
  8
0
 62
     0
 10
21.3444
 20
90.0906
 30
0.0
 11
22.1451
 21
90.0906
 31
0.0
  0
LINE
  8
0
 62
     0
 10
22.1451
 20
90.0906
 30
0.0
 11
22.1451
 21
89.0901
 31
0.0
  0
LINE
  8
0
 62
     0
 10
22.1451
 20
89.0901
 30
0.0
 11
36.146
 21
89.0901
 31
0.0
  0
LINE
  8
0
 62
     0
 10
36.146
 20
89.0901
 30
0.0
 11
36.146
 21
90.0906
 31
0.0
  0
LINE
  8
0
 62
     0
 10
36.146
 20
90.0906
 30
0.0
 11
36.9439
 21
90.0906
 31
0.0
  0
LINE
  8
0
 62
     0
 10
36.9439
 20
90.0906
 30
0.0
 11
36.9439
 21
93.1912
 31
0.0
  0
LINE
  8
0
 62
     0
 10
36.9439
 20
93.1912
 30
0.0
 11
36.146
 21
93.1912
 31
0.0
  0
LINE
  8
0
 62
     0
 10
36.146
 20
93.1912
 30
0.0
 11
36.146
 21
98.9901
 31
0.0
  0
LINE
  8
0
 62
     0
 10
36.146
 20
98.9901
 30
0.0
 11
36.9439
 21
98.9901
 31
0.0
  0
LINE
  8
0
 62
     0
 10
36.9439
 20
98.9901
 30
0.0
 11
36.9439
 21
102.091
 31
0.0
  0
LINE
  8
0
 62
     0
 10
36.9439
 20
102.091
 30
0.0
 11
36.146
 21
102.091
 31
0.0
  0
LINE
  8
0
 62
     0
 10
36.146
 20
102.091
 30
0.0
 11
36.146
 21
103.091
 31
0.0
  0
LINE
  8
0
 62
     0
 10
36.146
 20
103.091
 30
0.0
 11
22.1451
 21
103.091
 31
0.0
  0
LINE
  8
0
 62
     0
 10
41.1949
 20
103.091
 30
0.0
 11
41.1949
 21
102.091
 31
0.0
  0
LINE
  8
0
 62
     0
 10
41.1949
 20
102.091
 30
0.0
 11
40.3959
 21
102.091
 31
0.0
  0
LINE
  8
0
 62
     0
 10
40.3959
 20
102.091
 30
0.0
 11
40.3959
 21
98.9901
 31
0.0
  0
LINE
  8
0
 62
     0
 10
40.3959
 20
98.9901
 30
0.0
 11
41.1949
 21
98.9901
 31
0.0
  0
LINE
  8
0
 62
     0
 10
41.1949
 20
98.9901
 30
0.0
 11
41.1949
 21
93.1912
 31
0.0
  0
LINE
  8
0
 62
     0
 10
41.1949
 20
93.1912
 30
0.0
 11
40.3959
 21
93.1912
 31
0.0
  0
LINE
  8
0
 62
     0
 10
40.3959
 20
93.1912
 30
0.0
 11
40.3959
 21
90.0906
 31
0.0
  0
LINE
  8
0
 62
     0
 10
40.3959
 20
90.0906
 30
0.0
 11
41.1949
 21
90.0906
 31
0.0
  0
LINE
  8
0
 62
     0
 10
41.1949
 20
90.0906
 30
0.0
 11
41.1949
 21
89.0901
 31
0.0
  0
LINE
  8
0
 62
     0
 10
41.1949
 20
89.0901
 30
0.0
 11
55.1946
 21
89.0901
 31
0.0
  0
LINE
  8
0
 62
     0
 10
55.1946
 20
89.0901
 30
0.0
 11
55.1946
 21
90.0906
 31
0.0
  0
LINE
  8
0
 62
     0
 10
55.1946
 20
90.0906
 30
0.0
 11
55.9939
 21
90.0906
 31
0.0
  0
LINE
  8
0
 62
     0
 10
55.9939
 20
90.0906
 30
0.0
 11
55.9939
 21
93.1912
 31
0.0
  0
LINE
  8
0
 62
     0
 10
55.9939
 20
93.1912
 30
0.0
 11
55.1946
 21
93.1912
 31
0.0
  0
LINE
  8
0
 62
     0
 10
55.1946
 20
93.1912
 30
0.0
 11
55.1946
 21
98.9901
 31
0.0
  0
LINE
  8
0
 62
     0
 10
55.1946
 20
98.9901
 30
0.0
 11
55.9939
 21
98.9901
 31
0.0
  0
LINE
  8
0
 62
     0
 10
55.9939
 20
98.9901
 30
0.0
 11
55.9939
 21
102.091
 31
0.0
  0
LINE
  8
0
 62
     0
 10
55.9939
 20
102.091
 30
0.0
 11
55.1946
 21
102.091
 31
0.0
  0
LINE
  8
0
 62
     0
 10
55.1946
 20
102.091
 30
0.0
 11
55.1946
 21
103.091
 31
0.0
  0
LINE
  8
0
 62
     0
 10
55.1946
 20
103.091
 30
0.0
 11
41.1949
 21
103.091
 31
0.0
  0
LINE
  8
0
 62
     0
 10
60.2449
 20
103.091
 30
0.0
 11
60.2449
 21
102.091
 31
0.0
  0
LINE
  8
0
 62
     0
 10
60.2449
 20
102.091
 30
0.0
 11
59.4445
 21
102.091
 31
0.0
  0
LINE
  8
0
 62
     0
 10
59.4445
 20
102.091
 30
0.0
 11
59.4445
 21
98.9901
 31
0.0
  0
LINE
  8
0
 62
     0
 10
59.4445
 20
98.9901
 30
0.0
 11
60.2449
 21
98.9901
 31
0.0
  0
LINE
  8
0
 62
     0
 10
60.2449
 20
98.9901
 30
0.0
 11
60.2449
 21
93.1912
 31
0.0
  0
LINE
  8
0
 62
     0
 10
60.2449
 20
93.1912
 30
0.0
 11
59.4445
 21
93.1912
 31
0.0
  0
LINE
  8
0
 62
     0
 10
59.4445
 20
93.1912
 30
0.0
 11
59.4445
 21
90.0906
 31
0.0
  0
LINE
  8
0
 62
     0
 10
59.4445
 20
90.0906
 30
0.0
 11
60.2449
 21
90.0906
 31
0.0
  0
LINE
  8
0
 62
     0
 10
60.2449
 20
90.0906
 30
0.0
 11
60.2449
 21
89.0901
 31
0.0
  0
LINE
  8
0
 62
     0
 10
60.2449
 20
89.0901
 30
0.0
 11
74.2446
 21
89.0901
 31
0.0
  0
LINE
  8
0
 62
     0
 10
74.2446
 20
89.0901
 30
0.0
 11
74.2446
 21
90.0906
 31
0.0
  0
LINE
  8
0
 62
     0
 10
74.2446
 20
90.0906
 30
0.0
 11
75.044
 21
90.0906
 31
0.0
  0
LINE
  8
0
 62
     0
 10
75.044
 20
90.0906
 30
0.0
 11
75.044
 21
93.1912
 31
0.0
  0
LINE
  8
0
 62
     0
 10
75.044
 20
93.1912
 30
0.0
 11
74.2446
 21
93.1912
 31
0.0
  0
LINE
  8
0
 62
     0
 10
74.2446
 20
93.1912
 30
0.0
 11
74.2446
 21
98.9901
 31
0.0
  0
LINE
  8
0
 62
     0
 10
74.2446
 20
98.9901
 30
0.0
 11
75.044
 21
98.9901
 31
0.0
  0
LINE
  8
0
 62
     0
 10
75.044
 20
98.9901
 30
0.0
 11
75.044
 21
102.091
 31
0.0
  0
LINE
  8
0
 62
     0
 10
75.044
 20
102.091
 30
0.0
 11
74.2446
 21
102.091
 31
0.0
  0
LINE
  8
0
 62
     0
 10
74.2446
 20
102.091
 30
0.0
 11
74.2446
 21
103.091
 31
0.0
  0
LINE
  8
0
 62
     0
 10
74.2446
 20
103.091
 30
0.0
 11
60.2449
 21
103.091
 31
0.0
  0
LINE
  8
0
 62
     0
 10
79.2949
 20
103.091
 30
0.0
 11
79.2949
 21
102.091
 31
0.0
  0
LINE
  8
0
 62
     0
 10
79.2949
 20
102.091
 30
0.0
 11
78.4945
 21
102.091
 31
0.0
  0
LINE
  8
0
 62
     0
 10
78.4945
 20
102.091
 30
0.0
 11
78.4945
 21
98.9901
 31
0.0
  0
LINE
  8
0
 62
     0
 10
78.4945
 20
98.9901
 30
0.0
 11
79.2949
 21
98.9901
 31
0.0
  0
LINE
  8
0
 62
     0
 10
79.2949
 20
98.9901
 30
0.0
 11
79.2949
 21
93.1912
 31
0.0
  0
LINE
  8
0
 62
     0
 10
79.2949
 20
93.1912
 30
0.0
 11
78.4945
 21
93.1912
 31
0.0
  0
LINE
  8
0
 62
     0
 10
78.4945
 20
93.1912
 30
0.0
 11
78.4945
 21
90.0906
 31
0.0
  0
LINE
  8
0
 62
     0
 10
78.4945
 20
90.0906
 30
0.0
 11
79.2949
 21
90.0906
 31
0.0
  0
LINE
  8
0
 62
     0
 10
79.2949
 20
90.0906
 30
0.0
 11
79.2949
 21
89.0901
 31
0.0
  0
LINE
  8
0
 62
     0
 10
79.2949
 20
89.0901
 30
0.0
 11
93.2946
 21
89.0901
 31
0.0
  0
LINE
  8
0
 62
     0
 10
93.2946
 20
89.0901
 30
0.0
 11
93.2946
 21
90.0906
 31
0.0
  0
LINE
  8
0
 62
     0
 10
93.2946
 20
90.0906
 30
0.0
 11
94.0939
 21
90.0906
 31
0.0
  0
LINE
  8
0
 62
     0
 10
94.0939
 20
90.0906
 30
0.0
 11
94.0939
 21
93.1912
 31
0.0
  0
LINE
  8
0
 62
     0
 10
94.0939
 20
93.1912
 30
0.0
 11
93.2946
 21
93.1912
 31
0.0
  0
LINE
  8
0
 62
     0
 10
93.2946
 20
93.1912
 30
0.0
 11
93.2946
 21
98.9901
 31
0.0
  0
LINE
  8
0
 62
     0
 10
93.2946
 20
98.9901
 30
0.0
 11
94.0939
 21
98.9901
 31
0.0
  0
LINE
  8
0
 62
     0
 10
94.0939
 20
98.9901
 30
0.0
 11
94.0939
 21
102.091
 31
0.0
  0
LINE
  8
0
 62
     0
 10
94.0939
 20
102.091
 30
0.0
 11
93.2946
 21
102.091
 31
0.0
  0
LINE
  8
0
 62
     0
 10
93.2946
 20
102.091
 30
0.0
 11
93.2946
 21
103.091
 31
0.0
  0
LINE
  8
0
 62
     0
 10
93.2946
 20
103.091
 30
0.0
 11
79.2949
 21
103.091
 31
0.0
  0
LINE
  8
0
 62
     0
 10
98.3449
 20
103.091
 30
0.0
 11
98.3449
 21
102.091
 31
0.0
  0
LINE
  8
0
 62
     0
 10
98.3449
 20
102.091
 30
0.0
 11
97.5445
 21
102.091
 31
0.0
  0
LINE
  8
0
 62
     0
 10
97.5445
 20
102.091
 30
0.0
 11
97.5445
 21
98.9901
 31
0.0
  0
LINE
  8
0
 62
     0
 10
97.5445
 20
98.9901
 30
0.0
 11
98.3449
 21
98.9901
 31
0.0
  0
LINE
  8
0
 62
     0
 10
98.3449
 20
98.9901
 30
0.0
 11
98.3449
 21
93.1912
 31
0.0
  0
LINE
  8
0
 62
     0
 10
98.3449
 20
93.1912
 30
0.0
 11
97.5445
 21
93.1912
 31
0.0
  0
LINE
  8
0
 62
     0
 10
97.5445
 20
93.1912
 30
0.0
 11
97.5445
 21
90.0906
 31
0.0
  0
LINE
  8
0
 62
     0
 10
97.5445
 20
90.0906
 30
0.0
 11
98.3449
 21
90.0906
 31
0.0
  0
LINE
  8
0
 62
     0
 10
98.3449
 20
90.0906
 30
0.0
 11
98.3449
 21
89.0901
 31
0.0
  0
LINE
  8
0
 62
     0
 10
98.3449
 20
89.0901
 30
0.0
 11
112.345
 21
89.0901
 31
0.0
  0
LINE
  8
0
 62
     0
 10
112.345
 20
89.0901
 30
0.0
 11
112.345
 21
90.0906
 31
0.0
  0
LINE
  8
0
 62
     0
 10
112.345
 20
90.0906
 30
0.0
 11
113.144
 21
90.0906
 31
0.0
  0
LINE
  8
0
 62
     0
 10
113.144
 20
90.0906
 30
0.0
 11
113.144
 21
93.1912
 31
0.0
  0
LINE
  8
0
 62
     0
 10
113.144
 20
93.1912
 30
0.0
 11
112.345
 21
93.1912
 31
0.0
  0
LINE
  8
0
 62
     0
 10
112.345
 20
93.1912
 30
0.0
 11
112.345
 21
98.9901
 31
0.0
  0
LINE
  8
0
 62
     0
 10
112.345
 20
98.9901
 30
0.0
 11
113.144
 21
98.9901
 31
0.0
  0
LINE
  8
0
 62
     0
 10
113.144
 20
98.9901
 30
0.0
 11
113.144
 21
102.091
 31
0.0
  0
LINE
  8
0
 62
     0
 10
113.144
 20
102.091
 30
0.0
 11
112.345
 21
102.091
 31
0.0
  0
LINE
  8
0
 62
     0
 10
112.345
 20
102.091
 30
0.0
 11
112.345
 21
103.091
 31
0.0
  0
LINE
  8
0
 62
     0
 10
112.345
 20
103.091
 30
0.0
 11
98.3449
 21
103.091
 31
0.0
  0
LINE
  8
0
 62
     0
 10
117.395
 20
103.091
 30
0.0
 11
117.395
 21
102.091
 31
0.0
  0
LINE
  8
0
 62
     0
 10
117.395
 20
102.091
 30
0.0
 11
116.594
 21
102.091
 31
0.0
  0
LINE
  8
0
 62
     0
 10
116.594
 20
102.091
 30
0.0
 11
116.594
 21
98.9901
 31
0.0
  0
LINE
  8
0
 62
     0
 10
116.594
 20
98.9901
 30
0.0
 11
117.395
 21
98.9901
 31
0.0
  0
LINE
  8
0
 62
     0
 10
117.395
 20
98.9901
 30
0.0
 11
117.395
 21
93.1912
 31
0.0
  0
LINE
  8
0
 62
     0
 10
117.395
 20
93.1912
 30
0.0
 11
116.594
 21
93.1912
 31
0.0
  0
LINE
  8
0
 62
     0
 10
116.594
 20
93.1912
 30
0.0
 11
116.594
 21
90.0906
 31
0.0
  0
LINE
  8
0
 62
     0
 10
116.594
 20
90.0906
 30
0.0
 11
117.395
 21
90.0906
 31
0.0
  0
LINE
  8
0
 62
     0
 10
117.395
 20
90.0906
 30
0.0
 11
117.395
 21
89.0901
 31
0.0
  0
LINE
  8
0
 62
     0
 10
117.395
 20
89.0901
 30
0.0
 11
131.395
 21
89.0901
 31
0.0
  0
LINE
  8
0
 62
     0
 10
131.395
 20
89.0901
 30
0.0
 11
131.395
 21
90.0906
 31
0.0
  0
LINE
  8
0
 62
     0
 10
131.395
 20
90.0906
 30
0.0
 11
132.195
 21
90.0906
 31
0.0
  0
LINE
  8
0
 62
     0
 10
132.195
 20
90.0906
 30
0.0
 11
132.195
 21
93.1912
 31
0.0
  0
LINE
  8
0
 62
     0
 10
132.195
 20
93.1912
 30
0.0
 11
131.395
 21
93.1912
 31
0.0
  0
LINE
  8
0
 62
     0
 10
131.395
 20
93.1912
 30
0.0
 11
131.395
 21
98.9901
 31
0.0
  0
LINE
  8
0
 62
     0
 10
131.395
 20
98.9901
 30
0.0
 11
132.195
 21
98.9901
 31
0.0
  0
LINE
  8
0
 62
     0
 10
132.195
 20
98.9901
 30
0.0
 11
132.195
 21
102.091
 31
0.0
  0
LINE
  8
0
 62
     0
 10
132.195
 20
102.091
 30
0.0
 11
131.395
 21
102.091
 31
0.0
  0
LINE
  8
0
 62
     0
 10
131.395
 20
102.091
 30
0.0
 11
131.395
 21
103.091
 31
0.0
  0
LINE
  8
0
 62
     0
 10
131.395
 20
103.091
 30
0.0
 11
117.395
 21
103.091
 31
0.0
  0
LINE
  8
0
 62
     0
 10
179.307
 20
103.091
 30
0.0
 11
179.307
 21
102.091
 31
0.0
  0
LINE
  8
0
 62
     0
 10
179.307
 20
102.091
 30
0.0
 11
178.507
 21
102.091
 31
0.0
  0
LINE
  8
0
 62
     0
 10
178.507
 20
102.091
 30
0.0
 11
178.507
 21
98.9901
 31
0.0
  0
LINE
  8
0
 62
     0
 10
178.507
 20
98.9901
 30
0.0
 11
179.307
 21
98.9901
 31
0.0
  0
LINE
  8
0
 62
     0
 10
179.307
 20
98.9901
 30
0.0
 11
179.307
 21
93.1912
 31
0.0
  0
LINE
  8
0
 62
     0
 10
179.307
 20
93.1912
 30
0.0
 11
178.507
 21
93.1912
 31
0.0
  0
LINE
  8
0
 62
     0
 10
178.507
 20
93.1912
 30
0.0
 11
178.507
 21
90.0906
 31
0.0
  0
LINE
  8
0
 62
     0
 10
178.507
 20
90.0906
 30
0.0
 11
179.307
 21
90.0906
 31
0.0
  0
LINE
  8
0
 62
     0
 10
179.307
 20
90.0906
 30
0.0
 11
179.307
 21
89.0901
 31
0.0
  0
LINE
  8
0
 62
     0
 10
179.307
 20
89.0901
 30
0.0
 11
193.307
 21
89.0901
 31
0.0
  0
LINE
  8
0
 62
     0
 10
193.307
 20
89.0901
 30
0.0
 11
193.307
 21
90.0906
 31
0.0
  0
LINE
  8
0
 62
     0
 10
193.307
 20
90.0906
 30
0.0
 11
194.108
 21
90.0906
 31
0.0
  0
LINE
  8
0
 62
     0
 10
194.108
 20
90.0906
 30
0.0
 11
194.108
 21
93.1912
 31
0.0
  0
LINE
  8
0
 62
     0
 10
194.108
 20
93.1912
 30
0.0
 11
193.307
 21
93.1912
 31
0.0
  0
LINE
  8
0
 62
     0
 10
193.307
 20
93.1912
 30
0.0
 11
193.307
 21
98.9901
 31
0.0
  0
LINE
  8
0
 62
     0
 10
193.307
 20
98.9901
 30
0.0
 11
194.108
 21
98.9901
 31
0.0
  0
LINE
  8
0
 62
     0
 10
194.108
 20
98.9901
 30
0.0
 11
194.108
 21
102.091
 31
0.0
  0
LINE
  8
0
 62
     0
 10
194.108
 20
102.091
 30
0.0
 11
193.307
 21
102.091
 31
0.0
  0
LINE
  8
0
 62
     0
 10
193.307
 20
102.091
 30
0.0
 11
193.307
 21
103.091
 31
0.0
  0
LINE
  8
0
 62
     0
 10
193.307
 20
103.091
 30
0.0
 11
179.307
 21
103.091
 31
0.0
  0
LINE
  8
0
 62
     0
 10
198.357
 20
103.091
 30
0.0
 11
198.357
 21
102.091
 31
0.0
  0
LINE
  8
0
 62
     0
 10
198.357
 20
102.091
 30
0.0
 11
197.557
 21
102.091
 31
0.0
  0
LINE
  8
0
 62
     0
 10
197.557
 20
102.091
 30
0.0
 11
197.557
 21
98.9901
 31
0.0
  0
LINE
  8
0
 62
     0
 10
197.557
 20
98.9901
 30
0.0
 11
198.357
 21
98.9901
 31
0.0
  0
LINE
  8
0
 62
     0
 10
198.357
 20
98.9901
 30
0.0
 11
198.357
 21
93.1912
 31
0.0
  0
LINE
  8
0
 62
     0
 10
198.357
 20
93.1912
 30
0.0
 11
197.557
 21
93.1912
 31
0.0
  0
LINE
  8
0
 62
     0
 10
197.557
 20
93.1912
 30
0.0
 11
197.557
 21
90.0906
 31
0.0
  0
LINE
  8
0
 62
     0
 10
197.557
 20
90.0906
 30
0.0
 11
198.357
 21
90.0906
 31
0.0
  0
LINE
  8
0
 62
     0
 10
198.357
 20
90.0906
 30
0.0
 11
198.357
 21
89.0901
 31
0.0
  0
LINE
  8
0
 62
     0
 10
198.357
 20
89.0901
 30
0.0
 11
212.357
 21
89.0901
 31
0.0
  0
LINE
  8
0
 62
     0
 10
212.357
 20
89.0901
 30
0.0
 11
212.357
 21
90.0906
 31
0.0
  0
LINE
  8
0
 62
     0
 10
212.357
 20
90.0906
 30
0.0
 11
213.158
 21
90.0906
 31
0.0
  0
LINE
  8
0
 62
     0
 10
213.158
 20
90.0906
 30
0.0
 11
213.158
 21
93.1912
 31
0.0
  0
LINE
  8
0
 62
     0
 10
213.158
 20
93.1912
 30
0.0
 11
212.357
 21
93.1912
 31
0.0
  0
LINE
  8
0
 62
     0
 10
212.357
 20
93.1912
 30
0.0
 11
212.357
 21
98.9901
 31
0.0
  0
LINE
  8
0
 62
     0
 10
212.357
 20
98.9901
 30
0.0
 11
213.158
 21
98.9901
 31
0.0
  0
LINE
  8
0
 62
     0
 10
213.158
 20
98.9901
 30
0.0
 11
213.158
 21
102.091
 31
0.0
  0
LINE
  8
0
 62
     0
 10
213.158
 20
102.091
 30
0.0
 11
212.357
 21
102.091
 31
0.0
  0
LINE
  8
0
 62
     0
 10
212.357
 20
102.091
 30
0.0
 11
212.357
 21
103.091
 31
0.0
  0
LINE
  8
0
 62
     0
 10
212.357
 20
103.091
 30
0.0
 11
198.357
 21
103.091
 31
0.0
  0
LINE
  8
0
 62
     0
 10
217.407
 20
103.091
 30
0.0
 11
217.407
 21
102.091
 31
0.0
  0
LINE
  8
0
 62
     0
 10
217.407
 20
102.091
 30
0.0
 11
216.607
 21
102.091
 31
0.0
  0
LINE
  8
0
 62
     0
 10
216.607
 20
102.091
 30
0.0
 11
216.607
 21
98.9901
 31
0.0
  0
LINE
  8
0
 62
     0
 10
216.607
 20
98.9901
 30
0.0
 11
217.407
 21
98.9901
 31
0.0
  0
LINE
  8
0
 62
     0
 10
217.407
 20
98.9901
 30
0.0
 11
217.407
 21
93.1912
 31
0.0
  0
LINE
  8
0
 62
     0
 10
217.407
 20
93.1912
 30
0.0
 11
216.607
 21
93.1912
 31
0.0
  0
LINE
  8
0
 62
     0
 10
216.607
 20
93.1912
 30
0.0
 11
216.607
 21
90.0906
 31
0.0
  0
LINE
  8
0
 62
     0
 10
216.607
 20
90.0906
 30
0.0
 11
217.407
 21
90.0906
 31
0.0
  0
LINE
  8
0
 62
     0
 10
217.407
 20
90.0906
 30
0.0
 11
217.407
 21
89.0901
 31
0.0
  0
LINE
  8
0
 62
     0
 10
217.407
 20
89.0901
 30
0.0
 11
231.407
 21
89.0901
 31
0.0
  0
LINE
  8
0
 62
     0
 10
231.407
 20
89.0901
 30
0.0
 11
231.407
 21
90.0906
 31
0.0
  0
LINE
  8
0
 62
     0
 10
231.407
 20
90.0906
 30
0.0
 11
232.208
 21
90.0906
 31
0.0
  0
LINE
  8
0
 62
     0
 10
232.208
 20
90.0906
 30
0.0
 11
232.208
 21
93.1912
 31
0.0
  0
LINE
  8
0
 62
     0
 10
232.208
 20
93.1912
 30
0.0
 11
231.407
 21
93.1912
 31
0.0
  0
LINE
  8
0
 62
     0
 10
231.407
 20
93.1912
 30
0.0
 11
231.407
 21
98.9901
 31
0.0
  0
LINE
  8
0
 62
     0
 10
231.407
 20
98.9901
 30
0.0
 11
232.208
 21
98.9901
 31
0.0
  0
LINE
  8
0
 62
     0
 10
232.208
 20
98.9901
 30
0.0
 11
232.208
 21
102.091
 31
0.0
  0
LINE
  8
0
 62
     0
 10
232.208
 20
102.091
 30
0.0
 11
231.407
 21
102.091
 31
0.0
  0
LINE
  8
0
 62
     0
 10
231.407
 20
102.091
 30
0.0
 11
231.407
 21
103.091
 31
0.0
  0
LINE
  8
0
 62
     0
 10
231.407
 20
103.091
 30
0.0
 11
217.407
 21
103.091
 31
0.0
  0
LINE
  8
0
 62
     0
 10
31.6701
 20
131.666
 30
0.0
 11
31.6701
 21
130.666
 31
0.0
  0
LINE
  8
0
 62
     0
 10
31.6701
 20
130.666
 30
0.0
 11
30.8708
 21
130.666
 31
0.0
  0
LINE
  8
0
 62
     0
 10
30.8708
 20
130.666
 30
0.0
 11
30.8708
 21
127.565
 31
0.0
  0
LINE
  8
0
 62
     0
 10
30.8708
 20
127.565
 30
0.0
 11
31.6701
 21
127.565
 31
0.0
  0
LINE
  8
0
 62
     0
 10
31.6701
 20
127.565
 30
0.0
 11
31.6701
 21
121.766
 31
0.0
  0
LINE
  8
0
 62
     0
 10
31.6701
 20
121.766
 30
0.0
 11
30.8708
 21
121.766
 31
0.0
  0
LINE
  8
0
 62
     0
 10
30.8708
 20
121.766
 30
0.0
 11
30.8708
 21
118.666
 31
0.0
  0
LINE
  8
0
 62
     0
 10
30.8708
 20
118.666
 30
0.0
 11
31.6701
 21
118.666
 31
0.0
  0
LINE
  8
0
 62
     0
 10
31.6701
 20
118.666
 30
0.0
 11
31.6701
 21
117.665
 31
0.0
  0
LINE
  8
0
 62
     0
 10
31.6701
 20
117.665
 30
0.0
 11
45.671
 21
117.665
 31
0.0
  0
LINE
  8
0
 62
     0
 10
45.671
 20
117.665
 30
0.0
 11
45.671
 21
118.666
 31
0.0
  0
LINE
  8
0
 62
     0
 10
45.671
 20
118.666
 30
0.0
 11
46.4704
 21
118.666
 31
0.0
  0
LINE
  8
0
 62
     0
 10
46.4704
 20
118.666
 30
0.0
 11
46.4704
 21
121.766
 31
0.0
  0
LINE
  8
0
 62
     0
 10
46.4704
 20
121.766
 30
0.0
 11
45.671
 21
121.766
 31
0.0
  0
LINE
  8
0
 62
     0
 10
45.671
 20
121.766
 30
0.0
 11
45.671
 21
127.565
 31
0.0
  0
LINE
  8
0
 62
     0
 10
45.671
 20
127.565
 30
0.0
 11
46.4704
 21
127.565
 31
0.0
  0
LINE
  8
0
 62
     0
 10
46.4704
 20
127.565
 30
0.0
 11
46.4704
 21
130.666
 31
0.0
  0
LINE
  8
0
 62
     0
 10
46.4704
 20
130.666
 30
0.0
 11
45.671
 21
130.666
 31
0.0
  0
LINE
  8
0
 62
     0
 10
45.671
 20
130.666
 30
0.0
 11
45.671
 21
131.666
 31
0.0
  0
LINE
  8
0
 62
     0
 10
45.671
 20
131.666
 30
0.0
 11
31.6701
 21
131.666
 31
0.0
  0
LINE
  8
0
 62
     0
 10
50.7199
 20
131.666
 30
0.0
 11
50.7199
 21
130.666
 31
0.0
  0
LINE
  8
0
 62
     0
 10
50.7199
 20
130.666
 30
0.0
 11
49.9209
 21
130.666
 31
0.0
  0
LINE
  8
0
 62
     0
 10
49.9209
 20
130.666
 30
0.0
 11
49.9209
 21
127.565
 31
0.0
  0
LINE
  8
0
 62
     0
 10
49.9209
 20
127.565
 30
0.0
 11
50.7199
 21
127.565
 31
0.0
  0
LINE
  8
0
 62
     0
 10
50.7199
 20
127.565
 30
0.0
 11
50.7199
 21
121.766
 31
0.0
  0
LINE
  8
0
 62
     0
 10
50.7199
 20
121.766
 30
0.0
 11
49.9209
 21
121.766
 31
0.0
  0
LINE
  8
0
 62
     0
 10
49.9209
 20
121.766
 30
0.0
 11
49.9209
 21
118.666
 31
0.0
  0
LINE
  8
0
 62
     0
 10
49.9209
 20
118.666
 30
0.0
 11
50.7199
 21
118.666
 31
0.0
  0
LINE
  8
0
 62
     0
 10
50.7199
 20
118.666
 30
0.0
 11
50.7199
 21
117.665
 31
0.0
  0
LINE
  8
0
 62
     0
 10
50.7199
 20
117.665
 30
0.0
 11
64.721
 21
117.665
 31
0.0
  0
LINE
  8
0
 62
     0
 10
64.721
 20
117.665
 30
0.0
 11
64.721
 21
118.666
 31
0.0
  0
LINE
  8
0
 62
     0
 10
64.721
 20
118.666
 30
0.0
 11
65.5204
 21
118.666
 31
0.0
  0
LINE
  8
0
 62
     0
 10
65.5204
 20
118.666
 30
0.0
 11
65.5204
 21
121.766
 31
0.0
  0
LINE
  8
0
 62
     0
 10
65.5204
 20
121.766
 30
0.0
 11
64.721
 21
121.766
 31
0.0
  0
LINE
  8
0
 62
     0
 10
64.721
 20
121.766
 30
0.0
 11
64.721
 21
127.565
 31
0.0
  0
LINE
  8
0
 62
     0
 10
64.721
 20
127.565
 30
0.0
 11
65.5204
 21
127.565
 31
0.0
  0
LINE
  8
0
 62
     0
 10
65.5204
 20
127.565
 30
0.0
 11
65.5204
 21
130.666
 31
0.0
  0
LINE
  8
0
 62
     0
 10
65.5204
 20
130.666
 30
0.0
 11
64.721
 21
130.666
 31
0.0
  0
LINE
  8
0
 62
     0
 10
64.721
 20
130.666
 30
0.0
 11
64.721
 21
131.666
 31
0.0
  0
LINE
  8
0
 62
     0
 10
64.721
 20
131.666
 30
0.0
 11
50.7199
 21
131.666
 31
0.0
  0
LINE
  8
0
 62
     0
 10
69.7699
 20
131.666
 30
0.0
 11
69.7699
 21
130.666
 31
0.0
  0
LINE
  8
0
 62
     0
 10
69.7699
 20
130.666
 30
0.0
 11
68.9709
 21
130.666
 31
0.0
  0
LINE
  8
0
 62
     0
 10
68.9709
 20
130.666
 30
0.0
 11
68.9709
 21
127.565
 31
0.0
  0
LINE
  8
0
 62
     0
 10
68.9709
 20
127.565
 30
0.0
 11
69.7699
 21
127.565
 31
0.0
  0
LINE
  8
0
 62
     0
 10
69.7699
 20
127.565
 30
0.0
 11
69.7699
 21
121.766
 31
0.0
  0
LINE
  8
0
 62
     0
 10
69.7699
 20
121.766
 30
0.0
 11
68.9709
 21
121.766
 31
0.0
  0
LINE
  8
0
 62
     0
 10
68.9709
 20
121.766
 30
0.0
 11
68.9709
 21
118.666
 31
0.0
  0
LINE
  8
0
 62
     0
 10
68.9709
 20
118.666
 30
0.0
 11
69.7699
 21
118.666
 31
0.0
  0
LINE
  8
0
 62
     0
 10
69.7699
 20
118.666
 30
0.0
 11
69.7699
 21
117.665
 31
0.0
  0
LINE
  8
0
 62
     0
 10
69.7699
 20
117.665
 30
0.0
 11
83.771
 21
117.665
 31
0.0
  0
LINE
  8
0
 62
     0
 10
83.771
 20
117.665
 30
0.0
 11
83.771
 21
118.666
 31
0.0
  0
LINE
  8
0
 62
     0
 10
83.771
 20
118.666
 30
0.0
 11
84.5704
 21
118.666
 31
0.0
  0
LINE
  8
0
 62
     0
 10
84.5704
 20
118.666
 30
0.0
 11
84.5704
 21
121.766
 31
0.0
  0
LINE
  8
0
 62
     0
 10
84.5704
 20
121.766
 30
0.0
 11
83.771
 21
121.766
 31
0.0
  0
LINE
  8
0
 62
     0
 10
83.771
 20
121.766
 30
0.0
 11
83.771
 21
127.565
 31
0.0
  0
LINE
  8
0
 62
     0
 10
83.771
 20
127.565
 30
0.0
 11
84.5704
 21
127.565
 31
0.0
  0
LINE
  8
0
 62
     0
 10
84.5704
 20
127.565
 30
0.0
 11
84.5704
 21
130.666
 31
0.0
  0
LINE
  8
0
 62
     0
 10
84.5704
 20
130.666
 30
0.0
 11
83.771
 21
130.666
 31
0.0
  0
LINE
  8
0
 62
     0
 10
83.771
 20
130.666
 30
0.0
 11
83.771
 21
131.666
 31
0.0
  0
LINE
  8
0
 62
     0
 10
83.771
 20
131.666
 30
0.0
 11
69.7699
 21
131.666
 31
0.0
  0
LINE
  8
0
 62
     0
 10
98.3449
 20
131.666
 30
0.0
 11
98.3449
 21
130.666
 31
0.0
  0
LINE
  8
0
 62
     0
 10
98.3449
 20
130.666
 30
0.0
 11
97.5459
 21
130.666
 31
0.0
  0
LINE
  8
0
 62
     0
 10
97.5459
 20
130.666
 30
0.0
 11
97.5459
 21
127.565
 31
0.0
  0
LINE
  8
0
 62
     0
 10
97.5459
 20
127.565
 30
0.0
 11
98.3449
 21
127.565
 31
0.0
  0
LINE
  8
0
 62
     0
 10
98.3449
 20
127.565
 30
0.0
 11
98.3449
 21
121.766
 31
0.0
  0
LINE
  8
0
 62
     0
 10
98.3449
 20
121.766
 30
0.0
 11
97.5459
 21
121.766
 31
0.0
  0
LINE
  8
0
 62
     0
 10
97.5459
 20
121.766
 30
0.0
 11
97.5459
 21
118.666
 31
0.0
  0
LINE
  8
0
 62
     0
 10
97.5459
 20
118.666
 30
0.0
 11
98.3449
 21
118.666
 31
0.0
  0
LINE
  8
0
 62
     0
 10
98.3449
 20
118.666
 30
0.0
 11
98.3449
 21
117.665
 31
0.0
  0
LINE
  8
0
 62
     0
 10
98.3449
 20
117.665
 30
0.0
 11
112.346
 21
117.665
 31
0.0
  0
LINE
  8
0
 62
     0
 10
112.346
 20
117.665
 30
0.0
 11
112.346
 21
118.666
 31
0.0
  0
LINE
  8
0
 62
     0
 10
112.346
 20
118.666
 30
0.0
 11
113.145
 21
118.666
 31
0.0
  0
LINE
  8
0
 62
     0
 10
113.145
 20
118.666
 30
0.0
 11
113.145
 21
121.766
 31
0.0
  0
LINE
  8
0
 62
     0
 10
113.145
 20
121.766
 30
0.0
 11
112.346
 21
121.766
 31
0.0
  0
LINE
  8
0
 62
     0
 10
112.346
 20
121.766
 30
0.0
 11
112.346
 21
127.565
 31
0.0
  0
LINE
  8
0
 62
     0
 10
112.346
 20
127.565
 30
0.0
 11
113.145
 21
127.565
 31
0.0
  0
LINE
  8
0
 62
     0
 10
113.145
 20
127.565
 30
0.0
 11
113.145
 21
130.666
 31
0.0
  0
LINE
  8
0
 62
     0
 10
113.145
 20
130.666
 30
0.0
 11
112.346
 21
130.666
 31
0.0
  0
LINE
  8
0
 62
     0
 10
112.346
 20
130.666
 30
0.0
 11
112.346
 21
131.666
 31
0.0
  0
LINE
  8
0
 62
     0
 10
112.346
 20
131.666
 30
0.0
 11
98.3449
 21
131.666
 31
0.0
  0
LINE
  8
0
 62
     0
 10
117.395
 20
131.666
 30
0.0
 11
117.395
 21
130.666
 31
0.0
  0
LINE
  8
0
 62
     0
 10
117.395
 20
130.666
 30
0.0
 11
116.596
 21
130.666
 31
0.0
  0
LINE
  8
0
 62
     0
 10
116.596
 20
130.666
 30
0.0
 11
116.596
 21
127.565
 31
0.0
  0
LINE
  8
0
 62
     0
 10
116.596
 20
127.565
 30
0.0
 11
117.395
 21
127.565
 31
0.0
  0
LINE
  8
0
 62
     0
 10
117.395
 20
127.565
 30
0.0
 11
117.395
 21
121.766
 31
0.0
  0
LINE
  8
0
 62
     0
 10
117.395
 20
121.766
 30
0.0
 11
116.596
 21
121.766
 31
0.0
  0
LINE
  8
0
 62
     0
 10
116.596
 20
121.766
 30
0.0
 11
116.596
 21
118.666
 31
0.0
  0
LINE
  8
0
 62
     0
 10
116.596
 20
118.666
 30
0.0
 11
117.395
 21
118.666
 31
0.0
  0
LINE
  8
0
 62
     0
 10
117.395
 20
118.666
 30
0.0
 11
117.395
 21
117.665
 31
0.0
  0
LINE
  8
0
 62
     0
 10
117.395
 20
117.665
 30
0.0
 11
131.396
 21
117.665
 31
0.0
  0
LINE
  8
0
 62
     0
 10
131.396
 20
117.665
 30
0.0
 11
131.396
 21
118.666
 31
0.0
  0
LINE
  8
0
 62
     0
 10
131.396
 20
118.666
 30
0.0
 11
132.195
 21
118.666
 31
0.0
  0
LINE
  8
0
 62
     0
 10
132.195
 20
118.666
 30
0.0
 11
132.195
 21
121.766
 31
0.0
  0
LINE
  8
0
 62
     0
 10
132.195
 20
121.766
 30
0.0
 11
131.396
 21
121.766
 31
0.0
  0
LINE
  8
0
 62
     0
 10
131.396
 20
121.766
 30
0.0
 11
131.396
 21
127.565
 31
0.0
  0
LINE
  8
0
 62
     0
 10
131.396
 20
127.565
 30
0.0
 11
132.195
 21
127.565
 31
0.0
  0
LINE
  8
0
 62
     0
 10
132.195
 20
127.565
 30
0.0
 11
132.195
 21
130.666
 31
0.0
  0
LINE
  8
0
 62
     0
 10
132.195
 20
130.666
 30
0.0
 11
131.396
 21
130.666
 31
0.0
  0
LINE
  8
0
 62
     0
 10
131.396
 20
130.666
 30
0.0
 11
131.396
 21
131.666
 31
0.0
  0
LINE
  8
0
 62
     0
 10
131.396
 20
131.666
 30
0.0
 11
117.395
 21
131.666
 31
0.0
  0
LINE
  8
0
 62
     0
 10
136.445
 20
131.666
 30
0.0
 11
136.445
 21
130.666
 31
0.0
  0
LINE
  8
0
 62
     0
 10
136.445
 20
130.666
 30
0.0
 11
135.646
 21
130.666
 31
0.0
  0
LINE
  8
0
 62
     0
 10
135.646
 20
130.666
 30
0.0
 11
135.646
 21
127.565
 31
0.0
  0
LINE
  8
0
 62
     0
 10
135.646
 20
127.565
 30
0.0
 11
136.445
 21
127.565
 31
0.0
  0
LINE
  8
0
 62
     0
 10
136.445
 20
127.565
 30
0.0
 11
136.445
 21
121.766
 31
0.0
  0
LINE
  8
0
 62
     0
 10
136.445
 20
121.766
 30
0.0
 11
135.646
 21
121.766
 31
0.0
  0
LINE
  8
0
 62
     0
 10
135.646
 20
121.766
 30
0.0
 11
135.646
 21
118.666
 31
0.0
  0
LINE
  8
0
 62
     0
 10
135.646
 20
118.666
 30
0.0
 11
136.445
 21
118.666
 31
0.0
  0
LINE
  8
0
 62
     0
 10
136.445
 20
118.666
 30
0.0
 11
136.445
 21
117.665
 31
0.0
  0
LINE
  8
0
 62
     0
 10
136.445
 20
117.665
 30
0.0
 11
150.446
 21
117.665
 31
0.0
  0
LINE
  8
0
 62
     0
 10
150.446
 20
117.665
 30
0.0
 11
150.446
 21
118.666
 31
0.0
  0
LINE
  8
0
 62
     0
 10
150.446
 20
118.666
 30
0.0
 11
151.245
 21
118.666
 31
0.0
  0
LINE
  8
0
 62
     0
 10
151.245
 20
118.666
 30
0.0
 11
151.245
 21
121.766
 31
0.0
  0
LINE
  8
0
 62
     0
 10
151.245
 20
121.766
 30
0.0
 11
150.446
 21
121.766
 31
0.0
  0
LINE
  8
0
 62
     0
 10
150.446
 20
121.766
 30
0.0
 11
150.446
 21
127.565
 31
0.0
  0
LINE
  8
0
 62
     0
 10
150.446
 20
127.565
 30
0.0
 11
151.245
 21
127.565
 31
0.0
  0
LINE
  8
0
 62
     0
 10
151.245
 20
127.565
 30
0.0
 11
151.245
 21
130.666
 31
0.0
  0
LINE
  8
0
 62
     0
 10
151.245
 20
130.666
 30
0.0
 11
150.446
 21
130.666
 31
0.0
  0
LINE
  8
0
 62
     0
 10
150.446
 20
130.666
 30
0.0
 11
150.446
 21
131.666
 31
0.0
  0
LINE
  8
0
 62
     0
 10
150.446
 20
131.666
 30
0.0
 11
136.445
 21
131.666
 31
0.0
  0
LINE
  8
0
 62
     0
 10
155.495
 20
131.666
 30
0.0
 11
155.495
 21
130.666
 31
0.0
  0
LINE
  8
0
 62
     0
 10
155.495
 20
130.666
 30
0.0
 11
154.696
 21
130.666
 31
0.0
  0
LINE
  8
0
 62
     0
 10
154.696
 20
130.666
 30
0.0
 11
154.696
 21
127.565
 31
0.0
  0
LINE
  8
0
 62
     0
 10
154.696
 20
127.565
 30
0.0
 11
155.495
 21
127.565
 31
0.0
  0
LINE
  8
0
 62
     0
 10
155.495
 20
127.565
 30
0.0
 11
155.495
 21
121.766
 31
0.0
  0
LINE
  8
0
 62
     0
 10
155.495
 20
121.766
 30
0.0
 11
154.696
 21
121.766
 31
0.0
  0
LINE
  8
0
 62
     0
 10
154.696
 20
121.766
 30
0.0
 11
154.696
 21
118.666
 31
0.0
  0
LINE
  8
0
 62
     0
 10
154.696
 20
118.666
 30
0.0
 11
155.495
 21
118.666
 31
0.0
  0
LINE
  8
0
 62
     0
 10
155.495
 20
118.666
 30
0.0
 11
155.495
 21
117.665
 31
0.0
  0
LINE
  8
0
 62
     0
 10
155.495
 20
117.665
 30
0.0
 11
169.496
 21
117.665
 31
0.0
  0
LINE
  8
0
 62
     0
 10
169.496
 20
117.665
 30
0.0
 11
169.496
 21
118.666
 31
0.0
  0
LINE
  8
0
 62
     0
 10
169.496
 20
118.666
 30
0.0
 11
170.295
 21
118.666
 31
0.0
  0
LINE
  8
0
 62
     0
 10
170.295
 20
118.666
 30
0.0
 11
170.295
 21
121.766
 31
0.0
  0
LINE
  8
0
 62
     0
 10
170.295
 20
121.766
 30
0.0
 11
169.496
 21
121.766
 31
0.0
  0
LINE
  8
0
 62
     0
 10
169.496
 20
121.766
 30
0.0
 11
169.496
 21
127.565
 31
0.0
  0
LINE
  8
0
 62
     0
 10
169.496
 20
127.565
 30
0.0
 11
170.295
 21
127.565
 31
0.0
  0
LINE
  8
0
 62
     0
 10
170.295
 20
127.565
 30
0.0
 11
170.295
 21
130.666
 31
0.0
  0
LINE
  8
0
 62
     0
 10
170.295
 20
130.666
 30
0.0
 11
169.496
 21
130.666
 31
0.0
  0
LINE
  8
0
 62
     0
 10
169.496
 20
130.666
 30
0.0
 11
169.496
 21
131.666
 31
0.0
  0
LINE
  8
0
 62
     0
 10
169.496
 20
131.666
 30
0.0
 11
155.495
 21
131.666
 31
0.0
  0
LINE
  8
0
 62
     0
 10
179.307
 20
131.666
 30
0.0
 11
179.307
 21
130.666
 31
0.0
  0
LINE
  8
0
 62
     0
 10
179.307
 20
130.666
 30
0.0
 11
178.507
 21
130.666
 31
0.0
  0
LINE
  8
0
 62
     0
 10
178.507
 20
130.666
 30
0.0
 11
178.507
 21
127.565
 31
0.0
  0
LINE
  8
0
 62
     0
 10
178.507
 20
127.565
 30
0.0
 11
179.307
 21
127.565
 31
0.0
  0
LINE
  8
0
 62
     0
 10
179.307
 20
127.565
 30
0.0
 11
179.307
 21
121.766
 31
0.0
  0
LINE
  8
0
 62
     0
 10
179.307
 20
121.766
 30
0.0
 11
178.507
 21
121.766
 31
0.0
  0
LINE
  8
0
 62
     0
 10
178.507
 20
121.766
 30
0.0
 11
178.507
 21
118.666
 31
0.0
  0
LINE
  8
0
 62
     0
 10
178.507
 20
118.666
 30
0.0
 11
179.307
 21
118.666
 31
0.0
  0
LINE
  8
0
 62
     0
 10
179.307
 20
118.666
 30
0.0
 11
179.307
 21
117.665
 31
0.0
  0
LINE
  8
0
 62
     0
 10
179.307
 20
117.665
 30
0.0
 11
193.307
 21
117.665
 31
0.0
  0
LINE
  8
0
 62
     0
 10
193.307
 20
117.665
 30
0.0
 11
193.307
 21
118.666
 31
0.0
  0
LINE
  8
0
 62
     0
 10
193.307
 20
118.666
 30
0.0
 11
194.108
 21
118.666
 31
0.0
  0
LINE
  8
0
 62
     0
 10
194.108
 20
118.666
 30
0.0
 11
194.108
 21
121.766
 31
0.0
  0
LINE
  8
0
 62
     0
 10
194.108
 20
121.766
 30
0.0
 11
193.307
 21
121.766
 31
0.0
  0
LINE
  8
0
 62
     0
 10
193.307
 20
121.766
 30
0.0
 11
193.307
 21
127.565
 31
0.0
  0
LINE
  8
0
 62
     0
 10
193.307
 20
127.565
 30
0.0
 11
194.108
 21
127.565
 31
0.0
  0
LINE
  8
0
 62
     0
 10
194.108
 20
127.565
 30
0.0
 11
194.108
 21
130.666
 31
0.0
  0
LINE
  8
0
 62
     0
 10
194.108
 20
130.666
 30
0.0
 11
193.307
 21
130.666
 31
0.0
  0
LINE
  8
0
 62
     0
 10
193.307
 20
130.666
 30
0.0
 11
193.307
 21
131.666
 31
0.0
  0
LINE
  8
0
 62
     0
 10
193.307
 20
131.666
 30
0.0
 11
179.307
 21
131.666
 31
0.0
  0
LINE
  8
0
 62
     0
 10
198.357
 20
131.666
 30
0.0
 11
198.357
 21
130.666
 31
0.0
  0
LINE
  8
0
 62
     0
 10
198.357
 20
130.666
 30
0.0
 11
197.557
 21
130.666
 31
0.0
  0
LINE
  8
0
 62
     0
 10
197.557
 20
130.666
 30
0.0
 11
197.557
 21
127.565
 31
0.0
  0
LINE
  8
0
 62
     0
 10
197.557
 20
127.565
 30
0.0
 11
198.357
 21
127.565
 31
0.0
  0
LINE
  8
0
 62
     0
 10
198.357
 20
127.565
 30
0.0
 11
198.357
 21
121.766
 31
0.0
  0
LINE
  8
0
 62
     0
 10
198.357
 20
121.766
 30
0.0
 11
197.557
 21
121.766
 31
0.0
  0
LINE
  8
0
 62
     0
 10
197.557
 20
121.766
 30
0.0
 11
197.557
 21
118.666
 31
0.0
  0
LINE
  8
0
 62
     0
 10
197.557
 20
118.666
 30
0.0
 11
198.357
 21
118.666
 31
0.0
  0
LINE
  8
0
 62
     0
 10
198.357
 20
118.666
 30
0.0
 11
198.357
 21
117.665
 31
0.0
  0
LINE
  8
0
 62
     0
 10
198.357
 20
117.665
 30
0.0
 11
212.357
 21
117.665
 31
0.0
  0
LINE
  8
0
 62
     0
 10
212.357
 20
117.665
 30
0.0
 11
212.357
 21
118.666
 31
0.0
  0
LINE
  8
0
 62
     0
 10
212.357
 20
118.666
 30
0.0
 11
213.158
 21
118.666
 31
0.0
  0
LINE
  8
0
 62
     0
 10
213.158
 20
118.666
 30
0.0
 11
213.158
 21
121.766
 31
0.0
  0
LINE
  8
0
 62
     0
 10
213.158
 20
121.766
 30
0.0
 11
212.357
 21
121.766
 31
0.0
  0
LINE
  8
0
 62
     0
 10
212.357
 20
121.766
 30
0.0
 11
212.357
 21
127.565
 31
0.0
  0
LINE
  8
0
 62
     0
 10
212.357
 20
127.565
 30
0.0
 11
213.158
 21
127.565
 31
0.0
  0
LINE
  8
0
 62
     0
 10
213.158
 20
127.565
 30
0.0
 11
213.158
 21
130.666
 31
0.0
  0
LINE
  8
0
 62
     0
 10
213.158
 20
130.666
 30
0.0
 11
212.357
 21
130.666
 31
0.0
  0
LINE
  8
0
 62
     0
 10
212.357
 20
130.666
 30
0.0
 11
212.357
 21
131.666
 31
0.0
  0
LINE
  8
0
 62
     0
 10
212.357
 20
131.666
 30
0.0
 11
198.357
 21
131.666
 31
0.0
  0
LINE
  8
0
 62
     0
 10
217.407
 20
131.666
 30
0.0
 11
217.407
 21
130.666
 31
0.0
  0
LINE
  8
0
 62
     0
 10
217.407
 20
130.666
 30
0.0
 11
216.607
 21
130.666
 31
0.0
  0
LINE
  8
0
 62
     0
 10
216.607
 20
130.666
 30
0.0
 11
216.607
 21
127.565
 31
0.0
  0
LINE
  8
0
 62
     0
 10
216.607
 20
127.565
 30
0.0
 11
217.407
 21
127.565
 31
0.0
  0
LINE
  8
0
 62
     0
 10
217.407
 20
127.565
 30
0.0
 11
217.407
 21
121.766
 31
0.0
  0
LINE
  8
0
 62
     0
 10
217.407
 20
121.766
 30
0.0
 11
216.607
 21
121.766
 31
0.0
  0
LINE
  8
0
 62
     0
 10
216.607
 20
121.766
 30
0.0
 11
216.607
 21
118.666
 31
0.0
  0
LINE
  8
0
 62
     0
 10
216.607
 20
118.666
 30
0.0
 11
217.407
 21
118.666
 31
0.0
  0
LINE
  8
0
 62
     0
 10
217.407
 20
118.666
 30
0.0
 11
217.407
 21
117.665
 31
0.0
  0
LINE
  8
0
 62
     0
 10
217.407
 20
117.665
 30
0.0
 11
231.407
 21
117.665
 31
0.0
  0
LINE
  8
0
 62
     0
 10
231.407
 20
117.665
 30
0.0
 11
231.407
 21
118.666
 31
0.0
  0
LINE
  8
0
 62
     0
 10
231.407
 20
118.666
 30
0.0
 11
232.208
 21
118.666
 31
0.0
  0
LINE
  8
0
 62
     0
 10
232.208
 20
118.666
 30
0.0
 11
232.208
 21
121.766
 31
0.0
  0
LINE
  8
0
 62
     0
 10
232.208
 20
121.766
 30
0.0
 11
231.407
 21
121.766
 31
0.0
  0
LINE
  8
0
 62
     0
 10
231.407
 20
121.766
 30
0.0
 11
231.407
 21
127.565
 31
0.0
  0
LINE
  8
0
 62
     0
 10
231.407
 20
127.565
 30
0.0
 11
232.208
 21
127.565
 31
0.0
  0
LINE
  8
0
 62
     0
 10
232.208
 20
127.565
 30
0.0
 11
232.208
 21
130.666
 31
0.0
  0
LINE
  8
0
 62
     0
 10
232.208
 20
130.666
 30
0.0
 11
231.407
 21
130.666
 31
0.0
  0
LINE
  8
0
 62
     0
 10
231.407
 20
130.666
 30
0.0
 11
231.407
 21
131.666
 31
0.0
  0
LINE
  8
0
 62
     0
 10
231.407
 20
131.666
 30
0.0
 11
217.407
 21
131.666
 31
0.0
  0
LINE
  8
0
 62
     0
 10
136.397
 20
142.094
 30
0.0
 11
135.839
 21
141.81
 31
0.0
  0
LINE
  8
0
 62
     0
 10
135.839
 20
141.81
 30
0.0
 11
135.396
 21
141.366
 31
0.0
  0
LINE
  8
0
 62
     0
 10
135.396
 20
141.366
 30
0.0
 11
135.112
 21
140.809
 31
0.0
  0
LINE
  8
0
 62
     0
 10
135.112
 20
140.809
 30
0.0
 11
135.015
 21
140.191
 31
0.0
  0
LINE
  8
0
 62
     0
 10
135.015
 20
140.191
 30
0.0
 11
135.112
 21
139.573
 31
0.0
  0
LINE
  8
0
 62
     0
 10
135.112
 20
139.573
 30
0.0
 11
135.396
 21
139.015
 31
0.0
  0
LINE
  8
0
 62
     0
 10
135.396
 20
139.015
 30
0.0
 11
135.839
 21
138.573
 31
0.0
  0
LINE
  8
0
 62
     0
 10
135.839
 20
138.573
 30
0.0
 11
136.397
 21
138.289
 31
0.0
  0
LINE
  8
0
 62
     0
 10
136.397
 20
138.289
 30
0.0
 11
137.014
 21
138.191
 31
0.0
  0
LINE
  8
0
 62
     0
 10
137.014
 20
138.191
 30
0.0
 11
137.633
 21
138.289
 31
0.0
  0
LINE
  8
0
 62
     0
 10
137.633
 20
138.289
 30
0.0
 11
138.19
 21
138.573
 31
0.0
  0
LINE
  8
0
 62
     0
 10
138.19
 20
138.573
 30
0.0
 11
138.632
 21
139.015
 31
0.0
  0
LINE
  8
0
 62
     0
 10
138.632
 20
139.015
 30
0.0
 11
138.916
 21
139.573
 31
0.0
  0
LINE
  8
0
 62
     0
 10
138.916
 20
139.573
 30
0.0
 11
139.015
 21
140.191
 31
0.0
  0
LINE
  8
0
 62
     0
 10
139.015
 20
140.191
 30
0.0
 11
138.916
 21
140.809
 31
0.0
  0
LINE
  8
0
 62
     0
 10
138.916
 20
140.809
 30
0.0
 11
138.632
 21
141.366
 31
0.0
  0
LINE
  8
0
 62
     0
 10
138.632
 20
141.366
 30
0.0
 11
138.19
 21
141.81
 31
0.0
  0
LINE
  8
0
 62
     0
 10
138.19
 20
141.81
 30
0.0
 11
137.633
 21
142.094
 31
0.0
  0
LINE
  8
0
 62
     0
 10
137.633
 20
142.094
 30
0.0
 11
137.014
 21
142.19
 31
0.0
  0
LINE
  8
0
 62
     0
 10
137.014
 20
142.19
 30
0.0
 11
136.397
 21
142.094
 31
0.0
  0
LINE
  8
0
 62
     0
 10
269.315
 20
142.094
 30
0.0
 11
268.757
 21
141.81
 31
0.0
  0
LINE
  8
0
 62
     0
 10
268.757
 20
141.81
 30
0.0
 11
268.315
 21
141.366
 31
0.0
  0
LINE
  8
0
 62
     0
 10
268.315
 20
141.366
 30
0.0
 11
268.031
 21
140.809
 31
0.0
  0
LINE
  8
0
 62
     0
 10
268.031
 20
140.809
 30
0.0
 11
267.933
 21
140.191
 31
0.0
  0
LINE
  8
0
 62
     0
 10
267.933
 20
140.191
 30
0.0
 11
268.031
 21
139.573
 31
0.0
  0
LINE
  8
0
 62
     0
 10
268.031
 20
139.573
 30
0.0
 11
268.315
 21
139.015
 31
0.0
  0
LINE
  8
0
 62
     0
 10
268.315
 20
139.015
 30
0.0
 11
268.757
 21
138.573
 31
0.0
  0
LINE
  8
0
 62
     0
 10
268.757
 20
138.573
 30
0.0
 11
269.315
 21
138.289
 31
0.0
  0
LINE
  8
0
 62
     0
 10
269.315
 20
138.289
 30
0.0
 11
269.933
 21
138.191
 31
0.0
  0
LINE
  8
0
 62
     0
 10
269.933
 20
138.191
 30
0.0
 11
270.552
 21
138.289
 31
0.0
  0
LINE
  8
0
 62
     0
 10
270.552
 20
138.289
 30
0.0
 11
271.11
 21
138.573
 31
0.0
  0
LINE
  8
0
 62
     0
 10
271.11
 20
138.573
 30
0.0
 11
271.552
 21
139.015
 31
0.0
  0
LINE
  8
0
 62
     0
 10
271.552
 20
139.015
 30
0.0
 11
271.836
 21
139.573
 31
0.0
  0
LINE
  8
0
 62
     0
 10
271.836
 20
139.573
 30
0.0
 11
271.934
 21
140.191
 31
0.0
  0
LINE
  8
0
 62
     0
 10
271.934
 20
140.191
 30
0.0
 11
271.836
 21
140.809
 31
0.0
  0
LINE
  8
0
 62
     0
 10
271.836
 20
140.809
 30
0.0
 11
271.552
 21
141.366
 31
0.0
  0
LINE
  8
0
 62
     0
 10
271.552
 20
141.366
 30
0.0
 11
271.11
 21
141.81
 31
0.0
  0
LINE
  8
0
 62
     0
 10
271.11
 20
141.81
 30
0.0
 11
270.552
 21
142.094
 31
0.0
  0
LINE
  8
0
 62
     0
 10
270.552
 20
142.094
 30
0.0
 11
269.933
 21
142.19
 31
0.0
  0
LINE
  8
0
 62
     0
 10
269.933
 20
142.19
 30
0.0
 11
269.315
 21
142.094
 31
0.0
  0
LINE
  8
0
 62
     0
 10
3.47679
 20
142.094
 30
0.0
 11
2.92006
 21
141.81
 31
0.0
  0
LINE
  8
0
 62
     0
 10
2.92006
 20
141.81
 30
0.0
 11
2.47633
 21
141.366
 31
0.0
  0
LINE
  8
0
 62
     0
 10
2.47633
 20
141.366
 30
0.0
 11
2.19246
 21
140.809
 31
0.0
  0
LINE
  8
0
 62
     0
 10
2.19246
 20
140.809
 30
0.0
 11
2.09462
 21
140.191
 31
0.0
  0
LINE
  8
0
 62
     0
 10
2.09462
 20
140.191
 30
0.0
 11
2.19246
 21
139.573
 31
0.0
  0
LINE
  8
0
 62
     0
 10
2.19246
 20
139.573
 30
0.0
 11
2.47633
 21
139.015
 31
0.0
  0
LINE
  8
0
 62
     0
 10
2.47633
 20
139.015
 30
0.0
 11
2.92006
 21
138.573
 31
0.0
  0
LINE
  8
0
 62
     0
 10
2.92006
 20
138.573
 30
0.0
 11
3.47679
 21
138.289
 31
0.0
  0
LINE
  8
0
 62
     0
 10
3.47679
 20
138.289
 30
0.0
 11
4.09554
 21
138.191
 31
0.0
  0
LINE
  8
0
 62
     0
 10
4.09554
 20
138.191
 30
0.0
 11
4.7129
 21
138.289
 31
0.0
  0
LINE
  8
0
 62
     0
 10
4.7129
 20
138.289
 30
0.0
 11
5.27099
 21
138.573
 31
0.0
  0
LINE
  8
0
 62
     0
 10
5.27099
 20
138.573
 30
0.0
 11
5.71334
 21
139.015
 31
0.0
  0
LINE
  8
0
 62
     0
 10
5.71334
 20
139.015
 30
0.0
 11
5.99722
 21
139.573
 31
0.0
  0
LINE
  8
0
 62
     0
 10
5.99722
 20
139.573
 30
0.0
 11
6.09505
 21
140.191
 31
0.0
  0
LINE
  8
0
 62
     0
 10
6.09505
 20
140.191
 30
0.0
 11
5.99722
 21
140.809
 31
0.0
  0
LINE
  8
0
 62
     0
 10
5.99722
 20
140.809
 30
0.0
 11
5.71334
 21
141.366
 31
0.0
  0
LINE
  8
0
 62
     0
 10
5.71334
 20
141.366
 30
0.0
 11
5.27099
 21
141.81
 31
0.0
  0
LINE
  8
0
 62
     0
 10
5.27099
 20
141.81
 30
0.0
 11
4.7129
 21
142.094
 31
0.0
  0
LINE
  8
0
 62
     0
 10
4.7129
 20
142.094
 30
0.0
 11
4.09554
 21
142.19
 31
0.0
  0
LINE
  8
0
 62
     0
 10
4.09554
 20
142.19
 30
0.0
 11
3.47679
 21
142.094
 31
0.0
  0
ENDSEC
  0
EOF
