  0
SECTION
  2
HEADER
  9
$ACADVER
  1
AC1009
  9
$FILLMODE
 70
 0
  9
$SPLFRAME
 70
 1
  9
$EXTMIN
 10
0
 20
0
 30
0.0
  9
$EXTMAX
 10
1058.33
 20
1058.33
 30
0.0
  0
ENDSEC
  0
SECTION
  2
TABLES
  0
TABLE
  2
LAYER
 70
1
  0
LAYER
  2
0
 70
     0
 62
     7
  6
CONTINUOUS
  0
ENDTAB
  0
ENDSEC
  0
SECTION
  2
ENTITIES
  0
LINE
  8
0
 62
     0
 10
269.933
 20
144.191
 30
0.0
 11
270.247
 21
144.179
 31
0.0
  0
LINE
  8
0
 62
     0
 10
270.247
 20
144.179
 30
0.0
 11
270.56
 21
144.141
 31
0.0
  0
LINE
  8
0
 62
     0
 10
270.56
 20
144.141
 30
0.0
 11
270.867
 21
144.081
 31
0.0
  0
LINE
  8
0
 62
     0
 10
270.867
 20
144.081
 30
0.0
 11
271.169
 21
143.995
 31
0.0
  0
LINE
  8
0
 62
     0
 10
271.169
 20
143.995
 30
0.0
 11
271.464
 21
143.886
 31
0.0
  0
LINE
  8
0
 62
     0
 10
271.464
 20
143.886
 30
0.0
 11
271.749
 21
143.756
 31
0.0
  0
LINE
  8
0
 62
     0
 10
271.749
 20
143.756
 30
0.0
 11
272.023
 21
143.601
 31
0.0
  0
LINE
  8
0
 62
     0
 10
272.023
 20
143.601
 30
0.0
 11
272.284
 21
143.427
 31
0.0
  0
LINE
  8
0
 62
     0
 10
272.284
 20
143.427
 30
0.0
 11
272.532
 21
143.233
 31
0.0
  0
LINE
  8
0
 62
     0
 10
272.532
 20
143.233
 30
0.0
 11
272.762
 21
143.02
 31
0.0
  0
LINE
  8
0
 62
     0
 10
272.762
 20
143.02
 30
0.0
 11
272.976
 21
142.788
 31
0.0
  0
LINE
  8
0
 62
     0
 10
272.976
 20
142.788
 30
0.0
 11
273.17
 21
142.543
 31
0.0
  0
LINE
  8
0
 62
     0
 10
273.17
 20
142.543
 30
0.0
 11
273.345
 21
142.281
 31
0.0
  0
LINE
  8
0
 62
     0
 10
273.345
 20
142.281
 30
0.0
 11
273.498
 21
142.007
 31
0.0
  0
LINE
  8
0
 62
     0
 10
273.498
 20
142.007
 30
0.0
 11
273.63
 21
141.721
 31
0.0
  0
LINE
  8
0
 62
     0
 10
273.63
 20
141.721
 30
0.0
 11
273.738
 21
141.428
 31
0.0
  0
LINE
  8
0
 62
     0
 10
273.738
 20
141.428
 30
0.0
 11
273.823
 21
141.125
 31
0.0
  0
LINE
  8
0
 62
     0
 10
273.823
 20
141.125
 30
0.0
 11
273.885
 21
140.816
 31
0.0
  0
LINE
  8
0
 62
     0
 10
273.885
 20
140.816
 30
0.0
 11
273.921
 21
140.505
 31
0.0
  0
LINE
  8
0
 62
     0
 10
273.921
 20
140.505
 30
0.0
 11
273.933
 21
140.191
 31
0.0
  0
LINE
  8
0
 62
     0
 10
273.933
 20
140.191
 30
0.0
 11
273.933
 21
4.36425
 31
0.0
  0
LINE
  8
0
 62
     0
 10
273.933
 20
4.36425
 30
0.0
 11
273.921
 21
4.05144
 31
0.0
  0
LINE
  8
0
 62
     0
 10
273.921
 20
4.05144
 30
0.0
 11
273.885
 21
3.74001
 31
0.0
  0
LINE
  8
0
 62
     0
 10
273.885
 20
3.74001
 30
0.0
 11
273.823
 21
3.43131
 31
0.0
  0
LINE
  8
0
 62
     0
 10
273.823
 20
3.43131
 30
0.0
 11
273.738
 21
3.12815
 31
0.0
  0
LINE
  8
0
 62
     0
 10
273.738
 20
3.12815
 30
0.0
 11
273.63
 21
2.83463
 31
0.0
  0
LINE
  8
0
 62
     0
 10
273.63
 20
2.83463
 30
0.0
 11
273.498
 21
2.54937
 31
0.0
  0
LINE
  8
0
 62
     0
 10
273.498
 20
2.54937
 30
0.0
 11
273.345
 21
2.27514
 31
0.0
  0
LINE
  8
0
 62
     0
 10
273.345
 20
2.27514
 30
0.0
 11
273.17
 21
2.01331
 31
0.0
  0
LINE
  8
0
 62
     0
 10
273.17
 20
2.01331
 30
0.0
 11
272.976
 21
1.76802
 31
0.0
  0
LINE
  8
0
 62
     0
 10
272.976
 20
1.76802
 30
0.0
 11
272.762
 21
1.53651
 31
0.0
  0
LINE
  8
0
 62
     0
 10
272.762
 20
1.53651
 30
0.0
 11
272.532
 21
1.3243
 31
0.0
  0
LINE
  8
0
 62
     0
 10
272.532
 20
1.3243
 30
0.0
 11
272.284
 21
1.12861
 31
0.0
  0
LINE
  8
0
 62
     0
 10
272.284
 20
1.12861
 30
0.0
 11
272.023
 21
0.95498
 31
0.0
  0
LINE
  8
0
 62
     0
 10
272.023
 20
0.95498
 30
0.0
 11
271.749
 21
0.80064
 31
0.0
  0
LINE
  8
0
 62
     0
 10
271.749
 20
0.80064
 30
0.0
 11
271.464
 21
0.669727
 31
0.0
  0
LINE
  8
0
 62
     0
 10
271.464
 20
0.669727
 30
0.0
 11
271.169
 21
0.56086
 31
0.0
  0
LINE
  8
0
 62
     0
 10
271.169
 20
0.56086
 30
0.0
 11
270.867
 21
0.475424
 31
0.0
  0
LINE
  8
0
 62
     0
 10
270.867
 20
0.475424
 30
0.0
 11
270.56
 21
0.414789
 31
0.0
  0
LINE
  8
0
 62
     0
 10
270.56
 20
0.414789
 30
0.0
 11
270.247
 21
0.377582
 31
0.0
  0
LINE
  8
0
 62
     0
 10
270.247
 20
0.377582
 30
0.0
 11
269.933
 21
0.365181
 31
0.0
  0
LINE
  8
0
 62
     0
 10
269.933
 20
0.365181
 30
0.0
 11
4.09554
 21
0.365181
 31
0.0
  0
LINE
  8
0
 62
     0
 10
4.09554
 20
0.365181
 30
0.0
 11
3.78135
 21
0.377582
 31
0.0
  0
LINE
  8
0
 62
     0
 10
3.78135
 20
0.377582
 30
0.0
 11
3.4699
 21
0.414789
 31
0.0
  0
LINE
  8
0
 62
     0
 10
3.4699
 20
0.414789
 30
0.0
 11
3.16122
 21
0.475424
 31
0.0
  0
LINE
  8
0
 62
     0
 10
3.16122
 20
0.475424
 30
0.0
 11
2.85805
 21
0.56086
 31
0.0
  0
LINE
  8
0
 62
     0
 10
2.85805
 20
0.56086
 30
0.0
 11
2.56453
 21
0.669727
 31
0.0
  0
LINE
  8
0
 62
     0
 10
2.56453
 20
0.669727
 30
0.0
 11
2.27928
 21
0.80064
 31
0.0
  0
LINE
  8
0
 62
     0
 10
2.27928
 20
0.80064
 30
0.0
 11
2.00504
 21
0.95498
 31
0.0
  0
LINE
  8
0
 62
     0
 10
2.00504
 20
0.95498
 30
0.0
 11
1.74322
 21
1.12861
 31
0.0
  0
LINE
  8
0
 62
     0
 10
1.74322
 20
1.12861
 30
0.0
 11
1.49793
 21
1.3243
 31
0.0
  0
LINE
  8
0
 62
     0
 10
1.49793
 20
1.3243
 30
0.0
 11
1.26642
 21
1.53651
 31
0.0
  0
LINE
  8
0
 62
     0
 10
1.26642
 20
1.53651
 30
0.0
 11
1.05282
 21
1.76802
 31
0.0
  0
LINE
  8
0
 62
     0
 10
1.05282
 20
1.76802
 30
0.0
 11
0.858516
 21
2.01331
 31
0.0
  0
LINE
  8
0
 62
     0
 10
0.858516
 20
2.01331
 30
0.0
 11
0.684886
 21
2.27514
 31
0.0
  0
LINE
  8
0
 62
     0
 10
0.684886
 20
2.27514
 30
0.0
 11
0.530546
 21
2.54937
 31
0.0
  0
LINE
  8
0
 62
     0
 10
0.530546
 20
2.54937
 30
0.0
 11
0.39963
 21
2.83463
 31
0.0
  0
LINE
  8
0
 62
     0
 10
0.39963
 20
2.83463
 30
0.0
 11
0.290766
 21
3.12815
 31
0.0
  0
LINE
  8
0
 62
     0
 10
0.290766
 20
3.12815
 30
0.0
 11
0.205328
 21
3.43131
 31
0.0
  0
LINE
  8
0
 62
     0
 10
0.205328
 20
3.43131
 30
0.0
 11
0.144694
 21
3.74001
 31
0.0
  0
LINE
  8
0
 62
     0
 10
0.144694
 20
3.74001
 30
0.0
 11
0.107487
 21
4.05144
 31
0.0
  0
LINE
  8
0
 62
     0
 10
0.107487
 20
4.05144
 30
0.0
 11
0.0950846
 21
4.36425
 31
0.0
  0
LINE
  8
0
 62
     0
 10
0.0950846
 20
4.36425
 30
0.0
 11
0.0950846
 21
140.191
 31
0.0
  0
LINE
  8
0
 62
     0
 10
0.0950846
 20
140.191
 30
0.0
 11
0.107487
 21
140.505
 31
0.0
  0
LINE
  8
0
 62
     0
 10
0.107487
 20
140.505
 30
0.0
 11
0.144694
 21
140.816
 31
0.0
  0
LINE
  8
0
 62
     0
 10
0.144694
 20
140.816
 30
0.0
 11
0.205328
 21
141.125
 31
0.0
  0
LINE
  8
0
 62
     0
 10
0.205328
 20
141.125
 30
0.0
 11
0.290766
 21
141.428
 31
0.0
  0
LINE
  8
0
 62
     0
 10
0.290766
 20
141.428
 30
0.0
 11
0.39963
 21
141.721
 31
0.0
  0
LINE
  8
0
 62
     0
 10
0.39963
 20
141.721
 30
0.0
 11
0.530546
 21
142.007
 31
0.0
  0
LINE
  8
0
 62
     0
 10
0.530546
 20
142.007
 30
0.0
 11
0.684886
 21
142.281
 31
0.0
  0
LINE
  8
0
 62
     0
 10
0.684886
 20
142.281
 30
0.0
 11
0.858516
 21
142.543
 31
0.0
  0
LINE
  8
0
 62
     0
 10
0.858516
 20
142.543
 30
0.0
 11
1.05282
 21
142.788
 31
0.0
  0
LINE
  8
0
 62
     0
 10
1.05282
 20
142.788
 30
0.0
 11
1.26642
 21
143.02
 31
0.0
  0
LINE
  8
0
 62
     0
 10
1.26642
 20
143.02
 30
0.0
 11
1.49793
 21
143.233
 31
0.0
  0
LINE
  8
0
 62
     0
 10
1.49793
 20
143.233
 30
0.0
 11
1.74322
 21
143.427
 31
0.0
  0
LINE
  8
0
 62
     0
 10
1.74322
 20
143.427
 30
0.0
 11
2.00504
 21
143.601
 31
0.0
  0
LINE
  8
0
 62
     0
 10
2.00504
 20
143.601
 30
0.0
 11
2.27928
 21
143.756
 31
0.0
  0
LINE
  8
0
 62
     0
 10
2.27928
 20
143.756
 30
0.0
 11
2.56453
 21
143.886
 31
0.0
  0
LINE
  8
0
 62
     0
 10
2.56453
 20
143.886
 30
0.0
 11
2.85805
 21
143.995
 31
0.0
  0
LINE
  8
0
 62
     0
 10
2.85805
 20
143.995
 30
0.0
 11
3.16122
 21
144.081
 31
0.0
  0
LINE
  8
0
 62
     0
 10
3.16122
 20
144.081
 30
0.0
 11
3.4699
 21
144.141
 31
0.0
  0
LINE
  8
0
 62
     0
 10
3.4699
 20
144.141
 30
0.0
 11
3.78135
 21
144.179
 31
0.0
  0
LINE
  8
0
 62
     0
 10
3.78135
 20
144.179
 30
0.0
 11
4.09554
 21
144.191
 31
0.0
  0
LINE
  8
0
 62
     0
 10
4.09554
 20
144.191
 30
0.0
 11
269.933
 21
144.191
 31
0.0
  0
LINE
  8
0
 62
     0
 10
269.315
 20
6.26731
 30
0.0
 11
268.757
 21
5.98343
 31
0.0
  0
LINE
  8
0
 62
     0
 10
268.757
 20
5.98343
 30
0.0
 11
268.315
 21
5.54108
 31
0.0
  0
LINE
  8
0
 62
     0
 10
268.315
 20
5.54108
 30
0.0
 11
268.031
 21
4.98299
 31
0.0
  0
LINE
  8
0
 62
     0
 10
268.031
 20
4.98299
 30
0.0
 11
267.933
 21
4.36425
 31
0.0
  0
LINE
  8
0
 62
     0
 10
267.933
 20
4.36425
 30
0.0
 11
268.031
 21
3.74689
 31
0.0
  0
LINE
  8
0
 62
     0
 10
268.031
 20
3.74689
 30
0.0
 11
268.315
 21
3.19016
 31
0.0
  0
LINE
  8
0
 62
     0
 10
268.315
 20
3.19016
 30
0.0
 11
268.757
 21
2.74643
 31
0.0
  0
LINE
  8
0
 62
     0
 10
268.757
 20
2.74643
 30
0.0
 11
269.315
 21
2.46255
 31
0.0
  0
LINE
  8
0
 62
     0
 10
269.315
 20
2.46255
 30
0.0
 11
269.933
 21
2.36472
 31
0.0
  0
LINE
  8
0
 62
     0
 10
269.933
 20
2.36472
 30
0.0
 11
270.552
 21
2.46255
 31
0.0
  0
LINE
  8
0
 62
     0
 10
270.552
 20
2.46255
 30
0.0
 11
271.11
 21
2.74643
 31
0.0
  0
LINE
  8
0
 62
     0
 10
271.11
 20
2.74643
 30
0.0
 11
271.552
 21
3.19016
 31
0.0
  0
LINE
  8
0
 62
     0
 10
271.552
 20
3.19016
 30
0.0
 11
271.836
 21
3.74689
 31
0.0
  0
LINE
  8
0
 62
     0
 10
271.836
 20
3.74689
 30
0.0
 11
271.934
 21
4.36425
 31
0.0
  0
LINE
  8
0
 62
     0
 10
271.934
 20
4.36425
 30
0.0
 11
271.836
 21
4.98299
 31
0.0
  0
LINE
  8
0
 62
     0
 10
271.836
 20
4.98299
 30
0.0
 11
271.552
 21
5.54108
 31
0.0
  0
LINE
  8
0
 62
     0
 10
271.552
 20
5.54108
 30
0.0
 11
271.11
 21
5.98343
 31
0.0
  0
LINE
  8
0
 62
     0
 10
271.11
 20
5.98343
 30
0.0
 11
270.552
 21
6.26731
 31
0.0
  0
LINE
  8
0
 62
     0
 10
270.552
 20
6.26731
 30
0.0
 11
269.933
 21
6.36517
 31
0.0
  0
LINE
  8
0
 62
     0
 10
269.933
 20
6.36517
 30
0.0
 11
269.315
 21
6.26731
 31
0.0
  0
LINE
  8
0
 62
     0
 10
136.397
 20
6.26731
 30
0.0
 11
135.839
 21
5.98343
 31
0.0
  0
LINE
  8
0
 62
     0
 10
135.839
 20
5.98343
 30
0.0
 11
135.396
 21
5.54108
 31
0.0
  0
LINE
  8
0
 62
     0
 10
135.396
 20
5.54108
 30
0.0
 11
135.112
 21
4.98299
 31
0.0
  0
LINE
  8
0
 62
     0
 10
135.112
 20
4.98299
 30
0.0
 11
135.015
 21
4.36425
 31
0.0
  0
LINE
  8
0
 62
     0
 10
135.015
 20
4.36425
 30
0.0
 11
135.112
 21
3.74689
 31
0.0
  0
LINE
  8
0
 62
     0
 10
135.112
 20
3.74689
 30
0.0
 11
135.396
 21
3.19016
 31
0.0
  0
LINE
  8
0
 62
     0
 10
135.396
 20
3.19016
 30
0.0
 11
135.839
 21
2.74643
 31
0.0
  0
LINE
  8
0
 62
     0
 10
135.839
 20
2.74643
 30
0.0
 11
136.397
 21
2.46255
 31
0.0
  0
LINE
  8
0
 62
     0
 10
136.397
 20
2.46255
 30
0.0
 11
137.014
 21
2.36472
 31
0.0
  0
LINE
  8
0
 62
     0
 10
137.014
 20
2.36472
 30
0.0
 11
137.633
 21
2.46255
 31
0.0
  0
LINE
  8
0
 62
     0
 10
137.633
 20
2.46255
 30
0.0
 11
138.19
 21
2.74643
 31
0.0
  0
LINE
  8
0
 62
     0
 10
138.19
 20
2.74643
 30
0.0
 11
138.632
 21
3.19016
 31
0.0
  0
LINE
  8
0
 62
     0
 10
138.632
 20
3.19016
 30
0.0
 11
138.916
 21
3.74689
 31
0.0
  0
LINE
  8
0
 62
     0
 10
138.916
 20
3.74689
 30
0.0
 11
139.015
 21
4.36425
 31
0.0
  0
LINE
  8
0
 62
     0
 10
139.015
 20
4.36425
 30
0.0
 11
138.916
 21
4.98299
 31
0.0
  0
LINE
  8
0
 62
     0
 10
138.916
 20
4.98299
 30
0.0
 11
138.632
 21
5.54108
 31
0.0
  0
LINE
  8
0
 62
     0
 10
138.632
 20
5.54108
 30
0.0
 11
138.19
 21
5.98343
 31
0.0
  0
LINE
  8
0
 62
     0
 10
138.19
 20
5.98343
 30
0.0
 11
137.633
 21
6.26731
 31
0.0
  0
LINE
  8
0
 62
     0
 10
137.633
 20
6.26731
 30
0.0
 11
137.014
 21
6.36517
 31
0.0
  0
LINE
  8
0
 62
     0
 10
137.014
 20
6.36517
 30
0.0
 11
136.397
 21
6.26731
 31
0.0
  0
LINE
  8
0
 62
     0
 10
3.47679
 20
6.26731
 30
0.0
 11
2.92006
 21
5.98343
 31
0.0
  0
LINE
  8
0
 62
     0
 10
2.92006
 20
5.98343
 30
0.0
 11
2.47633
 21
5.54108
 31
0.0
  0
LINE
  8
0
 62
     0
 10
2.47633
 20
5.54108
 30
0.0
 11
2.19246
 21
4.98299
 31
0.0
  0
LINE
  8
0
 62
     0
 10
2.19246
 20
4.98299
 30
0.0
 11
2.09462
 21
4.36425
 31
0.0
  0
LINE
  8
0
 62
     0
 10
2.09462
 20
4.36425
 30
0.0
 11
2.19246
 21
3.74689
 31
0.0
  0
LINE
  8
0
 62
     0
 10
2.19246
 20
3.74689
 30
0.0
 11
2.47633
 21
3.19016
 31
0.0
  0
LINE
  8
0
 62
     0
 10
2.47633
 20
3.19016
 30
0.0
 11
2.92006
 21
2.74643
 31
0.0
  0
LINE
  8
0
 62
     0
 10
2.92006
 20
2.74643
 30
0.0
 11
3.47679
 21
2.46255
 31
0.0
  0
LINE
  8
0
 62
     0
 10
3.47679
 20
2.46255
 30
0.0
 11
4.09554
 21
2.36472
 31
0.0
  0
LINE
  8
0
 62
     0
 10
4.09554
 20
2.36472
 30
0.0
 11
4.7129
 21
2.46255
 31
0.0
  0
LINE
  8
0
 62
     0
 10
4.7129
 20
2.46255
 30
0.0
 11
5.27099
 21
2.74643
 31
0.0
  0
LINE
  8
0
 62
     0
 10
5.27099
 20
2.74643
 30
0.0
 11
5.71334
 21
3.19016
 31
0.0
  0
LINE
  8
0
 62
     0
 10
5.71334
 20
3.19016
 30
0.0
 11
5.99722
 21
3.74689
 31
0.0
  0
LINE
  8
0
 62
     0
 10
5.99722
 20
3.74689
 30
0.0
 11
6.09505
 21
4.36425
 31
0.0
  0
LINE
  8
0
 62
     0
 10
6.09505
 20
4.36425
 30
0.0
 11
5.99722
 21
4.98299
 31
0.0
  0
LINE
  8
0
 62
     0
 10
5.99722
 20
4.98299
 30
0.0
 11
5.71334
 21
5.54108
 31
0.0
  0
LINE
  8
0
 62
     0
 10
5.71334
 20
5.54108
 30
0.0
 11
5.27099
 21
5.98343
 31
0.0
  0
LINE
  8
0
 62
     0
 10
5.27099
 20
5.98343
 30
0.0
 11
4.7129
 21
6.26731
 31
0.0
  0
LINE
  8
0
 62
     0
 10
4.7129
 20
6.26731
 30
0.0
 11
4.09554
 21
6.36517
 31
0.0
  0
LINE
  8
0
 62
     0
 10
4.09554
 20
6.36517
 30
0.0
 11
3.47679
 21
6.26731
 31
0.0
  0
LINE
  8
0
 62
     0
 10
19.6191
 20
105.617
 30
0.0
 11
19.6191
 21
86.5671
 31
0.0
  0
LINE
  8
0
 62
     0
 10
19.6191
 20
86.5671
 30
0.0
 11
10.0941
 21
86.5671
 31
0.0
  0
LINE
  8
0
 62
     0
 10
10.0941
 20
86.5671
 30
0.0
 11
10.0941
 21
67.5143
 31
0.0
  0
LINE
  8
0
 62
     0
 10
10.0941
 20
67.5143
 30
0.0
 11
14.8566
 21
67.5143
 31
0.0
  0
LINE
  8
0
 62
     0
 10
14.8566
 20
67.5143
 30
0.0
 11
14.8566
 21
48.4643
 31
0.0
  0
LINE
  8
0
 62
     0
 10
14.8566
 20
48.4643
 30
0.0
 11
24.3816
 21
48.4643
 31
0.0
  0
LINE
  8
0
 62
     0
 10
24.3816
 20
48.4643
 30
0.0
 11
24.3816
 21
10.3642
 31
0.0
  0
LINE
  8
0
 62
     0
 10
24.3816
 20
10.3642
 30
0.0
 11
172.022
 21
10.3642
 31
0.0
  0
LINE
  8
0
 62
     0
 10
172.022
 20
10.3642
 30
0.0
 11
172.022
 21
105.617
 31
0.0
  0
LINE
  8
0
 62
     0
 10
172.022
 20
105.617
 30
0.0
 11
19.6191
 21
105.617
 31
0.0
  0
LINE
  8
0
 62
     0
 10
195.832
 20
48.4671
 30
0.0
 11
195.832
 21
29.417
 31
0.0
  0
LINE
  8
0
 62
     0
 10
195.832
 20
29.417
 30
0.0
 11
176.782
 21
29.417
 31
0.0
  0
LINE
  8
0
 62
     0
 10
176.782
 20
29.417
 30
0.0
 11
176.782
 21
10.3642
 31
0.0
  0
LINE
  8
0
 62
     0
 10
176.782
 20
10.3642
 30
0.0
 11
233.933
 21
10.3642
 31
0.0
  0
LINE
  8
0
 62
     0
 10
233.933
 20
10.3642
 30
0.0
 11
233.933
 21
29.417
 31
0.0
  0
LINE
  8
0
 62
     0
 10
233.933
 20
29.417
 30
0.0
 11
214.883
 21
29.417
 31
0.0
  0
LINE
  8
0
 62
     0
 10
214.883
 20
29.417
 30
0.0
 11
214.883
 21
48.4671
 31
0.0
  0
LINE
  8
0
 62
     0
 10
214.883
 20
48.4671
 30
0.0
 11
195.832
 21
48.4671
 31
0.0
  0
LINE
  8
0
 62
     0
 10
176.782
 20
105.617
 30
0.0
 11
233.933
 21
105.617
 31
0.0
  0
LINE
  8
0
 62
     0
 10
233.933
 20
105.617
 30
0.0
 11
233.933
 21
67.5143
 31
0.0
  0
LINE
  8
0
 62
     0
 10
233.933
 20
67.5143
 30
0.0
 11
176.782
 21
67.5143
 31
0.0
  0
LINE
  8
0
 62
     0
 10
176.782
 20
67.5143
 30
0.0
 11
176.782
 21
105.617
 31
0.0
  0
LINE
  8
0
 62
     0
 10
29.1441
 20
134.192
 30
0.0
 11
86.2969
 21
134.192
 31
0.0
  0
LINE
  8
0
 62
     0
 10
86.2969
 20
134.192
 30
0.0
 11
86.2969
 21
115.139
 31
0.0
  0
LINE
  8
0
 62
     0
 10
86.2969
 20
115.139
 30
0.0
 11
29.1441
 21
115.139
 31
0.0
  0
LINE
  8
0
 62
     0
 10
29.1441
 20
115.139
 30
0.0
 11
29.1441
 21
134.192
 31
0.0
  0
LINE
  8
0
 62
     0
 10
95.819
 20
134.192
 30
0.0
 11
172.022
 21
134.192
 31
0.0
  0
LINE
  8
0
 62
     0
 10
172.022
 20
134.192
 30
0.0
 11
172.022
 21
115.139
 31
0.0
  0
LINE
  8
0
 62
     0
 10
172.022
 20
115.139
 30
0.0
 11
95.819
 21
115.139
 31
0.0
  0
LINE
  8
0
 62
     0
 10
95.819
 20
115.139
 30
0.0
 11
95.819
 21
134.192
 31
0.0
  0
LINE
  8
0
 62
     0
 10
176.782
 20
134.192
 30
0.0
 11
233.933
 21
134.192
 31
0.0
  0
LINE
  8
0
 62
     0
 10
233.933
 20
134.192
 30
0.0
 11
233.933
 21
115.139
 31
0.0
  0
LINE
  8
0
 62
     0
 10
233.933
 20
115.139
 30
0.0
 11
176.782
 21
115.139
 31
0.0
  0
LINE
  8
0
 62
     0
 10
176.782
 20
115.139
 30
0.0
 11
176.782
 21
134.192
 31
0.0
  0
LINE
  8
0
 62
     0
 10
136.397
 20
142.094
 30
0.0
 11
135.839
 21
141.81
 31
0.0
  0
LINE
  8
0
 62
     0
 10
135.839
 20
141.81
 30
0.0
 11
135.396
 21
141.366
 31
0.0
  0
LINE
  8
0
 62
     0
 10
135.396
 20
141.366
 30
0.0
 11
135.112
 21
140.809
 31
0.0
  0
LINE
  8
0
 62
     0
 10
135.112
 20
140.809
 30
0.0
 11
135.015
 21
140.191
 31
0.0
  0
LINE
  8
0
 62
     0
 10
135.015
 20
140.191
 30
0.0
 11
135.112
 21
139.573
 31
0.0
  0
LINE
  8
0
 62
     0
 10
135.112
 20
139.573
 30
0.0
 11
135.396
 21
139.015
 31
0.0
  0
LINE
  8
0
 62
     0
 10
135.396
 20
139.015
 30
0.0
 11
135.839
 21
138.573
 31
0.0
  0
LINE
  8
0
 62
     0
 10
135.839
 20
138.573
 30
0.0
 11
136.397
 21
138.289
 31
0.0
  0
LINE
  8
0
 62
     0
 10
136.397
 20
138.289
 30
0.0
 11
137.014
 21
138.191
 31
0.0
  0
LINE
  8
0
 62
     0
 10
137.014
 20
138.191
 30
0.0
 11
137.633
 21
138.289
 31
0.0
  0
LINE
  8
0
 62
     0
 10
137.633
 20
138.289
 30
0.0
 11
138.19
 21
138.573
 31
0.0
  0
LINE
  8
0
 62
     0
 10
138.19
 20
138.573
 30
0.0
 11
138.632
 21
139.015
 31
0.0
  0
LINE
  8
0
 62
     0
 10
138.632
 20
139.015
 30
0.0
 11
138.916
 21
139.573
 31
0.0
  0
LINE
  8
0
 62
     0
 10
138.916
 20
139.573
 30
0.0
 11
139.015
 21
140.191
 31
0.0
  0
LINE
  8
0
 62
     0
 10
139.015
 20
140.191
 30
0.0
 11
138.916
 21
140.809
 31
0.0
  0
LINE
  8
0
 62
     0
 10
138.916
 20
140.809
 30
0.0
 11
138.632
 21
141.366
 31
0.0
  0
LINE
  8
0
 62
     0
 10
138.632
 20
141.366
 30
0.0
 11
138.19
 21
141.81
 31
0.0
  0
LINE
  8
0
 62
     0
 10
138.19
 20
141.81
 30
0.0
 11
137.633
 21
142.094
 31
0.0
  0
LINE
  8
0
 62
     0
 10
137.633
 20
142.094
 30
0.0
 11
137.014
 21
142.19
 31
0.0
  0
LINE
  8
0
 62
     0
 10
137.014
 20
142.19
 30
0.0
 11
136.397
 21
142.094
 31
0.0
  0
LINE
  8
0
 62
     0
 10
269.315
 20
142.094
 30
0.0
 11
268.757
 21
141.81
 31
0.0
  0
LINE
  8
0
 62
     0
 10
268.757
 20
141.81
 30
0.0
 11
268.315
 21
141.366
 31
0.0
  0
LINE
  8
0
 62
     0
 10
268.315
 20
141.366
 30
0.0
 11
268.031
 21
140.809
 31
0.0
  0
LINE
  8
0
 62
     0
 10
268.031
 20
140.809
 30
0.0
 11
267.933
 21
140.191
 31
0.0
  0
LINE
  8
0
 62
     0
 10
267.933
 20
140.191
 30
0.0
 11
268.031
 21
139.573
 31
0.0
  0
LINE
  8
0
 62
     0
 10
268.031
 20
139.573
 30
0.0
 11
268.315
 21
139.015
 31
0.0
  0
LINE
  8
0
 62
     0
 10
268.315
 20
139.015
 30
0.0
 11
268.757
 21
138.573
 31
0.0
  0
LINE
  8
0
 62
     0
 10
268.757
 20
138.573
 30
0.0
 11
269.315
 21
138.289
 31
0.0
  0
LINE
  8
0
 62
     0
 10
269.315
 20
138.289
 30
0.0
 11
269.933
 21
138.191
 31
0.0
  0
LINE
  8
0
 62
     0
 10
269.933
 20
138.191
 30
0.0
 11
270.552
 21
138.289
 31
0.0
  0
LINE
  8
0
 62
     0
 10
270.552
 20
138.289
 30
0.0
 11
271.11
 21
138.573
 31
0.0
  0
LINE
  8
0
 62
     0
 10
271.11
 20
138.573
 30
0.0
 11
271.552
 21
139.015
 31
0.0
  0
LINE
  8
0
 62
     0
 10
271.552
 20
139.015
 30
0.0
 11
271.836
 21
139.573
 31
0.0
  0
LINE
  8
0
 62
     0
 10
271.836
 20
139.573
 30
0.0
 11
271.934
 21
140.191
 31
0.0
  0
LINE
  8
0
 62
     0
 10
271.934
 20
140.191
 30
0.0
 11
271.836
 21
140.809
 31
0.0
  0
LINE
  8
0
 62
     0
 10
271.836
 20
140.809
 30
0.0
 11
271.552
 21
141.366
 31
0.0
  0
LINE
  8
0
 62
     0
 10
271.552
 20
141.366
 30
0.0
 11
271.11
 21
141.81
 31
0.0
  0
LINE
  8
0
 62
     0
 10
271.11
 20
141.81
 30
0.0
 11
270.552
 21
142.094
 31
0.0
  0
LINE
  8
0
 62
     0
 10
270.552
 20
142.094
 30
0.0
 11
269.933
 21
142.19
 31
0.0
  0
LINE
  8
0
 62
     0
 10
269.933
 20
142.19
 30
0.0
 11
269.315
 21
142.094
 31
0.0
  0
LINE
  8
0
 62
     0
 10
3.47679
 20
142.094
 30
0.0
 11
2.92006
 21
141.81
 31
0.0
  0
LINE
  8
0
 62
     0
 10
2.92006
 20
141.81
 30
0.0
 11
2.47633
 21
141.366
 31
0.0
  0
LINE
  8
0
 62
     0
 10
2.47633
 20
141.366
 30
0.0
 11
2.19246
 21
140.809
 31
0.0
  0
LINE
  8
0
 62
     0
 10
2.19246
 20
140.809
 30
0.0
 11
2.09462
 21
140.191
 31
0.0
  0
LINE
  8
0
 62
     0
 10
2.09462
 20
140.191
 30
0.0
 11
2.19246
 21
139.573
 31
0.0
  0
LINE
  8
0
 62
     0
 10
2.19246
 20
139.573
 30
0.0
 11
2.47633
 21
139.015
 31
0.0
  0
LINE
  8
0
 62
     0
 10
2.47633
 20
139.015
 30
0.0
 11
2.92006
 21
138.573
 31
0.0
  0
LINE
  8
0
 62
     0
 10
2.92006
 20
138.573
 30
0.0
 11
3.47679
 21
138.289
 31
0.0
  0
LINE
  8
0
 62
     0
 10
3.47679
 20
138.289
 30
0.0
 11
4.09554
 21
138.191
 31
0.0
  0
LINE
  8
0
 62
     0
 10
4.09554
 20
138.191
 30
0.0
 11
4.7129
 21
138.289
 31
0.0
  0
LINE
  8
0
 62
     0
 10
4.7129
 20
138.289
 30
0.0
 11
5.27099
 21
138.573
 31
0.0
  0
LINE
  8
0
 62
     0
 10
5.27099
 20
138.573
 30
0.0
 11
5.71334
 21
139.015
 31
0.0
  0
LINE
  8
0
 62
     0
 10
5.71334
 20
139.015
 30
0.0
 11
5.99722
 21
139.573
 31
0.0
  0
LINE
  8
0
 62
     0
 10
5.99722
 20
139.573
 30
0.0
 11
6.09505
 21
140.191
 31
0.0
  0
LINE
  8
0
 62
     0
 10
6.09505
 20
140.191
 30
0.0
 11
5.99722
 21
140.809
 31
0.0
  0
LINE
  8
0
 62
     0
 10
5.99722
 20
140.809
 30
0.0
 11
5.71334
 21
141.366
 31
0.0
  0
LINE
  8
0
 62
     0
 10
5.71334
 20
141.366
 30
0.0
 11
5.27099
 21
141.81
 31
0.0
  0
LINE
  8
0
 62
     0
 10
5.27099
 20
141.81
 30
0.0
 11
4.7129
 21
142.094
 31
0.0
  0
LINE
  8
0
 62
     0
 10
4.7129
 20
142.094
 30
0.0
 11
4.09554
 21
142.19
 31
0.0
  0
LINE
  8
0
 62
     0
 10
4.09554
 20
142.19
 30
0.0
 11
3.47679
 21
142.094
 31
0.0
  0
ENDSEC
  0
EOF
