<?xml version="1.0"?>
<!-- Generated by SVGo -->
<svg width="283.839mm" height="153.827mm"
     viewBox="0.000 0.000 283.839 153.827"
     xmlns="http://www.w3.org/2000/svg" 
     xmlns:xlink="http://www.w3.org/1999/xlink">
<polygon points="274.839,5.001 275.153,5.013 275.465,5.050 275.773,5.111 276.075,5.196 276.370,5.305 276.655,5.436 276.929,5.590 277.190,5.764 277.437,5.959 277.667,6.172 277.881,6.403 278.075,6.649 278.250,6.911 278.403,7.185 278.535,7.470 278.643,7.764 278.728,8.067 278.790,8.375 278.827,8.687 278.839,9.001 278.839,144.827 278.827,145.140 278.790,145.452 278.728,145.760 278.643,146.063 278.535,146.357 278.403,146.642 278.250,146.916 278.075,147.178 277.881,147.424 277.667,147.655 277.437,147.868 277.190,148.063 276.929,148.237 276.655,148.391 276.370,148.522 276.075,148.631 275.773,148.716 275.465,148.777 275.153,148.814 274.839,148.826 9.001,148.827 8.687,148.814 8.375,148.777 8.067,148.716 7.764,148.631 7.470,148.522 7.185,148.391 6.911,148.237 6.649,148.063 6.403,147.868 6.172,147.655 5.959,147.424 5.764,147.178 5.590,146.916 5.436,146.642 5.305,146.357 5.196,146.063 5.111,145.760 5.050,145.452 5.013,145.140 5.000,144.827 5.001,9.001 5.013,8.687 5.050,8.375 5.111,8.067 5.196,7.764 5.305,7.470 5.436,7.185 5.590,6.911 5.764,6.649 5.959,6.403 6.172,6.172 6.403,5.959 6.649,5.764 6.911,5.590 7.185,5.436 7.470,5.305 7.764,5.196 8.067,5.111 8.375,5.050 8.687,5.013 9.001,5.000" style="fill:none;stroke-width:0.050000mm;stroke:black"/>
<polygon points="274.221,142.924 273.663,143.208 273.221,143.651 272.937,144.208 272.839,144.827 272.937,145.445 273.221,146.002 273.663,146.445 274.221,146.729 274.839,146.827 275.457,146.729 276.015,146.445 276.457,146.002 276.741,145.445 276.839,144.827 276.741,144.208 276.457,143.651 276.015,143.208 275.457,142.924 274.839,142.827" style="fill:none;stroke-width:0.050000mm;stroke:black"/>
<polygon points="141.302,142.924 140.744,143.208 140.302,143.651 140.018,144.208 139.920,144.827 140.018,145.445 140.302,146.002 140.744,146.445 141.302,146.729 141.920,146.827 142.538,146.729 143.095,146.445 143.538,146.002 143.822,145.445 143.920,144.827 143.822,144.208 143.538,143.651 143.095,143.208 142.538,142.924 141.920,142.827" style="fill:none;stroke-width:0.050000mm;stroke:black"/>
<polygon points="8.382,142.924 7.825,143.208 7.382,143.651 7.098,144.208 7.000,144.827 7.098,145.445 7.382,146.002 7.825,146.445 8.382,146.729 9.001,146.827 9.619,146.729 10.176,146.445 10.619,146.002 10.903,145.445 11.001,144.827 10.903,144.208 10.619,143.651 10.176,143.208 9.619,142.924 9.001,142.827" style="fill:none;stroke-width:0.050000mm;stroke:black"/>
<polygon points="48.482,122.301 48.482,123.301 47.682,123.301 47.682,126.401 48.482,126.401 48.482,127.001 46.957,127.001 46.957,123.771 45.232,123.771 45.232,122.851 41.932,122.851 41.932,123.771 40.207,123.771 40.207,127.001 39.382,127.001 39.382,129.801 40.207,129.801 40.207,136.071 41.932,136.071 41.932,137.051 45.232,137.051 45.232,136.071 46.957,136.071 46.957,131.601 48.482,131.601 48.482,132.201 47.682,132.201 47.682,135.301 48.482,135.301 48.482,136.301 62.482,136.301 62.482,135.301 63.282,135.301 63.282,132.201 62.482,132.201 62.482,131.601 64.007,131.601 64.007,136.071 65.732,136.071 65.732,137.051 69.032,137.051 69.032,136.071 70.757,136.071 70.757,129.801 71.582,129.801 71.582,127.001 70.757,127.001 70.757,123.771 69.032,123.771 69.032,122.851 65.732,122.851 65.732,123.771 64.007,123.771 64.007,127.001 62.482,127.001 62.482,126.401 63.282,126.401 63.282,123.301 62.482,123.301 62.482,122.301" style="fill:none;stroke-width:0.050000mm;stroke:black"/>
<polygon points="86.582,122.301 86.582,123.301 85.782,123.301 85.782,126.401 86.582,126.401 86.582,132.201 85.782,132.201 85.782,135.301 86.582,135.301 86.582,136.301 100.582,136.301 100.582,135.301 101.382,135.301 101.382,132.201 100.582,132.201 100.582,126.401 101.382,126.401 101.382,123.301 100.582,123.301 100.582,122.301" style="fill:none;stroke-width:0.050000mm;stroke:black"/>
<polygon points="110.394,122.301 110.394,123.301 109.594,123.301 109.594,126.401 110.394,126.401 110.394,132.201 109.594,132.201 109.594,135.301 110.394,135.301 110.394,136.301 124.394,136.301 124.394,135.301 125.194,135.301 125.194,132.201 124.394,132.201 124.394,126.401 125.194,126.401 125.194,123.301 124.394,123.301 124.394,122.301" style="fill:none;stroke-width:0.050000mm;stroke:black"/>
<polygon points="134.207,122.301 134.207,123.301 133.407,123.301 133.407,126.401 134.207,126.401 134.207,132.201 133.407,132.201 133.407,135.301 134.207,135.301 134.207,136.301 148.207,136.301 148.207,135.301 149.007,135.301 149.007,132.201 148.207,132.201 148.207,126.401 149.007,126.401 149.007,123.301 148.207,123.301 148.207,122.301" style="fill:none;stroke-width:0.050000mm;stroke:black"/>
<polygon points="158.019,122.301 158.019,123.301 157.219,123.301 157.219,126.401 158.019,126.401 158.019,132.201 157.219,132.201 157.219,135.301 158.019,135.301 158.019,136.301 172.019,136.301 172.019,135.301 172.819,135.301 172.819,132.201 172.019,132.201 172.019,126.401 172.819,126.401 172.819,123.301 172.019,123.301 172.019,122.301" style="fill:none;stroke-width:0.050000mm;stroke:black"/>
<polygon points="184.213,122.301 184.213,123.301 183.413,123.301 183.413,126.401 184.213,126.401 184.213,132.201 183.413,132.201 183.413,135.301 184.213,135.301 184.213,136.301 198.213,136.301 198.213,135.301 199.013,135.301 199.013,132.201 198.213,132.201 198.213,126.401 199.013,126.401 199.013,123.301 198.213,123.301 198.213,122.301" style="fill:none;stroke-width:0.050000mm;stroke:black"/>
<polygon points="203.263,122.301 203.263,123.301 202.463,123.301 202.463,126.401 203.263,126.401 203.263,132.201 202.463,132.201 202.463,135.301 203.263,135.301 203.263,136.301 217.263,136.301 217.263,135.301 218.063,135.301 218.063,132.201 217.263,132.201 217.263,126.401 218.063,126.401 218.063,123.301 217.263,123.301 217.263,122.301" style="fill:none;stroke-width:0.050000mm;stroke:black"/>
<polygon points="222.313,122.301 222.313,123.301 221.513,123.301 221.513,126.401 222.313,126.401 222.313,132.201 221.513,132.201 221.513,135.301 222.313,135.301 222.313,136.301 236.313,136.301 236.313,135.301 237.113,135.301 237.113,132.201 236.313,132.201 236.313,126.401 237.113,126.401 237.113,123.301 236.313,123.301 236.313,122.301" style="fill:none;stroke-width:0.050000mm;stroke:black"/>
<polygon points="143.732,103.251 143.732,104.251 142.932,104.251 142.932,107.351 143.732,107.351 143.732,107.951 142.207,107.951 142.207,104.721 140.482,104.721 140.482,103.801 137.182,103.801 137.182,104.721 135.457,104.721 135.457,107.951 134.632,107.951 134.632,110.751 135.457,110.751 135.457,117.021 137.182,117.021 137.182,118.001 140.482,118.001 140.482,117.021 142.207,117.021 142.207,112.551 143.732,112.551 143.732,113.151 142.932,113.151 142.932,116.251 143.732,116.251 143.732,117.251 157.732,117.251 157.732,116.251 158.532,116.251 158.532,113.151 157.732,113.151 157.732,112.551 159.257,112.551 159.257,117.021 160.982,117.021 160.982,118.001 164.282,118.001 164.282,117.021 166.007,117.021 166.007,110.751 166.832,110.751 166.832,107.951 166.007,107.951 166.007,104.721 164.282,104.721 164.282,103.801 160.982,103.801 160.982,104.721 159.257,104.721 159.257,107.951 157.732,107.951 157.732,107.351 158.532,107.351 158.532,104.251 157.732,104.251 157.732,103.251" style="fill:none;stroke-width:0.050000mm;stroke:black"/>
<polygon points="31.813,103.251 31.813,104.251 31.013,104.251 31.013,107.351 31.813,107.351 31.813,113.151 31.013,113.151 31.013,116.251 31.813,116.251 31.813,117.251 45.813,117.251 45.813,116.251 46.613,116.251 46.613,113.151 45.813,113.151 45.813,107.351 46.613,107.351 46.613,104.251 45.813,104.251 45.813,103.251" style="fill:none;stroke-width:0.050000mm;stroke:black"/>
<polygon points="50.863,103.251 50.863,104.251 50.063,104.251 50.063,107.351 50.863,107.351 50.863,113.151 50.063,113.151 50.063,116.251 50.863,116.251 50.863,117.251 64.862,117.251 64.862,116.251 65.663,116.251 65.663,113.151 64.862,113.151 64.862,107.351 65.663,107.351 65.663,104.251 64.862,104.251 64.862,103.251" style="fill:none;stroke-width:0.050000mm;stroke:black"/>
<polygon points="69.913,103.251 69.913,104.251 69.113,104.251 69.113,107.351 69.913,107.351 69.913,113.151 69.113,113.151 69.113,116.251 69.913,116.251 69.913,117.251 83.913,117.251 83.913,116.251 84.713,116.251 84.713,113.151 83.913,113.151 83.913,107.351 84.713,107.351 84.713,104.251 83.913,104.251 83.913,103.251" style="fill:none;stroke-width:0.050000mm;stroke:black"/>
<polygon points="88.963,103.251 88.963,104.251 88.163,104.251 88.163,107.351 88.963,107.351 88.963,113.151 88.163,113.151 88.163,116.251 88.963,116.251 88.963,117.251 102.963,117.251 102.963,116.251 103.763,116.251 103.763,113.151 102.963,113.151 102.963,107.351 103.763,107.351 103.763,104.251 102.963,104.251 102.963,103.251" style="fill:none;stroke-width:0.050000mm;stroke:black"/>
<polygon points="108.013,103.251 108.013,104.251 107.213,104.251 107.213,107.351 108.013,107.351 108.013,113.151 107.213,113.151 107.213,116.251 108.013,116.251 108.013,117.251 122.013,117.251 122.013,116.251 122.813,116.251 122.813,113.151 122.013,113.151 122.013,107.351 122.813,107.351 122.813,104.251 122.013,104.251 122.013,103.251" style="fill:none;stroke-width:0.050000mm;stroke:black"/>
<polygon points="203.263,103.251 203.263,104.251 202.463,104.251 202.463,107.351 203.263,107.351 203.263,113.151 202.463,113.151 202.463,116.251 203.263,116.251 203.263,117.251 217.263,117.251 217.263,116.251 218.063,116.251 218.063,113.151 217.263,113.151 217.263,107.351 218.063,107.351 218.063,104.251 217.263,104.251 217.263,103.251" style="fill:none;stroke-width:0.050000mm;stroke:black"/>
<polygon points="148.494,84.201 148.494,85.201 147.694,85.201 147.694,88.301 148.494,88.301 148.494,88.901 146.969,88.901 146.969,85.671 145.244,85.671 145.244,84.751 141.944,84.751 141.944,85.671 140.219,85.671 140.219,88.901 139.394,88.901 139.394,91.701 140.219,91.701 140.219,97.971 141.944,97.971 141.944,98.951 145.244,98.951 145.244,97.971 146.969,97.971 146.969,93.501 148.494,93.501 148.494,94.101 147.694,94.101 147.694,97.201 148.494,97.201 148.494,98.201 162.494,98.201 162.494,97.201 163.294,97.201 163.294,94.101 162.494,94.101 162.494,93.501 164.019,93.501 164.019,97.971 165.744,97.971 165.744,98.951 169.044,98.951 169.044,97.971 170.769,97.971 170.769,91.701 171.594,91.701 171.594,88.901 170.769,88.901 170.769,85.671 169.044,85.671 169.044,84.751 165.744,84.751 165.744,85.671 164.019,85.671 164.019,88.901 162.494,88.901 162.494,88.301 163.294,88.301 163.294,85.201 162.494,85.201 162.494,84.201" style="fill:none;stroke-width:0.050000mm;stroke:black"/>
<polygon points="22.288,84.201 22.288,85.201 21.488,85.201 21.488,88.301 22.288,88.301 22.288,94.101 21.488,94.101 21.488,97.201 22.288,97.201 22.288,98.201 36.288,98.201 36.288,97.201 37.088,97.201 37.088,94.101 36.288,94.101 36.288,88.301 37.088,88.301 37.088,85.201 36.288,85.201 36.288,84.201" style="fill:none;stroke-width:0.050000mm;stroke:black"/>
<polygon points="41.338,84.201 41.338,85.201 40.538,85.201 40.538,88.301 41.338,88.301 41.338,94.101 40.538,94.101 40.538,97.201 41.338,97.201 41.338,98.201 55.338,98.201 55.338,97.201 56.138,97.201 56.138,94.101 55.338,94.101 55.338,88.301 56.138,88.301 56.138,85.201 55.338,85.201 55.338,84.201" style="fill:none;stroke-width:0.050000mm;stroke:black"/>
<polygon points="60.388,84.201 60.388,85.201 59.588,85.201 59.588,88.301 60.388,88.301 60.388,94.101 59.588,94.101 59.588,97.201 60.388,97.201 60.388,98.201 74.388,98.201 74.388,97.201 75.188,97.201 75.188,94.101 74.388,94.101 74.388,88.301 75.188,88.301 75.188,85.201 74.388,85.201 74.388,84.201" style="fill:none;stroke-width:0.050000mm;stroke:black"/>
<polygon points="79.438,84.201 79.438,85.201 78.638,85.201 78.638,88.301 79.438,88.301 79.438,94.101 78.638,94.101 78.638,97.201 79.438,97.201 79.438,98.201 93.438,98.201 93.438,97.201 94.238,97.201 94.238,94.101 93.438,94.101 93.438,88.301 94.238,88.301 94.238,85.201 93.438,85.201 93.438,84.201" style="fill:none;stroke-width:0.050000mm;stroke:black"/>
<polygon points="98.488,84.201 98.488,85.201 97.688,85.201 97.688,88.301 98.488,88.301 98.488,94.101 97.688,94.101 97.688,97.201 98.488,97.201 98.488,98.201 112.488,98.201 112.488,97.201 113.288,97.201 113.288,94.101 112.488,94.101 112.488,88.301 113.288,88.301 113.288,85.201 112.488,85.201 112.488,84.201" style="fill:none;stroke-width:0.050000mm;stroke:black"/>
<polygon points="117.538,84.201 117.538,85.201 116.738,85.201 116.738,88.301 117.538,88.301 117.538,94.101 116.738,94.101 116.738,97.201 117.538,97.201 117.538,98.201 131.538,98.201 131.538,97.201 132.338,97.201 132.338,94.101 131.538,94.101 131.538,88.301 132.338,88.301 132.338,85.201 131.538,85.201 131.538,84.201" style="fill:none;stroke-width:0.050000mm;stroke:black"/>
<polygon points="17.526,65.151 17.526,66.151 16.725,66.151 16.725,69.251 17.526,69.251 17.526,75.051 16.725,75.051 16.725,78.151 17.526,78.151 17.526,79.151 31.526,79.151 31.526,78.151 32.324,78.151 32.324,75.051 31.526,75.051 31.526,69.251 32.324,69.251 32.324,66.151 31.526,66.151 31.526,65.151" style="fill:none;stroke-width:0.050000mm;stroke:black"/>
<polygon points="36.576,65.151 36.576,66.151 35.776,66.151 35.776,69.251 36.576,69.251 36.576,75.051 35.776,75.051 35.776,78.151 36.576,78.151 36.576,79.151 50.576,79.151 50.576,78.151 51.376,78.151 51.376,75.051 50.576,75.051 50.576,69.251 51.376,69.251 51.376,66.151 50.576,66.151 50.576,65.151" style="fill:none;stroke-width:0.050000mm;stroke:black"/>
<polygon points="55.626,65.151 55.626,66.151 54.826,66.151 54.826,69.251 55.626,69.251 55.626,75.051 54.826,75.051 54.826,78.151 55.626,78.151 55.626,79.151 69.626,79.151 69.626,78.151 70.426,78.151 70.426,75.051 69.626,75.051 69.626,69.251 70.426,69.251 70.426,66.151 69.626,66.151 69.626,65.151" style="fill:none;stroke-width:0.050000mm;stroke:black"/>
<polygon points="74.676,65.151 74.676,66.151 73.876,66.151 73.876,69.251 74.676,69.251 74.676,75.051 73.876,75.051 73.876,78.151 74.676,78.151 74.676,79.151 88.676,79.151 88.676,78.151 89.476,78.151 89.476,75.051 88.676,75.051 88.676,69.251 89.476,69.251 89.476,66.151 88.676,66.151 88.676,65.151" style="fill:none;stroke-width:0.050000mm;stroke:black"/>
<polygon points="93.726,65.151 93.726,66.151 92.926,66.151 92.926,69.251 93.726,69.251 93.726,75.051 92.926,75.051 92.926,78.151 93.726,78.151 93.726,79.151 107.726,79.151 107.726,78.151 108.525,78.151 108.525,75.051 107.726,75.051 107.726,69.251 108.525,69.251 108.525,66.151 107.726,66.151 107.726,65.151" style="fill:none;stroke-width:0.050000mm;stroke:black"/>
<polygon points="112.775,65.151 112.775,66.151 111.976,66.151 111.976,69.251 112.775,69.251 112.775,75.051 111.976,75.051 111.976,78.151 112.775,78.151 112.775,79.151 126.775,79.151 126.775,78.151 127.575,78.151 127.575,75.051 126.775,75.051 126.775,69.251 127.575,69.251 127.575,66.151 126.775,66.151 126.775,65.151" style="fill:none;stroke-width:0.050000mm;stroke:black"/>
<polygon points="131.826,65.151 131.826,66.151 131.025,66.151 131.025,69.251 131.826,69.251 131.826,75.051 131.025,75.051 131.025,78.151 131.826,78.151 131.826,79.151 145.826,79.151 145.826,78.151 146.626,78.151 146.626,75.051 145.826,75.051 145.826,69.251 146.626,69.251 146.626,66.151 145.826,66.151 145.826,65.151" style="fill:none;stroke-width:0.050000mm;stroke:black"/>
<polygon points="155.638,65.151 155.638,66.151 154.838,66.151 154.838,69.251 155.638,69.251 155.638,75.051 154.838,75.051 154.838,78.151 155.638,78.151 155.638,79.151 169.638,79.151 169.638,78.151 170.438,78.151 170.438,75.051 169.638,75.051 169.638,69.251 170.438,69.251 170.438,66.151 169.638,66.151 169.638,65.151" style="fill:none;stroke-width:0.050000mm;stroke:black"/>
<polygon points="184.213,65.151 184.213,66.151 183.413,66.151 183.413,69.251 184.213,69.251 184.213,75.051 183.413,75.051 183.413,78.151 184.213,78.151 184.213,79.151 198.213,79.151 198.213,78.151 199.013,78.151 199.013,75.051 198.213,75.051 198.213,69.251 199.013,69.251 199.013,66.151 198.213,66.151 198.213,65.151" style="fill:none;stroke-width:0.050000mm;stroke:black"/>
<polygon points="203.263,65.151 203.263,66.151 202.463,66.151 202.463,69.251 203.263,69.251 203.263,75.051 202.463,75.051 202.463,78.151 203.263,78.151 203.263,79.151 217.263,79.151 217.263,78.151 218.063,78.151 218.063,75.051 217.263,75.051 217.263,69.251 218.063,69.251 218.063,66.151 217.263,66.151 217.263,65.151" style="fill:none;stroke-width:0.050000mm;stroke:black"/>
<polygon points="222.313,65.151 222.313,66.151 221.513,66.151 221.513,69.251 222.313,69.251 222.313,75.051 221.513,75.051 221.513,78.151 222.313,78.151 222.313,79.151 236.313,79.151 236.313,78.151 237.113,78.151 237.113,75.051 236.313,75.051 236.313,69.251 237.113,69.251 237.113,66.151 236.313,66.151 236.313,65.151" style="fill:none;stroke-width:0.050000mm;stroke:black"/>
<polygon points="150.876,46.101 150.876,47.101 150.076,47.101 150.076,50.201 150.876,50.201 150.876,50.801 149.351,50.801 149.351,47.571 147.626,47.571 147.626,46.651 144.326,46.651 144.326,47.571 142.601,47.571 142.601,50.801 141.776,50.801 141.776,53.601 142.601,53.601 142.601,59.871 144.326,59.871 144.326,60.851 147.626,60.851 147.626,59.871 149.351,59.871 149.351,55.401 150.876,55.401 150.876,56.001 150.076,56.001 150.076,59.101 150.876,59.101 150.876,60.101 164.876,60.101 164.876,59.101 165.676,59.101 165.676,56.001 164.876,56.001 164.876,55.401 166.401,55.401 166.401,59.871 168.126,59.871 168.126,60.851 171.426,60.851 171.426,59.871 173.151,59.871 173.151,53.601 173.976,53.601 173.976,50.801 173.151,50.801 173.151,47.571 171.426,47.571 171.426,46.651 168.126,46.651 168.126,47.571 166.401,47.571 166.401,50.801 164.876,50.801 164.876,50.201 165.676,50.201 165.676,47.101 164.876,47.101 164.876,46.101" style="fill:none;stroke-width:0.050000mm;stroke:black"/>
<polygon points="27.050,46.101 27.050,47.101 26.250,47.101 26.250,50.201 27.050,50.201 27.050,56.001 26.250,56.001 26.250,59.101 27.050,59.101 27.050,60.101 41.051,60.101 41.051,59.101 41.850,59.101 41.850,56.001 41.051,56.001 41.051,50.201 41.850,50.201 41.850,47.101 41.051,47.101 41.051,46.101" style="fill:none;stroke-width:0.050000mm;stroke:black"/>
<polygon points="46.100,46.101 46.100,47.101 45.301,47.101 45.301,50.201 46.100,50.201 46.100,56.001 45.301,56.001 45.301,59.101 46.100,59.101 46.100,60.101 60.100,60.101 60.100,59.101 60.900,59.101 60.900,56.001 60.100,56.001 60.100,50.201 60.900,50.201 60.900,47.101 60.100,47.101 60.100,46.101" style="fill:none;stroke-width:0.050000mm;stroke:black"/>
<polygon points="65.150,46.101 65.150,47.101 64.350,47.101 64.350,50.201 65.150,50.201 65.150,56.001 64.350,56.001 64.350,59.101 65.150,59.101 65.150,60.101 79.150,60.101 79.150,59.101 79.950,59.101 79.950,56.001 79.150,56.001 79.150,50.201 79.950,50.201 79.950,47.101 79.150,47.101 79.150,46.101" style="fill:none;stroke-width:0.050000mm;stroke:black"/>
<polygon points="84.200,46.101 84.200,47.101 83.400,47.101 83.400,50.201 84.200,50.201 84.200,56.001 83.400,56.001 83.400,59.101 84.200,59.101 84.200,60.101 98.200,60.101 98.200,59.101 99.000,59.101 99.000,56.001 98.200,56.001 98.200,50.201 99.000,50.201 99.000,47.101 98.200,47.101 98.200,46.101" style="fill:none;stroke-width:0.050000mm;stroke:black"/>
<polygon points="103.250,46.101 103.250,47.101 102.450,47.101 102.450,50.201 103.250,50.201 103.250,56.001 102.450,56.001 102.450,59.101 103.250,59.101 103.250,60.101 117.250,60.101 117.250,59.101 118.050,59.101 118.050,56.001 117.250,56.001 117.250,50.201 118.050,50.201 118.050,47.101 117.250,47.101 117.250,46.101" style="fill:none;stroke-width:0.050000mm;stroke:black"/>
<polygon points="122.300,46.101 122.300,47.101 121.500,47.101 121.500,50.201 122.300,50.201 122.300,56.001 121.500,56.001 121.500,59.101 122.300,59.101 122.300,60.101 136.300,60.101 136.300,59.101 137.101,59.101 137.101,56.001 136.300,56.001 136.300,50.201 137.101,50.201 137.101,47.101 136.300,47.101 136.300,46.101" style="fill:none;stroke-width:0.050000mm;stroke:black"/>
<polygon points="184.213,46.101 184.213,47.101 183.413,47.101 183.413,50.201 184.213,50.201 184.213,56.001 183.413,56.001 183.413,59.101 184.213,59.101 184.213,60.101 198.213,60.101 198.213,59.101 199.013,59.101 199.013,56.001 198.213,56.001 198.213,50.201 199.013,50.201 199.013,47.101 198.213,47.101 198.213,46.101" style="fill:none;stroke-width:0.050000mm;stroke:black"/>
<polygon points="203.263,46.101 203.263,47.101 202.463,47.101 202.463,50.201 203.263,50.201 203.263,56.001 202.463,56.001 202.463,59.101 203.263,59.101 203.263,60.101 217.263,60.101 217.263,59.101 218.063,59.101 218.063,56.001 217.263,56.001 217.263,50.201 218.063,50.201 218.063,47.101 217.263,47.101 217.263,46.101" style="fill:none;stroke-width:0.050000mm;stroke:black"/>
<polygon points="222.313,46.101 222.313,47.101 221.513,47.101 221.513,50.201 222.313,50.201 222.313,56.001 221.513,56.001 221.513,59.101 222.313,59.101 222.313,60.101 236.313,60.101 236.313,59.101 237.113,59.101 237.113,56.001 236.313,56.001 236.313,50.201 237.113,50.201 237.113,47.101 236.313,47.101 236.313,46.101" style="fill:none;stroke-width:0.050000mm;stroke:black"/>
<polygon points="36.576,17.526 36.576,18.526 35.776,18.526 35.776,21.626 36.576,21.626 36.576,27.425 35.776,27.425 35.776,30.526 36.576,30.526 36.576,31.526 50.576,31.526 50.576,30.526 51.376,30.526 51.376,27.425 50.576,27.425 50.576,21.626 51.376,21.626 51.376,18.526 50.576,18.526 50.576,17.526" style="fill:none;stroke-width:0.050000mm;stroke:black"/>
<polygon points="55.626,17.526 55.626,18.526 54.826,18.526 54.826,21.626 55.626,21.626 55.626,27.425 54.826,27.425 54.826,30.526 55.626,30.526 55.626,31.526 69.626,31.526 69.626,30.526 70.426,30.526 70.426,27.425 69.626,27.425 69.626,21.626 70.426,21.626 70.426,18.526 69.626,18.526 69.626,17.526" style="fill:none;stroke-width:0.050000mm;stroke:black"/>
<polygon points="74.676,17.526 74.676,18.526 73.876,18.526 73.876,21.626 74.676,21.626 74.676,27.425 73.876,27.425 73.876,30.526 74.676,30.526 74.676,31.526 88.676,31.526 88.676,30.526 89.476,30.526 89.476,27.425 88.676,27.425 88.676,21.626 89.476,21.626 89.476,18.526 88.676,18.526 88.676,17.526" style="fill:none;stroke-width:0.050000mm;stroke:black"/>
<polygon points="103.251,17.526 103.251,18.526 102.451,18.526 102.451,21.626 103.251,21.626 103.251,27.425 102.451,27.425 102.451,30.526 103.251,30.526 103.251,31.526 117.251,31.526 117.251,30.526 118.051,30.526 118.051,27.425 117.251,27.425 117.251,21.626 118.051,21.626 118.051,18.526 117.251,18.526 117.251,17.526" style="fill:none;stroke-width:0.050000mm;stroke:black"/>
<polygon points="122.301,17.526 122.301,18.526 121.501,18.526 121.501,21.626 122.301,21.626 122.301,27.425 121.501,27.425 121.501,30.526 122.301,30.526 122.301,31.526 136.301,31.526 136.301,30.526 137.101,30.526 137.101,27.425 136.301,27.425 136.301,21.626 137.101,21.626 137.101,18.526 136.301,18.526 136.301,17.526" style="fill:none;stroke-width:0.050000mm;stroke:black"/>
<polygon points="141.351,17.526 141.351,18.526 140.551,18.526 140.551,21.626 141.351,21.626 141.351,27.425 140.551,27.425 140.551,30.526 141.351,30.526 141.351,31.526 155.351,31.526 155.351,30.526 156.151,30.526 156.151,27.425 155.351,27.425 155.351,21.626 156.151,21.626 156.151,18.526 155.351,18.526 155.351,17.526" style="fill:none;stroke-width:0.050000mm;stroke:black"/>
<polygon points="160.401,17.526 160.401,18.526 159.601,18.526 159.601,21.626 160.401,21.626 160.401,27.425 159.601,27.425 159.601,30.526 160.401,30.526 160.401,31.526 174.401,31.526 174.401,30.526 175.201,30.526 175.201,27.425 174.401,27.425 174.401,21.626 175.201,21.626 175.201,18.526 174.401,18.526 174.401,17.526" style="fill:none;stroke-width:0.050000mm;stroke:black"/>
<polygon points="184.213,17.526 184.213,18.526 183.413,18.526 183.413,21.626 184.213,21.626 184.213,27.425 183.413,27.425 183.413,30.526 184.213,30.526 184.213,31.526 198.213,31.526 198.213,30.526 199.013,30.526 199.013,27.425 198.213,27.425 198.213,21.626 199.013,21.626 199.013,18.526 198.213,18.526 198.213,17.526" style="fill:none;stroke-width:0.050000mm;stroke:black"/>
<polygon points="203.263,17.526 203.263,18.526 202.463,18.526 202.463,21.626 203.263,21.626 203.263,27.425 202.463,27.425 202.463,30.526 203.263,30.526 203.263,31.526 217.263,31.526 217.263,30.526 218.063,30.526 218.063,27.425 217.263,27.425 217.263,21.626 218.063,21.626 218.063,18.526 217.263,18.526 217.263,17.526" style="fill:none;stroke-width:0.050000mm;stroke:black"/>
<polygon points="222.313,17.526 222.313,18.526 221.513,18.526 221.513,21.626 222.313,21.626 222.313,27.425 221.513,27.425 221.513,30.526 222.313,30.526 222.313,31.526 236.313,31.526 236.313,30.526 237.113,30.526 237.113,27.425 236.313,27.425 236.313,21.626 237.113,21.626 237.113,18.526 236.313,18.526 236.313,17.526" style="fill:none;stroke-width:0.050000mm;stroke:black"/>
<polygon points="141.302,7.098 140.744,7.382 140.302,7.825 140.018,8.382 139.920,9.001 140.018,9.619 140.302,10.176 140.744,10.619 141.302,10.903 141.920,11.001 142.538,10.903 143.095,10.619 143.538,10.176 143.822,9.619 143.920,9.001 143.822,8.382 143.538,7.825 143.095,7.382 142.538,7.098 141.920,7.001" style="fill:none;stroke-width:0.050000mm;stroke:black"/>
<polygon points="274.221,7.098 273.663,7.382 273.221,7.825 272.937,8.382 272.839,9.001 272.937,9.619 273.221,10.176 273.663,10.619 274.221,10.903 274.839,11.001 275.457,10.903 276.015,10.619 276.457,10.176 276.741,9.619 276.839,9.001 276.741,8.382 276.457,7.825 276.015,7.382 275.457,7.098 274.839,7.001" style="fill:none;stroke-width:0.050000mm;stroke:black"/>
<polygon points="8.382,7.098 7.825,7.382 7.382,7.825 7.098,8.382 7.000,9.001 7.098,9.619 7.382,10.176 7.825,10.619 8.382,10.903 9.001,11.001 9.619,10.903 10.176,10.619 10.619,10.176 10.903,9.619 11.001,9.001 10.903,8.382 10.619,7.825 10.176,7.382 9.619,7.098 9.001,7.001" style="fill:none;stroke-width:0.050000mm;stroke:black"/>
</svg>
