<?xml version="1.0"?>
<!-- Generated by SVGo -->
<svg width="283.839mm" height="153.827mm"
     viewBox="0.000 0.000 283.839 153.827"
     xmlns="http://www.w3.org/2000/svg" 
     xmlns:xlink="http://www.w3.org/1999/xlink">
<polygon points="274.839,5.001 275.153,5.013 275.465,5.050 275.773,5.111 276.075,5.196 276.370,5.305 276.655,5.436 276.929,5.590 277.190,5.764 277.437,5.959 277.667,6.172 277.881,6.403 278.075,6.649 278.250,6.911 278.403,7.185 278.535,7.470 278.643,7.764 278.728,8.067 278.790,8.375 278.827,8.687 278.839,9.001 278.839,144.827 278.827,145.140 278.790,145.452 278.728,145.760 278.643,146.063 278.535,146.357 278.403,146.642 278.250,146.916 278.075,147.178 277.881,147.424 277.667,147.655 277.437,147.868 277.190,148.063 276.929,148.237 276.655,148.391 276.370,148.522 276.075,148.631 275.773,148.716 275.465,148.777 275.153,148.814 274.839,148.826 9.001,148.827 8.687,148.814 8.375,148.777 8.067,148.716 7.764,148.631 7.470,148.522 7.185,148.391 6.911,148.237 6.649,148.063 6.403,147.868 6.172,147.655 5.959,147.424 5.764,147.178 5.590,146.916 5.436,146.642 5.305,146.357 5.196,146.063 5.111,145.760 5.050,145.452 5.013,145.140 5.000,144.827 5.001,9.001 5.013,8.687 5.050,8.375 5.111,8.067 5.196,7.764 5.305,7.470 5.436,7.185 5.590,6.911 5.764,6.649 5.959,6.403 6.172,6.172 6.403,5.959 6.649,5.764 6.911,5.590 7.185,5.436 7.470,5.305 7.764,5.196 8.067,5.111 8.375,5.050 8.687,5.013 9.001,5.000" style="fill:none;stroke-width:0.050000mm;stroke:black"/>
<polygon points="274.221,142.924 273.663,143.208 273.221,143.651 272.937,144.208 272.839,144.827 272.937,145.445 273.221,146.002 273.663,146.445 274.221,146.729 274.839,146.827 275.457,146.729 276.015,146.445 276.457,146.002 276.741,145.445 276.839,144.827 276.741,144.208 276.457,143.651 276.015,143.208 275.457,142.924 274.839,142.827" style="fill:none;stroke-width:0.050000mm;stroke:black"/>
<polygon points="141.302,142.924 140.744,143.208 140.302,143.651 140.018,144.208 139.920,144.827 140.018,145.445 140.302,146.002 140.744,146.445 141.302,146.729 141.920,146.827 142.538,146.729 143.095,146.445 143.538,146.002 143.822,145.445 143.920,144.827 143.822,144.208 143.538,143.651 143.095,143.208 142.538,142.924 141.920,142.827" style="fill:none;stroke-width:0.050000mm;stroke:black"/>
<polygon points="8.382,142.924 7.825,143.208 7.382,143.651 7.098,144.208 7.000,144.827 7.098,145.445 7.382,146.002 7.825,146.445 8.382,146.729 9.001,146.827 9.619,146.729 10.176,146.445 10.619,146.002 10.903,145.445 11.001,144.827 10.903,144.208 10.619,143.651 10.176,143.208 9.619,142.924 9.001,142.827" style="fill:none;stroke-width:0.050000mm;stroke:black"/>
<polygon points="24.524,43.575 24.524,62.625 14.999,62.625 14.999,81.677 19.762,81.677 19.762,100.727 29.287,100.727 29.287,138.827 176.927,138.827 176.927,43.575" style="fill:none;stroke-width:0.050000mm;stroke:black"/>
<polygon points="200.737,100.725 200.737,119.775 181.687,119.775 181.687,138.827 238.839,138.827 238.839,119.775 219.789,119.775 219.789,100.725" style="fill:none;stroke-width:0.050000mm;stroke:black"/>
<polygon points="181.687,43.575 181.687,81.677 238.839,81.677 238.839,43.575" style="fill:none;stroke-width:0.050000mm;stroke:black"/>
<polygon points="34.050,14.999 34.050,34.052 91.202,34.052 91.202,14.999" style="fill:none;stroke-width:0.050000mm;stroke:black"/>
<polygon points="100.725,14.999 100.725,34.052 176.927,34.052 176.927,14.999" style="fill:none;stroke-width:0.050000mm;stroke:black"/>
<polygon points="181.687,14.999 181.687,34.052 238.839,34.052 238.839,14.999" style="fill:none;stroke-width:0.050000mm;stroke:black"/>
<polygon points="141.302,7.098 140.744,7.382 140.302,7.825 140.018,8.382 139.920,9.001 140.018,9.619 140.302,10.176 140.744,10.619 141.302,10.903 141.920,11.001 142.538,10.903 143.095,10.619 143.538,10.176 143.822,9.619 143.920,9.001 143.822,8.382 143.538,7.825 143.095,7.382 142.538,7.098 141.920,7.001" style="fill:none;stroke-width:0.050000mm;stroke:black"/>
<polygon points="274.221,7.098 273.663,7.382 273.221,7.825 272.937,8.382 272.839,9.001 272.937,9.619 273.221,10.176 273.663,10.619 274.221,10.903 274.839,11.001 275.457,10.903 276.015,10.619 276.457,10.176 276.741,9.619 276.839,9.001 276.741,8.382 276.457,7.825 276.015,7.382 275.457,7.098 274.839,7.001" style="fill:none;stroke-width:0.050000mm;stroke:black"/>
<polygon points="8.382,7.098 7.825,7.382 7.382,7.825 7.098,8.382 7.000,9.001 7.098,9.619 7.382,10.176 7.825,10.619 8.382,10.903 9.001,11.001 9.619,10.903 10.176,10.619 10.619,10.176 10.903,9.619 11.001,9.001 10.903,8.382 10.619,7.825 10.176,7.382 9.619,7.098 9.001,7.001" style="fill:none;stroke-width:0.050000mm;stroke:black"/>
</svg>
